<svg width="4967" height="1363" xmlns="http://www.w3.org/2000/svg" xmlns:xlink="http://www.w3.org/1999/xlink" xml:space="preserve" overflow="hidden"><defs><clipPath id="clip0"><rect x="-5361" y="1796" width="4967" height="1363"/></clipPath><clipPath id="clip1"><rect x="-4898" y="2193" width="687" height="662"/></clipPath><clipPath id="clip2"><rect x="-4898" y="2193" width="687" height="662"/></clipPath><clipPath id="clip3"><rect x="-4898" y="2178" width="687" height="690"/></clipPath><clipPath id="clip4"><rect x="-4898" y="2178" width="687" height="690"/></clipPath><clipPath id="clip5"><rect x="-3220" y="2055" width="785" height="789"/></clipPath><clipPath id="clip6"><rect x="-3197" y="2055" width="762" height="789"/></clipPath><clipPath id="clip7"><rect x="-3197" y="2055" width="787" height="789"/></clipPath><clipPath id="clip8"><rect x="-3197" y="2055" width="787" height="789"/></clipPath><clipPath id="clip9"><rect x="-1524" y="2068" width="785" height="787"/></clipPath><clipPath id="clip10"><rect x="-1524" y="2068" width="785" height="787"/></clipPath><clipPath id="clip11"><rect x="-1524" y="2068" width="785" height="787"/></clipPath><clipPath id="clip12"><rect x="-1524" y="2068" width="785" height="787"/></clipPath></defs><g clip-path="url(#clip0)" transform="translate(5361 -1796)"><g clip-path="url(#clip1)"><g clip-path="url(#clip2)"><g clip-path="url(#clip3)"><g clip-path="url(#clip4)"><path d="M780.528 260.176C786.785 260.176 791.84 255.12 791.84 248.864L791.84 101.808C791.84 70.6191 766.469 45.248 735.279 45.248L169.68 45.248C138.491 45.248 113.12 70.6191 113.12 101.808L113.12 486.415C113.12 517.605 138.491 542.976 169.68 542.976L338.597 542.976C334.976 576.367 315.656 606.505 286.133 623.382L268.484 633.472 260.171 633.472C228.982 633.472 203.611 658.842 203.611 690.031 203.611 696.288 208.666 701.343 214.923 701.343L373.291 701.343C379.548 701.343 384.603 696.288 384.603 690.031 384.603 683.775 379.548 678.719 373.291 678.719L228.174 678.719C232.846 665.554 245.425 656.096 260.177 656.096L644.784 656.096C659.534 656.096 672.115 665.554 676.786 678.719L418.549 678.719C412.292 678.719 407.237 683.775 407.237 690.031 407.237 696.288 412.292 701.343 418.549 701.343L690.038 701.343C696.294 701.343 701.35 696.288 701.35 690.031 701.35 658.842 675.978 633.472 644.789 633.472L636.477 633.472 618.833 623.382C589.31 606.504 569.989 576.372 566.368 542.976L735.285 542.976C766.475 542.976 791.845 517.605 791.845 486.415L791.845 294.111C791.845 287.855 786.791 282.799 780.533 282.799 774.276 282.799 769.221 287.855 769.221 294.111L769.221 486.415C769.221 505.127 753.997 520.351 735.285 520.351L169.686 520.351C150.975 520.351 135.749 505.127 135.749 486.415L135.749 101.808C135.749 83.0973 150.975 67.8719 169.686 67.8719L735.285 67.8719C753.997 67.8719 769.221 83.0973 769.221 101.808L769.221 248.864C769.221 255.12 774.276 260.176 780.533 260.176ZM543.48 542.976C546.672 578.78 564.846 611.685 593.231 633.472L311.738 633.472C340.13 611.685 358.299 578.78 361.49 542.976Z" fill="#0D856E" transform="matrix(1 0 0 1.00095 -5006.8 2149.71)"/><path d="M418.544 395.92C424.801 395.92 429.856 390.865 429.856 384.608L429.856 339.36C429.856 333.102 424.801 328.048 418.544 328.048L401.959 328.048C399.97 321.725 397.435 315.604 394.344 309.732L406.086 297.99C410.51 293.566 410.51 286.415 406.086 281.998L374.094 250.005C369.67 245.582 362.52 245.582 358.1 250.005L346.36 261.747C340.476 258.671 334.355 256.126 328.043 254.131L328.048 237.553C328.048 231.295 322.993 226.24 316.736 226.24L271.489 226.24C265.231 226.24 260.177 231.295 260.177 237.553L260.177 254.136C253.853 256.126 247.732 258.661 241.86 261.752L230.119 250.01C225.694 245.587 218.544 245.587 214.126 250.01L182.133 282.003C177.71 286.426 177.71 293.577 182.133 297.995L193.875 309.737C190.789 315.605 188.254 321.725 186.265 328.048L169.68 328.048C163.423 328.048 158.368 333.102 158.368 339.36L158.368 384.608C158.368 390.865 163.423 395.92 169.68 395.92L186.265 395.92C188.254 402.242 190.789 408.363 193.88 414.237L182.138 425.977C177.715 430.401 177.715 437.552 182.138 441.971 186.563 446.394 193.713 446.394 198.132 441.971L215.994 424.109C219.725 420.378 220.381 414.549 217.564 410.08 212.125 401.424 208.211 392.016 205.949 382.093 204.767 376.952 200.187 373.296 194.905 373.296L180.991 373.296 180.991 350.672 194.905 350.672C200.187 350.672 204.757 347.016 205.934 341.87 208.196 331.952 212.11 322.538 217.548 313.883 220.366 309.404 219.71 303.592 215.979 299.854L206.116 289.991 222.108 273.999 231.971 283.86C235.703 287.603 241.541 288.249 246.001 285.431 254.657 279.993 264.066 276.079 273.987 273.817 279.143 272.64 282.799 268.059 282.799 262.777L282.799 248.864 305.423 248.864 305.423 262.777C305.423 268.059 309.08 272.63 314.225 273.806 324.145 276.069 333.557 279.983 342.212 285.421 346.682 288.239 352.493 287.593 356.242 283.85L366.104 273.987 382.098 289.981 372.235 299.844C368.502 303.576 367.846 309.404 370.664 313.873 376.103 322.529 380.017 331.937 382.279 341.86 383.456 347.016 388.037 350.672 393.318 350.672L407.232 350.672 407.232 373.296 393.318 373.296C388.037 373.296 383.467 376.952 382.289 382.098 380.027 392.016 376.114 401.429 370.674 410.085 367.856 414.565 368.514 420.376 372.245 424.114L382.108 433.977 366.114 449.97 356.252 440.107C352.51 436.365 346.682 435.719 342.222 438.537 333.567 443.976 324.158 447.889 314.237 450.152 309.08 451.328 305.423 455.908 305.423 461.191L305.423 475.105 282.799 475.105 282.799 461.191C282.799 455.908 279.143 451.338 273.998 450.162 264.079 447.9 254.667 443.986 246.011 438.547 241.542 435.729 235.719 436.375 231.981 440.118L214.12 457.979C209.697 462.403 209.697 469.553 214.12 473.972 218.544 478.397 225.694 478.397 230.114 473.972L241.855 462.231C247.738 465.306 253.859 467.851 260.171 469.846L260.176 486.415C260.176 492.672 265.231 497.727 271.488 497.727L316.736 497.727C322.993 497.727 328.048 492.672 328.048 486.415L328.048 469.831C334.371 467.841 340.492 465.306 346.365 462.215L358.105 473.957C362.53 478.38 369.68 478.38 374.099 473.957L406.091 441.965C410.515 437.542 410.515 430.39 406.091 425.972L394.349 414.23C397.424 408.347 399.97 402.227 401.964 395.914Z" fill="#0D856E" transform="matrix(1 0 0 1.00095 -5006.8 2149.71)"/><path d="M294.111 418.544C325.301 418.544 350.672 393.172 350.672 361.984 350.672 330.795 325.301 305.423 294.111 305.423 262.923 305.423 237.552 330.795 237.552 361.984 237.552 393.172 262.923 418.544 294.111 418.544ZM294.111 328.048C312.823 328.048 328.048 343.273 328.048 361.984 328.048 380.694 312.823 395.92 294.111 395.92 275.401 395.92 260.176 380.694 260.176 361.984 260.176 343.273 275.401 328.048 294.111 328.048Z" fill="#0D856E" transform="matrix(1 0 0 1.00095 -5006.8 2149.71)"/><path d="M585.742 117.362C581.828 112.488 574.723 111.685 569.838 115.599L513.279 160.847C510.598 162.994 509.037 166.24 509.037 169.679 509.037 173.119 510.598 176.366 513.279 178.512L569.838 223.76C571.93 225.437 574.42 226.24 576.898 226.24 580.227 226.24 583.504 224.781 585.747 221.998 589.649 217.11 588.847 209.993 583.983 206.095L538.458 169.679 583.978 133.263C588.852 129.366 589.644 122.25 585.742 117.361Z" fill="#0D856E" transform="matrix(1 0 0 1.00095 -5006.8 2149.71)"/><path d="M742.352 160.851 685.791 115.602C680.903 111.688 673.803 112.512 669.889 117.365 665.985 122.253 666.788 129.368 671.651 133.267L717.171 169.683 671.651 206.098C666.778 210.012 665.985 217.127 669.889 222.002 672.126 224.794 675.408 226.244 678.731 226.244 681.211 226.244 683.695 225.44 685.791 223.764L742.35 178.516C745.032 176.369 746.592 173.122 746.592 169.683 746.592 166.244 745.032 162.997 742.35 160.851Z" fill="#0D856E" transform="matrix(1 0 0 1.00095 -5006.8 2149.71)"/><path d="M606.866 225.528C608.188 226.004 609.522 226.241 610.845 226.241 615.415 226.241 619.738 223.448 621.445 218.908L655.382 128.412C657.562 122.554 654.614 116.035 648.766 113.842 642.907 111.681 636.378 114.6 634.196 120.458L600.26 210.954C598.063 216.807 601.028 223.321 606.865 225.527Z" fill="#0D856E" transform="matrix(1 0 0 1.00095 -5006.8 2149.71)"/><path d="M463.792 294.111C463.792 300.368 468.847 305.423 475.104 305.423L520.351 305.423C526.609 305.423 531.663 300.368 531.663 294.111 531.663 287.855 526.609 282.799 520.351 282.799L475.104 282.799C468.847 282.799 463.792 287.855 463.792 294.111Z" fill="#0D856E" transform="matrix(1 0 0 1.00095 -5006.8 2149.71)"/><path d="M576.912 294.111C576.912 300.358 571.847 305.423 565.6 305.423 559.353 305.423 554.288 300.358 554.288 294.111 554.288 287.865 559.353 282.799 565.6 282.799 571.847 282.799 576.912 287.865 576.912 294.111" fill="#0D856E" transform="matrix(1 0 0 1.00095 -5006.8 2149.71)"/><path d="M622.16 339.36C622.16 333.102 617.105 328.048 610.848 328.048L565.6 328.048C559.343 328.048 554.288 333.102 554.288 339.36 554.288 345.617 559.343 350.672 565.6 350.672L610.848 350.672C617.105 350.672 622.16 345.617 622.16 339.36Z" fill="#0D856E" transform="matrix(1 0 0 1.00095 -5006.8 2149.71)"/><path d="M667.408 339.36C667.408 345.607 662.342 350.672 656.096 350.672 649.849 350.672 644.784 345.607 644.784 339.36 644.784 333.112 649.849 328.048 656.096 328.048 662.342 328.048 667.408 333.112 667.408 339.36" fill="#0D856E" transform="matrix(1 0 0 1.00095 -5006.8 2149.71)"/><path d="M486.415 384.608C486.415 390.855 481.35 395.92 475.104 395.92 468.857 395.92 463.792 390.855 463.792 384.608 463.792 378.361 468.857 373.296 475.104 373.296 481.35 373.296 486.415 378.361 486.415 384.608" fill="#0D856E" transform="matrix(1 0 0 1.00095 -5006.8 2149.71)"/><path d="M588.224 384.608C588.224 390.855 583.159 395.92 576.912 395.92 570.665 395.92 565.6 390.855 565.6 384.608 565.6 378.361 570.665 373.296 576.912 373.296 583.159 373.296 588.224 378.361 588.224 384.608" fill="#0D856E" transform="matrix(1 0 0 1.00095 -5006.8 2149.71)"/><path d="M701.343 384.608C701.343 390.855 696.278 395.92 690.031 395.92 683.785 395.92 678.719 390.855 678.719 384.608 678.719 378.361 683.785 373.296 690.031 373.296 696.278 373.296 701.343 378.361 701.343 384.608" fill="#0D856E" transform="matrix(1 0 0 1.00095 -5006.8 2149.71)"/><path d="M633.472 429.856C633.472 436.102 628.406 441.168 622.16 441.168 615.913 441.168 610.848 436.102 610.848 429.856 610.848 423.609 615.913 418.544 622.16 418.544 628.406 418.544 633.472 423.609 633.472 429.856" fill="#0D856E" transform="matrix(1 0 0 1.00095 -5006.8 2149.71)"/><path d="M610.848 305.423 644.784 305.423C651.04 305.423 656.096 300.368 656.096 294.111 656.096 287.855 651.04 282.799 644.784 282.799L610.848 282.799C604.591 282.799 599.536 287.855 599.536 294.111 599.536 300.368 604.591 305.423 610.848 305.423Z" fill="#0D856E" transform="matrix(1 0 0 1.00095 -5006.8 2149.71)"/><path d="M735.279 282.799 690.031 282.799C683.775 282.799 678.719 287.855 678.719 294.111 678.719 300.368 683.775 305.423 690.031 305.423L735.279 305.423C741.537 305.423 746.591 300.368 746.591 294.111 746.591 287.855 741.537 282.799 735.279 282.799Z" fill="#0D856E" transform="matrix(1 0 0 1.00095 -5006.8 2149.71)"/><path d="M475.104 350.672 520.351 350.672C526.609 350.672 531.663 345.617 531.663 339.36 531.663 333.102 526.609 328.048 520.351 328.048L475.104 328.048C468.847 328.048 463.792 333.102 463.792 339.36 463.792 345.617 468.847 350.672 475.104 350.672Z" fill="#0D856E" transform="matrix(1 0 0 1.00095 -5006.8 2149.71)"/><path d="M735.279 328.048 701.343 328.048C695.087 328.048 690.031 333.102 690.031 339.36 690.031 345.617 695.087 350.672 701.343 350.672L735.279 350.672C741.537 350.672 746.591 345.617 746.591 339.36 746.591 333.102 741.537 328.048 735.279 328.048Z" fill="#0D856E" transform="matrix(1 0 0 1.00095 -5006.8 2149.71)"/><path d="M656.096 384.608C656.096 378.351 651.04 373.296 644.784 373.296L622.16 373.296C615.903 373.296 610.848 378.351 610.848 384.608 610.848 390.865 615.903 395.92 622.16 395.92L644.784 395.92C651.04 395.92 656.096 390.865 656.096 384.608Z" fill="#0D856E" transform="matrix(1 0 0 1.00095 -5006.8 2149.71)"/><path d="M520.351 373.296C514.094 373.296 509.039 378.351 509.039 384.608 509.039 390.865 514.094 395.92 520.351 395.92L531.663 395.92C537.921 395.92 542.976 390.865 542.976 384.608 542.976 378.351 537.921 373.296 531.663 373.296Z" fill="#0D856E" transform="matrix(1 0 0 1.00095 -5006.8 2149.71)"/><path d="M746.591 384.608C746.591 390.855 741.526 395.92 735.279 395.92 729.032 395.92 723.967 390.855 723.967 384.608 723.967 378.361 729.032 373.296 735.279 373.296 741.526 373.296 746.591 378.361 746.591 384.608" fill="#0D856E" transform="matrix(1 0 0 1.00095 -5006.8 2149.71)"/><path d="M475.104 441.168 576.912 441.168C583.169 441.168 588.224 436.113 588.224 429.856 588.224 423.599 583.169 418.544 576.912 418.544L475.104 418.544C468.847 418.544 463.792 423.599 463.792 429.856 463.792 436.113 468.847 441.168 475.104 441.168Z" fill="#0D856E" transform="matrix(1 0 0 1.00095 -5006.8 2149.71)"/><path d="M667.408 441.168 735.279 441.168C741.537 441.168 746.591 436.113 746.591 429.856 746.591 423.599 741.537 418.544 735.279 418.544L667.408 418.544C661.151 418.544 656.096 423.599 656.096 429.856 656.096 436.113 661.151 441.168 667.408 441.168Z" fill="#0D856E" transform="matrix(1 0 0 1.00095 -5006.8 2149.71)"/><path d="M226.24 203.616C232.497 203.616 237.552 198.561 237.552 192.304L237.552 147.056C237.552 140.8 232.497 135.744 226.24 135.744L180.992 135.744C174.735 135.744 169.68 140.8 169.68 147.056L169.68 192.304C169.68 198.561 174.735 203.616 180.992 203.616ZM192.304 158.368 214.928 158.368 214.928 180.992 192.304 180.992Z" fill="#0D856E" transform="matrix(1 0 0 1.00095 -5006.8 2149.71)"/><path d="M271.488 203.616 316.735 203.616C322.993 203.616 328.048 198.561 328.048 192.304L328.048 124.432C328.048 118.175 322.993 113.12 316.735 113.12L271.488 113.12C265.231 113.12 260.176 118.175 260.176 124.432L260.176 192.304C260.176 198.561 265.231 203.616 271.488 203.616ZM282.799 135.744 305.423 135.744 305.423 180.992 282.799 180.992Z" fill="#0D856E" transform="matrix(1 0 0 1.00095 -5006.8 2149.71)"/><path d="M407.232 203.616C413.489 203.616 418.544 198.561 418.544 192.304L418.544 101.808C418.544 95.5511 413.489 90.4959 407.232 90.4959L361.984 90.4959C355.727 90.4959 350.672 95.5511 350.672 101.808L350.672 192.304C350.672 198.561 355.727 203.616 361.984 203.616 368.241 203.616 373.296 198.561 373.296 192.304L373.296 113.12 395.92 113.12 395.92 192.304C395.92 198.561 400.975 203.616 407.232 203.616Z" fill="#0D856E" transform="matrix(1 0 0 1.00095 -5006.8 2149.71)"/><path d="M37.8946-2.2624C35.9403-1.2524 33.9001-0.489842 31.7739 0.0201677 29.658 0.545367 27.4562 0.807973 25.1685 0.807973 18.3004 0.807973 12.8516-1.11106 8.82619-4.94899 4.81142-8.78706 2.80667-13.9986 2.80667-20.5841 2.80667-27.1696 4.81154-32.3809 8.82619-36.2192 12.8511-40.0573 18.2999-41.9762 25.1685-41.9762 27.4561-41.9762 29.658-41.7186 31.7739-41.2086 33.9-40.6935 35.9403-39.9258 37.8946-38.9059L37.8946-30.3815C35.915-31.7247 33.9656-32.7094 32.0567-33.3305 30.1428-33.9618 28.1279-34.2799 26.0169-34.2799 22.2194-34.2799 19.2348-33.0579 17.0683-30.6238 14.8968-28.1998 13.8161-24.8517 13.8161-20.5844 13.8161-16.3273 14.8968-12.9792 17.0683-10.545 19.2348-8.12105 22.2194-6.90905 26.0169-6.90905 28.1279-6.90905 30.1428-7.21709 32.0567-7.83825 33.9657-8.46949 35.915-9.45929 37.8946-10.8077Z" fill="#0D856E" transform="matrix(1 0 0 1.00095 -4916.3 3044.21)"/><path d="M27.7345-22.5024C26.8558-22.9064 25.987-23.1994 25.1287-23.3913 24.2803-23.5933 23.4217-23.6942 22.5633-23.6942 20.018-23.6942 18.0586-22.8762 16.685-21.2501 15.3215-19.619 14.6448-17.2809 14.6448-14.2407L14.6448 0.000801536 4.7469 0.000801536 4.7469-30.9256 14.6448-30.9256 14.6448-25.8553C15.9073-27.8754 17.3618-29.3499 19.0081-30.2791 20.6644-31.2084 22.644-31.6729 24.9469-31.6729 25.2701-31.6729 25.6237-31.6578 26.0174-31.6325 26.4063-31.6023 26.9669-31.5416 27.6941-31.4507Z" fill="#0D856E" transform="matrix(1 0 0 1.00095 -4874.79 3044.21)"/><path d="M35.6322-15.5536 35.6322-12.7257 12.5027-12.7257C12.745-10.4077 13.5783-8.67054 15.0074-7.51414 16.4468-6.35264 18.4617-5.77688 21.0474-5.77688 23.1178-5.77688 25.2488-6.07988 27.4305-6.68586 29.6121-7.30196 31.8543-8.24123 34.157-9.4937L34.157-1.87833C31.824-0.989535 29.4908-0.322967 27.1476 0.121497 24.8044 0.575993 22.4662 0.808298 20.1382 0.808298 14.5327 0.808298 10.1796-0.610809 7.06929-3.45393 3.96864-6.30714 2.42323-10.3018 2.42323-15.4325 2.42323-20.4824 3.9433-24.4468 6.98836-27.3302 10.0436-30.224 14.2402-31.6733 19.573-31.6733 24.4311-31.6733 28.3246-30.2037 31.2486-27.2698 34.1674-24.3458 35.6318-20.4422 35.6318-15.5538ZM25.4714-18.8259C25.4714-20.7096 24.916-22.2247 23.8151-23.3709 22.7244-24.5274 21.2952-25.1082 19.5328-25.1082 17.6036-25.1082 16.0432-24.5679 14.8464-23.4922 13.6597-22.4116 12.9172-20.8561 12.6244-18.8259Z" fill="#0D856E" transform="matrix(1 0 0 1.00095 -4846.9 3044.21)"/><path d="M18.6047-13.9183C16.5442-13.9183 14.9938-13.5648 13.9587-12.8678 12.9183-12.1659 12.4032-11.1358 12.4032-9.77731 12.4032-8.52491 12.8173-7.54012 13.6556-6.82818 14.4889-6.12623 15.6555-5.77778 17.1503-5.77778 19.0086-5.77778 20.569-6.44437 21.8365-7.7776 23.1143-9.11074 23.7557-10.7773 23.7557-12.7873L23.7557-13.9184ZM33.715-17.6553 33.715-0.000775679 23.7563-0.000775679 23.7563-4.58621C22.4233-2.71268 20.9283-1.34412 19.2719-0.485576 17.6154 0.372973 15.6007 0.807224 13.2321 0.807224 10.0253 0.807224 7.41951-0.12703 5.41463-2.0006 3.41985-3.86909 2.42504-6.29309 2.42504-9.2726 2.42504-12.9085 3.66734-15.565 6.162-17.2516 8.6668-18.9485 12.5857-19.7969 17.9185-19.7969L23.7562-19.7969 23.7562-20.5847C23.7562-22.1451 23.135-23.2915 21.8979-24.0186 20.6707-24.7458 18.7466-25.1095 16.1205-25.1095 14.0047-25.1095 12.0402-24.8923 10.2222-24.4631 8.40423-24.0439 6.70731-23.4127 5.13177-22.5642L5.13177-30.0988C7.25777-30.6239 9.38391-31.0128 11.515-31.2703 13.6561-31.538 15.7873-31.6743 17.9183-31.6743 23.5037-31.6743 27.5335-30.5683 29.998-28.3615 32.4725-26.1649 33.7148-22.5944 33.7148-17.6557Z" fill="#0D856E" transform="matrix(1 0 0 1.00095 -4808.54 3044.21)"/><path d="M15.5536-39.7135 15.5536-30.9264 25.7345-30.9264 25.7345-23.8564 15.5536-23.8564 15.5536-10.7461C15.5536-9.30182 15.8364-8.32718 16.402-7.81717 16.9676-7.31722 18.0988-7.06978 19.7956-7.06978L24.8861-7.06978 24.8861 0.000284416 16.402 0.000284416C12.4934 0.000284416 9.72592-0.81277 8.09984-2.44388 6.46871-4.06997 5.65567-6.83733 5.65567-10.7461L5.65567-23.8564 0.747043-23.8564 0.747043-30.9264 5.65567-30.9264 5.65567-39.7135Z" fill="#0D856E" transform="matrix(1 0 0 1.00095 -4770.37 3044.21)"/><path d="M35.6322-15.5536 35.6322-12.7257 12.5027-12.7257C12.745-10.4077 13.5783-8.67054 15.0074-7.51414 16.4468-6.35264 18.4617-5.77688 21.0474-5.77688 23.1178-5.77688 25.2488-6.07988 27.4305-6.68586 29.6121-7.30196 31.8543-8.24123 34.157-9.4937L34.157-1.87833C31.824-0.989535 29.4908-0.322967 27.1476 0.121497 24.8044 0.575993 22.4662 0.808298 20.1382 0.808298 14.5327 0.808298 10.1796-0.610809 7.06929-3.45393 3.96864-6.30714 2.42323-10.3018 2.42323-15.4325 2.42323-20.4824 3.9433-24.4468 6.98836-27.3302 10.0436-30.224 14.2402-31.6733 19.573-31.6733 24.4311-31.6733 28.3246-30.2037 31.2486-27.2698 34.1674-24.3458 35.6318-20.4422 35.6318-15.5538ZM25.4714-18.8259C25.4714-20.7096 24.916-22.2247 23.8151-23.3709 22.7244-24.5274 21.2952-25.1082 19.5328-25.1082 17.6036-25.1082 16.0432-24.5679 14.8464-23.4922 13.6597-22.4116 12.9172-20.8561 12.6244-18.8259Z" fill="#0D856E" transform="matrix(1 0 0 1.00095 -4743.33 3044.21)"/><path d="M25.7952-26.4015 25.7952-42.9648 35.7336-42.9648 35.7336 0 25.7952 0 25.7952-4.46416C24.4318-2.64624 22.9319-1.31296 21.2906-0.464503 19.6443 0.383897 17.7455 0.808103 15.5942 0.808103 11.7815 0.808103 8.65051-0.706929 6.2013-3.73686 3.76217-6.76692 2.54513-10.6655 2.54513-15.4327 2.54513-20.1998 3.76218-24.0984 6.2013-27.1285 8.65051-30.1586 11.7815-31.6735 15.5942-31.6735 17.7353-31.6735 19.6242-31.2391 21.2704-30.3807 22.9268-29.5323 24.4318-28.2042 25.7952-26.4013ZM19.2706-6.38385C21.3966-6.38385 23.0126-7.15649 24.1185-8.70688 25.2346-10.2522 25.7952-12.4944 25.7952-15.4335 25.7952-18.3825 25.2346-20.6298 24.1185-22.1803 23.0126-23.7256 21.3966-24.5033 19.2706-24.5033 17.1697-24.5033 15.5588-23.7256 14.4428-22.1803 13.3368-20.6299 12.7864-18.3828 12.7864-15.4335 12.7864-12.4944 13.3369-10.2522 14.4428-8.70688 15.5588-7.15655 17.1697-6.38385 19.2706-6.38385Z" fill="#0D856E" transform="matrix(1 0 0 1.00095 -4704.98 3044.21)"/><path d="M21.2096-6.38319C23.3205-6.38319 24.9365-7.15585 26.0577-8.70623 27.1738-10.2515 27.7343-12.4937 27.7343-15.4327 27.7343-18.3819 27.1738-20.6292 26.0577-22.1797 24.9365-23.7249 23.3205-24.5026 21.2096-24.5026 19.0938-24.5026 17.4727-23.72 16.3415-22.1594 15.2103-20.6092 14.6447-18.3669 14.6447-15.4329 14.6447-12.509 15.2103-10.2668 16.3415-8.70635 17.4727-7.15603 19.0938-6.38332 21.2096-6.38332ZM14.6447-26.4009C16.0032-28.2037 17.5131-29.5319 19.1694-30.3803 20.8259-31.2388 22.7297-31.673 24.8861-31.673 28.6938-31.673 31.8249-30.158 34.279-27.1281 36.7283-24.0981 37.9555-20.1995 37.9555-15.4322 37.9555-10.6651 36.7284-6.76651 34.279-3.73644 31.8249-0.706386 28.6938 0.808516 24.8861 0.808516 22.7297 0.808516 20.826 0.374214 19.1694-0.484282 17.513-1.34278 16.0032-2.67092 14.6447-4.46365L14.6447 0.00051712 4.74677 0.00051712 4.74677-42.9643 14.6447-42.9643Z" fill="#0D856E" transform="matrix(1 0 0 1.00095 -4644.8 3044.21)"/><path d="M0.6868-30.9263 10.5847-30.9263 18.8869-9.93904 25.957-30.9263 35.8549-30.9263 22.8468 2.92949C21.5389 6.37363 20.0087 8.77733 18.2613 10.1408 16.5241 11.5144 14.2264 12.2013 11.3732 12.2013L5.65658 12.2013 5.65658 5.71715 8.74715 5.71715C10.4288 5.71715 11.6459 5.44444 12.4033 4.90915 13.1709 4.38395 13.7669 3.4245 14.2011 2.04068L14.4637 1.19228Z" fill="#0D856E" transform="matrix(1 0 0 1.00095 -4604.31 3044.21)"/><path d="M0.282799-41.2287 38.2794-41.2287 38.2794-33.1889 24.6042-33.1889 24.6042-0.000258559 13.979-0.000258559 13.979-33.1889 0.283058-33.1889Z" fill="#0D856E" transform="matrix(1 0 0 1.00095 -4547.75 3044.21)"/><path d="M4.74703-30.9263 14.6449-30.9263 14.6449 0 4.74703 0ZM4.74703-42.9656 14.6449-42.9656 14.6449-34.9057 4.74703-34.9057Z" fill="#0D856E" transform="matrix(1 0 0 1.00095 -4509.17 3044.21)"/><path d="M14.6448-4.46416 14.6448 11.7566 4.7469 11.7566 4.7469-30.9264 14.6448-30.9264 14.6448-26.4017C16.0034-28.2045 17.5133-29.5327 19.1696-30.3811 20.826-31.2395 22.7298-31.6739 24.8862-31.6739 28.694-31.6739 31.825-30.1589 34.2792-27.1289 36.7284-24.0988 37.9557-20.2002 37.9557-15.433 37.9557-10.6659 36.7286-6.76729 34.2792-3.73722 31.825-0.707161 28.694 0.807741 24.8862 0.807741 22.7298 0.807741 20.8261 0.373438 19.1696-0.485058 17.5131-1.34356 16.0034-2.6717 14.6448-4.46443ZM21.2097-24.5025C19.0939-24.5025 17.4728-23.7199 16.3416-22.1593 15.2104-20.6091 14.6448-18.3668 14.6448-15.4327 14.6448-12.5089 15.2104-10.2666 16.3416-8.70623 17.4728-7.1559 19.0939-6.38319 21.2097-6.38319 23.3207-6.38319 24.9366-7.15585 26.0578-8.70623 27.1739-10.2515 27.7345-12.4937 27.7345-15.4327 27.7345-18.3819 27.1739-20.6292 26.0578-22.1797 24.9366-23.7249 23.3207-24.5026 21.2097-24.5026Z" fill="#0D856E" transform="matrix(1 0 0 1.00095 -4489.78 3044.21)"/><path d="M14.6448-4.46416 14.6448 11.7566 4.7469 11.7566 4.7469-30.9264 14.6448-30.9264 14.6448-26.4017C16.0034-28.2045 17.5133-29.5327 19.1696-30.3811 20.826-31.2395 22.7298-31.6739 24.8862-31.6739 28.694-31.6739 31.825-30.1589 34.2792-27.1289 36.7284-24.0988 37.9557-20.2002 37.9557-15.433 37.9557-10.6659 36.7286-6.76729 34.2792-3.73722 31.825-0.707161 28.694 0.807741 24.8862 0.807741 22.7298 0.807741 20.8261 0.373438 19.1696-0.485058 17.5131-1.34356 16.0034-2.6717 14.6448-4.46443ZM21.2097-24.5025C19.0939-24.5025 17.4728-23.7199 16.3416-22.1593 15.2104-20.6091 14.6448-18.3668 14.6448-15.4327 14.6448-12.5089 15.2104-10.2666 16.3416-8.70623 17.4728-7.1559 19.0939-6.38319 21.2097-6.38319 23.3207-6.38319 24.9366-7.15585 26.0578-8.70623 27.1739-10.2515 27.7345-12.4937 27.7345-15.4327 27.7345-18.3819 27.1739-20.6292 26.0578-22.1797 24.9366-23.7249 23.3207-24.5026 21.2097-24.5026Z" fill="#0D856E" transform="matrix(1 0 0 1.00095 -4449.3 3044.21)"/><path d="M18.6047-13.9183C16.5442-13.9183 14.9938-13.5648 13.9587-12.8678 12.9183-12.1659 12.4032-11.1358 12.4032-9.77731 12.4032-8.52491 12.8173-7.54012 13.6556-6.82818 14.4889-6.12623 15.6555-5.77778 17.1503-5.77778 19.0086-5.77778 20.569-6.44437 21.8365-7.7776 23.1143-9.11074 23.7557-10.7773 23.7557-12.7873L23.7557-13.9184ZM33.715-17.6553 33.715-0.000775679 23.7563-0.000775679 23.7563-4.58621C22.4233-2.71268 20.9283-1.34412 19.2719-0.485576 17.6154 0.372973 15.6007 0.807224 13.2321 0.807224 10.0253 0.807224 7.41951-0.12703 5.41463-2.0006 3.41985-3.86909 2.42504-6.29309 2.42504-9.2726 2.42504-12.9085 3.66734-15.565 6.162-17.2516 8.6668-18.9485 12.5857-19.7969 17.9185-19.7969L23.7562-19.7969 23.7562-20.5847C23.7562-22.1451 23.135-23.2915 21.8979-24.0186 20.6707-24.7458 18.7466-25.1095 16.1205-25.1095 14.0047-25.1095 12.0402-24.8923 10.2222-24.4631 8.40423-24.0439 6.70731-23.4127 5.13177-22.5642L5.13177-30.0988C7.25777-30.6239 9.38391-31.0128 11.515-31.2703 13.6561-31.538 15.7873-31.6743 17.9183-31.6743 23.5037-31.6743 27.5335-30.5683 29.998-28.3615 32.4725-26.1649 33.7148-22.5944 33.7148-17.6557Z" fill="#0D856E" transform="matrix(1 0 0 1.00095 -4408.8 3044.21)"/><path d="M1.97954-30.9263 11.5947-30.9263 16.7861-9.61584 22.0179-30.9263 30.2595-30.9263 35.4508-9.8382 40.6827-30.9263 50.2979-30.9263 42.1371 0 31.3503 0 26.1184-21.2704 20.9271 0 10.1402 0Z" fill="#0D856E" transform="matrix(1 0 0 1.00095 -4370.64 3044.21)"/><path d="M18.6047-13.9183C16.5442-13.9183 14.9938-13.5648 13.9587-12.8678 12.9183-12.1659 12.4032-11.1358 12.4032-9.77731 12.4032-8.52491 12.8173-7.54012 13.6556-6.82818 14.4889-6.12623 15.6555-5.77778 17.1503-5.77778 19.0086-5.77778 20.569-6.44437 21.8365-7.7776 23.1143-9.11074 23.7557-10.7773 23.7557-12.7873L23.7557-13.9184ZM33.715-17.6553 33.715-0.000775679 23.7563-0.000775679 23.7563-4.58621C22.4233-2.71268 20.9283-1.34412 19.2719-0.485576 17.6154 0.372973 15.6007 0.807224 13.2321 0.807224 10.0253 0.807224 7.41951-0.12703 5.41463-2.0006 3.41985-3.86909 2.42504-6.29309 2.42504-9.2726 2.42504-12.9085 3.66734-15.565 6.162-17.2516 8.6668-18.9485 12.5857-19.7969 17.9185-19.7969L23.7562-19.7969 23.7562-20.5847C23.7562-22.1451 23.135-23.2915 21.8979-24.0186 20.6707-24.7458 18.7466-25.1095 16.1205-25.1095 14.0047-25.1095 12.0402-24.8923 10.2222-24.4631 8.40423-24.0439 6.70731-23.4127 5.13177-22.5642L5.13177-30.0988C7.25777-30.6239 9.38391-31.0128 11.515-31.2703 13.6561-31.538 15.7873-31.6743 17.9183-31.6743 23.5037-31.6743 27.5335-30.5683 29.998-28.3615 32.4725-26.1649 33.7148-22.5944 33.7148-17.6557Z" fill="#0D856E" transform="matrix(1 0 0 1.00095 -4318.4 3044.21)"/><path d="M35.8545-18.8257 35.8545 0 25.8959 0 25.8959-14.4225C25.8959-17.0889 25.8353-18.9271 25.7141-19.937 25.603-20.9471 25.4011-21.6945 25.1081-22.1793 24.7143-22.8257 24.1891-23.3205 23.5325-23.674 22.871-24.0376 22.1185-24.2195 21.2701-24.2195 19.2097-24.2195 17.5835-23.4215 16.4019-21.8358 15.2303-20.245 14.6444-18.0381 14.6444-15.2101L14.6444 0.000930816 4.74655 0.000930816 4.74655-30.9254 14.6444-30.9254 14.6444-26.4007C16.1241-28.2034 17.6998-29.5317 19.3712-30.3799 21.0529-31.2385 22.9113-31.6728 24.9464-31.6728 28.5117-31.6728 31.2185-30.5719 33.0668-28.3801 34.9252-26.1986 35.8543-23.0121 35.8543-18.8256Z" fill="#0D856E" transform="matrix(1 0 0 1.00095 -4280.22 3044.21)"/><path d="M33.8959-39.9359 33.8959-31.2095C31.6183-32.2195 29.4013-32.977 27.2502-33.492 25.0938-34.0172 23.0586-34.2798 21.1497-34.2798 18.6147-34.2798 16.7359-33.9264 15.5138-33.2294 14.3018-32.5274 13.6959-31.4367 13.6959-29.9571 13.6959-28.8512 14.105-27.9876 14.9281-27.3715 15.7462-26.7655 17.236-26.2403 19.3923-25.7958L23.9171-24.8869C28.4924-23.9577 31.7547-22.5537 33.6938-20.6852 35.6331-18.8117 36.6026-16.1454 36.6026-12.6861 36.6026-8.13101 35.2492-4.74749 32.5425-2.52543 29.8459-0.303368 25.7251 0.807535 20.1801 0.807535 17.5643 0.807535 14.9382 0.555037 12.302 0.060141 9.67611-0.434755 7.05005-1.17711 4.42398-2.16192L4.42398-11.1307C7.04992-9.72686 9.5851-8.67142 12.0393-7.95935 14.5037-7.25741 16.8773-6.90895 19.1699-6.90895 21.4829-6.90895 23.2554-7.29276 24.4825-8.06034 25.7198-8.83805 26.341-9.94395 26.341-11.3732 26.341-12.666 25.9218-13.6608 25.0886-14.3628 24.2503-15.0597 22.5838-15.6857 20.0789-16.2413L15.9581-17.1503C11.8374-18.0391 8.8175-19.4429 6.90855-21.3721 5.00969-23.3112 4.06039-25.917 4.06039-29.1896 4.06039-33.2952 5.38343-36.4514 8.03975-38.6633 10.691-40.8701 14.5038-41.9761 19.473-41.9761 21.7354-41.9761 24.0635-41.8044 26.4621-41.471 28.8558-41.1327 31.3353-40.6226 33.8957-39.9359Z" fill="#0D856E" transform="matrix(1 0 0 1.00095 -4220.27 3044.21)"/><path d="M19.4721-24.6033C17.2755-24.6033 15.5988-23.8155 14.4424-22.2399 13.296-20.6643 12.7254-18.3918 12.7254-15.4325 12.7254-12.4681 13.296-10.2007 14.4424-8.62517 15.5988-7.04951 17.2755-6.26181 19.4721-6.26181 21.6235-6.26181 23.2698-7.04961 24.401-8.62517 25.5422-10.2008 26.1179-12.4683 26.1179-15.4325 26.1179-18.3919 25.5422-20.6644 24.401-22.2399 23.2698-23.8155 21.6235-24.6033 19.4721-24.6033ZM19.4721-31.6733C24.7898-31.6733 28.946-30.239 31.9355-27.3707 34.9251-24.5024 36.42-20.523 36.42-15.4325 36.42-10.3522 34.9252-6.37285 31.9355-3.4943 28.946-0.625844 24.7898 0.808259 19.4721 0.808259 14.1242 0.808259 9.94279-0.625973 6.92798-3.4943 3.92325-6.37285 2.42335-10.3522 2.42335-15.4325 2.42335-20.523 3.92325-24.5023 6.92798-27.3707 9.94279-30.2392 14.1242-31.6733 19.4721-31.6733Z" fill="#0D856E" transform="matrix(1 0 0 1.00095 -4179.53 3044.21)"/><path d="M19.4721-24.6033C17.2755-24.6033 15.5988-23.8155 14.4424-22.2399 13.296-20.6643 12.7254-18.3918 12.7254-15.4325 12.7254-12.4681 13.296-10.2007 14.4424-8.62517 15.5988-7.04951 17.2755-6.26181 19.4721-6.26181 21.6235-6.26181 23.2698-7.04961 24.401-8.62517 25.5422-10.2008 26.1179-12.4683 26.1179-15.4325 26.1179-18.3919 25.5422-20.6644 24.401-22.2399 23.2698-23.8155 21.6235-24.6033 19.4721-24.6033ZM19.4721-31.6733C24.7898-31.6733 28.946-30.239 31.9355-27.3707 34.9251-24.5024 36.42-20.523 36.42-15.4325 36.42-10.3522 34.9252-6.37285 31.9355-3.4943 28.946-0.625844 24.7898 0.808259 19.4721 0.808259 14.1242 0.808259 9.94279-0.625973 6.92798-3.4943 3.92325-6.37285 2.42335-10.3522 2.42335-15.4325 2.42335-20.523 3.92325-24.5023 6.92798-27.3707 9.94279-30.2392 14.1242-31.6733 19.4721-31.6733Z" fill="#0D856E" transform="matrix(1 0 0 1.00095 -4140.67 3044.21)"/></g></g></g></g><text fill="#0D856E" font-family="Montserrat Alternates,Montserrat Alternates_MSFontService,sans-serif" font-weight="700" font-size="92" transform="matrix(1 0 0 1 -4875.16 3062)">Development</text><g clip-path="url(#clip5)"><g clip-path="url(#clip6)"><g clip-path="url(#clip7)"><g clip-path="url(#clip8)"><path d="M868.356 414.737C871.791 414.737 875.09 413.371 877.521 410.941 879.95 408.511 881.315 405.213 881.315 401.776L881.315 246.251C881.292 229.07 874.459 212.599 862.315 200.449 850.164 188.303 833.692 181.47 816.513 181.447L802.488 181.447C783.991 149.41 749.824 129.651 712.829 129.605L712.829 84.2434C712.869 64.2072 702.593 45.5647 685.63 34.8957 668.672 24.2265 647.413 23.0403 629.374 31.7539 611.327 40.4617 599.038 57.8483 596.844 77.7631L583.225 77.7631C576.068 77.7631 570.264 83.5663 570.264 90.7236L570.264 142.566C570.264 146.002 571.63 149.301 574.06 151.731 576.49 154.161 579.788 155.526 583.225 155.526L712.83 155.526C740.03 155.508 765.262 169.708 779.362 192.966 793.468 216.22 794.395 245.156 781.81 269.273 769.226 293.382 744.954 309.167 717.812 310.897 690.664 312.621 664.592 300.042 649.051 277.72 646.632 274.25 642.669 272.178 638.434 272.173L579.857 272.173C575.622 272.178 571.659 274.25 569.24 277.72 553.699 300.042 527.627 312.621 500.479 310.897 473.337 309.167 449.065 293.384 436.481 269.273 423.896 245.157 424.823 216.222 438.929 192.966 453.029 169.707 478.261 155.508 505.461 155.526L531.383 155.526C538.54 155.526 544.342 149.723 544.342 142.566 544.342 135.408 538.54 129.605 531.383 129.605L505.461 129.605C468.465 129.651 434.3 149.41 415.803 181.447L340.059 181.447 276.458 71.2827C264.886 51.2288 243.489 38.8755 220.34 38.8755 197.184 38.8755 175.789 51.2285 164.209 71.2768 152.633 91.3308 152.633 116.031 164.209 136.085L201.107 199.981C188.557 212.102 181.458 228.799 181.446 246.249L181.446 596.185C181.469 616.799 189.669 636.57 204.243 651.15 218.825 665.724 238.594 673.923 259.21 673.947L406.729 673.947 380.807 725.79 336.973 725.79C326.663 725.79 316.767 729.885 309.479 737.176 302.19 744.467 298.092 754.361 298.092 764.67L298.092 790.591C298.092 794.027 299.457 797.326 301.888 799.757 304.318 802.187 307.615 803.551 311.053 803.551L427.697 803.551C434.855 803.551 440.658 797.748 440.658 790.591 440.658 783.435 434.855 777.631 427.697 777.631L324.013 777.631 324.013 764.67C324.013 757.513 329.816 751.71 336.973 751.71L725.79 751.71C729.227 751.71 732.524 753.074 734.955 755.505 737.385 757.935 738.749 761.234 738.749 764.67L738.749 777.631 479.539 777.631C472.382 777.631 466.579 783.435 466.579 790.591 466.579 797.748 472.382 803.551 479.539 803.551L751.71 803.551C755.147 803.551 758.445 802.187 760.875 799.757 763.305 797.326 764.671 794.027 764.671 790.591L764.671 764.67C764.671 754.359 760.574 744.465 753.285 737.176 745.994 729.887 736.1 725.79 725.79 725.79L681.956 725.79 656.034 673.947 728.213 673.947 728.213 674.26C729.151 678.946 732.594 682.742 737.165 684.125 741.741 685.508 746.711 684.263 750.089 680.879L759.254 671.714 805.069 717.544C810.132 722.606 818.336 722.606 823.392 717.544L860.058 680.878C865.122 675.822 865.122 667.616 860.058 662.554L857.067 659.563C872.401 647.32 881.328 628.765 881.315 609.144L881.315 453.617C881.315 446.46 875.513 440.658 868.356 440.658 861.197 440.658 855.395 446.46 855.395 453.617L855.395 609.144C855.383 621.896 849.076 633.821 838.546 641.014L814.257 616.736 823.422 607.571 823.422 607.577C826.801 604.197 828.051 599.227 826.662 594.65 825.279 590.079 821.489 586.636 816.797 585.7L725.166 567.376 725.166 567.37C720.919 566.519 716.521 567.85 713.455 570.917 710.394 573.982 709.063 578.375 709.914 582.627L723.019 648.025 259.21 648.025C245.463 648.025 232.276 642.563 222.55 632.843 212.831 623.116 207.368 609.931 207.368 596.183L207.368 246.249C207.449 238.178 210.076 230.332 214.872 223.839L226.536 244.109C230.119 250.312 238.045 252.441 244.248 248.858 250.45 245.283 252.573 237.351 248.998 231.148L206.073 156.821 228.533 143.861 358.139 368.352 335.678 381.313 274.96 276.059C271.379 269.858 263.453 267.728 257.25 271.31 251.048 274.891 248.917 282.817 252.5 289.02L319.739 405.486C320.647 407.053 321.874 408.419 323.344 409.489L388.817 457.108 388.817 518.422 332.137 518.422C335.29 510.141 336.928 501.358 336.974 492.5 336.974 473.98 327.092 456.864 311.053 447.603 295.014 438.344 275.25 438.344 259.212 447.603 243.172 456.866 233.29 473.981 233.29 492.5 233.347 502.244 235.315 511.883 239.082 520.868 235.518 523.189 233.347 527.129 233.29 531.381L233.29 609.144C233.29 612.581 234.655 615.88 237.086 618.309 239.516 620.739 242.813 622.105 246.251 622.105L401.776 622.105C405.213 622.105 408.512 620.739 410.941 618.309 413.371 615.88 414.737 612.581 414.737 609.144L414.737 544.342 466.579 544.342 466.579 596.185 453.619 596.185C446.462 596.185 440.659 601.987 440.659 609.144 440.659 616.302 446.462 622.105 453.619 622.105L479.54 622.105C482.976 622.105 486.275 620.739 488.705 618.309 491.136 615.88 492.5 612.581 492.5 609.144L492.5 466.579 622.106 466.579 622.106 518.42 570.264 518.42 570.264 505.461C570.264 498.304 564.46 492.5 557.303 492.5 550.146 492.5 544.342 498.304 544.342 505.461L544.342 531.381C544.342 534.819 545.708 538.116 548.138 540.546 550.568 542.977 553.866 544.342 557.303 544.342L790.593 544.342C794.029 544.342 797.328 542.977 799.758 540.546 802.188 538.116 803.554 534.819 803.554 531.381L803.554 453.619C803.554 450.181 802.188 446.884 799.758 444.454 797.328 442.023 794.029 440.658 790.593 440.658L764.671 440.658 764.671 427.697 816.513 427.697C821.015 427.721 825.21 425.406 827.589 421.581 829.966 417.757 830.192 412.972 828.178 408.945L818.04 388.815 828.109 368.686 828.114 368.686C830.123 364.671 829.908 359.897 827.541 356.078 825.181 352.255 821.004 349.934 816.513 349.934L751.712 349.934C744.553 349.934 738.751 355.737 738.751 362.895L738.751 440.658 648.027 440.658 648.027 375.854C648.027 372.419 646.661 369.12 644.231 366.689 641.801 364.26 638.503 362.895 635.066 362.895L435.474 362.895 433.658 345.785C433.466 343.986 432.9 342.244 432.003 340.665L355.026 207.368 405.185 207.368C397.176 238.206 403.813 271.02 423.173 296.328 442.526 321.641 472.463 336.627 504.321 336.973 536.184 337.314 566.434 322.978 586.337 298.092L631.959 298.092 631.953 298.092C651.804 323.093 682.089 337.541 714.009 337.234 745.936 336.927 775.931 321.9 795.302 296.518 814.667 271.141 821.234 238.242 813.106 207.368L816.513 207.368C826.825 207.368 836.719 211.465 844.008 218.754 851.296 226.045 855.395 235.94 855.395 246.249L855.395 401.775C855.395 405.212 856.76 408.509 859.191 410.94 861.621 413.37 864.918 414.736 868.356 414.736ZM654.499 51.842C663.091 51.842 671.336 55.2558 677.412 61.331 683.488 67.4061 686.901 75.6513 686.901 84.2437L686.901 129.606 648.02 129.606 648.02 90.724C648.02 87.2872 646.654 83.9891 644.224 81.559 641.794 79.129 638.496 77.7635 635.059 77.7635L622.758 77.7635C624.25 70.4442 628.226 63.8714 634.011 59.1507 639.797 54.4236 647.03 51.843 654.499 51.843ZM596.177 103.684 622.098 103.684 622.098 129.605 596.177 129.605ZM787.993 606.375 786.788 607.578C781.726 612.64 781.726 620.846 786.788 625.902L832.619 671.716 814.278 690.057 768.464 644.228 768.458 644.234C763.4 639.17 755.196 639.17 750.134 644.234L748.93 645.437 739.158 596.604ZM627.045 673.949 652.967 725.791 409.767 725.791 435.689 673.949ZM791.933 394.609 795.52 401.778 764.651 401.778 764.651 375.856 795.526 375.856 791.938 383.026 791.933 383.026C790.11 386.67 790.11 390.963 791.933 394.608ZM418.225 446.45 400.583 433.617 415.927 424.765ZM412.948 396.553 377.642 416.924 354.701 400.243 409.963 368.346ZM380.546 355.361 250.941 130.87 273.391 117.91 402.996 342.387ZM200.877 69.9928C209.811 64.8316 220.434 63.4314 230.403 66.1045 240.367 68.7835 248.867 75.31 254.015 84.2493L260.495 95.4625 193.1 134.344 186.621 123.131C181.459 114.197 180.059 103.575 182.732 93.6046 185.412 83.6412 191.938 75.1415 200.877 69.9928ZM285.121 466.585C291.994 466.585 298.59 469.315 303.451 474.176 308.311 479.036 311.041 485.633 311.041 492.506 309.393 511.472 300.019 528.922 285.121 540.772 270.226 528.916 260.854 511.467 259.199 492.506 259.199 485.633 261.93 479.036 266.791 474.176 271.651 469.315 278.246 466.585 285.121 466.585ZM259.354 551.823C264.949 557.894 271.176 563.344 277.928 568.093 282.284 570.997 287.954 570.997 292.312 568.093 299.064 563.344 305.289 557.892 310.884 551.823L311.041 596.19 259.199 596.19ZM388.805 596.19 336.963 596.19 336.963 544.348 388.805 544.348ZM414.726 518.428 414.726 475.958 426.559 484.58 426.559 484.574C430.7 487.582 436.226 487.871 440.658 485.309 445.09 482.744 447.595 477.82 447.064 472.729L446.416 466.585 466.566 466.585 466.566 518.426ZM751.7 492.506C755.136 492.506 758.435 491.14 760.864 488.71 763.294 486.279 764.659 482.982 764.659 479.545L764.659 466.585 777.62 466.585 777.62 518.428 725.778 518.428 725.778 466.585 738.739 466.585 738.739 479.545C738.739 482.982 740.105 486.281 742.535 488.71 744.964 491.14 748.263 492.506 751.7 492.506ZM699.858 518.428 648.015 518.428 648.015 466.585 699.858 466.585ZM622.094 440.663 570.253 440.663 570.253 388.821 622.094 388.821ZM544.331 440.663 492.488 440.663 492.488 388.821 544.331 388.821ZM466.568 388.821 466.568 440.663 443.667 440.663 438.181 388.821Z" fill="#0D856E" transform="matrix(1.00019 0 0 1 -3321.08 2034.5)"/><path d="M725.79 272.171C725.79 279.328 719.986 285.132 712.829 285.132 705.672 285.132 699.868 279.328 699.868 272.171 699.868 265.014 705.672 259.21 712.829 259.21 719.986 259.21 725.79 265.014 725.79 272.171" fill="#0D856E" transform="matrix(1.00019 0 0 1 -3321.08 2034.5)"/><path d="M764.671 233.29C764.671 240.447 758.867 246.251 751.71 246.251 744.553 246.251 738.749 240.447 738.749 233.29 738.749 226.133 744.553 220.329 751.71 220.329 758.867 220.329 764.671 226.133 764.671 233.29" fill="#0D856E" transform="matrix(1.00019 0 0 1 -3321.08 2034.5)"/><path d="M505.461 272.171C508.897 272.171 512.196 270.805 514.626 268.375 517.056 265.945 518.42 262.647 518.42 259.21L518.42 246.251 531.381 246.251C538.538 246.251 544.342 240.447 544.342 233.29 544.342 226.133 538.538 220.329 531.381 220.329L518.42 220.329 518.42 207.368C518.42 200.211 512.618 194.408 505.461 194.408 498.303 194.408 492.5 200.211 492.5 207.368L492.5 220.329 479.539 220.329C472.382 220.329 466.579 226.133 466.579 233.29 466.579 240.447 472.382 246.251 479.539 246.251L492.5 246.251 492.5 259.21C492.5 262.647 493.866 265.945 496.296 268.375 498.726 270.805 502.024 272.171 505.461 272.171Z" fill="#0D856E" transform="matrix(1.00019 0 0 1 -3321.08 2034.5)"/><path d="M699.868 233.29C699.868 240.447 694.065 246.251 686.908 246.251 679.75 246.251 673.947 240.447 673.947 233.29 673.947 226.133 679.75 220.329 686.908 220.329 694.065 220.329 699.868 226.133 699.868 233.29" fill="#0D856E" transform="matrix(1.00019 0 0 1 -3321.08 2034.5)"/><path d="M596.185 233.29C596.185 240.447 590.38 246.251 583.224 246.251 576.067 246.251 570.263 240.447 570.263 233.29 570.263 226.133 576.067 220.329 583.224 220.329 590.38 220.329 596.185 226.133 596.185 233.29" fill="#0D856E" transform="matrix(1.00019 0 0 1 -3321.08 2034.5)"/><path d="M648.027 233.29C648.027 240.447 642.223 246.251 635.066 246.251 627.909 246.251 622.105 240.447 622.105 233.29 622.105 226.133 627.909 220.329 635.066 220.329 642.223 220.329 648.027 226.133 648.027 233.29" fill="#0D856E" transform="matrix(1.00019 0 0 1 -3321.08 2034.5)"/><path d="M738.749 194.408C738.749 201.565 732.946 207.368 725.79 207.368 718.633 207.368 712.829 201.565 712.829 194.408 712.829 187.25 718.633 181.447 725.79 181.447 732.946 181.447 738.749 187.25 738.749 194.408" fill="#0D856E" transform="matrix(1.00019 0 0 1 -3321.08 2034.5)"/><path d="M43.4171-2.5921C41.1778-1.43491 38.8403-0.561227 36.4044 0.0231068 33.9801 0.624845 31.4575 0.925723 28.8363 0.925723 20.9674 0.925723 14.7245-1.27298 10.1125-5.67023 5.5126-10.0676 3.21569-16.0386 3.21569-23.584 3.21569-31.1292 5.51274-37.0998 10.1125-41.4975 14.7239-45.895 20.9668-48.0935 28.8363-48.0935 31.4573-48.0935 33.9801-47.7985 36.4044-47.214 38.8402-46.6238 41.1778-45.7443 43.4171-44.5757L43.4171-34.809C41.149-36.3481 38.9155-37.4764 36.7284-38.1879 34.5356-38.9111 32.227-39.2757 29.8084-39.2757 25.4574-39.2757 22.0379-37.8754 19.5558-35.0866 17.0678-32.3094 15.8296-28.4734 15.8296-23.5842 15.8296-18.7066 17.0678-14.8706 19.5558-12.0818 22.0379-9.30455 25.4574-7.91591 29.8084-7.91591 32.227-7.91591 34.5356-8.26886 36.7284-8.98053 38.9157-9.70378 41.149-10.8378 43.4171-12.3827Z" fill="#0D856E" transform="matrix(1.00019 0 0 1 -3217.37 3058.38)"/><path d="M31.7763-25.7819C30.7694-26.2447 29.7743-26.5802 28.7907-26.8002 27.8187-27.0316 26.8351-27.1472 25.8514-27.1472 22.9353-27.1472 20.6904-26.21 19.1166-24.3469 17.5544-22.4782 16.7791-19.7993 16.7791-16.3161L16.7791 0.000918345 5.43868 0.000918345 5.43868-35.4325 16.7791-35.4325 16.7791-29.6233C18.2256-31.9376 19.892-33.6271 21.7782-34.6919 23.6759-35.7565 25.9441-36.2888 28.5825-36.2888 28.9527-36.2888 29.3578-36.2713 29.8092-36.2424 30.2546-36.2077 30.8968-36.1382 31.73-36.0341Z" fill="#0D856E" transform="matrix(1.00019 0 0 1 -3169.8 3058.38)"/><path d="M40.8249-17.8203 40.8249-14.5802 14.3247-14.5802C14.6025-11.9244 15.5572-9.93413 17.1945-8.60919 18.8436-7.27843 21.1521-6.61875 24.1145-6.61875 26.4869-6.61875 28.9285-6.96592 31.4279-7.66022 33.9275-8.36609 36.4965-9.44226 39.1349-10.8772L39.1349-2.15208C36.4618-1.13374 33.7886-0.370034 31.104 0.139203 28.4193 0.659935 25.7404 0.926093 23.073 0.926093 16.6507 0.926093 11.6631-0.699825 8.09951-3.95729 4.54699-7.2263 2.77637-11.8031 2.77637-17.6814 2.77637-23.4674 4.51796-28.0094 8.00678-31.3131 11.5073-34.6285 16.3155-36.2892 22.4254-36.2892 27.9914-36.2892 32.4525-34.6054 35.8024-31.2438 39.1467-27.8938 40.8246-23.4213 40.8246-17.8205ZM29.1835-21.5696C29.1835-23.7277 28.5471-25.4635 27.2858-26.7769 26.0361-28.1019 24.3986-28.7673 22.3793-28.7673 20.1691-28.7673 18.3813-28.1482 17.01-26.9159 15.6502-25.6776 14.7997-23.8956 14.464-21.5696Z" fill="#0D856E" transform="matrix(1.00019 0 0 1 -3137.84 3058.38)"/><path d="M21.316-15.9467C18.9552-15.9467 17.179-15.5416 15.9928-14.7431 14.801-13.9389 14.2108-12.7586 14.2108-11.2022 14.2108-9.76728 14.6853-8.63897 15.6458-7.82327 16.6004-7.01902 17.937-6.61979 19.6496-6.61979 21.7788-6.61979 23.5667-7.38353 25.0189-8.91107 26.4827-10.4385 27.2177-12.3479 27.2177-14.6507L27.2177-15.9468ZM38.6283-20.2283 38.6283-0.000888721 27.2184-0.000888721 27.2184-5.25456C25.691-3.108 23.9782-1.54 22.0804-0.556339 20.1826 0.427326 17.8741 0.924863 15.1604 0.924863 11.4863 0.924863 8.50078-0.145542 6.20372-2.29216 3.91823-4.43294 2.77844-7.2102 2.77844-10.6239 2.77844-14.7898 4.20178-17.8333 7.06-19.7658 9.92984-21.7099 14.4198-22.682 20.5298-22.682L27.2183-22.682 27.2183-23.5845C27.2183-25.3724 26.5066-26.686 25.0891-27.5189 23.6831-28.3521 21.4787-28.7688 18.4699-28.7688 16.0455-28.7688 13.7949-28.52 11.7119-28.0282 9.629-27.5479 7.68477-26.8247 5.87963-25.8524L5.87963-34.4851C8.31547-35.0869 10.7515-35.5323 13.1931-35.8275 15.6462-36.134 18.088-36.2903 20.5296-36.2903 26.9289-36.2903 31.5461-35.0232 34.3696-32.4947 37.2048-29.9778 38.6281-25.8873 38.6281-20.2285Z" fill="#0D856E" transform="matrix(1.00019 0 0 1 -3093.88 3058.38)"/><path d="M17.8203-45.501 17.8203-35.4335 29.4849-35.4335 29.4849-27.3331 17.8203-27.3331 17.8203-12.3122C17.8203-10.6574 18.1443-9.54072 18.7924-8.95639 19.4404-8.38358 20.7365-8.10008 22.6806-8.10008L28.5128-8.10008 28.5128 0.000325865 18.7924 0.000325865C14.3141 0.000325865 11.1433-0.931217 9.28025-2.80004 7.41142-4.66309 6.47989-7.83376 6.47989-12.3122L6.47989-27.3331 0.855913-27.3331 0.855913-35.4335 6.47989-35.4335 6.47989-45.501Z" fill="#0D856E" transform="matrix(1.00019 0 0 1 -3050.14 3058.38)"/><path d="M40.8249-17.8203 40.8249-14.5802 14.3247-14.5802C14.6025-11.9244 15.5572-9.93413 17.1945-8.60919 18.8436-7.27843 21.1521-6.61875 24.1145-6.61875 26.4869-6.61875 28.9285-6.96592 31.4279-7.66022 33.9275-8.36609 36.4965-9.44226 39.1349-10.8772L39.1349-2.15208C36.4618-1.13374 33.7886-0.370034 31.104 0.139203 28.4193 0.659935 25.7404 0.926093 23.073 0.926093 16.6507 0.926093 11.6631-0.699825 8.09951-3.95729 4.54699-7.2263 2.77637-11.8031 2.77637-17.6814 2.77637-23.4674 4.51796-28.0094 8.00678-31.3131 11.5073-34.6285 16.3155-36.2892 22.4254-36.2892 27.9914-36.2892 32.4525-34.6054 35.8024-31.2438 39.1467-27.8938 40.8246-23.4213 40.8246-17.8205ZM29.1835-21.5696C29.1835-23.7277 28.5471-25.4635 27.2858-26.7769 26.0361-28.1019 24.3986-28.7673 22.3793-28.7673 20.1691-28.7673 18.3813-28.1482 17.01-26.9159 15.6502-25.6776 14.7997-23.8956 14.464-21.5696Z" fill="#0D856E" transform="matrix(1.00019 0 0 1 -3019.16 3058.38)"/><path d="M29.5545-30.2491 29.5545-49.2264 40.9411-49.2264 40.9411 0 29.5545 0 29.5545-5.11474C27.9921-3.03187 26.2738-1.50432 24.3933-0.532197 22.5071 0.439844 20.3316 0.92587 17.8669 0.92587 13.4985 0.92587 9.91117-0.809951 7.10504-4.28145 4.31045-7.75308 2.91605-12.2198 2.91605-17.6817 2.91605-23.1437 4.31046-27.6104 7.10504-31.0821 9.91117-34.5537 13.4985-36.2893 17.8669-36.2893 20.32-36.2893 22.4841-35.7918 24.3702-34.8081 26.2679-33.8362 27.9921-32.3143 29.5545-30.2488ZM22.079-7.31418C24.5149-7.31418 26.3663-8.19943 27.6334-9.97575 28.9121-11.7462 29.5545-14.3152 29.5545-17.6826 29.5545-21.0615 28.9122-23.6363 27.6334-25.4126 26.3663-27.1831 24.5149-28.0743 22.079-28.0743 19.672-28.0743 17.8262-27.1833 16.5476-25.4126 15.2804-23.6364 14.6499-21.0616 14.6499-17.6826 14.6499-14.3152 15.2806-11.7462 16.5476-9.97575 17.8262-8.19949 19.672-7.31418 22.079-7.31418Z" fill="#0D856E" transform="matrix(1.00019 0 0 1 -2975.2 3058.38)"/><path d="M24.3006-7.31345C26.7191-7.31345 28.5707-8.1987 29.8551-9.97501 31.1338-11.7455 31.7761-14.3145 31.7761-17.6819 31.7761-21.0608 31.1339-23.6355 29.8551-25.4119 28.5707-27.1824 26.7191-28.0735 24.3006-28.0735 21.8763-28.0735 20.0191-27.1768 18.723-25.3889 17.4269-23.6126 16.7789-21.0436 16.7789-17.682 16.7789-14.332 17.4269-11.763 18.723-9.97516 20.0191-8.1989 21.8763-7.31359 24.3006-7.31359ZM16.7789-30.2484C18.3353-32.3139 20.0655-33.8357 21.9632-34.8077 23.8608-35.7913 26.0422-36.2889 28.5129-36.2889 32.8754-36.2889 36.4628-34.553 39.2747-31.0816 42.0808-27.61 43.4869-23.1431 43.4869-17.6813 43.4869-12.2193 42.0809-7.75262 39.2747-4.28097 36.4628-0.809329 32.8754 0.926344 28.5129 0.926344 26.0422 0.926344 23.861 0.428748 21.9632-0.554859 20.0653-1.53847 18.3353-3.06016 16.7789-5.11415L16.7789 0.000592481 5.43854 0.000592481 5.43854-49.2256 16.7789-49.2256Z" fill="#0D856E" transform="matrix(1.00019 0 0 1 -2906.24 3058.38)"/><path d="M0.786889-35.4333 12.1273-35.4333 21.6395-11.3875 29.7399-35.4333 41.0801-35.4333 26.1763 3.3564C24.6778 7.30248 22.9246 10.0565 20.9226 11.6187 18.9322 13.1925 16.2996 13.9794 13.0307 13.9794L6.48093 13.9794 6.48093 6.55032 10.0219 6.55032C11.9486 6.55032 13.343 6.23788 14.2109 5.62458 15.0904 5.02283 15.7731 3.92356 16.2707 2.33808L16.5715 1.36604Z" fill="#0D856E" transform="matrix(1.00019 0 0 1 -2859.85 3058.38)"/><path d="M0.324013-47.2371 43.858-47.2371 43.858-38.0257 28.1899-38.0257 28.1899-0.00029624 16.0161-0.00029624 16.0161-38.0257 0.324309-38.0257Z" fill="#0D856E" transform="matrix(1.00019 0 0 1 -2795.03 3058.38)"/><path d="M5.43883-35.4333 16.7792-35.4333 16.7792 0 5.43883 0ZM5.43883-49.2271 16.7792-49.2271 16.7792-39.9926 5.43883-39.9926Z" fill="#0D856E" transform="matrix(1.00019 0 0 1 -2750.82 3058.38)"/><path d="M16.7791-5.11474 16.7791 13.4699 5.43868 13.4699 5.43868-35.4335 16.7791-35.4335 16.7791-30.2493C18.3355-32.3148 20.0656-33.8366 21.9633-34.8086 23.861-35.7922 26.0423-36.2898 28.5131-36.2898 32.8756-36.2898 36.4629-34.554 39.2748-31.0825 42.0809-27.6108 43.4871-23.1441 43.4871-17.6822 43.4871-12.2202 42.0811-7.7535 39.2748-4.28186 36.4629-0.810218 32.8756 0.925456 28.5131 0.925456 26.0423 0.925456 23.8611 0.427861 21.9633-0.555747 20.0655-1.53935 18.3355-3.06106 16.7791-5.11504ZM24.3008-28.0734C21.8764-28.0734 20.0192-27.1766 18.7231-25.3887 17.427-23.6125 16.7791-21.0435 16.7791-17.6819 16.7791-14.3318 17.427-11.7628 18.7231-9.97501 20.0192-8.19876 21.8764-7.31345 24.3008-7.31345 26.7192-7.31345 28.5708-8.1987 29.8553-9.97501 31.1339-11.7455 31.7763-14.3145 31.7763-17.6819 31.7763-21.0608 31.1341-23.6355 29.8553-25.4119 28.5708-27.1824 26.7192-28.0735 24.3008-28.0735Z" fill="#0D856E" transform="matrix(1.00019 0 0 1 -2728.6 3058.38)"/><path d="M16.7791-5.11474 16.7791 13.4699 5.43868 13.4699 5.43868-35.4335 16.7791-35.4335 16.7791-30.2493C18.3355-32.3148 20.0656-33.8366 21.9633-34.8086 23.861-35.7922 26.0423-36.2898 28.5131-36.2898 32.8756-36.2898 36.4629-34.554 39.2748-31.0825 42.0809-27.6108 43.4871-23.1441 43.4871-17.6822 43.4871-12.2202 42.0811-7.7535 39.2748-4.28186 36.4629-0.810218 32.8756 0.925456 28.5131 0.925456 26.0423 0.925456 23.8611 0.427861 21.9633-0.555747 20.0655-1.53935 18.3355-3.06106 16.7791-5.11504ZM24.3008-28.0734C21.8764-28.0734 20.0192-27.1766 18.7231-25.3887 17.427-23.6125 16.7791-21.0435 16.7791-17.6819 16.7791-14.3318 17.427-11.7628 18.7231-9.97501 20.0192-8.19876 21.8764-7.31345 24.3008-7.31345 26.7192-7.31345 28.5708-8.1987 29.8553-9.97501 31.1339-11.7455 31.7763-14.3145 31.7763-17.6819 31.7763-21.0608 31.1341-23.6355 29.8553-25.4119 28.5708-27.1824 26.7192-28.0735 24.3008-28.0735Z" fill="#0D856E" transform="matrix(1.00019 0 0 1 -2682.21 3058.38)"/><path d="M21.316-15.9467C18.9552-15.9467 17.179-15.5416 15.9928-14.7431 14.801-13.9389 14.2108-12.7586 14.2108-11.2022 14.2108-9.76728 14.6853-8.63897 15.6458-7.82327 16.6004-7.01902 17.937-6.61979 19.6496-6.61979 21.7788-6.61979 23.5667-7.38353 25.0189-8.91107 26.4827-10.4385 27.2177-12.3479 27.2177-14.6507L27.2177-15.9468ZM38.6283-20.2283 38.6283-0.000888721 27.2184-0.000888721 27.2184-5.25456C25.691-3.108 23.9782-1.54 22.0804-0.556339 20.1826 0.427326 17.8741 0.924863 15.1604 0.924863 11.4863 0.924863 8.50078-0.145542 6.20372-2.29216 3.91823-4.43294 2.77844-7.2102 2.77844-10.6239 2.77844-14.7898 4.20178-17.8333 7.06-19.7658 9.92984-21.7099 14.4198-22.682 20.5298-22.682L27.2183-22.682 27.2183-23.5845C27.2183-25.3724 26.5066-26.686 25.0891-27.5189 23.6831-28.3521 21.4787-28.7688 18.4699-28.7688 16.0455-28.7688 13.7949-28.52 11.7119-28.0282 9.629-27.5479 7.68477-26.8247 5.87963-25.8524L5.87963-34.4851C8.31547-35.0869 10.7515-35.5323 13.1931-35.8275 15.6462-36.134 18.088-36.2903 20.5296-36.2903 26.9289-36.2903 31.5461-35.0232 34.3696-32.4947 37.2048-29.9778 38.6281-25.8873 38.6281-20.2285Z" fill="#0D856E" transform="matrix(1.00019 0 0 1 -2635.81 3058.38)"/><path d="M2.26801-35.4333 13.2845-35.4333 19.2324-11.0172 25.2267-35.4333 34.6694-35.4333 40.6173-11.272 46.6116-35.4333 57.628-35.4333 48.2779 0 35.919 0 29.9247-24.3702 23.9768 0 11.618 0Z" fill="#0D856E" transform="matrix(1.00019 0 0 1 -2592.07 3058.38)"/><path d="M21.316-15.9467C18.9552-15.9467 17.179-15.5416 15.9928-14.7431 14.801-13.9389 14.2108-12.7586 14.2108-11.2022 14.2108-9.76728 14.6853-8.63897 15.6458-7.82327 16.6004-7.01902 17.937-6.61979 19.6496-6.61979 21.7788-6.61979 23.5667-7.38353 25.0189-8.91107 26.4827-10.4385 27.2177-12.3479 27.2177-14.6507L27.2177-15.9468ZM38.6283-20.2283 38.6283-0.000888721 27.2184-0.000888721 27.2184-5.25456C25.691-3.108 23.9782-1.54 22.0804-0.556339 20.1826 0.427326 17.8741 0.924863 15.1604 0.924863 11.4863 0.924863 8.50078-0.145542 6.20372-2.29216 3.91823-4.43294 2.77844-7.2102 2.77844-10.6239 2.77844-14.7898 4.20178-17.8333 7.06-19.7658 9.92984-21.7099 14.4198-22.682 20.5298-22.682L27.2183-22.682 27.2183-23.5845C27.2183-25.3724 26.5066-26.686 25.0891-27.5189 23.6831-28.3521 21.4787-28.7688 18.4699-28.7688 16.0455-28.7688 13.7949-28.52 11.7119-28.0282 9.629-27.5479 7.68477-26.8247 5.87963-25.8524L5.87963-34.4851C8.31547-35.0869 10.7515-35.5323 13.1931-35.8275 15.6462-36.134 18.088-36.2903 20.5296-36.2903 26.9289-36.2903 31.5461-35.0232 34.3696-32.4947 37.2048-29.9778 38.6281-25.8873 38.6281-20.2285Z" fill="#0D856E" transform="matrix(1.00019 0 0 1 -2532.19 3058.38)"/><path d="M41.0797-21.5693 41.0797 0 29.6699 0 29.6699-16.5242C29.6699-19.5793 29.6004-21.6854 29.4615-22.8425 29.3342-23.9997 29.1028-24.856 28.7672-25.4115 28.3158-26.1521 27.7141-26.7191 26.962-27.1241 26.2039-27.5407 25.3418-27.749 24.3698-27.749 22.0091-27.749 20.146-26.8348 18.7923-25.0179 17.4498-23.1953 16.7786-20.6669 16.7786-17.4268L16.7786 0.00106647 5.43828 0.00106647 5.43828-35.4323 16.7786-35.4323 16.7786-30.2481C18.4739-32.3136 20.2793-33.8354 22.1942-34.8074 24.121-35.7909 26.2502-36.2886 28.5819-36.2886 32.6668-36.2886 35.7681-35.0272 37.8857-32.516 40.0148-30.0166 41.0794-26.3657 41.0794-21.5692Z" fill="#0D856E" transform="matrix(1.00019 0 0 1 -2488.46 3058.38)"/><path d="M38.8357-45.7559 38.8357-35.7578C36.2262-36.9148 33.6861-37.7828 31.2214-38.373 28.7508-38.9747 26.419-39.2755 24.2319-39.2755 21.3274-39.2755 19.1749-38.8706 17.7748-38.0721 16.3861-37.2678 15.6919-36.0181 15.6919-34.3228 15.6919-33.0557 16.1605-32.0664 17.1036-31.3604 18.0409-30.6662 19.7478-30.0644 22.2184-29.5552L27.4025-28.5136C32.6447-27.449 36.3824-25.8405 38.6042-23.6998 40.826-21.5532 41.9369-18.4983 41.9369-14.5348 41.9369-9.31596 40.3862-5.43936 37.2851-2.89347 34.1953-0.347579 29.4741 0.925219 23.121 0.925219 20.124 0.925219 17.1152 0.635925 14.0949 0.0689056 11.0862-0.498114 8.07747-1.34865 5.06871-2.47698L5.06871-12.7528C8.07733-11.1444 10.982-9.93514 13.7939-9.11929 16.6173-8.31504 19.3368-7.91581 21.9636-7.91581 24.6137-7.91581 26.6445-8.35555 28.0505-9.235 29.468-10.126 30.1797-11.3931 30.1797-13.0306 30.1797-14.5117 29.6994-15.6515 28.7447-16.4558 27.7843-17.2543 25.8749-17.9717 23.0051-18.6082L18.2838-19.6497C13.5624-20.6679 10.1025-22.2765 7.91535-24.4866 5.73977-26.7084 4.65212-29.6941 4.65212-33.4433 4.65212-38.1474 6.16798-41.7636 9.2114-44.2978 12.2491-46.8262 16.6174-48.0933 22.3109-48.0933 24.903-48.0933 27.5703-47.8967 30.3185-47.5148 33.0611-47.1271 35.902-46.5427 38.8354-45.7559Z" fill="#0D856E" transform="matrix(1.00019 0 0 1 -2419.74 3058.38)"/><path d="M22.3099-28.1888C19.7931-28.1888 17.872-27.2861 16.5471-25.4809 15.2338-23.6757 14.5799-21.072 14.5799-17.6816 14.5799-14.2852 15.2338-11.6873 16.5471-9.88214 17.872-8.07685 19.7931-7.17436 22.3099-7.17436 24.7747-7.17436 26.6609-8.07697 27.957-9.88214 29.2646-11.6874 29.9241-14.2853 29.9241-17.6816 29.9241-21.0722 29.2646-23.6759 27.957-25.4809 26.6609-27.2863 24.7747-28.1888 22.3099-28.1888ZM22.3099-36.2892C28.4026-36.2892 33.1643-34.6459 36.5896-31.3595 40.0148-28.0733 41.7275-23.5138 41.7275-17.6816 41.7275-11.8609 40.015-7.30159 36.5896-4.00354 33.1643-0.71705 28.4026 0.926048 22.3099 0.926048 16.1825 0.926048 11.3918-0.717198 7.93762-4.00354 4.495-7.30159 2.77651-11.8609 2.77651-17.6816 2.77651-23.5138 4.495-28.0731 7.93762-31.3595 11.3918-34.6461 16.1825-36.2892 22.3099-36.2892Z" fill="#0D856E" transform="matrix(1.00019 0 0 1 -2373.07 3058.38)"/><path d="M22.3099-28.1888C19.7931-28.1888 17.872-27.2861 16.5471-25.4809 15.2338-23.6757 14.5799-21.072 14.5799-17.6816 14.5799-14.2852 15.2338-11.6873 16.5471-9.88214 17.872-8.07685 19.7931-7.17436 22.3099-7.17436 24.7747-7.17436 26.6609-8.07697 27.957-9.88214 29.2646-11.6874 29.9241-14.2853 29.9241-17.6816 29.9241-21.0722 29.2646-23.6759 27.957-25.4809 26.6609-27.2863 24.7747-28.1888 22.3099-28.1888ZM22.3099-36.2892C28.4026-36.2892 33.1643-34.6459 36.5896-31.3595 40.0148-28.0733 41.7275-23.5138 41.7275-17.6816 41.7275-11.8609 40.015-7.30159 36.5896-4.00354 33.1643-0.71705 28.4026 0.926048 22.3099 0.926048 16.1825 0.926048 11.3918-0.717198 7.93762-4.00354 4.495-7.30159 2.77651-11.8609 2.77651-17.6816 2.77651-23.5138 4.495-28.0731 7.93762-31.3595 11.3918-34.6461 16.1825-36.2892 22.3099-36.2892Z" fill="#0D856E" transform="matrix(1.00019 0 0 1 -2328.54 3058.38)"/></g></g></g></g><text fill="#0D856E" font-family="Montserrat Alternates,Montserrat Alternates_MSFontService,sans-serif" font-weight="700" font-size="92" transform="matrix(1 0 0 1 -3284.78 3062)">Game &amp; Level Design</text><g clip-path="url(#clip9)"><g clip-path="url(#clip10)"><g clip-path="url(#clip11)"><g clip-path="url(#clip12)"><path d="M245.619 517.092C249.047 517.092 252.336 515.73 254.76 513.306 257.184 510.881 258.545 507.592 258.545 504.164L258.545 400.747C258.545 390.462 262.632 380.592 269.904 373.323 277.175 366.052 287.044 361.965 297.326 361.965L390.195 361.965C392.862 369.502 397.789 376.029 404.306 380.657 410.821 385.285 418.606 387.784 426.6 387.819L581.728 387.819C588.866 387.819 594.654 393.608 594.654 400.747 594.654 407.885 588.866 413.673 581.728 413.673L426.6 413.673C419.461 413.673 413.672 419.463 413.672 426.601 413.672 433.74 419.461 439.528 426.6 439.528 426.6 467.242 441.386 492.848 465.381 506.699 489.378 520.555 518.95 520.555 542.945 506.699 566.942 492.848 581.728 467.242 581.728 439.528 591.763 439.534 601.412 435.638 608.633 428.662 615.852 421.69 620.082 412.186 620.429 402.149 620.769 392.119 617.203 382.344 610.479 374.892 613.849 371.124 616.447 366.732 618.131 361.965L659.29 361.965C666.926 361.942 674.4 364.193 680.747 368.429 683.597 370.455 687.141 371.245 690.581 370.61 694.015 369.982 697.05 367.985 698.996 365.082 700.934 362.179 701.615 358.607 700.888 355.19 700.155 351.773 698.072 348.802 695.112 346.944 684.516 339.851 672.044 336.082 659.29 336.111L618.131 336.111C614.218 325.163 605.602 316.547 594.653 312.634L594.653 298.967C625.304 268.969 639.051 225.703 631.352 183.512 623.653 141.318 595.501 105.699 556.229 88.4608 516.957 71.2165 471.688 74.5986 435.417 97.4869 432.393 99.2586 430.224 102.179 429.392 105.578 428.567 108.977 429.15 112.573 431.02 115.533 432.883 118.494 435.874 120.571 439.301 121.293 442.724 122.008 446.296 121.31 449.198 119.348 478.683 100.747 515.567 98.2831 547.273 112.786 578.975 127.295 601.223 156.815 606.427 191.285 611.633 225.762 599.097 260.532 573.093 283.756 570.359 286.209 568.8 289.706 568.8 293.376L568.8 310.257 542.945 310.257 542.945 281.726C543.004 262.041 550.818 243.174 564.703 229.215 573.493 220.13 576.834 207.083 573.493 194.888 570.158 182.694 560.629 173.166 548.434 169.829 536.24 166.488 523.192 169.829 514.109 178.619 508.608 184.102 499.721 184.102 494.222 178.619 485.137 169.829 472.09 166.488 459.895 169.829 447.701 173.166 438.173 182.694 434.836 194.888 431.495 207.083 434.836 220.13 443.626 229.215 457.511 243.174 465.326 262.041 465.384 281.726L465.384 310.257 439.529 310.257 439.529 293.376C439.529 289.706 437.972 286.209 435.236 283.756 417.028 267.539 405.164 245.377 401.764 221.232 398.364 197.086 403.651 172.512 416.676 151.898 418.639 149.001 419.338 145.429 418.622 142 417.901 138.572 415.823 135.588 412.861 133.718 409.901 131.854 406.306 131.266 402.906 132.097 399.508 132.922 396.587 135.098 394.815 138.116 379.066 163.035 372.349 192.607 375.783 221.883 379.21 251.159 392.588 278.371 413.675 298.969L413.675 312.634C402.727 316.547 394.111 325.164 390.197 336.112L297.329 336.112C280.194 336.135 263.764 342.95 251.645 355.064 239.532 367.183 232.716 383.614 232.692 400.748L232.692 504.167C232.692 507.595 234.054 510.884 236.478 513.308 238.902 515.732 242.192 517.095 245.62 517.095ZM504.164 491.237C490.453 491.237 477.299 485.79 467.598 476.093 457.903 466.393 452.456 453.24 452.456 439.528L555.873 439.528C555.873 453.24 550.426 466.393 540.731 476.093 531.029 485.79 517.876 491.237 504.164 491.237ZM461.904 210.93C458.561 207.593 458.02 202.364 460.61 198.417 462.261 195.941 464.927 194.343 467.889 194.043 470.843 193.748 473.774 194.793 475.881 196.888 483.371 204.367 493.518 208.563 504.102 208.563 514.681 208.563 524.833 204.367 532.323 196.888 534.424 194.799 537.357 193.754 540.311 194.049 543.266 194.337 545.938 195.935 547.588 198.405 550.203 202.341 549.689 207.576 546.359 210.93 527.545 229.674 517.007 255.16 517.093 281.717L517.093 310.249 491.239 310.249 491.239 281.717C491.308 255.154 480.746 229.663 461.905 210.93ZM426.601 336.105 581.728 336.105C588.866 336.105 594.656 341.894 594.656 349.033 594.656 356.172 588.866 361.96 581.728 361.96L426.601 361.96C419.463 361.96 413.673 356.172 413.673 349.033 413.673 341.894 419.463 336.105 426.601 336.105Z" fill="#0D856E" transform="matrix(1.00096 0 0 1 -1633.73 2051.16)"/><path d="M800.193 364.859C797.543 354.904 791.045 346.411 782.123 341.255 773.207 336.096 762.606 334.7 752.656 337.371 742.707 340.043 734.229 346.564 729.093 355.499L638.603 512.236C638.071 513.149 637.667 514.13 637.384 515.146L626.252 553.927 626.258 553.927C623.817 562.423 625.311 571.564 630.338 578.835 635.364 586.102 643.392 590.736 652.199 591.446 661.012 592.161 669.674 588.888 675.808 582.522L698.067 559.566 698.067 620.503 258.539 620.503 258.539 555.866C258.539 548.727 252.75 542.939 245.611 542.939 238.473 542.939 232.685 548.727 232.685 555.866L232.685 762.703C232.685 772.987 236.77 782.856 244.042 790.127 251.313 797.396 261.182 801.484 271.465 801.484L478.302 801.484C485.441 801.484 491.23 795.695 491.23 788.556 491.23 781.418 485.441 775.63 478.302 775.63L413.666 775.63 413.666 749.775 594.647 749.775 594.647 775.63 530.011 775.63C522.873 775.63 517.083 781.418 517.083 788.556 517.083 795.695 522.873 801.484 530.011 801.484L685.139 801.484C695.423 801.484 705.292 797.398 712.562 790.127 719.832 782.855 723.921 772.986 723.921 762.703L723.921 519.67 796.313 394.275C801.472 385.376 802.868 374.787 800.191 364.854ZM769.167 363.711 769.167 363.705C775.335 367.283 777.448 375.179 773.887 381.354L767.424 392.549 745.048 379.622 751.512 368.426 751.507 368.426C755.085 362.245 762.985 360.133 769.165 363.705ZM689.86 526.906 667.484 513.978 732.121 402.031 754.495 414.958ZM652.821 565.226C651.379 564.39 650.68 562.681 651.13 561.072L657.687 538.177 673.793 547.486 657.247 564.604 657.241 564.604C656.082 565.798 654.264 566.052 652.821 565.228ZM620.503 698.077 646.358 698.077 646.358 723.932 620.503 723.932ZM672.211 698.077 698.066 698.077 698.066 723.932 672.211 723.932ZM698.066 672.223 672.211 672.223 672.211 646.368 698.066 646.368ZM646.358 672.223 620.503 672.223 620.503 646.368 646.358 646.368ZM594.649 672.223 568.794 672.223 568.794 646.368 594.649 646.368ZM542.939 672.223 517.085 672.223 517.085 646.368 542.939 646.368ZM491.23 672.223 465.375 672.223 465.375 646.368 491.23 646.368ZM439.521 672.223 413.666 672.223 413.666 646.368 439.521 646.368ZM361.957 723.932 361.957 698.077 387.811 698.077 387.811 723.932ZM258.538 698.077 284.393 698.077 284.393 723.932 258.538 723.932ZM310.247 698.077 336.102 698.077 336.102 723.932 310.247 723.932ZM387.811 672.223 361.957 672.223 361.957 646.368 387.811 646.368ZM336.102 672.223 310.247 672.223 310.247 646.368 336.102 646.368ZM284.393 672.223 258.538 672.223 258.538 646.368 284.393 646.368ZM258.538 762.715 258.538 749.787 284.393 749.787 284.393 775.641 271.466 775.641C264.327 775.641 258.538 769.853 258.538 762.715ZM310.247 749.787 336.102 749.787 336.102 775.641 310.247 775.641ZM361.957 775.641 361.957 749.787 387.811 749.787 387.811 775.641ZM413.666 698.077 439.521 698.077 439.521 723.932 413.666 723.932ZM465.375 698.077 491.23 698.077 491.23 723.932 465.375 723.932ZM517.085 698.077 542.939 698.077 542.939 723.932 517.085 723.932ZM568.794 698.077 594.649 698.077 594.649 723.932 568.794 723.932ZM620.503 749.787 646.358 749.787 646.358 775.641 620.503 775.641ZM698.066 762.715C698.066 766.142 696.705 769.432 694.281 771.855 691.857 774.279 688.568 775.641 685.139 775.641L672.211 775.641 672.211 749.787 698.066 749.787Z" fill="#0D856E" transform="matrix(1.00096 0 0 1 -1633.73 2051.16)"/><path d="M685.146 206.837C685.146 213.976 679.358 219.764 672.22 219.764 665.081 219.764 659.292 213.976 659.292 206.837 659.292 199.697 665.081 193.909 672.22 193.909 679.358 193.909 685.146 199.697 685.146 206.837" fill="#0D856E" transform="matrix(1.00096 0 0 1 -1633.73 2051.16)"/><path d="M349.037 206.837C349.037 213.976 343.248 219.764 336.109 219.764 328.971 219.764 323.183 213.976 323.183 206.837 323.183 199.697 328.971 193.909 336.109 193.909 343.248 193.909 349.037 199.697 349.037 206.837" fill="#0D856E" transform="matrix(1.00096 0 0 1 -1633.73 2051.16)"/><path d="M517.092 38.7819C517.092 45.9207 511.304 51.7092 504.164 51.7092 497.025 51.7092 491.237 45.9207 491.237 38.7819 491.237 31.643 497.025 25.8545 504.164 25.8545 511.304 25.8545 517.092 31.643 517.092 38.7819" fill="#0D856E" transform="matrix(1.00096 0 0 1 -1633.73 2051.16)"/><path d="M423.483 48.8179C430.38 50.6647 434.471 57.7516 432.625 64.6483 430.778 71.5448 423.686 75.6365 416.788 73.7898 409.891 71.943 405.8 64.8561 407.647 57.9594 409.499 51.0629 416.587 46.9712 423.483 48.8179" fill="#0D856E" transform="matrix(1.00096 0 0 1 -1633.73 2051.16)"/><path d="M656.159 134.005C660.69 131.391 663.194 126.306 662.513 121.124 661.832 115.936 658.093 111.677 653.044 110.32 647.993 108.97 642.62 110.794 639.441 114.937 636.255 119.087 635.886 124.742 638.501 129.273 642.073 135.454 649.979 137.572 656.159 134.005Z" fill="#0D856E" transform="matrix(1.00096 0 0 1 -1633.73 2051.16)"/><path d="M352.17 279.672C347.639 282.288 345.135 287.371 345.816 292.554 346.495 297.742 350.236 302.001 355.285 303.357 360.336 304.708 365.708 302.885 368.888 298.74 372.074 294.591 372.443 288.935 369.828 284.406 366.256 278.224 358.35 276.106 352.17 279.672Z" fill="#0D856E" transform="matrix(1.00096 0 0 1 -1633.73 2051.16)"/><path d="M600.684 57.9542C602.53 64.8508 598.438 71.9376 591.542 73.7846 584.645 75.6316 577.559 71.5397 575.711 64.6431 573.859 57.7466 577.95 50.6598 584.847 48.8128 591.743 46.9657 598.836 51.0577 600.684 57.9542" fill="#0D856E" transform="matrix(1.00096 0 0 1 -1633.73 2051.16)"/><path d="M643.233 302.055C647.763 304.669 653.419 304.3 657.567 301.114 661.712 297.934 663.535 292.562 662.184 287.512 660.829 282.463 656.57 278.723 651.381 278.041 646.198 277.36 641.115 279.865 638.501 284.396 634.933 290.577 637.051 298.483 643.233 302.055Z" fill="#0D856E" transform="matrix(1.00096 0 0 1 -1633.73 2051.16)"/><path d="M352.17 134.005C356.699 136.619 362.355 136.25 366.505 133.064 370.654 129.885 372.472 124.511 371.121 119.462 369.765 114.412 365.506 110.673 360.323 109.991 355.136 109.311 350.052 111.815 347.436 116.345 343.87 122.526 345.988 130.433 352.168 134.005Z" fill="#0D856E" transform="matrix(1.00096 0 0 1 -1633.73 2051.16)"/><path d="M284.4 555.873C284.371 560.796 287.147 565.309 291.551 567.508L343.259 593.363C346.896 595.18 351.178 595.18 354.814 593.363L406.523 567.508C410.926 565.309 413.702 560.796 413.673 555.873L413.673 491.237C413.702 486.314 410.926 481.801 406.523 479.602L354.814 453.748C351.178 451.93 346.896 451.93 343.259 453.748L291.551 479.602C287.147 481.801 284.371 486.314 284.4 491.237ZM310.255 512.152 336.109 525.078 336.109 560.808 310.255 547.881ZM361.964 560.808 361.964 525.078 387.819 512.152 387.819 547.881ZM349.037 479.834 371.84 491.237 349.037 502.641 326.235 491.237Z" fill="#0D856E" transform="matrix(1.00096 0 0 1 -1633.73 2051.16)"/><path d="M504.164 530.018C497.025 530.018 491.237 535.808 491.237 542.946L491.237 568.801 439.528 568.801C432.389 568.801 426.601 574.589 426.601 581.728 426.601 588.866 432.389 594.656 439.528 594.656L581.728 594.656C588.866 594.656 594.656 588.866 594.656 581.728 594.656 574.589 588.866 568.801 581.728 568.801L517.092 568.801 517.092 542.946C517.092 539.518 515.73 536.229 513.306 533.805 510.881 531.381 507.592 530.018 504.164 530.018Z" fill="#0D856E" transform="matrix(1.00096 0 0 1 -1633.73 2051.16)"/><path d="M310.255 439.528 310.255 413.673 336.109 413.673C343.248 413.673 349.037 407.885 349.037 400.747 349.037 393.608 343.248 387.819 336.109 387.819L297.328 387.819C290.189 387.819 284.4 393.608 284.4 400.747L284.4 439.528C284.4 446.667 290.189 452.456 297.328 452.456 304.467 452.456 310.255 446.667 310.255 439.528Z" fill="#0D856E" transform="matrix(1.00096 0 0 1 -1633.73 2051.16)"/><path d="M646.365 387.819C639.226 387.819 633.437 393.608 633.437 400.747 633.437 407.885 639.226 413.673 646.365 413.673 646.365 420.812 652.153 426.601 659.292 426.601 666.43 426.601 672.22 420.812 672.22 413.673L672.22 400.747C672.22 397.318 670.858 394.029 668.434 391.605 666.009 389.181 662.72 387.819 659.292 387.819Z" fill="#0D856E" transform="matrix(1.00096 0 0 1 -1633.73 2051.16)"/><path d="M43.3057-2.58545C41.0723-1.43124 38.7408-0.559789 36.3111 0.0230475 33.893 0.623244 31.3768 0.923349 28.7624 0.923349 20.9136 0.923349 14.6867-1.26971 10.0865-5.65568 5.49845-10.0418 3.20744-15.9975 3.20744-23.5234 3.20744-31.0493 5.49861-37.0048 10.0865-41.3912 14.6861-45.7773 20.9131-47.9701 28.7624-47.9701 31.3766-47.9701 33.893-47.6759 36.3111-47.0929 38.7406-46.5043 41.0723-45.6271 43.3057-44.4615L43.3057-34.7197C41.0434-36.2549 38.8158-37.3803 36.6344-38.09 34.4471-38.8113 32.1444-39.175 29.7321-39.175 25.3921-39.175 21.9814-37.7783 19.5056-34.9967 17.024-32.2266 15.789-28.4003 15.789-23.5238 15.789-18.6587 17.024-14.8324 19.5056-12.0508 21.9814-9.28069 25.3921-7.89562 29.7321-7.89562 32.1444-7.89562 34.4471-8.24766 36.6344-8.95751 38.8159-9.67889 41.0434-10.81 43.3057-12.351Z" fill="#0D856E" transform="matrix(1.00096 0 0 1 -1530.21 3072.42)"/><path d="M31.6948-25.7157C30.6906-26.1774 29.6979-26.5121 28.7169-26.7315 27.7474-26.9622 26.7663-27.0776 25.7851-27.0776 22.8765-27.0776 20.6373-26.1428 19.0675-24.2845 17.5093-22.4205 16.7361-19.7484 16.7361-16.2742L16.7361 0.000915991 5.42474 0.000915991 5.42474-35.3416 16.7361-35.3416 16.7361-29.5473C18.1789-31.8557 19.841-33.5409 21.7223-34.6028 23.6152-35.6647 25.8775-36.1957 28.5092-36.1957 28.8785-36.1957 29.2825-36.1783 29.7326-36.1495 30.1771-36.1149 30.8177-36.0457 31.6486-35.9418Z" fill="#0D856E" transform="matrix(1.00096 0 0 1 -1482.73 3072.42)"/><path d="M40.7203-17.7747 40.7203-14.5429 14.288-14.5429C14.565-11.8938 15.5173-9.90866 17.1505-8.58712 18.7953-7.25977 21.098-6.60178 24.0528-6.60178 26.4189-6.60178 28.8543-6.94805 31.3475-7.64058 33.8405-8.34465 36.403-9.41805 39.0345-10.8494L39.0345-2.14656C36.3682-1.13084 33.702-0.369085 31.0242 0.138847 28.3464 0.658243 25.6743 0.923718 23.0139 0.923718 16.6079 0.923718 11.6332-0.69803 8.07874-3.94714 4.53534-7.20777 2.76925-11.7728 2.76925-17.6361 2.76925-23.4073 4.50638-27.9376 7.98626-31.2329 11.4778-34.5397 16.2737-36.1961 22.368-36.1961 27.9197-36.1961 32.3693-34.5168 35.7107-31.1637 39.0464-27.8223 40.72-23.3613 40.72-17.7748ZM29.1087-21.5143C29.1087-23.6668 28.4739-25.3982 27.2159-26.7082 25.9693-28.0299 24.3361-28.6936 22.322-28.6936 20.1174-28.6936 18.3342-28.076 16.9664-26.8469 15.6102-25.6118 14.7619-23.8342 14.4271-21.5143Z" fill="#0D856E" transform="matrix(1.00096 0 0 1 -1450.82 3072.42)"/><path d="M21.2614-15.9058C18.9067-15.9058 17.1349-15.5017 15.9518-14.7054 14.763-13.9032 14.1744-12.7259 14.1744-11.1735 14.1744-9.74224 14.6476-8.61682 15.6056-7.80321 16.5579-7.00102 17.8911-6.60282 19.5991-6.60282 21.7229-6.60282 23.5061-7.36459 24.9547-8.88821 26.4149-10.4117 27.1479-12.3162 27.1479-14.6131L27.1479-15.9059ZM38.5292-20.1764 38.5292-0.000886443 27.1486-0.000886443 27.1486-5.2411C25.6252-3.10004 23.9168-1.53606 22.0238-0.554913 20.1308 0.426232 17.8283 0.922491 15.1215 0.922491 11.4568 0.922491 8.47897-0.14517 6.18782-2.28628 3.90817-4.42157 2.77132-7.19171 2.77132-10.5967 2.77132-14.7519 4.19102-17.7875 7.0419-19.7151 9.90438-21.6542 14.3828-22.6237 20.4771-22.6237L27.1485-22.6237 27.1485-23.5241C27.1485-25.3073 26.4386-26.6175 25.0247-27.4484 23.6224-28.2795 21.4236-28.6949 18.4224-28.6949 16.0044-28.6949 13.7595-28.4467 11.6818-27.9562 9.60432-27.4772 7.66507-26.7559 5.86455-25.7863L5.86455-34.3966C8.29416-34.9968 10.7239-35.4413 13.1593-35.7356 15.6061-36.0415 18.0416-36.1972 20.477-36.1972 26.8598-36.1972 31.4652-34.9335 34.2815-32.4114 37.1094-29.9011 38.5291-25.8209 38.5291-20.1768Z" fill="#0D856E" transform="matrix(1.00096 0 0 1 -1406.94 3072.42)"/><path d="M17.7747-45.3844 17.7747-35.3426 29.4092-35.3426 29.4092-27.263 17.7747-27.263 17.7747-12.2806C17.7747-10.6301 18.0978-9.51626 18.7442-8.93343 19.3906-8.36208 20.6833-8.07931 22.6224-8.07931L28.4397-8.07931 28.4397 0.000325029 18.7442 0.000325029C14.2774 0.000325029 11.1147-0.928829 9.25645-2.79286 7.39242-4.65114 6.46328-7.81367 6.46328-12.2806L6.46328-27.263 0.853718-27.263 0.853718-35.3426 6.46328-35.3426 6.46328-45.3844Z" fill="#0D856E" transform="matrix(1.00096 0 0 1 -1363.28 3072.42)"/><path d="M40.7203-17.7747 40.7203-14.5429 14.288-14.5429C14.565-11.8938 15.5173-9.90866 17.1505-8.58712 18.7953-7.25977 21.098-6.60178 24.0528-6.60178 26.4189-6.60178 28.8543-6.94805 31.3475-7.64058 33.8405-8.34465 36.403-9.41805 39.0345-10.8494L39.0345-2.14656C36.3682-1.13084 33.702-0.369085 31.0242 0.138847 28.3464 0.658243 25.6743 0.923718 23.0139 0.923718 16.6079 0.923718 11.6332-0.69803 8.07874-3.94714 4.53534-7.20777 2.76925-11.7728 2.76925-17.6361 2.76925-23.4073 4.50638-27.9376 7.98626-31.2329 11.4778-34.5397 16.2737-36.1961 22.368-36.1961 27.9197-36.1961 32.3693-34.5168 35.7107-31.1637 39.0464-27.8223 40.72-23.3613 40.72-17.7748ZM29.1087-21.5143C29.1087-23.6668 28.4739-25.3982 27.2159-26.7082 25.9693-28.0299 24.3361-28.6936 22.322-28.6936 20.1174-28.6936 18.3342-28.076 16.9664-26.8469 15.6102-25.6118 14.7619-23.8342 14.4271-21.5143Z" fill="#0D856E" transform="matrix(1.00096 0 0 1 -1332.36 3072.42)"/><path d="M29.4786-30.1716 29.4786-49.1002 40.8362-49.1002 40.8362 0 29.4786 0 29.4786-5.10163C27.9204-3.0241 26.2066-1.50046 24.3308-0.530832 22.4494 0.438716 20.2795 0.923496 17.8211 0.923496 13.4639 0.923496 9.88575-0.807875 7.08682-4.27047 4.29939-7.73321 2.90857-12.1885 2.90857-17.6364 2.90857-23.0844 4.29941-27.5396 7.08682-31.0023 9.88575-34.465 13.4639-36.1962 17.8211-36.1962 20.2679-36.1962 22.4264-35.6999 24.3078-34.7189 26.2005-33.7493 27.9204-32.2316 29.4786-30.1713ZM22.0224-7.29543C24.4519-7.29543 26.2987-8.17841 27.5626-9.95017 28.838-11.7161 29.4786-14.2785 29.4786-17.6373 29.4786-21.0075 28.838-23.5757 27.5626-25.3476 26.2987-27.1136 24.4519-28.0023 22.0224-28.0023 19.6216-28.0023 17.7806-27.1136 16.5051-25.3476 15.2412-23.5758 14.6123-21.0076 14.6123-17.6373 14.6123-14.2785 15.2414-11.7161 16.5051-9.95017 17.7806-8.17847 19.6216-7.29543 22.0224-7.29543Z" fill="#0D856E" transform="matrix(1.00096 0 0 1 -1288.48 3072.42)"/><path d="M24.2383-7.29468C26.6506-7.29468 28.4973-8.17768 29.7786-9.94944 31.054-11.7154 31.6946-14.2778 31.6946-17.6366 31.6946-21.0068 31.054-23.575 29.7786-25.3469 28.4973-27.1127 26.6506-28.0016 24.2383-28.0016 21.8202-28.0016 19.9677-27.1071 18.675-25.3237 17.3822-23.552 16.7359-20.9897 16.7359-17.6367 16.7359-14.2952 17.3822-11.7328 18.675-9.94958 19.9677-8.17788 21.8202-7.29483 24.2383-7.29483ZM16.7359-30.1708C18.2884-32.231 20.014-33.749 21.9068-34.7184 23.7997-35.6995 25.9755-36.1958 28.4397-36.1958 32.7911-36.1958 36.3692-34.4645 39.174-31.0019 41.973-27.5392 43.3754-23.0838 43.3754-17.6359 43.3754-12.188 41.973-7.73273 39.174-4.26999 36.3692-0.807254 32.7911 0.92397 28.4397 0.92397 25.9755 0.92397 23.7999 0.42765 21.9068-0.553436 20.0138-1.53453 18.2884-3.05232 16.7359-5.10104L16.7359 0.000590961 5.42459 0.000590961 5.42459-49.0994 16.7359-49.0994Z" fill="#0D856E" transform="matrix(1.00096 0 0 1 -1219.64 3072.42)"/><path d="M0.784871-35.3424 12.0962-35.3424 21.584-11.3583 29.6635-35.3424 40.9749-35.3424 26.1093 3.3478C24.6146 7.28375 22.8659 10.0307 20.869 11.5889 18.8837 13.1587 16.2578 13.9436 12.9973 13.9436L6.46431 13.9436 6.46431 6.53353 9.9962 6.53353C11.918 6.53353 13.3088 6.22189 14.1744 5.61014 15.0517 5.00995 15.7326 3.9135 16.229 2.33208L16.529 1.36254Z" fill="#0D856E" transform="matrix(1.00096 0 0 1 -1173.33 3072.42)"/><path d="M0.323183-47.1159 43.7456-47.1159 43.7456-37.9282 28.1175-37.9282 28.1175-0.000295481 15.9751-0.000295481 15.9751-37.9282 0.323477-37.9282Z" fill="#0D856E" transform="matrix(1.00096 0 0 1 -1108.63 3072.42)"/><path d="M5.42488-35.3424 16.7362-35.3424 16.7362 0 5.42488 0ZM5.42488-49.1009 16.7362-49.1009 16.7362-39.8902 5.42488-39.8902Z" fill="#0D856E" transform="matrix(1.00096 0 0 1 -1064.5 3072.42)"/><path d="M16.7361-5.10163 16.7361 13.4354 5.42474 13.4354 5.42474-35.3426 16.7361-35.3426 16.7361-30.1718C18.2885-32.2319 20.0141-33.7499 21.907-34.7194 23.7999-35.7004 25.9757-36.1967 28.4398-36.1967 32.7913-36.1967 36.3694-34.4653 39.1741-31.0028 41.9731-27.54 43.3756-23.0847 43.3756-17.6369 43.3756-12.1889 41.9731-7.73362 39.1741-4.27088 36.3694-0.80814 32.7913 0.923083 28.4398 0.923083 25.9757 0.923083 23.8 0.426764 21.907-0.554323 20.014-1.5354 18.2885-3.0532 16.7361-5.10192ZM24.2384-28.0014C21.8203-28.0014 19.9679-27.1069 18.6752-25.3236 17.3824-23.5518 16.7361-20.9895 16.7361-17.6366 16.7361-14.2951 17.3824-11.7327 18.6752-9.94944 19.9679-8.17774 21.8203-7.29468 24.2384-7.29468 26.6507-7.29468 28.4975-8.17768 29.7788-9.94944 31.0542-11.7154 31.6948-14.2778 31.6948-17.6366 31.6948-21.0068 31.0542-23.575 29.7788-25.3469 28.4975-27.1127 26.6507-28.0016 24.2384-28.0016Z" fill="#0D856E" transform="matrix(1.00096 0 0 1 -1042.32 3072.42)"/><path d="M16.7361-5.10163 16.7361 13.4354 5.42474 13.4354 5.42474-35.3426 16.7361-35.3426 16.7361-30.1718C18.2885-32.2319 20.0141-33.7499 21.907-34.7194 23.7999-35.7004 25.9757-36.1967 28.4398-36.1967 32.7913-36.1967 36.3694-34.4653 39.1741-31.0028 41.9731-27.54 43.3756-23.0847 43.3756-17.6369 43.3756-12.1889 41.9731-7.73362 39.1741-4.27088 36.3694-0.80814 32.7913 0.923083 28.4398 0.923083 25.9757 0.923083 23.8 0.426764 21.907-0.554323 20.014-1.5354 18.2885-3.0532 16.7361-5.10192ZM24.2384-28.0014C21.8203-28.0014 19.9679-27.1069 18.6752-25.3236 17.3824-23.5518 16.7361-20.9895 16.7361-17.6366 16.7361-14.2951 17.3824-11.7327 18.6752-9.94944 19.9679-8.17774 21.8203-7.29468 24.2384-7.29468 26.6507-7.29468 28.4975-8.17768 29.7788-9.94944 31.0542-11.7154 31.6948-14.2778 31.6948-17.6366 31.6948-21.0068 31.0542-23.575 29.7788-25.3469 28.4975-27.1127 26.6507-28.0016 24.2384-28.0016Z" fill="#0D856E" transform="matrix(1.00096 0 0 1 -996.007 3072.42)"/><path d="M21.2614-15.9058C18.9067-15.9058 17.1349-15.5017 15.9518-14.7054 14.763-13.9032 14.1744-12.7259 14.1744-11.1735 14.1744-9.74224 14.6476-8.61682 15.6056-7.80321 16.5579-7.00102 17.8911-6.60282 19.5991-6.60282 21.7229-6.60282 23.5061-7.36459 24.9547-8.88821 26.4149-10.4117 27.1479-12.3162 27.1479-14.6131L27.1479-15.9059ZM38.5292-20.1764 38.5292-0.000886443 27.1486-0.000886443 27.1486-5.2411C25.6252-3.10004 23.9168-1.53606 22.0238-0.554913 20.1308 0.426232 17.8283 0.922491 15.1215 0.922491 11.4568 0.922491 8.47897-0.14517 6.18782-2.28628 3.90817-4.42157 2.77132-7.19171 2.77132-10.5967 2.77132-14.7519 4.19102-17.7875 7.0419-19.7151 9.90438-21.6542 14.3828-22.6237 20.4771-22.6237L27.1485-22.6237 27.1485-23.5241C27.1485-25.3073 26.4386-26.6175 25.0247-27.4484 23.6224-28.2795 21.4236-28.6949 18.4224-28.6949 16.0044-28.6949 13.7595-28.4467 11.6818-27.9562 9.60432-27.4772 7.66507-26.7559 5.86455-25.7863L5.86455-34.3966C8.29416-34.9968 10.7239-35.4413 13.1593-35.7356 15.6061-36.0415 18.0416-36.1972 20.477-36.1972 26.8598-36.1972 31.4652-34.9335 34.2815-32.4114 37.1094-29.9011 38.5291-25.8209 38.5291-20.1768Z" fill="#0D856E" transform="matrix(1.00096 0 0 1 -949.696 3072.42)"/><path d="M2.2622-35.3424 13.2504-35.3424 19.183-10.9889 25.1619-35.3424 34.5804-35.3424 40.5131-11.243 46.492-35.3424 57.4802-35.3424 48.1541 0 35.827 0 29.848-24.3078 23.9154 0 11.5882 0Z" fill="#0D856E" transform="matrix(1.00096 0 0 1 -906.037 3072.42)"/><path d="M21.2614-15.9058C18.9067-15.9058 17.1349-15.5017 15.9518-14.7054 14.763-13.9032 14.1744-12.7259 14.1744-11.1735 14.1744-9.74224 14.6476-8.61682 15.6056-7.80321 16.5579-7.00102 17.8911-6.60282 19.5991-6.60282 21.7229-6.60282 23.5061-7.36459 24.9547-8.88821 26.4149-10.4117 27.1479-12.3162 27.1479-14.6131L27.1479-15.9059ZM38.5292-20.1764 38.5292-0.000886443 27.1486-0.000886443 27.1486-5.2411C25.6252-3.10004 23.9168-1.53606 22.0238-0.554913 20.1308 0.426232 17.8283 0.922491 15.1215 0.922491 11.4568 0.922491 8.47897-0.14517 6.18782-2.28628 3.90817-4.42157 2.77132-7.19171 2.77132-10.5967 2.77132-14.7519 4.19102-17.7875 7.0419-19.7151 9.90438-21.6542 14.3828-22.6237 20.4771-22.6237L27.1485-22.6237 27.1485-23.5241C27.1485-25.3073 26.4386-26.6175 25.0247-27.4484 23.6224-28.2795 21.4236-28.6949 18.4224-28.6949 16.0044-28.6949 13.7595-28.4467 11.6818-27.9562 9.60432-27.4772 7.66507-26.7559 5.86455-25.7863L5.86455-34.3966C8.29416-34.9968 10.7239-35.4413 13.1593-35.7356 15.6061-36.0415 18.0416-36.1972 20.477-36.1972 26.8598-36.1972 31.4652-34.9335 34.2815-32.4114 37.1094-29.9011 38.5291-25.8209 38.5291-20.1768Z" fill="#0D856E" transform="matrix(1.00096 0 0 1 -846.272 3072.42)"/><path d="M40.9743-21.514 40.9743 0 29.5937 0 29.5937-16.4819C29.5937-19.529 29.5244-21.6298 29.3861-22.7839 29.259-23.9382 29.0281-24.7923 28.6935-25.3464 28.2433-26.085 27.6431-26.6506 26.8928-27.0545 26.1367-27.4701 25.2769-27.6778 24.3074-27.6778 21.9527-27.6778 20.0944-26.766 18.744-24.9539 17.4051-23.1359 16.7356-20.6139 16.7356-17.3821L16.7356 0.00106373 5.42434 0.00106373 5.42434-35.3414 16.7356-35.3414 16.7356-30.1705C18.4266-32.2307 20.2272-33.7486 22.1373-34.7181 24.0591-35.6992 26.1829-36.1955 28.5087-36.1955 32.5831-36.1955 35.6764-34.9373 37.7885-32.4326 39.9123-29.9396 40.974-26.2981 40.974-21.5138Z" fill="#0D856E" transform="matrix(1.00096 0 0 1 -802.612 3072.42)"/><path d="M38.736-45.6386 38.736-35.666C36.1333-36.8203 33.5997-37.6859 31.1413-38.2745 28.6771-38.8747 26.3513-39.1749 24.1697-39.1749 21.2727-39.1749 19.1258-38.7709 17.7291-37.9744 16.3441-37.1722 15.6516-35.9257 15.6516-34.2348 15.6516-32.9709 16.119-31.9842 17.0598-31.2801 17.9947-30.5875 19.6973-29.9873 22.1615-29.4793L27.3323-28.4406C32.561-27.3787 36.2891-25.7743 38.5052-23.6391 40.7213-21.4979 41.8293-18.4507 41.8293-14.4976 41.8293-9.29207 40.2827-5.42541 37.1894-2.88606 34.1077-0.346688 29.3984 0.922846 23.0617 0.922846 20.0723 0.922846 17.0713 0.634295 14.0587 0.0687289 11.0578-0.496837 8.05676-1.34519 5.05571-2.47064L5.05571-12.7201C8.05662-11.1158 10.9538-9.90967 13.7585-9.0959 16.5747-8.29372 19.2873-7.89552 21.9073-7.89552 24.5505-7.89552 26.5761-8.33413 27.9786-9.21132 29.3925-10.1001 30.1024-11.3639 30.1024-12.9972 30.1024-14.4746 29.6233-15.6115 28.671-16.4136 27.713-17.2101 25.8085-17.9257 22.9462-18.5605L18.2369-19.5993C13.5277-20.615 10.0766-22.2194 7.89506-24.4239 5.72504-26.6399 4.64019-29.6178 4.64019-33.3576 4.64019-38.0496 6.15217-41.6566 9.1878-44.1841 12.2176-46.7061 16.5748-47.97 22.2537-47.97 24.8392-47.97 27.4997-47.7739 30.2407-47.3929 32.9764-47.0063 35.8099-46.4234 38.7359-45.6386Z" fill="#0D856E" transform="matrix(1.00096 0 0 1 -734.026 3072.42)"/><path d="M22.2527-28.1165C19.7423-28.1165 17.8263-27.2162 16.5047-25.4157 15.1947-23.6149 14.5426-21.018 14.5426-17.6363 14.5426-14.2485 15.1947-11.6573 16.5047-9.8568 17.8263-8.05614 19.7423-7.15596 22.2527-7.15596 24.7112-7.15596 26.5925-8.05626 27.8853-9.8568 29.1895-11.6575 29.8475-14.2487 29.8475-17.6363 29.8475-21.0181 29.1895-23.6152 27.8853-25.4157 26.5925-27.2163 24.7112-28.1165 22.2527-28.1165ZM22.2527-36.1961C28.3296-36.1961 33.0793-34.5571 36.4957-31.2792 39.9123-28.0013 41.6205-23.4536 41.6205-17.6363 41.6205-11.8305 39.9124-7.28287 36.4957-3.99328 33.0793-0.715211 28.3296 0.923674 22.2527 0.923674 16.141 0.923674 11.3626-0.715359 7.91726-3.99328 4.48348-7.28287 2.76939-11.8305 2.76939-17.6363 2.76939-23.4536 4.48348-28.0011 7.91726-31.2792 11.3626-34.5573 16.141-36.1961 22.2527-36.1961Z" fill="#0D856E" transform="matrix(1.00096 0 0 1 -687.432 3072.42)"/><path d="M22.2527-28.1165C19.7423-28.1165 17.8263-27.2162 16.5047-25.4157 15.1947-23.6149 14.5426-21.018 14.5426-17.6363 14.5426-14.2485 15.1947-11.6573 16.5047-9.8568 17.8263-8.05614 19.7423-7.15596 22.2527-7.15596 24.7112-7.15596 26.5925-8.05626 27.8853-9.8568 29.1895-11.6575 29.8475-14.2487 29.8475-17.6363 29.8475-21.0181 29.1895-23.6152 27.8853-25.4157 26.5925-27.2163 24.7112-28.1165 22.2527-28.1165ZM22.2527-36.1961C28.3296-36.1961 33.0793-34.5571 36.4957-31.2792 39.9123-28.0013 41.6205-23.4536 41.6205-17.6363 41.6205-11.8305 39.9124-7.28287 36.4957-3.99328 33.0793-0.715211 28.3296 0.923674 22.2527 0.923674 16.141 0.923674 11.3626-0.715359 7.91726-3.99328 4.48348-7.28287 2.76939-11.8305 2.76939-17.6363 2.76939-23.4536 4.48348-28.0011 7.91726-31.2792 11.3626-34.5573 16.141-36.1961 22.2527-36.1961Z" fill="#0D856E" transform="matrix(1.00096 0 0 1 -642.981 3072.42)"/></g></g></g></g><text fill="#0D856E" font-family="Montserrat Alternates,Montserrat Alternates_MSFontService,sans-serif" font-weight="700" font-size="92" transform="matrix(1 0 0 1 -1541.87 3062)">Generating Ideas</text></g></svg>