<svg width="4967" height="1363" xmlns="http://www.w3.org/2000/svg" xmlns:xlink="http://www.w3.org/1999/xlink" xml:space="preserve" overflow="hidden"><defs><clipPath id="clip0"><rect x="-1932" y="895" width="4967" height="1363"/></clipPath><clipPath id="clip1"><rect x="-1469" y="1218" width="686" height="662"/></clipPath><clipPath id="clip2"><rect x="-1469" y="1218" width="686" height="662"/></clipPath><clipPath id="clip3"><rect x="-1469" y="1204" width="686" height="689"/></clipPath><clipPath id="clip4"><rect x="-1469" y="1204" width="686" height="689"/></clipPath><clipPath id="clip5"><rect x="209" y="1081" width="786" height="788"/></clipPath><clipPath id="clip6"><rect x="232" y="1081" width="763" height="788"/></clipPath><clipPath id="clip7"><rect x="232" y="1081" width="787" height="788"/></clipPath><clipPath id="clip8"><rect x="232" y="1081" width="787" height="788"/></clipPath><clipPath id="clip9"><rect x="1905" y="1093" width="785" height="787"/></clipPath><clipPath id="clip10"><rect x="1905" y="1093" width="785" height="787"/></clipPath><clipPath id="clip11"><rect x="1905" y="1093" width="785" height="787"/></clipPath><clipPath id="clip12"><rect x="1905" y="1093" width="785" height="787"/></clipPath></defs><g clip-path="url(#clip0)" transform="translate(1932 -895)"><g clip-path="url(#clip1)"><g clip-path="url(#clip2)"><g clip-path="url(#clip3)"><g clip-path="url(#clip4)"><path d="M780.091 260.03C786.344 260.03 791.397 254.978 791.397 248.724L791.397 101.751C791.397 70.5796 766.039 45.2226 734.867 45.2226L169.585 45.2226C138.413 45.2226 113.057 70.5796 113.057 101.751L113.057 486.143C113.057 517.315 138.413 542.672 169.585 542.672L338.408 542.672C334.789 576.044 315.479 606.166 285.972 623.032L268.333 633.117 260.025 633.117C228.854 633.117 203.497 658.473 203.497 689.645 203.497 695.898 208.549 700.951 214.803 700.951L373.082 700.951C379.335 700.951 384.388 695.898 384.388 689.645 384.388 683.392 379.335 678.339 373.082 678.339L228.046 678.339C232.716 665.181 245.287 655.728 260.031 655.728L644.423 655.728C659.165 655.728 671.738 665.181 676.407 678.339L418.315 678.339C412.061 678.339 407.009 683.392 407.009 689.645 407.009 695.898 412.061 700.951 418.315 700.951L689.651 700.951C695.905 700.951 700.957 695.898 700.957 689.645 700.957 658.473 675.6 633.117 644.428 633.117L636.121 633.117 618.486 623.032C588.98 606.164 569.67 576.049 566.051 542.672L734.874 542.672C766.046 542.672 791.402 517.315 791.402 486.143L791.402 293.947C791.402 287.693 786.351 282.641 780.096 282.641 773.843 282.641 768.79 287.693 768.79 293.947L768.79 486.143C768.79 504.844 753.574 520.06 734.874 520.06L169.591 520.06C150.891 520.06 135.673 504.844 135.673 486.143L135.673 101.751C135.673 83.0508 150.891 67.8339 169.591 67.8339L734.874 67.8339C753.574 67.8339 768.79 83.0508 768.79 101.751L768.79 248.724C768.79 254.978 773.843 260.03 780.096 260.03ZM543.176 542.672C546.365 578.456 564.53 611.342 592.899 633.117L311.563 633.117C339.939 611.342 358.098 578.456 361.288 542.672Z" fill="#0D856E" transform="matrix(1.00056 0 0 1 -1577.8 1175.77)"/><path d="M418.309 395.698C424.563 395.698 429.615 390.646 429.615 384.393L429.615 339.17C429.615 332.916 424.563 327.865 418.309 327.865L401.734 327.865C399.746 321.545 397.212 315.427 394.123 309.558L405.858 297.823C410.28 293.402 410.28 286.255 405.858 281.84L373.885 249.865C369.463 245.444 362.317 245.444 357.9 249.865L346.166 261.6C340.286 258.526 334.168 255.983 327.86 253.989L327.865 237.42C327.865 231.165 322.812 226.113 316.559 226.113L271.337 226.113C265.082 226.113 260.031 231.165 260.031 237.42L260.031 253.994C253.711 255.983 247.594 258.516 241.725 261.605L229.99 249.87C225.568 245.449 218.422 245.449 214.006 249.87L182.031 281.845C177.611 286.265 177.611 293.413 182.031 297.828L193.767 309.563C190.683 315.429 188.149 321.545 186.16 327.865L169.585 327.865C163.332 327.865 158.28 332.916 158.28 339.17L158.28 384.393C158.28 390.646 163.332 395.698 169.585 395.698L186.16 395.698C188.149 402.017 190.683 408.134 193.772 414.005L182.036 425.738C177.616 430.16 177.616 437.307 182.036 441.723 186.458 446.144 193.605 446.144 198.021 441.723L215.873 423.872C219.602 420.142 220.258 414.317 217.442 409.85 212.006 401.199 208.095 391.797 205.833 381.879 204.653 376.741 200.075 373.087 194.795 373.087L180.889 373.087 180.889 350.476 194.795 350.476C200.075 350.476 204.643 346.822 205.818 341.679 208.079 331.766 211.991 322.358 217.427 313.708 220.243 309.231 219.587 303.422 215.858 299.686L206 289.829 221.984 273.845 231.841 283.701C235.571 287.442 241.406 288.088 245.863 285.272 254.514 279.836 263.918 275.924 273.834 273.663 278.987 272.487 282.641 267.909 282.641 262.63L282.641 248.724 305.252 248.724 305.252 262.63C305.252 267.909 308.906 272.477 314.049 273.653 323.963 275.914 333.371 279.826 342.021 285.261 346.488 288.078 352.296 287.432 356.042 283.691L365.899 273.834 381.884 289.819 372.027 299.676C368.296 303.406 367.64 309.231 370.457 313.698 375.892 322.349 379.804 331.751 382.065 341.669 383.241 346.822 387.82 350.476 393.098 350.476L407.004 350.476 407.004 373.087 393.098 373.087C387.82 373.087 383.252 376.741 382.075 381.884 379.814 391.797 375.903 401.204 370.467 409.855 367.65 414.332 368.307 420.141 372.037 423.877L381.894 433.734 365.909 449.718 356.052 439.86C352.312 436.121 346.488 435.475 342.031 438.291 333.381 443.727 323.977 447.639 314.061 449.9 308.906 451.076 305.252 455.653 305.252 460.933L305.252 474.839 282.641 474.839 282.641 460.933C282.641 455.653 278.987 451.086 273.844 449.91 263.932 447.649 254.524 443.737 245.873 438.302 241.407 435.485 235.587 436.131 231.851 439.872L214 457.722C209.579 462.144 209.579 469.29 214 473.707 218.422 478.129 225.568 478.129 229.985 473.707L241.72 461.972C247.599 465.046 253.716 467.589 260.025 469.583L260.03 486.143C260.03 492.396 265.082 497.449 271.336 497.449L316.559 497.449C322.812 497.449 327.865 492.396 327.865 486.143L327.865 469.568C334.183 467.579 340.301 465.046 346.171 461.957L357.905 473.692C362.327 478.112 369.473 478.112 373.89 473.692L405.863 441.717C410.285 437.297 410.285 430.149 405.863 425.733L394.128 413.998C397.202 408.118 399.746 402.002 401.739 395.692Z" fill="#0D856E" transform="matrix(1.00056 0 0 1 -1577.8 1175.77)"/><path d="M293.947 418.309C325.119 418.309 350.476 392.952 350.476 361.782 350.476 330.609 325.119 305.252 293.947 305.252 262.776 305.252 237.419 330.609 237.419 361.782 237.419 392.952 262.776 418.309 293.947 418.309ZM293.947 327.865C312.647 327.865 327.865 343.081 327.865 361.782 327.865 380.481 312.647 395.698 293.947 395.698 275.247 395.698 260.03 380.481 260.03 361.782 260.03 343.081 275.247 327.865 293.947 327.865Z" fill="#0D856E" transform="matrix(1.00056 0 0 1 -1577.8 1175.77)"/><path d="M585.414 117.296C581.502 112.425 574.401 111.623 569.519 115.534L512.991 160.757C510.312 162.902 508.752 166.147 508.752 169.584 508.752 173.022 510.312 176.267 512.991 178.412L569.519 223.635C571.61 225.31 574.098 226.113 576.575 226.113 579.902 226.113 583.178 224.655 585.419 221.874 589.319 216.988 588.518 209.876 583.656 205.979L538.156 169.584 583.651 133.189C588.523 129.293 589.314 122.181 585.414 117.295Z" fill="#0D856E" transform="matrix(1.00056 0 0 1 -1577.8 1175.77)"/><path d="M741.936 160.761 685.407 115.537C680.521 111.626 673.425 112.449 669.513 117.299 665.612 122.184 666.414 129.296 671.275 133.192L716.77 169.588 671.275 205.983C666.404 209.895 665.612 217.006 669.513 221.877 671.75 224.669 675.029 226.117 678.351 226.117 680.829 226.117 683.313 225.314 685.407 223.638L741.935 178.416C744.615 176.271 746.174 173.025 746.174 169.588 746.174 166.151 744.615 162.906 741.935 160.761Z" fill="#0D856E" transform="matrix(1.00056 0 0 1 -1577.8 1175.77)"/><path d="M606.526 225.402C607.848 225.877 609.181 226.114 610.503 226.114 615.071 226.114 619.391 223.323 621.097 218.786L655.015 128.34C657.194 122.486 654.247 115.97 648.402 113.779 642.547 111.618 636.021 114.536 633.841 120.391L599.924 210.836C597.728 216.686 600.691 223.196 606.525 225.401Z" fill="#0D856E" transform="matrix(1.00056 0 0 1 -1577.8 1175.77)"/><path d="M463.532 293.947C463.532 300.2 468.584 305.252 474.837 305.252L520.06 305.252C526.314 305.252 531.365 300.2 531.365 293.947 531.365 287.693 526.314 282.641 520.06 282.641L474.837 282.641C468.584 282.641 463.532 287.693 463.532 293.947Z" fill="#0D856E" transform="matrix(1.00056 0 0 1 -1577.8 1175.77)"/><path d="M576.589 293.947C576.589 300.19 571.527 305.252 565.283 305.252 559.04 305.252 553.978 300.19 553.978 293.947 553.978 287.703 559.04 282.641 565.283 282.641 571.527 282.641 576.589 287.703 576.589 293.947" fill="#0D856E" transform="matrix(1.00056 0 0 1 -1577.8 1175.77)"/><path d="M621.811 339.17C621.811 332.916 616.759 327.865 610.506 327.865L565.283 327.865C559.03 327.865 553.978 332.916 553.978 339.17 553.978 345.424 559.03 350.476 565.283 350.476L610.506 350.476C616.759 350.476 621.811 345.424 621.811 339.17Z" fill="#0D856E" transform="matrix(1.00056 0 0 1 -1577.8 1175.77)"/><path d="M667.034 339.17C667.034 345.414 661.971 350.476 655.728 350.476 649.485 350.476 644.423 345.414 644.423 339.17 644.423 332.926 649.485 327.865 655.728 327.865 661.971 327.865 667.034 332.926 667.034 339.17" fill="#0D856E" transform="matrix(1.00056 0 0 1 -1577.8 1175.77)"/><path d="M486.143 384.393C486.143 390.636 481.081 395.698 474.837 395.698 468.594 395.698 463.532 390.636 463.532 384.393 463.532 378.15 468.594 373.087 474.837 373.087 481.081 373.087 486.143 378.15 486.143 384.393" fill="#0D856E" transform="matrix(1.00056 0 0 1 -1577.8 1175.77)"/><path d="M587.895 384.393C587.895 390.636 582.832 395.698 576.589 395.698 570.346 395.698 565.283 390.636 565.283 384.393 565.283 378.15 570.346 373.087 576.589 373.087 582.832 373.087 587.895 378.15 587.895 384.393" fill="#0D856E" transform="matrix(1.00056 0 0 1 -1577.8 1175.77)"/><path d="M700.951 384.393C700.951 390.636 695.888 395.698 689.645 395.698 683.402 395.698 678.339 390.636 678.339 384.393 678.339 378.15 683.402 373.087 689.645 373.087 695.888 373.087 700.951 378.15 700.951 384.393" fill="#0D856E" transform="matrix(1.00056 0 0 1 -1577.8 1175.77)"/><path d="M633.117 429.615C633.117 435.858 628.055 440.921 621.811 440.921 615.568 440.921 610.506 435.858 610.506 429.615 610.506 423.372 615.568 418.309 621.811 418.309 628.055 418.309 633.117 423.372 633.117 429.615" fill="#0D856E" transform="matrix(1.00056 0 0 1 -1577.8 1175.77)"/><path d="M610.506 305.252 644.423 305.252C650.676 305.252 655.728 300.2 655.728 293.947 655.728 287.693 650.676 282.641 644.423 282.641L610.506 282.641C604.253 282.641 599.2 287.693 599.2 293.947 599.2 300.2 604.253 305.252 610.506 305.252Z" fill="#0D856E" transform="matrix(1.00056 0 0 1 -1577.8 1175.77)"/><path d="M734.867 282.641 689.645 282.641C683.392 282.641 678.339 287.693 678.339 293.947 678.339 300.2 683.392 305.252 689.645 305.252L734.867 305.252C741.122 305.252 746.173 300.2 746.173 293.947 746.173 287.693 741.122 282.641 734.867 282.641Z" fill="#0D856E" transform="matrix(1.00056 0 0 1 -1577.8 1175.77)"/><path d="M474.837 350.476 520.06 350.476C526.314 350.476 531.365 345.424 531.365 339.17 531.365 332.916 526.314 327.865 520.06 327.865L474.837 327.865C468.584 327.865 463.532 332.916 463.532 339.17 463.532 345.424 468.584 350.476 474.837 350.476Z" fill="#0D856E" transform="matrix(1.00056 0 0 1 -1577.8 1175.77)"/><path d="M734.867 327.865 700.951 327.865C694.697 327.865 689.645 332.916 689.645 339.17 689.645 345.424 694.697 350.476 700.951 350.476L734.867 350.476C741.122 350.476 746.173 345.424 746.173 339.17 746.173 332.916 741.122 327.865 734.867 327.865Z" fill="#0D856E" transform="matrix(1.00056 0 0 1 -1577.8 1175.77)"/><path d="M655.728 384.393C655.728 378.139 650.676 373.087 644.423 373.087L621.811 373.087C615.558 373.087 610.506 378.139 610.506 384.393 610.506 390.646 615.558 395.698 621.811 395.698L644.423 395.698C650.676 395.698 655.728 390.646 655.728 384.393Z" fill="#0D856E" transform="matrix(1.00056 0 0 1 -1577.8 1175.77)"/><path d="M520.06 373.087C513.807 373.087 508.754 378.139 508.754 384.393 508.754 390.646 513.807 395.698 520.06 395.698L531.365 395.698C537.62 395.698 542.672 390.646 542.672 384.393 542.672 378.139 537.62 373.087 531.365 373.087Z" fill="#0D856E" transform="matrix(1.00056 0 0 1 -1577.8 1175.77)"/><path d="M746.173 384.393C746.173 390.636 741.111 395.698 734.867 395.698 728.624 395.698 723.562 390.636 723.562 384.393 723.562 378.15 728.624 373.087 734.867 373.087 741.111 373.087 746.173 378.15 746.173 384.393" fill="#0D856E" transform="matrix(1.00056 0 0 1 -1577.8 1175.77)"/><path d="M474.837 440.921 576.589 440.921C582.842 440.921 587.895 435.868 587.895 429.615 587.895 423.362 582.842 418.309 576.589 418.309L474.837 418.309C468.584 418.309 463.532 423.362 463.532 429.615 463.532 435.868 468.584 440.921 474.837 440.921Z" fill="#0D856E" transform="matrix(1.00056 0 0 1 -1577.8 1175.77)"/><path d="M667.034 440.921 734.867 440.921C741.122 440.921 746.173 435.868 746.173 429.615 746.173 423.362 741.122 418.309 734.867 418.309L667.034 418.309C660.781 418.309 655.728 423.362 655.728 429.615 655.728 435.868 660.781 440.921 667.034 440.921Z" fill="#0D856E" transform="matrix(1.00056 0 0 1 -1577.8 1175.77)"/><path d="M226.113 203.502C232.366 203.502 237.419 198.45 237.419 192.196L237.419 146.974C237.419 140.721 232.366 135.668 226.113 135.668L180.891 135.668C174.637 135.668 169.585 140.721 169.585 146.974L169.585 192.196C169.585 198.45 174.637 203.502 180.891 203.502ZM192.196 158.28 214.808 158.28 214.808 180.891 192.196 180.891Z" fill="#0D856E" transform="matrix(1.00056 0 0 1 -1577.8 1175.77)"/><path d="M271.336 203.502 316.558 203.502C322.812 203.502 327.865 198.45 327.865 192.196L327.865 124.362C327.865 118.109 322.812 113.057 316.558 113.057L271.336 113.057C265.082 113.057 260.03 118.109 260.03 124.362L260.03 192.196C260.03 198.45 265.082 203.502 271.336 203.502ZM282.641 135.668 305.252 135.668 305.252 180.891 282.641 180.891Z" fill="#0D856E" transform="matrix(1.00056 0 0 1 -1577.8 1175.77)"/><path d="M407.004 203.502C413.257 203.502 418.309 198.45 418.309 192.196L418.309 101.751C418.309 95.4976 413.257 90.4452 407.004 90.4452L361.782 90.4452C355.528 90.4452 350.476 95.4976 350.476 101.751L350.476 192.196C350.476 198.45 355.528 203.502 361.782 203.502 368.035 203.502 373.087 198.45 373.087 192.196L373.087 113.057 395.698 113.057 395.698 192.196C395.698 198.45 400.751 203.502 407.004 203.502Z" fill="#0D856E" transform="matrix(1.00056 0 0 1 -1577.8 1175.77)"/><path d="M37.8734-2.26113C35.9201-1.2517 33.8811-0.489567 31.7562 0.0201564 29.6414 0.545062 27.4408 0.807521 25.1544 0.807521 18.2902 0.807521 12.8444-1.11044 8.82125-4.94622 4.80872-8.78214 2.80509-13.9908 2.80509-20.5725 2.80509-27.1544 4.80885-32.3628 8.82125-36.1989 12.8439-40.0349 18.2897-41.9527 25.1544-41.9527 27.4407-41.9527 29.6414-41.6953 31.7562-41.1855 33.881-40.6707 35.9201-39.9035 37.8734-38.8841L37.8734-30.3644C35.8949-31.7069 33.9466-32.6911 32.0388-33.3118 30.1259-33.9428 28.1121-34.2607 26.0024-34.2607 22.2069-34.2607 19.224-33.0393 17.0588-30.6066 14.8885-28.184 13.8084-24.8378 13.8084-20.5729 13.8084-16.3181 14.8885-12.9719 17.0588-10.5391 19.224-8.1165 22.2069-6.90518 26.0024-6.90518 28.1121-6.90518 30.1259-7.21304 32.0388-7.83386 33.9467-8.46475 35.8949-9.45399 37.8734-10.8016Z" fill="#0D856E" transform="matrix(1.00056 0 0 1 -1487.3 2068.92)"/><path d="M27.7189-22.4898C26.8407-22.8936 25.9725-23.1864 25.1146-23.3782 24.2667-23.5801 23.4086-23.6809 22.5506-23.6809 20.0068-23.6809 18.0485-22.8634 16.6756-21.2382 15.3129-19.608 14.6366-17.2712 14.6366-14.2327L14.6366 0.000801087 4.74424 0.000801087 4.74424-30.9082 14.6366-30.9082 14.6366-25.8408C15.8984-27.8597 17.3521-29.3335 18.9974-30.2622 20.6528-31.1909 22.6313-31.6552 24.933-31.6552 25.2559-31.6552 25.6093-31.6401 26.0029-31.6148 26.3915-31.5846 26.9518-31.5239 27.6786-31.4331Z" fill="#0D856E" transform="matrix(1.00056 0 0 1 -1445.79 2068.92)"/><path d="M35.6122-15.5449 35.6122-12.7185 12.4957-12.7185C12.7379-10.4018 13.5707-8.66569 14.999-7.50993 16.4376-6.34908 18.4514-5.77364 21.0356-5.77364 23.1049-5.77364 25.2347-6.07648 27.4152-6.68212 29.5955-7.29787 31.8364-8.23662 34.1379-9.48838L34.1379-1.87728C31.8062-0.988981 29.4743-0.322786 27.1324 0.121429 24.7905 0.575671 22.4537 0.807845 20.127 0.807845 14.5245 0.807845 10.1739-0.610467 7.06533-3.452 3.96642-6.30361 2.42187-10.296 2.42187-15.4238 2.42187-20.4709 3.94109-24.4331 6.98445-27.3149 10.038-30.207 14.2322-31.6555 19.5621-31.6555 24.4174-31.6555 28.3087-30.1868 31.2311-27.2545 34.1483-24.3322 35.6119-20.4307 35.6119-15.5451ZM25.4572-18.8154C25.4572-20.698 24.9021-22.2122 23.8018-23.3579 22.7117-24.5137 21.2833-25.0941 19.5219-25.0941 17.5938-25.0941 16.0342-24.5541 14.8381-23.4791 13.652-22.399 12.91-20.8444 12.6173-18.8154Z" fill="#0D856E" transform="matrix(1.00056 0 0 1 -1417.9 2068.92)"/><path d="M18.5943-13.9105C16.5349-13.9105 14.9854-13.5572 13.9509-12.8606 12.9111-12.1591 12.3963-11.1296 12.3963-9.77184 12.3963-8.52013 12.8101-7.53589 13.648-6.82436 14.4808-6.1228 15.6467-5.77455 17.1407-5.77455 18.9979-5.77455 20.5575-6.44076 21.8243-7.77325 23.1013-9.10564 23.7424-10.7713 23.7424-12.7801L23.7424-13.9107ZM33.6961-17.6454 33.6961-0.000775245 23.743-0.000775245 23.743-4.58364C22.4107-2.71116 20.9166-1.34337 19.2611-0.485304 17.6056 0.372764 15.5919 0.806772 13.2247 0.806772 10.0197 0.806772 7.41535-0.126959 5.4116-1.99948 3.41793-3.86693 2.42368-6.28957 2.42368-9.26741 2.42368-12.9013 3.66529-15.5562 6.15855-17.2419 8.66194-18.9379 12.5786-19.7858 17.9084-19.7858L23.7429-19.7858 23.7429-20.5732C23.7429-22.1327 23.1221-23.2785 21.8856-24.0052 20.6591-24.732 18.7361-25.0954 16.1115-25.0954 13.9968-25.0954 12.0335-24.8783 10.2164-24.4494 8.39953-24.0304 6.70355-23.3996 5.1289-22.5515L5.1289-30.0819C7.25371-30.6068 9.37866-30.9954 11.5085-31.2528 13.6485-31.5204 15.7785-31.6565 17.9083-31.6565 23.4905-31.6565 27.5181-30.5512 29.9812-28.3456 32.4543-26.1502 33.6959-22.5818 33.6959-17.6458Z" fill="#0D856E" transform="matrix(1.00056 0 0 1 -1379.54 2068.92)"/><path d="M15.5449-39.6913 15.5449-30.9091 25.7201-30.9091 25.7201-23.843 15.5449-23.843 15.5449-10.7401C15.5449-9.29661 15.8276-8.32251 16.3929-7.81279 16.9581-7.31312 18.0887-7.06582 19.7845-7.06582L24.8722-7.06582 24.8722 0.000284257 16.3929 0.000284257C12.4864 0.000284257 9.72047-0.812314 8.09531-2.44251 6.46509-4.06769 5.65251-6.8335 5.65251-10.7401L5.65251-23.843 0.746625-23.843 0.746625-30.9091 5.65251-30.9091 5.65251-39.6913Z" fill="#0D856E" transform="matrix(1.00056 0 0 1 -1341.37 2068.92)"/><path d="M35.6122-15.5449 35.6122-12.7185 12.4957-12.7185C12.7379-10.4018 13.5707-8.66569 14.999-7.50993 16.4376-6.34908 18.4514-5.77364 21.0356-5.77364 23.1049-5.77364 25.2347-6.07648 27.4152-6.68212 29.5955-7.29787 31.8364-8.23662 34.1379-9.48838L34.1379-1.87728C31.8062-0.988981 29.4743-0.322786 27.1324 0.121429 24.7905 0.575671 22.4537 0.807845 20.127 0.807845 14.5245 0.807845 10.1739-0.610467 7.06533-3.452 3.96642-6.30361 2.42187-10.296 2.42187-15.4238 2.42187-20.4709 3.94109-24.4331 6.98445-27.3149 10.038-30.207 14.2322-31.6555 19.5621-31.6555 24.4174-31.6555 28.3087-30.1868 31.2311-27.2545 34.1483-24.3322 35.6119-20.4307 35.6119-15.5451ZM25.4572-18.8154C25.4572-20.698 24.9021-22.2122 23.8018-23.3579 22.7117-24.5137 21.2833-25.0941 19.5219-25.0941 17.5938-25.0941 16.0342-24.5541 14.8381-23.4791 13.652-22.399 12.91-20.8444 12.6173-18.8154Z" fill="#0D856E" transform="matrix(1.00056 0 0 1 -1314.34 2068.92)"/><path d="M25.7808-26.3868 25.7808-42.9408 35.7136-42.9408 35.7136 0 25.7808 0 25.7808-4.46166C24.4181-2.64476 22.9191-1.31223 21.2786-0.464243 19.6333 0.383682 17.7356 0.80765 15.5855 0.80765 11.7749 0.80765 8.64566-0.706533 6.19783-3.73477 3.76006-6.76313 2.54371-10.6595 2.54371-15.4241 2.54371-20.1885 3.76008-24.0849 6.19783-27.1133 8.64566-30.1417 11.7749-31.6558 15.5855-31.6558 17.7254-31.6558 19.6132-31.2217 21.2585-30.3637 22.9139-29.5158 24.4181-28.1884 25.7808-26.3865ZM19.2598-6.38027C21.3847-6.38027 22.9997-7.15248 24.105-8.702 25.2205-10.2464 25.7808-12.4874 25.7808-15.4248 25.7808-18.3722 25.2205-20.6183 24.105-22.1679 22.9997-23.7124 21.3847-24.4895 19.2598-24.4895 17.1601-24.4895 15.5501-23.7124 14.4347-22.1679 13.3293-20.6184 12.7792-18.3725 12.7792-15.4248 12.7792-12.4874 13.3294-10.2464 14.4347-8.702 15.5501-7.15255 17.1601-6.38027 19.2598-6.38027Z" fill="#0D856E" transform="matrix(1.00056 0 0 1 -1275.98 2068.92)"/><path d="M21.1977-6.37962C23.3075-6.37962 24.9226-7.15184 26.0431-8.70135 27.1585-10.2458 27.7188-12.4868 27.7188-15.4241 27.7188-18.3716 27.1585-20.6176 26.0431-22.1673 24.9226-23.7116 23.3075-24.4889 21.1977-24.4889 19.0831-24.4889 17.4629-23.7067 16.3323-22.147 15.2018-20.5977 14.6365-18.3566 14.6365-15.4242 14.6365-12.502 15.2018-10.261 16.3323-8.70148 17.4629-7.15202 19.0831-6.37975 21.1977-6.37975ZM14.6365-26.3861C15.9943-28.1879 17.5033-29.5154 19.1587-30.3633 20.8142-31.2213 22.717-31.6553 24.8722-31.6553 28.6778-31.6553 31.807-30.1411 34.2598-27.1129 36.7078-24.0846 37.9343-20.1881 37.9343-15.4236 37.9343-10.6591 36.7079-6.76272 34.2598-3.73435 31.807-0.70599 28.6778 0.808064 24.8722 0.808064 22.717 0.808064 20.8144 0.374004 19.1587-0.484011 17.5032-1.34202 15.9943-2.66943 14.6365-4.46115L14.6365 0.00051683 4.74412 0.00051683 4.74412-42.9403 14.6365-42.9403Z" fill="#0D856E" transform="matrix(1.00056 0 0 1 -1215.8 2068.92)"/><path d="M0.686415-30.909 10.5788-30.909 18.8763-9.93347 25.9424-30.909 35.8348-30.909 22.834 2.92785C21.5269 6.37006 19.9975 8.77241 18.2511 10.1352 16.5148 11.508 14.2184 12.1945 11.3668 12.1945L5.65341 12.1945 5.65341 5.71395 8.74225 5.71395C10.423 5.71395 11.6393 5.44139 12.3964 4.9064 13.1635 4.3815 13.7592 3.42258 14.1932 2.03954L14.4556 1.19162Z" fill="#0D856E" transform="matrix(1.00056 0 0 1 -1175.31 2068.92)"/><path d="M0.282641-41.2056 38.258-41.2056 38.258-33.1704 24.5904-33.1704 24.5904-0.000258414 13.9712-0.000258414 13.9712-33.1704 0.2829-33.1704Z" fill="#0D856E" transform="matrix(1.00056 0 0 1 -1118.75 2068.92)"/><path d="M4.74437-30.909 14.6367-30.909 14.6367 0 4.74437 0ZM4.74437-42.9415 14.6367-42.9415 14.6367-34.8862 4.74437-34.8862Z" fill="#0D856E" transform="matrix(1.00056 0 0 1 -1080.17 2068.92)"/><path d="M14.6366-4.46166 14.6366 11.75 4.74424 11.75 4.74424-30.9091 14.6366-30.9091 14.6366-26.3869C15.9944-28.1887 17.5034-29.5161 19.1588-30.3641 20.8144-31.222 22.7171-31.6562 24.8723-31.6562 28.6779-31.6562 31.8072-30.142 34.26-27.1137 36.7079-24.0853 37.9344-20.1889 37.9344-15.4243 37.9344-10.6599 36.708-6.7635 34.26-3.73513 31.8072-0.706765 28.6779 0.807288 24.8723 0.807288 22.7171 0.807288 20.8145 0.373229 19.1588-0.484786 17.5033-1.3428 15.9944-2.67021 14.6366-4.46193ZM21.1979-24.4888C19.0832-24.4888 17.463-23.7066 16.3324-22.1469 15.2019-20.5975 14.6366-18.3565 14.6366-15.4241 14.6366-12.5019 15.2019-10.2609 16.3324-8.70135 17.463-7.15189 19.0832-6.37962 21.1979-6.37962 23.3076-6.37962 24.9227-7.15184 26.0432-8.70135 27.1587-10.2458 27.7189-12.4868 27.7189-15.4241 27.7189-18.3716 27.1587-20.6176 26.0432-22.1673 24.9227-23.7116 23.3076-24.4889 21.1979-24.4889Z" fill="#0D856E" transform="matrix(1.00056 0 0 1 -1060.78 2068.92)"/><path d="M14.6366-4.46166 14.6366 11.75 4.74424 11.75 4.74424-30.9091 14.6366-30.9091 14.6366-26.3869C15.9944-28.1887 17.5034-29.5161 19.1588-30.3641 20.8144-31.222 22.7171-31.6562 24.8723-31.6562 28.6779-31.6562 31.8072-30.142 34.26-27.1137 36.7079-24.0853 37.9344-20.1889 37.9344-15.4243 37.9344-10.6599 36.708-6.7635 34.26-3.73513 31.8072-0.706765 28.6779 0.807288 24.8723 0.807288 22.7171 0.807288 20.8145 0.373229 19.1588-0.484786 17.5033-1.3428 15.9944-2.67021 14.6366-4.46193ZM21.1979-24.4888C19.0832-24.4888 17.463-23.7066 16.3324-22.1469 15.2019-20.5975 14.6366-18.3565 14.6366-15.4241 14.6366-12.5019 15.2019-10.2609 16.3324-8.70135 17.463-7.15189 19.0832-6.37962 21.1979-6.37962 23.3076-6.37962 24.9227-7.15184 26.0432-8.70135 27.1587-10.2458 27.7189-12.4868 27.7189-15.4241 27.7189-18.3716 27.1587-20.6176 26.0432-22.1673 24.9227-23.7116 23.3076-24.4889 21.1979-24.4889Z" fill="#0D856E" transform="matrix(1.00056 0 0 1 -1020.3 2068.92)"/><path d="M18.5943-13.9105C16.5349-13.9105 14.9854-13.5572 13.9509-12.8606 12.9111-12.1591 12.3963-11.1296 12.3963-9.77184 12.3963-8.52013 12.8101-7.53589 13.648-6.82436 14.4808-6.1228 15.6467-5.77455 17.1407-5.77455 18.9979-5.77455 20.5575-6.44076 21.8243-7.77325 23.1013-9.10564 23.7424-10.7713 23.7424-12.7801L23.7424-13.9107ZM33.6961-17.6454 33.6961-0.000775245 23.743-0.000775245 23.743-4.58364C22.4107-2.71116 20.9166-1.34337 19.2611-0.485304 17.6056 0.372764 15.5919 0.806772 13.2247 0.806772 10.0197 0.806772 7.41535-0.126959 5.4116-1.99948 3.41793-3.86693 2.42368-6.28957 2.42368-9.26741 2.42368-12.9013 3.66529-15.5562 6.15855-17.2419 8.66194-18.9379 12.5786-19.7858 17.9084-19.7858L23.7429-19.7858 23.7429-20.5732C23.7429-22.1327 23.1221-23.2785 21.8856-24.0052 20.6591-24.732 18.7361-25.0954 16.1115-25.0954 13.9968-25.0954 12.0335-24.8783 10.2164-24.4494 8.39953-24.0304 6.70355-23.3996 5.1289-22.5515L5.1289-30.0819C7.25371-30.6068 9.37866-30.9954 11.5085-31.2528 13.6485-31.5204 15.7785-31.6565 17.9083-31.6565 23.4905-31.6565 27.5181-30.5512 29.9812-28.3456 32.4543-26.1502 33.6959-22.5818 33.6959-17.6458Z" fill="#0D856E" transform="matrix(1.00056 0 0 1 -979.802 2068.92)"/><path d="M1.97843-30.909 11.5882-30.909 16.7767-9.61046 22.0056-30.909 30.2426-30.909 35.431-9.83269 40.6599-30.909 50.2697-30.909 42.1135 0 31.3327 0 26.1037-21.2585 20.9153 0 10.1345 0Z" fill="#0D856E" transform="matrix(1.00056 0 0 1 -941.644 2068.92)"/><path d="M18.5943-13.9105C16.5349-13.9105 14.9854-13.5572 13.9509-12.8606 12.9111-12.1591 12.3963-11.1296 12.3963-9.77184 12.3963-8.52013 12.8101-7.53589 13.648-6.82436 14.4808-6.1228 15.6467-5.77455 17.1407-5.77455 18.9979-5.77455 20.5575-6.44076 21.8243-7.77325 23.1013-9.10564 23.7424-10.7713 23.7424-12.7801L23.7424-13.9107ZM33.6961-17.6454 33.6961-0.000775245 23.743-0.000775245 23.743-4.58364C22.4107-2.71116 20.9166-1.34337 19.2611-0.485304 17.6056 0.372764 15.5919 0.806772 13.2247 0.806772 10.0197 0.806772 7.41535-0.126959 5.4116-1.99948 3.41793-3.86693 2.42368-6.28957 2.42368-9.26741 2.42368-12.9013 3.66529-15.5562 6.15855-17.2419 8.66194-18.9379 12.5786-19.7858 17.9084-19.7858L23.7429-19.7858 23.7429-20.5732C23.7429-22.1327 23.1221-23.2785 21.8856-24.0052 20.6591-24.732 18.7361-25.0954 16.1115-25.0954 13.9968-25.0954 12.0335-24.8783 10.2164-24.4494 8.39953-24.0304 6.70355-23.3996 5.1289-22.5515L5.1289-30.0819C7.25371-30.6068 9.37866-30.9954 11.5085-31.2528 13.6485-31.5204 15.7785-31.6565 17.9083-31.6565 23.4905-31.6565 27.5181-30.5512 29.9812-28.3456 32.4543-26.1502 33.6959-22.5818 33.6959-17.6458Z" fill="#0D856E" transform="matrix(1.00056 0 0 1 -889.395 2068.92)"/><path d="M35.8345-18.8151 35.8345 0 25.8814 0 25.8814-14.4144C25.8814-17.0794 25.8208-18.9165 25.6998-19.9259 25.5887-20.9353 25.3868-21.6824 25.094-22.1669 24.7005-22.8129 24.1755-23.3075 23.5193-23.6607 22.8582-24.0241 22.1061-24.2059 21.2582-24.2059 19.1989-24.2059 17.5737-23.4084 16.3927-21.8236 15.2217-20.2336 14.6362-18.028 14.6362-15.2016L14.6362 0.000930295 4.74389 0.000930295 4.74389-30.9081 14.6362-30.9081 14.6362-26.3859C16.1151-28.1876 17.6899-29.5151 19.3603-30.3629 21.0411-31.221 22.8985-31.655 24.9325-31.655 28.4957-31.655 31.2011-30.5548 33.0483-28.3642 34.9056-26.1839 35.8342-22.9992 35.8342-18.815Z" fill="#0D856E" transform="matrix(1.00056 0 0 1 -851.224 2068.92)"/><path d="M33.877-39.9135 33.877-31.192C31.6006-32.2015 29.3849-32.9586 27.2349-33.4732 25.0797-33.9982 23.0457-34.2606 21.1378-34.2606 18.6042-34.2606 16.7265-33.9074 15.5051-33.2108 14.2938-32.5092 13.6882-31.4191 13.6882-29.9404 13.6882-28.835 14.0971-27.9719 14.9197-27.3561 15.7374-26.7505 17.2263-26.2256 19.3814-25.7814L23.9037-24.8729C28.4764-23.9442 31.7369-22.5411 33.675-20.6737 35.6131-18.8012 36.5821-16.1363 36.5821-12.679 36.5821-8.12646 35.2295-4.74483 32.5243-2.52401 29.8292-0.303198 25.7107 0.807082 20.1688 0.807082 17.5544 0.807082 14.9298 0.554727 12.2952 0.0601073 9.67069-0.434512 7.0461-1.17645 4.4215-2.16071L4.4215-11.1245C7.04597-9.72142 9.57973-8.66657 12.0326-7.95489 14.4955-7.25334 16.8678-6.90508 19.1592-6.90508 21.4708-6.90508 23.2424-7.28868 24.4688-8.05583 25.7054-8.8331 26.3262-9.93838 26.3262-11.3668 26.3262-12.6589 25.9073-13.6531 25.0746-14.3547 24.2367-15.0513 22.5711-15.677 20.0677-16.2322L15.9492-17.1407C11.8307-18.029 8.81256-19.4321 6.90468-21.3602 5.00688-23.2982 4.05812-25.9025 4.05812-29.1732 4.05812-33.2765 5.38042-36.431 8.03525-38.6416 10.685-40.8472 14.4957-41.9525 19.4621-41.9525 21.7232-41.9525 24.05-41.7809 26.4473-41.4478 28.8397-41.1097 31.3178-40.5999 33.8767-39.9135Z" fill="#0D856E" transform="matrix(1.00056 0 0 1 -791.27 2068.92)"/><path d="M19.4612-24.5895C17.2658-24.5895 15.59-23.8022 14.4344-22.2274 13.2886-20.6527 12.7183-18.3815 12.7183-15.4238 12.7183-12.4612 13.2886-10.195 14.4344-8.62034 15.59-7.04556 17.2658-6.2583 19.4612-6.2583 21.6114-6.2583 23.2567-7.04566 24.3873-8.62034 25.5279-10.1951 26.1032-12.4613 26.1032-15.4238 26.1032-18.3816 25.5279-20.6528 24.3873-22.2274 23.2567-23.8022 21.6114-24.5895 19.4612-24.5895ZM19.4612-31.6555C24.776-31.6555 28.9298-30.2221 31.9176-27.3554 34.9055-24.4887 36.3996-20.5115 36.3996-15.4238 36.3996-10.3464 34.9056-6.36928 31.9176-3.49235 28.9298-0.625493 24.776 0.807806 19.4612 0.807806 14.1163 0.807806 9.93723-0.625623 6.9241-3.49235 3.92106-6.36928 2.422-10.3464 2.422-15.4238 2.422-20.5115 3.92106-24.4885 6.9241-27.3554 9.93723-30.2222 14.1163-31.6555 19.4612-31.6555Z" fill="#0D856E" transform="matrix(1.00056 0 0 1 -750.535 2068.92)"/><path d="M19.4612-24.5895C17.2658-24.5895 15.59-23.8022 14.4344-22.2274 13.2886-20.6527 12.7183-18.3815 12.7183-15.4238 12.7183-12.4612 13.2886-10.195 14.4344-8.62034 15.59-7.04556 17.2658-6.2583 19.4612-6.2583 21.6114-6.2583 23.2567-7.04566 24.3873-8.62034 25.5279-10.1951 26.1032-12.4613 26.1032-15.4238 26.1032-18.3816 25.5279-20.6528 24.3873-22.2274 23.2567-23.8022 21.6114-24.5895 19.4612-24.5895ZM19.4612-31.6555C24.776-31.6555 28.9298-30.2221 31.9176-27.3554 34.9055-24.4887 36.3996-20.5115 36.3996-15.4238 36.3996-10.3464 34.9056-6.36928 31.9176-3.49235 28.9298-0.625493 24.776 0.807806 19.4612 0.807806 14.1163 0.807806 9.93723-0.625623 6.9241-3.49235 3.92106-6.36928 2.422-10.3464 2.422-15.4238 2.422-20.5115 3.92106-24.4885 6.9241-27.3554 9.93723-30.2222 14.1163-31.6555 19.4612-31.6555Z" fill="#0D856E" transform="matrix(1.00056 0 0 1 -711.672 2068.92)"/></g></g></g></g><text fill="#0D856E" font-family="Montserrat Alternates,Montserrat Alternates_MSFontService,sans-serif" font-weight="700" font-size="92" transform="matrix(1 0 0 1 -1445.99 2161)">Development</text><g clip-path="url(#clip5)"><g clip-path="url(#clip6)"><g clip-path="url(#clip7)"><g clip-path="url(#clip8)"><path d="M868.356 414.737C871.791 414.737 875.09 413.371 877.521 410.941 879.95 408.511 881.315 405.213 881.315 401.776L881.315 246.251C881.292 229.07 874.459 212.599 862.315 200.449 850.164 188.303 833.692 181.47 816.513 181.447L802.488 181.447C783.991 149.41 749.824 129.651 712.829 129.605L712.829 84.2434C712.869 64.2072 702.593 45.5647 685.63 34.8957 668.672 24.2265 647.413 23.0403 629.374 31.7539 611.327 40.4617 599.038 57.8483 596.844 77.7631L583.225 77.7631C576.068 77.7631 570.264 83.5663 570.264 90.7236L570.264 142.566C570.264 146.002 571.63 149.301 574.06 151.731 576.49 154.161 579.788 155.526 583.225 155.526L712.83 155.526C740.03 155.508 765.262 169.708 779.362 192.966 793.468 216.22 794.395 245.156 781.81 269.273 769.226 293.382 744.954 309.167 717.812 310.897 690.664 312.621 664.592 300.042 649.051 277.72 646.632 274.25 642.669 272.178 638.434 272.173L579.857 272.173C575.622 272.178 571.659 274.25 569.24 277.72 553.699 300.042 527.627 312.621 500.479 310.897 473.337 309.167 449.065 293.384 436.481 269.273 423.896 245.157 424.823 216.222 438.929 192.966 453.029 169.707 478.261 155.508 505.461 155.526L531.383 155.526C538.54 155.526 544.342 149.723 544.342 142.566 544.342 135.408 538.54 129.605 531.383 129.605L505.461 129.605C468.465 129.651 434.3 149.41 415.803 181.447L340.059 181.447 276.458 71.2827C264.886 51.2288 243.489 38.8755 220.34 38.8755 197.184 38.8755 175.789 51.2285 164.209 71.2768 152.633 91.3308 152.633 116.031 164.209 136.085L201.107 199.981C188.557 212.102 181.458 228.799 181.446 246.249L181.446 596.185C181.469 616.799 189.669 636.57 204.243 651.15 218.825 665.724 238.594 673.923 259.21 673.947L406.729 673.947 380.807 725.79 336.973 725.79C326.663 725.79 316.767 729.885 309.479 737.176 302.19 744.467 298.092 754.361 298.092 764.67L298.092 790.591C298.092 794.027 299.457 797.326 301.888 799.757 304.318 802.187 307.615 803.551 311.053 803.551L427.697 803.551C434.855 803.551 440.658 797.748 440.658 790.591 440.658 783.435 434.855 777.631 427.697 777.631L324.013 777.631 324.013 764.67C324.013 757.513 329.816 751.71 336.973 751.71L725.79 751.71C729.227 751.71 732.524 753.074 734.955 755.505 737.385 757.935 738.749 761.234 738.749 764.67L738.749 777.631 479.539 777.631C472.382 777.631 466.579 783.435 466.579 790.591 466.579 797.748 472.382 803.551 479.539 803.551L751.71 803.551C755.147 803.551 758.445 802.187 760.875 799.757 763.305 797.326 764.671 794.027 764.671 790.591L764.671 764.67C764.671 754.359 760.574 744.465 753.285 737.176 745.994 729.887 736.1 725.79 725.79 725.79L681.956 725.79 656.034 673.947 728.213 673.947 728.213 674.26C729.151 678.946 732.594 682.742 737.165 684.125 741.741 685.508 746.711 684.263 750.089 680.879L759.254 671.714 805.069 717.544C810.132 722.606 818.336 722.606 823.392 717.544L860.058 680.878C865.122 675.822 865.122 667.616 860.058 662.554L857.067 659.563C872.401 647.32 881.328 628.765 881.315 609.144L881.315 453.617C881.315 446.46 875.513 440.658 868.356 440.658 861.197 440.658 855.395 446.46 855.395 453.617L855.395 609.144C855.383 621.896 849.076 633.821 838.546 641.014L814.257 616.736 823.422 607.571 823.422 607.577C826.801 604.197 828.051 599.227 826.662 594.65 825.279 590.079 821.489 586.636 816.797 585.7L725.166 567.376 725.166 567.37C720.919 566.519 716.521 567.85 713.455 570.917 710.394 573.982 709.063 578.375 709.914 582.627L723.019 648.025 259.21 648.025C245.463 648.025 232.276 642.563 222.55 632.843 212.831 623.116 207.368 609.931 207.368 596.183L207.368 246.249C207.449 238.178 210.076 230.332 214.872 223.839L226.536 244.109C230.119 250.312 238.045 252.441 244.248 248.858 250.45 245.283 252.573 237.351 248.998 231.148L206.073 156.821 228.533 143.861 358.139 368.352 335.678 381.313 274.96 276.059C271.379 269.858 263.453 267.728 257.25 271.31 251.048 274.891 248.917 282.817 252.5 289.02L319.739 405.486C320.647 407.053 321.874 408.419 323.344 409.489L388.817 457.108 388.817 518.422 332.137 518.422C335.29 510.141 336.928 501.358 336.974 492.5 336.974 473.98 327.092 456.864 311.053 447.603 295.014 438.344 275.25 438.344 259.212 447.603 243.172 456.866 233.29 473.981 233.29 492.5 233.347 502.244 235.315 511.883 239.082 520.868 235.518 523.189 233.347 527.129 233.29 531.381L233.29 609.144C233.29 612.581 234.655 615.88 237.086 618.309 239.516 620.739 242.813 622.105 246.251 622.105L401.776 622.105C405.213 622.105 408.512 620.739 410.941 618.309 413.371 615.88 414.737 612.581 414.737 609.144L414.737 544.342 466.579 544.342 466.579 596.185 453.619 596.185C446.462 596.185 440.659 601.987 440.659 609.144 440.659 616.302 446.462 622.105 453.619 622.105L479.54 622.105C482.976 622.105 486.275 620.739 488.705 618.309 491.136 615.88 492.5 612.581 492.5 609.144L492.5 466.579 622.106 466.579 622.106 518.42 570.264 518.42 570.264 505.461C570.264 498.304 564.46 492.5 557.303 492.5 550.146 492.5 544.342 498.304 544.342 505.461L544.342 531.381C544.342 534.819 545.708 538.116 548.138 540.546 550.568 542.977 553.866 544.342 557.303 544.342L790.593 544.342C794.029 544.342 797.328 542.977 799.758 540.546 802.188 538.116 803.554 534.819 803.554 531.381L803.554 453.619C803.554 450.181 802.188 446.884 799.758 444.454 797.328 442.023 794.029 440.658 790.593 440.658L764.671 440.658 764.671 427.697 816.513 427.697C821.015 427.721 825.21 425.406 827.589 421.581 829.966 417.757 830.192 412.972 828.178 408.945L818.04 388.815 828.109 368.686 828.114 368.686C830.123 364.671 829.908 359.897 827.541 356.078 825.181 352.255 821.004 349.934 816.513 349.934L751.712 349.934C744.553 349.934 738.751 355.737 738.751 362.895L738.751 440.658 648.027 440.658 648.027 375.854C648.027 372.419 646.661 369.12 644.231 366.689 641.801 364.26 638.503 362.895 635.066 362.895L435.474 362.895 433.658 345.785C433.466 343.986 432.9 342.244 432.003 340.665L355.026 207.368 405.185 207.368C397.176 238.206 403.813 271.02 423.173 296.328 442.526 321.641 472.463 336.627 504.321 336.973 536.184 337.314 566.434 322.978 586.337 298.092L631.959 298.092 631.953 298.092C651.804 323.093 682.089 337.541 714.009 337.234 745.936 336.927 775.931 321.9 795.302 296.518 814.667 271.141 821.234 238.242 813.106 207.368L816.513 207.368C826.825 207.368 836.719 211.465 844.008 218.754 851.296 226.045 855.395 235.94 855.395 246.249L855.395 401.775C855.395 405.212 856.76 408.509 859.191 410.94 861.621 413.37 864.918 414.736 868.356 414.736ZM654.499 51.842C663.091 51.842 671.336 55.2558 677.412 61.331 683.488 67.4061 686.901 75.6513 686.901 84.2437L686.901 129.606 648.02 129.606 648.02 90.724C648.02 87.2872 646.654 83.9891 644.224 81.559 641.794 79.129 638.496 77.7635 635.059 77.7635L622.758 77.7635C624.25 70.4442 628.226 63.8714 634.011 59.1507 639.797 54.4236 647.03 51.843 654.499 51.843ZM596.177 103.684 622.098 103.684 622.098 129.605 596.177 129.605ZM787.993 606.375 786.788 607.578C781.726 612.64 781.726 620.846 786.788 625.902L832.619 671.716 814.278 690.057 768.464 644.228 768.458 644.234C763.4 639.17 755.196 639.17 750.134 644.234L748.93 645.437 739.158 596.604ZM627.045 673.949 652.967 725.791 409.767 725.791 435.689 673.949ZM791.933 394.609 795.52 401.778 764.651 401.778 764.651 375.856 795.526 375.856 791.938 383.026 791.933 383.026C790.11 386.67 790.11 390.963 791.933 394.608ZM418.225 446.45 400.583 433.617 415.927 424.765ZM412.948 396.553 377.642 416.924 354.701 400.243 409.963 368.346ZM380.546 355.361 250.941 130.87 273.391 117.91 402.996 342.387ZM200.877 69.9928C209.811 64.8316 220.434 63.4314 230.403 66.1045 240.367 68.7835 248.867 75.31 254.015 84.2493L260.495 95.4625 193.1 134.344 186.621 123.131C181.459 114.197 180.059 103.575 182.732 93.6046 185.412 83.6412 191.938 75.1415 200.877 69.9928ZM285.121 466.585C291.994 466.585 298.59 469.315 303.451 474.176 308.311 479.036 311.041 485.633 311.041 492.506 309.393 511.472 300.019 528.922 285.121 540.772 270.226 528.916 260.854 511.467 259.199 492.506 259.199 485.633 261.93 479.036 266.791 474.176 271.651 469.315 278.246 466.585 285.121 466.585ZM259.354 551.823C264.949 557.894 271.176 563.344 277.928 568.093 282.284 570.997 287.954 570.997 292.312 568.093 299.064 563.344 305.289 557.892 310.884 551.823L311.041 596.19 259.199 596.19ZM388.805 596.19 336.963 596.19 336.963 544.348 388.805 544.348ZM414.726 518.428 414.726 475.958 426.559 484.58 426.559 484.574C430.7 487.582 436.226 487.871 440.658 485.309 445.09 482.744 447.595 477.82 447.064 472.729L446.416 466.585 466.566 466.585 466.566 518.426ZM751.7 492.506C755.136 492.506 758.435 491.14 760.864 488.71 763.294 486.279 764.659 482.982 764.659 479.545L764.659 466.585 777.62 466.585 777.62 518.428 725.778 518.428 725.778 466.585 738.739 466.585 738.739 479.545C738.739 482.982 740.105 486.281 742.535 488.71 744.964 491.14 748.263 492.506 751.7 492.506ZM699.858 518.428 648.015 518.428 648.015 466.585 699.858 466.585ZM622.094 440.663 570.253 440.663 570.253 388.821 622.094 388.821ZM544.331 440.663 492.488 440.663 492.488 388.821 544.331 388.821ZM466.568 388.821 466.568 440.663 443.667 440.663 438.181 388.821Z" fill="#0D856E" transform="matrix(1.00019 0 0 1 107.925 1059.5)"/><path d="M725.79 272.171C725.79 279.328 719.986 285.132 712.829 285.132 705.672 285.132 699.868 279.328 699.868 272.171 699.868 265.014 705.672 259.21 712.829 259.21 719.986 259.21 725.79 265.014 725.79 272.171" fill="#0D856E" transform="matrix(1.00019 0 0 1 107.925 1059.5)"/><path d="M764.671 233.29C764.671 240.447 758.867 246.251 751.71 246.251 744.553 246.251 738.749 240.447 738.749 233.29 738.749 226.133 744.553 220.329 751.71 220.329 758.867 220.329 764.671 226.133 764.671 233.29" fill="#0D856E" transform="matrix(1.00019 0 0 1 107.925 1059.5)"/><path d="M505.461 272.171C508.897 272.171 512.196 270.805 514.626 268.375 517.056 265.945 518.42 262.647 518.42 259.21L518.42 246.251 531.381 246.251C538.538 246.251 544.342 240.447 544.342 233.29 544.342 226.133 538.538 220.329 531.381 220.329L518.42 220.329 518.42 207.368C518.42 200.211 512.618 194.408 505.461 194.408 498.303 194.408 492.5 200.211 492.5 207.368L492.5 220.329 479.539 220.329C472.382 220.329 466.579 226.133 466.579 233.29 466.579 240.447 472.382 246.251 479.539 246.251L492.5 246.251 492.5 259.21C492.5 262.647 493.866 265.945 496.296 268.375 498.726 270.805 502.024 272.171 505.461 272.171Z" fill="#0D856E" transform="matrix(1.00019 0 0 1 107.925 1059.5)"/><path d="M699.868 233.29C699.868 240.447 694.065 246.251 686.908 246.251 679.75 246.251 673.947 240.447 673.947 233.29 673.947 226.133 679.75 220.329 686.908 220.329 694.065 220.329 699.868 226.133 699.868 233.29" fill="#0D856E" transform="matrix(1.00019 0 0 1 107.925 1059.5)"/><path d="M596.185 233.29C596.185 240.447 590.38 246.251 583.224 246.251 576.067 246.251 570.263 240.447 570.263 233.29 570.263 226.133 576.067 220.329 583.224 220.329 590.38 220.329 596.185 226.133 596.185 233.29" fill="#0D856E" transform="matrix(1.00019 0 0 1 107.925 1059.5)"/><path d="M648.027 233.29C648.027 240.447 642.223 246.251 635.066 246.251 627.909 246.251 622.105 240.447 622.105 233.29 622.105 226.133 627.909 220.329 635.066 220.329 642.223 220.329 648.027 226.133 648.027 233.29" fill="#0D856E" transform="matrix(1.00019 0 0 1 107.925 1059.5)"/><path d="M738.749 194.408C738.749 201.565 732.946 207.368 725.79 207.368 718.633 207.368 712.829 201.565 712.829 194.408 712.829 187.25 718.633 181.447 725.79 181.447 732.946 181.447 738.749 187.25 738.749 194.408" fill="#0D856E" transform="matrix(1.00019 0 0 1 107.925 1059.5)"/><path d="M43.4171-2.5921C41.1778-1.43491 38.8403-0.561227 36.4044 0.0231068 33.9801 0.624845 31.4575 0.925723 28.8363 0.925723 20.9674 0.925723 14.7245-1.27298 10.1125-5.67023 5.5126-10.0676 3.21569-16.0386 3.21569-23.584 3.21569-31.1292 5.51274-37.0998 10.1125-41.4975 14.7239-45.895 20.9668-48.0935 28.8363-48.0935 31.4573-48.0935 33.9801-47.7985 36.4044-47.214 38.8402-46.6238 41.1778-45.7443 43.4171-44.5757L43.4171-34.809C41.149-36.3481 38.9155-37.4764 36.7284-38.1879 34.5356-38.9111 32.227-39.2757 29.8084-39.2757 25.4574-39.2757 22.0379-37.8754 19.5558-35.0866 17.0678-32.3094 15.8296-28.4734 15.8296-23.5842 15.8296-18.7066 17.0678-14.8706 19.5558-12.0818 22.0379-9.30455 25.4574-7.91591 29.8084-7.91591 32.227-7.91591 34.5356-8.26886 36.7284-8.98053 38.9157-9.70378 41.149-10.8378 43.4171-12.3827Z" fill="#0D856E" transform="matrix(1.00019 0 0 1 211.628 2083.38)"/><path d="M31.7763-25.7819C30.7694-26.2447 29.7743-26.5802 28.7907-26.8002 27.8187-27.0316 26.8351-27.1472 25.8514-27.1472 22.9353-27.1472 20.6904-26.21 19.1166-24.3469 17.5544-22.4782 16.7791-19.7993 16.7791-16.3161L16.7791 0.000918345 5.43868 0.000918345 5.43868-35.4325 16.7791-35.4325 16.7791-29.6233C18.2256-31.9376 19.892-33.6271 21.7782-34.6919 23.6759-35.7565 25.9441-36.2888 28.5825-36.2888 28.9527-36.2888 29.3578-36.2713 29.8092-36.2424 30.2546-36.2077 30.8968-36.1382 31.73-36.0341Z" fill="#0D856E" transform="matrix(1.00019 0 0 1 259.198 2083.38)"/><path d="M40.8249-17.8203 40.8249-14.5802 14.3247-14.5802C14.6025-11.9244 15.5572-9.93413 17.1945-8.60919 18.8436-7.27843 21.1521-6.61875 24.1145-6.61875 26.4869-6.61875 28.9285-6.96592 31.4279-7.66022 33.9275-8.36609 36.4965-9.44226 39.1349-10.8772L39.1349-2.15208C36.4618-1.13374 33.7886-0.370034 31.104 0.139203 28.4193 0.659935 25.7404 0.926093 23.073 0.926093 16.6507 0.926093 11.6631-0.699825 8.09951-3.95729 4.54699-7.2263 2.77637-11.8031 2.77637-17.6814 2.77637-23.4674 4.51796-28.0094 8.00678-31.3131 11.5073-34.6285 16.3155-36.2892 22.4254-36.2892 27.9914-36.2892 32.4525-34.6054 35.8024-31.2438 39.1467-27.8938 40.8246-23.4213 40.8246-17.8205ZM29.1835-21.5696C29.1835-23.7277 28.5471-25.4635 27.2858-26.7769 26.0361-28.1019 24.3986-28.7673 22.3793-28.7673 20.1691-28.7673 18.3813-28.1482 17.01-26.9159 15.6502-25.6776 14.7997-23.8956 14.464-21.5696Z" fill="#0D856E" transform="matrix(1.00019 0 0 1 291.159 2083.38)"/><path d="M21.316-15.9467C18.9552-15.9467 17.179-15.5416 15.9928-14.7431 14.801-13.9389 14.2108-12.7586 14.2108-11.2022 14.2108-9.76728 14.6853-8.63897 15.6458-7.82327 16.6004-7.01902 17.937-6.61979 19.6496-6.61979 21.7788-6.61979 23.5667-7.38353 25.0189-8.91107 26.4827-10.4385 27.2177-12.3479 27.2177-14.6507L27.2177-15.9468ZM38.6283-20.2283 38.6283-0.000888721 27.2184-0.000888721 27.2184-5.25456C25.691-3.108 23.9782-1.54 22.0804-0.556339 20.1826 0.427326 17.8741 0.924863 15.1604 0.924863 11.4863 0.924863 8.50078-0.145542 6.20372-2.29216 3.91823-4.43294 2.77844-7.2102 2.77844-10.6239 2.77844-14.7898 4.20178-17.8333 7.06-19.7658 9.92984-21.7099 14.4198-22.682 20.5298-22.682L27.2183-22.682 27.2183-23.5845C27.2183-25.3724 26.5066-26.686 25.0891-27.5189 23.6831-28.3521 21.4787-28.7688 18.4699-28.7688 16.0455-28.7688 13.7949-28.52 11.7119-28.0282 9.629-27.5479 7.68477-26.8247 5.87963-25.8524L5.87963-34.4851C8.31547-35.0869 10.7515-35.5323 13.1931-35.8275 15.6462-36.134 18.088-36.2903 20.5296-36.2903 26.9289-36.2903 31.5461-35.0232 34.3696-32.4947 37.2048-29.9778 38.6281-25.8873 38.6281-20.2285Z" fill="#0D856E" transform="matrix(1.00019 0 0 1 335.118 2083.38)"/><path d="M17.8203-45.501 17.8203-35.4335 29.4849-35.4335 29.4849-27.3331 17.8203-27.3331 17.8203-12.3122C17.8203-10.6574 18.1443-9.54072 18.7924-8.95639 19.4404-8.38358 20.7365-8.10008 22.6806-8.10008L28.5128-8.10008 28.5128 0.000325865 18.7924 0.000325865C14.3141 0.000325865 11.1433-0.931217 9.28025-2.80004 7.41142-4.66309 6.47989-7.83376 6.47989-12.3122L6.47989-27.3331 0.855913-27.3331 0.855913-35.4335 6.47989-35.4335 6.47989-45.501Z" fill="#0D856E" transform="matrix(1.00019 0 0 1 378.857 2083.38)"/><path d="M40.8249-17.8203 40.8249-14.5802 14.3247-14.5802C14.6025-11.9244 15.5572-9.93413 17.1945-8.60919 18.8436-7.27843 21.1521-6.61875 24.1145-6.61875 26.4869-6.61875 28.9285-6.96592 31.4279-7.66022 33.9275-8.36609 36.4965-9.44226 39.1349-10.8772L39.1349-2.15208C36.4618-1.13374 33.7886-0.370034 31.104 0.139203 28.4193 0.659935 25.7404 0.926093 23.073 0.926093 16.6507 0.926093 11.6631-0.699825 8.09951-3.95729 4.54699-7.2263 2.77637-11.8031 2.77637-17.6814 2.77637-23.4674 4.51796-28.0094 8.00678-31.3131 11.5073-34.6285 16.3155-36.2892 22.4254-36.2892 27.9914-36.2892 32.4525-34.6054 35.8024-31.2438 39.1467-27.8938 40.8246-23.4213 40.8246-17.8205ZM29.1835-21.5696C29.1835-23.7277 28.5471-25.4635 27.2858-26.7769 26.0361-28.1019 24.3986-28.7673 22.3793-28.7673 20.1691-28.7673 18.3813-28.1482 17.01-26.9159 15.6502-25.6776 14.7997-23.8956 14.464-21.5696Z" fill="#0D856E" transform="matrix(1.00019 0 0 1 409.841 2083.38)"/><path d="M29.5545-30.2491 29.5545-49.2264 40.9411-49.2264 40.9411 0 29.5545 0 29.5545-5.11474C27.9921-3.03187 26.2738-1.50432 24.3933-0.532197 22.5071 0.439844 20.3316 0.92587 17.8669 0.92587 13.4985 0.92587 9.91117-0.809951 7.10504-4.28145 4.31045-7.75308 2.91605-12.2198 2.91605-17.6817 2.91605-23.1437 4.31046-27.6104 7.10504-31.0821 9.91117-34.5537 13.4985-36.2893 17.8669-36.2893 20.32-36.2893 22.4841-35.7918 24.3702-34.8081 26.2679-33.8362 27.9921-32.3143 29.5545-30.2488ZM22.079-7.31418C24.5149-7.31418 26.3663-8.19943 27.6334-9.97575 28.9121-11.7462 29.5545-14.3152 29.5545-17.6826 29.5545-21.0615 28.9122-23.6363 27.6334-25.4126 26.3663-27.1831 24.5149-28.0743 22.079-28.0743 19.672-28.0743 17.8262-27.1833 16.5476-25.4126 15.2804-23.6364 14.6499-21.0616 14.6499-17.6826 14.6499-14.3152 15.2806-11.7462 16.5476-9.97575 17.8262-8.19949 19.672-7.31418 22.079-7.31418Z" fill="#0D856E" transform="matrix(1.00019 0 0 1 453.799 2083.38)"/><path d="M24.3006-7.31345C26.7191-7.31345 28.5707-8.1987 29.8551-9.97501 31.1338-11.7455 31.7761-14.3145 31.7761-17.6819 31.7761-21.0608 31.1339-23.6355 29.8551-25.4119 28.5707-27.1824 26.7191-28.0735 24.3006-28.0735 21.8763-28.0735 20.0191-27.1768 18.723-25.3889 17.4269-23.6126 16.7789-21.0436 16.7789-17.682 16.7789-14.332 17.4269-11.763 18.723-9.97516 20.0191-8.1989 21.8763-7.31359 24.3006-7.31359ZM16.7789-30.2484C18.3353-32.3139 20.0655-33.8357 21.9632-34.8077 23.8608-35.7913 26.0422-36.2889 28.5129-36.2889 32.8754-36.2889 36.4628-34.553 39.2747-31.0816 42.0808-27.61 43.4869-23.1431 43.4869-17.6813 43.4869-12.2193 42.0809-7.75262 39.2747-4.28097 36.4628-0.809329 32.8754 0.926344 28.5129 0.926344 26.0422 0.926344 23.861 0.428748 21.9632-0.554859 20.0653-1.53847 18.3353-3.06016 16.7789-5.11415L16.7789 0.000592481 5.43854 0.000592481 5.43854-49.2256 16.7789-49.2256Z" fill="#0D856E" transform="matrix(1.00019 0 0 1 522.757 2083.38)"/><path d="M0.786889-35.4333 12.1273-35.4333 21.6395-11.3875 29.7399-35.4333 41.0801-35.4333 26.1763 3.3564C24.6778 7.30248 22.9246 10.0565 20.9226 11.6187 18.9322 13.1925 16.2996 13.9794 13.0307 13.9794L6.48093 13.9794 6.48093 6.55032 10.0219 6.55032C11.9486 6.55032 13.343 6.23788 14.2109 5.62458 15.0904 5.02283 15.7731 3.92356 16.2707 2.33808L16.5715 1.36604Z" fill="#0D856E" transform="matrix(1.00019 0 0 1 569.153 2083.38)"/><path d="M0.324013-47.2371 43.858-47.2371 43.858-38.0257 28.1899-38.0257 28.1899-0.00029624 16.0161-0.00029624 16.0161-38.0257 0.324309-38.0257Z" fill="#0D856E" transform="matrix(1.00019 0 0 1 633.968 2083.38)"/><path d="M5.43883-35.4333 16.7792-35.4333 16.7792 0 5.43883 0ZM5.43883-49.2271 16.7792-49.2271 16.7792-39.9926 5.43883-39.9926Z" fill="#0D856E" transform="matrix(1.00019 0 0 1 678.181 2083.38)"/><path d="M16.7791-5.11474 16.7791 13.4699 5.43868 13.4699 5.43868-35.4335 16.7791-35.4335 16.7791-30.2493C18.3355-32.3148 20.0656-33.8366 21.9633-34.8086 23.861-35.7922 26.0423-36.2898 28.5131-36.2898 32.8756-36.2898 36.4629-34.554 39.2748-31.0825 42.0809-27.6108 43.4871-23.1441 43.4871-17.6822 43.4871-12.2202 42.0811-7.7535 39.2748-4.28186 36.4629-0.810218 32.8756 0.925456 28.5131 0.925456 26.0423 0.925456 23.8611 0.427861 21.9633-0.555747 20.0655-1.53935 18.3355-3.06106 16.7791-5.11504ZM24.3008-28.0734C21.8764-28.0734 20.0192-27.1766 18.7231-25.3887 17.427-23.6125 16.7791-21.0435 16.7791-17.6819 16.7791-14.3318 17.427-11.7628 18.7231-9.97501 20.0192-8.19876 21.8764-7.31345 24.3008-7.31345 26.7192-7.31345 28.5708-8.1987 29.8553-9.97501 31.1339-11.7455 31.7763-14.3145 31.7763-17.6819 31.7763-21.0608 31.1341-23.6355 29.8553-25.4119 28.5708-27.1824 26.7192-28.0735 24.3008-28.0735Z" fill="#0D856E" transform="matrix(1.00019 0 0 1 700.397 2083.38)"/><path d="M16.7791-5.11474 16.7791 13.4699 5.43868 13.4699 5.43868-35.4335 16.7791-35.4335 16.7791-30.2493C18.3355-32.3148 20.0656-33.8366 21.9633-34.8086 23.861-35.7922 26.0423-36.2898 28.5131-36.2898 32.8756-36.2898 36.4629-34.554 39.2748-31.0825 42.0809-27.6108 43.4871-23.1441 43.4871-17.6822 43.4871-12.2202 42.0811-7.7535 39.2748-4.28186 36.4629-0.810218 32.8756 0.925456 28.5131 0.925456 26.0423 0.925456 23.8611 0.427861 21.9633-0.555747 20.0655-1.53935 18.3355-3.06106 16.7791-5.11504ZM24.3008-28.0734C21.8764-28.0734 20.0192-27.1766 18.7231-25.3887 17.427-23.6125 16.7791-21.0435 16.7791-17.6819 16.7791-14.3318 17.427-11.7628 18.7231-9.97501 20.0192-8.19876 21.8764-7.31345 24.3008-7.31345 26.7192-7.31345 28.5708-8.1987 29.8553-9.97501 31.1339-11.7455 31.7763-14.3145 31.7763-17.6819 31.7763-21.0608 31.1341-23.6355 29.8553-25.4119 28.5708-27.1824 26.7192-28.0735 24.3008-28.0735Z" fill="#0D856E" transform="matrix(1.00019 0 0 1 746.794 2083.38)"/><path d="M21.316-15.9467C18.9552-15.9467 17.179-15.5416 15.9928-14.7431 14.801-13.9389 14.2108-12.7586 14.2108-11.2022 14.2108-9.76728 14.6853-8.63897 15.6458-7.82327 16.6004-7.01902 17.937-6.61979 19.6496-6.61979 21.7788-6.61979 23.5667-7.38353 25.0189-8.91107 26.4827-10.4385 27.2177-12.3479 27.2177-14.6507L27.2177-15.9468ZM38.6283-20.2283 38.6283-0.000888721 27.2184-0.000888721 27.2184-5.25456C25.691-3.108 23.9782-1.54 22.0804-0.556339 20.1826 0.427326 17.8741 0.924863 15.1604 0.924863 11.4863 0.924863 8.50078-0.145542 6.20372-2.29216 3.91823-4.43294 2.77844-7.2102 2.77844-10.6239 2.77844-14.7898 4.20178-17.8333 7.06-19.7658 9.92984-21.7099 14.4198-22.682 20.5298-22.682L27.2183-22.682 27.2183-23.5845C27.2183-25.3724 26.5066-26.686 25.0891-27.5189 23.6831-28.3521 21.4787-28.7688 18.4699-28.7688 16.0455-28.7688 13.7949-28.52 11.7119-28.0282 9.629-27.5479 7.68477-26.8247 5.87963-25.8524L5.87963-34.4851C8.31547-35.0869 10.7515-35.5323 13.1931-35.8275 15.6462-36.134 18.088-36.2903 20.5296-36.2903 26.9289-36.2903 31.5461-35.0232 34.3696-32.4947 37.2048-29.9778 38.6281-25.8873 38.6281-20.2285Z" fill="#0D856E" transform="matrix(1.00019 0 0 1 793.188 2083.38)"/><path d="M2.26801-35.4333 13.2845-35.4333 19.2324-11.0172 25.2267-35.4333 34.6694-35.4333 40.6173-11.272 46.6116-35.4333 57.628-35.4333 48.2779 0 35.919 0 29.9247-24.3702 23.9768 0 11.618 0Z" fill="#0D856E" transform="matrix(1.00019 0 0 1 836.932 2083.38)"/><path d="M21.316-15.9467C18.9552-15.9467 17.179-15.5416 15.9928-14.7431 14.801-13.9389 14.2108-12.7586 14.2108-11.2022 14.2108-9.76728 14.6853-8.63897 15.6458-7.82327 16.6004-7.01902 17.937-6.61979 19.6496-6.61979 21.7788-6.61979 23.5667-7.38353 25.0189-8.91107 26.4827-10.4385 27.2177-12.3479 27.2177-14.6507L27.2177-15.9468ZM38.6283-20.2283 38.6283-0.000888721 27.2184-0.000888721 27.2184-5.25456C25.691-3.108 23.9782-1.54 22.0804-0.556339 20.1826 0.427326 17.8741 0.924863 15.1604 0.924863 11.4863 0.924863 8.50078-0.145542 6.20372-2.29216 3.91823-4.43294 2.77844-7.2102 2.77844-10.6239 2.77844-14.7898 4.20178-17.8333 7.06-19.7658 9.92984-21.7099 14.4198-22.682 20.5298-22.682L27.2183-22.682 27.2183-23.5845C27.2183-25.3724 26.5066-26.686 25.0891-27.5189 23.6831-28.3521 21.4787-28.7688 18.4699-28.7688 16.0455-28.7688 13.7949-28.52 11.7119-28.0282 9.629-27.5479 7.68477-26.8247 5.87963-25.8524L5.87963-34.4851C8.31547-35.0869 10.7515-35.5323 13.1931-35.8275 15.6462-36.134 18.088-36.2903 20.5296-36.2903 26.9289-36.2903 31.5461-35.0232 34.3696-32.4947 37.2048-29.9778 38.6281-25.8873 38.6281-20.2285Z" fill="#0D856E" transform="matrix(1.00019 0 0 1 896.808 2083.38)"/><path d="M41.0797-21.5693 41.0797 0 29.6699 0 29.6699-16.5242C29.6699-19.5793 29.6004-21.6854 29.4615-22.8425 29.3342-23.9997 29.1028-24.856 28.7672-25.4115 28.3158-26.1521 27.7141-26.7191 26.962-27.1241 26.2039-27.5407 25.3418-27.749 24.3698-27.749 22.0091-27.749 20.146-26.8348 18.7923-25.0179 17.4498-23.1953 16.7786-20.6669 16.7786-17.4268L16.7786 0.00106647 5.43828 0.00106647 5.43828-35.4323 16.7786-35.4323 16.7786-30.2481C18.4739-32.3136 20.2793-33.8354 22.1942-34.8074 24.121-35.7909 26.2502-36.2886 28.5819-36.2886 32.6668-36.2886 35.7681-35.0272 37.8857-32.516 40.0148-30.0166 41.0794-26.3657 41.0794-21.5692Z" fill="#0D856E" transform="matrix(1.00019 0 0 1 940.538 2083.38)"/><path d="M38.8357-45.7559 38.8357-35.7578C36.2262-36.9148 33.6861-37.7828 31.2214-38.373 28.7508-38.9747 26.419-39.2755 24.2319-39.2755 21.3274-39.2755 19.1749-38.8706 17.7748-38.0721 16.3861-37.2678 15.6919-36.0181 15.6919-34.3228 15.6919-33.0557 16.1605-32.0664 17.1036-31.3604 18.0409-30.6662 19.7478-30.0644 22.2184-29.5552L27.4025-28.5136C32.6447-27.449 36.3824-25.8405 38.6042-23.6998 40.826-21.5532 41.9369-18.4983 41.9369-14.5348 41.9369-9.31596 40.3862-5.43936 37.2851-2.89347 34.1953-0.347579 29.4741 0.925219 23.121 0.925219 20.124 0.925219 17.1152 0.635925 14.0949 0.0689056 11.0862-0.498114 8.07747-1.34865 5.06871-2.47698L5.06871-12.7528C8.07733-11.1444 10.982-9.93514 13.7939-9.11929 16.6173-8.31504 19.3368-7.91581 21.9636-7.91581 24.6137-7.91581 26.6445-8.35555 28.0505-9.235 29.468-10.126 30.1797-11.3931 30.1797-13.0306 30.1797-14.5117 29.6994-15.6515 28.7447-16.4558 27.7843-17.2543 25.8749-17.9717 23.0051-18.6082L18.2838-19.6497C13.5624-20.6679 10.1025-22.2765 7.91535-24.4866 5.73977-26.7084 4.65212-29.6941 4.65212-33.4433 4.65212-38.1474 6.16798-41.7636 9.2114-44.2978 12.2491-46.8262 16.6174-48.0933 22.3109-48.0933 24.903-48.0933 27.5703-47.8967 30.3185-47.5148 33.0611-47.1271 35.902-46.5427 38.8354-45.7559Z" fill="#0D856E" transform="matrix(1.00019 0 0 1 1009.26 2083.38)"/><path d="M22.3099-28.1888C19.7931-28.1888 17.872-27.2861 16.5471-25.4809 15.2338-23.6757 14.5799-21.072 14.5799-17.6816 14.5799-14.2852 15.2338-11.6873 16.5471-9.88214 17.872-8.07685 19.7931-7.17436 22.3099-7.17436 24.7747-7.17436 26.6609-8.07697 27.957-9.88214 29.2646-11.6874 29.9241-14.2853 29.9241-17.6816 29.9241-21.0722 29.2646-23.6759 27.957-25.4809 26.6609-27.2863 24.7747-28.1888 22.3099-28.1888ZM22.3099-36.2892C28.4026-36.2892 33.1643-34.6459 36.5896-31.3595 40.0148-28.0733 41.7275-23.5138 41.7275-17.6816 41.7275-11.8609 40.015-7.30159 36.5896-4.00354 33.1643-0.71705 28.4026 0.926048 22.3099 0.926048 16.1825 0.926048 11.3918-0.717198 7.93762-4.00354 4.495-7.30159 2.77651-11.8609 2.77651-17.6816 2.77651-23.5138 4.495-28.0731 7.93762-31.3595 11.3918-34.6461 16.1825-36.2892 22.3099-36.2892Z" fill="#0D856E" transform="matrix(1.00019 0 0 1 1055.93 2083.38)"/><path d="M22.3099-28.1888C19.7931-28.1888 17.872-27.2861 16.5471-25.4809 15.2338-23.6757 14.5799-21.072 14.5799-17.6816 14.5799-14.2852 15.2338-11.6873 16.5471-9.88214 17.872-8.07685 19.7931-7.17436 22.3099-7.17436 24.7747-7.17436 26.6609-8.07697 27.957-9.88214 29.2646-11.6874 29.9241-14.2853 29.9241-17.6816 29.9241-21.0722 29.2646-23.6759 27.957-25.4809 26.6609-27.2863 24.7747-28.1888 22.3099-28.1888ZM22.3099-36.2892C28.4026-36.2892 33.1643-34.6459 36.5896-31.3595 40.0148-28.0733 41.7275-23.5138 41.7275-17.6816 41.7275-11.8609 40.015-7.30159 36.5896-4.00354 33.1643-0.71705 28.4026 0.926048 22.3099 0.926048 16.1825 0.926048 11.3918-0.717198 7.93762-4.00354 4.495-7.30159 2.77651-11.8609 2.77651-17.6816 2.77651-23.5138 4.495-28.0731 7.93762-31.3595 11.3918-34.6461 16.1825-36.2892 22.3099-36.2892Z" fill="#0D856E" transform="matrix(1.00019 0 0 1 1100.46 2083.38)"/></g></g></g></g><text fill="#0D856E" font-family="Montserrat Alternates,Montserrat Alternates_MSFontService,sans-serif" font-weight="700" font-size="92" transform="matrix(1 0 0 1 144.38 2161)">Game &amp; Level Design</text><g clip-path="url(#clip9)"><g clip-path="url(#clip10)"><g clip-path="url(#clip11)"><g clip-path="url(#clip12)"><path d="M245.854 517.586C249.285 517.586 252.578 516.223 255.004 513.797 257.43 511.37 258.793 508.078 258.793 504.646L258.793 401.13C258.793 390.836 262.883 380.956 270.162 373.68 277.44 366.402 287.318 362.312 297.611 362.312L390.568 362.312C393.238 369.855 398.17 376.388 404.693 381.021 411.214 385.654 419.007 388.155 427.008 388.19L582.284 388.19C589.43 388.19 595.223 393.984 595.223 401.13 595.223 408.275 589.43 414.069 582.284 414.069L427.008 414.069C419.862 414.069 414.067 419.864 414.067 427.009 414.067 434.155 419.862 439.948 427.008 439.948 427.008 467.689 441.808 493.319 465.826 507.183 489.846 521.053 519.446 521.053 543.464 507.183 567.484 493.319 582.284 467.689 582.284 439.948 592.329 439.954 601.988 436.055 609.215 429.072 616.441 422.093 620.675 412.58 621.022 402.534 621.363 392.494 617.793 382.71 611.063 375.251 614.436 371.479 617.037 367.082 618.722 362.312L659.921 362.312C667.564 362.289 675.045 364.541 681.398 368.781 684.251 370.809 687.798 371.6 691.242 370.964 694.679 370.336 697.717 368.337 699.664 365.431 701.604 362.526 702.286 358.95 701.558 355.53 700.825 352.11 698.739 349.135 695.776 347.276 685.17 340.176 672.687 336.403 659.921 336.432L618.722 336.432C614.806 325.474 606.182 316.85 595.222 312.933L595.222 299.253C625.902 269.226 639.663 225.919 631.956 183.687 624.25 141.453 596.07 105.8 556.762 88.5454 517.451 71.2846 472.139 74.67 435.833 97.5801 432.807 99.3535 430.635 102.277 429.802 105.679 428.977 109.082 429.561 112.68 431.432 115.644 433.298 118.607 436.291 120.687 439.721 121.409 443.147 122.125 446.723 121.426 449.628 119.462 479.141 100.844 516.06 98.3771 547.797 112.894 579.528 127.416 601.798 156.965 607.007 191.468 612.218 225.978 599.67 260.782 573.641 284.028 570.904 286.483 569.344 289.984 569.344 293.657L569.344 310.554 543.464 310.554 543.464 281.995C543.523 262.292 551.345 243.407 565.243 229.434 574.041 220.341 577.385 207.281 574.041 195.074 570.703 182.869 561.166 173.331 548.959 169.992 536.753 166.648 523.692 169.992 514.601 178.79 509.095 184.278 500.199 184.278 494.694 178.79 485.602 169.992 472.542 166.648 460.335 169.992 448.129 173.331 438.592 182.869 435.252 195.074 431.908 207.281 435.252 220.341 444.05 229.434 457.949 243.407 465.772 262.292 465.829 281.995L465.829 310.554 439.95 310.554 439.95 293.657C439.95 289.984 438.391 286.483 435.652 284.028 417.427 267.795 405.551 245.612 402.148 221.444 398.745 197.275 404.037 172.677 417.075 152.043 419.04 149.143 419.739 145.568 419.022 142.136 418.3 138.705 416.221 135.718 413.256 133.846 410.293 131.981 406.695 131.391 403.292 132.223 399.89 133.049 396.966 135.227 395.193 138.248 379.429 163.191 372.705 192.792 376.142 222.096 379.573 251.4 392.963 278.637 414.07 299.255L414.07 312.933C403.112 316.85 394.488 325.475 390.57 336.434L297.614 336.434C280.462 336.457 264.016 343.279 251.886 355.403 239.761 367.534 232.939 383.981 232.915 401.131L232.915 504.649C232.915 508.081 234.278 511.373 236.705 513.799 239.131 516.226 242.423 517.589 245.855 517.589ZM504.646 491.707C490.922 491.707 477.756 486.255 468.046 476.549 458.341 466.839 452.889 453.674 452.889 439.948L556.405 439.948C556.405 453.674 550.952 466.839 541.248 476.549 531.537 486.255 518.372 491.707 504.646 491.707ZM462.346 211.131C459 207.792 458.458 202.558 461.051 198.607 462.704 196.129 465.372 194.529 468.336 194.229 471.293 193.934 474.227 194.979 476.336 197.076 483.834 204.563 493.99 208.763 504.584 208.763 515.173 208.763 525.335 204.563 532.833 197.076 534.935 194.985 537.871 193.939 540.828 194.234 543.785 194.523 546.46 196.123 548.112 198.595 550.729 202.535 550.214 207.774 546.882 211.131 528.05 229.894 517.502 255.404 517.588 281.987L517.588 310.546 491.709 310.546 491.709 281.987C491.778 255.398 481.206 229.883 462.347 211.131ZM427.009 336.426 582.284 336.426C589.43 336.426 595.225 342.221 595.225 349.367 595.225 356.512 589.43 362.306 582.284 362.306L427.009 362.306C419.864 362.306 414.069 356.512 414.069 349.367 414.069 342.221 419.864 336.426 427.009 336.426Z" fill="#0D856E" transform="matrix(1 0 0 1.00031 1795.27 1076.14)"/><path d="M800.958 365.208C798.306 355.244 791.802 346.742 782.872 341.581 773.947 336.418 763.335 335.02 753.376 337.694 743.417 340.369 734.931 346.896 729.791 355.839L639.214 512.727C638.682 513.64 638.277 514.622 637.994 515.639L626.852 554.457 626.857 554.457C624.414 562.961 625.909 572.111 630.941 579.389 635.972 586.662 644.008 591.301 652.823 592.012 661.644 592.728 670.314 589.451 676.454 583.08L698.735 560.101 698.735 621.097 258.787 621.097 258.787 556.398C258.787 549.252 252.992 543.459 245.846 543.459 238.701 543.459 232.907 549.252 232.907 556.398L232.907 763.433C232.907 773.727 236.996 783.605 244.276 790.883 251.554 798.159 261.432 802.251 271.724 802.251L478.759 802.251C485.905 802.251 491.7 796.456 491.7 789.311 491.7 782.165 485.905 776.372 478.759 776.372L414.062 776.372 414.062 750.492 595.216 750.492 595.216 776.372 530.518 776.372C523.373 776.372 517.578 782.165 517.578 789.311 517.578 796.456 523.373 802.251 530.518 802.251L685.795 802.251C696.089 802.251 705.967 798.161 713.243 790.883 720.521 783.604 724.613 773.725 724.613 763.433L724.613 520.167 797.075 394.652C802.238 385.744 803.636 375.146 800.957 365.203ZM769.902 364.059 769.902 364.053C776.077 367.635 778.191 375.538 774.627 381.719L768.158 392.924 745.76 379.985 752.231 368.778 752.226 368.778C755.807 362.592 763.715 360.478 769.901 364.053ZM690.519 527.41 668.122 514.47 732.821 402.416 755.217 415.355ZM653.446 565.767C652.002 564.93 651.303 563.22 651.753 561.609L658.316 538.692 674.438 548.009 657.876 565.144 657.87 565.144C656.709 566.339 654.89 566.594 653.446 565.768ZM621.097 698.745 646.976 698.745 646.976 724.625 621.097 724.625ZM672.854 698.745 698.734 698.745 698.734 724.625 672.854 724.625ZM698.734 672.866 672.854 672.866 672.854 646.986 698.734 646.986ZM646.976 672.866 621.097 672.866 621.097 646.986 646.976 646.986ZM595.218 672.866 569.338 672.866 569.338 646.986 595.218 646.986ZM543.459 672.866 517.579 672.866 517.579 646.986 543.459 646.986ZM491.7 672.866 465.821 672.866 465.821 646.986 491.7 646.986ZM439.941 672.866 414.062 672.866 414.062 646.986 439.941 646.986ZM362.303 724.625 362.303 698.745 388.182 698.745 388.182 724.625ZM258.785 698.745 284.665 698.745 284.665 724.625 258.785 724.625ZM310.544 698.745 336.424 698.745 336.424 724.625 310.544 724.625ZM388.182 672.866 362.303 672.866 362.303 646.986 388.182 646.986ZM336.424 672.866 310.544 672.866 310.544 646.986 336.424 646.986ZM284.665 672.866 258.785 672.866 258.785 646.986 284.665 646.986ZM258.785 763.444 258.785 750.504 284.665 750.504 284.665 776.383 271.726 776.383C264.58 776.383 258.785 770.59 258.785 763.444ZM310.544 750.504 336.424 750.504 336.424 776.383 310.544 776.383ZM362.303 776.383 362.303 750.504 388.182 750.504 388.182 776.383ZM414.062 698.745 439.941 698.745 439.941 724.625 414.062 724.625ZM465.821 698.745 491.7 698.745 491.7 724.625 465.821 724.625ZM517.579 698.745 543.459 698.745 543.459 724.625 517.579 724.625ZM569.338 698.745 595.218 698.745 595.218 724.625 569.338 724.625ZM621.097 750.504 646.976 750.504 646.976 776.383 621.097 776.383ZM698.734 763.444C698.734 766.875 697.372 770.168 694.945 772.593 692.519 775.02 689.226 776.383 685.795 776.383L672.854 776.383 672.854 750.504 698.734 750.504Z" fill="#0D856E" transform="matrix(1 0 0 1.00031 1795.27 1076.14)"/><path d="M685.802 207.035C685.802 214.181 680.008 219.974 672.863 219.974 665.717 219.974 659.922 214.181 659.922 207.035 659.922 199.888 665.717 194.095 672.863 194.095 680.008 194.095 685.802 199.888 685.802 207.035" fill="#0D856E" transform="matrix(1 0 0 1.00031 1795.27 1076.14)"/><path d="M349.371 207.035C349.371 214.181 343.576 219.974 336.431 219.974 329.285 219.974 323.492 214.181 323.492 207.035 323.492 199.888 329.285 194.095 336.431 194.095 343.576 194.095 349.371 199.888 349.371 207.035" fill="#0D856E" transform="matrix(1 0 0 1.00031 1795.27 1076.14)"/><path d="M517.586 38.819C517.586 45.9646 511.793 51.7587 504.646 51.7587 497.501 51.7587 491.707 45.9646 491.707 38.819 491.707 31.6733 497.501 25.8793 504.646 25.8793 511.793 25.8793 517.586 31.6733 517.586 38.819" fill="#0D856E" transform="matrix(1 0 0 1.00031 1795.27 1076.14)"/><path d="M423.888 48.8646C430.792 50.7131 434.887 57.8069 433.039 64.7101 431.19 71.6133 424.091 75.7088 417.187 73.8603 410.283 72.0118 406.188 64.9181 408.037 58.0148 409.891 51.1117 416.986 47.0161 423.888 48.8646" fill="#0D856E" transform="matrix(1 0 0 1.00031 1795.27 1076.14)"/><path d="M656.787 134.133C661.322 131.516 663.829 126.427 663.147 121.24 662.465 116.047 658.723 111.783 653.669 110.426 648.613 109.074 643.235 110.9 640.052 115.047 636.864 119.201 636.494 124.862 639.112 129.396 642.687 135.583 650.601 137.703 656.787 134.133Z" fill="#0D856E" transform="matrix(1 0 0 1.00031 1795.27 1076.14)"/><path d="M352.507 279.94C347.972 282.558 345.465 287.646 346.146 292.834 346.827 298.027 350.571 302.29 355.625 303.647 360.681 304.999 366.058 303.174 369.241 299.026 372.43 294.872 372.8 289.211 370.182 284.678 366.606 278.49 358.693 276.37 352.507 279.94Z" fill="#0D856E" transform="matrix(1 0 0 1.00031 1795.27 1076.14)"/><path d="M601.258 58.0097C603.107 64.9128 599.01 72.0064 592.108 73.8552 585.204 75.704 578.112 71.6081 576.262 64.705 574.408 57.8018 578.503 50.7083 585.407 48.8595 592.309 47.0107 599.409 51.1065 601.258 58.0097" fill="#0D856E" transform="matrix(1 0 0 1.00031 1795.27 1076.14)"/><path d="M643.848 302.344C648.383 304.961 654.044 304.591 658.196 301.402 662.345 298.219 664.17 292.841 662.818 287.787 661.461 282.733 657.198 278.989 652.005 278.307 646.817 277.626 641.728 280.133 639.112 284.668 635.54 290.855 637.66 298.769 643.848 302.344Z" fill="#0D856E" transform="matrix(1 0 0 1.00031 1795.27 1076.14)"/><path d="M352.507 134.133C357.04 136.75 362.701 136.38 366.855 133.192 371.009 130.009 372.828 124.631 371.476 119.576 370.119 114.522 365.856 110.778 360.668 110.097 355.475 109.415 350.387 111.922 347.769 116.457 344.199 122.644 346.319 130.558 352.505 134.133Z" fill="#0D856E" transform="matrix(1 0 0 1.00031 1795.27 1076.14)"/><path d="M284.672 556.405C284.643 561.332 287.422 565.85 291.83 568.051L343.588 593.93C347.228 595.75 351.514 595.75 355.153 593.93L406.912 568.051C411.319 565.85 414.098 561.332 414.069 556.405L414.069 491.707C414.098 486.779 411.319 482.262 406.912 480.061L355.153 454.182C351.514 452.362 347.228 452.362 343.588 454.182L291.83 480.061C287.422 482.262 284.643 486.779 284.672 491.707ZM310.551 512.642 336.431 525.581 336.431 561.344 310.551 548.405ZM362.31 561.344 362.31 525.581 388.19 512.642 388.19 548.405ZM349.371 480.293 372.196 491.707 349.371 503.121 326.547 491.707Z" fill="#0D856E" transform="matrix(1 0 0 1.00031 1795.27 1076.14)"/><path d="M504.646 530.526C497.501 530.526 491.707 536.32 491.707 543.466L491.707 569.345 439.948 569.345C432.803 569.345 427.009 575.139 427.009 582.284 427.009 589.43 432.803 595.225 439.948 595.225L582.284 595.225C589.43 595.225 595.225 589.43 595.225 582.284 595.225 575.139 589.43 569.345 582.284 569.345L517.586 569.345 517.586 543.466C517.586 540.034 516.223 536.742 513.797 534.315 511.37 531.889 508.078 530.526 504.646 530.526Z" fill="#0D856E" transform="matrix(1 0 0 1.00031 1795.27 1076.14)"/><path d="M310.551 439.948 310.551 414.069 336.431 414.069C343.576 414.069 349.371 408.275 349.371 401.13 349.371 393.984 343.576 388.19 336.431 388.19L297.612 388.19C290.467 388.19 284.672 393.984 284.672 401.13L284.672 439.948C284.672 447.094 290.467 452.889 297.612 452.889 304.758 452.889 310.551 447.094 310.551 439.948Z" fill="#0D856E" transform="matrix(1 0 0 1.00031 1795.27 1076.14)"/><path d="M646.983 388.19C639.838 388.19 634.043 393.984 634.043 401.13 634.043 408.275 639.838 414.069 646.983 414.069 646.983 421.214 652.777 427.009 659.922 427.009 667.068 427.009 672.863 421.214 672.863 414.069L672.863 401.13C672.863 397.698 671.499 394.406 669.073 391.979 666.647 389.553 663.354 388.19 659.922 388.19Z" fill="#0D856E" transform="matrix(1 0 0 1.00031 1795.27 1076.14)"/><path d="M43.3472-2.58793C41.1116-1.43261 38.7778-0.560324 36.3458 0.0230695 33.9254 0.62384 31.4068 0.924232 28.7899 0.924232 20.9336 0.924232 14.7008-1.27093 10.0962-5.66109 5.50371-10.0514 3.21051-16.0128 3.21051-23.5459 3.21051-31.079 5.50387-37.0402 10.0962-41.4308 14.7002-45.821 20.9331-48.016 28.7899-48.016 31.4067-48.016 33.9254-47.7215 36.3458-47.138 38.7777-46.5488 41.1116-45.6707 43.3472-44.504L43.3472-34.7529C41.0827-36.2896 38.8529-37.416 36.6694-38.1264 34.48-38.8484 32.1751-39.2125 29.7605-39.2125 25.4164-39.2125 22.0024-37.8144 19.5243-35.0302 17.0403-32.2574 15.8041-28.4275 15.8041-23.5463 15.8041-18.6765 17.0403-14.8466 19.5243-12.0623 22.0024-9.28957 25.4164-7.90318 29.7605-7.90318 32.1751-7.90318 34.48-8.25555 36.6694-8.96608 38.853-9.68815 41.0827-10.8204 43.3472-12.3628Z" fill="#0D856E" transform="matrix(1 0 0 1.00031 1898.79 2098.7)"/><path d="M31.7251-25.7403C30.72-26.2024 29.7263-26.5374 28.7444-26.7571 27.7739-26.988 26.7919-27.1035 25.8098-27.1035 22.8984-27.1035 20.6571-26.1678 19.0857-24.3078 17.526-22.442 16.7521-19.7673 16.7521-16.2898L16.7521 0.000916867 5.42993 0.000916867 5.42993-35.3754 16.7521-35.3754 16.7521-29.5755C18.1963-31.8862 19.86-33.573 21.7431-34.6359 23.6378-35.6988 25.9023-36.2303 28.5365-36.2303 28.9062-36.2303 29.3105-36.2129 29.7611-36.1841 30.206-36.1495 30.8472-36.0801 31.6789-35.9761Z" fill="#0D856E" transform="matrix(1 0 0 1.00031 1946.27 2098.7)"/><path d="M40.7592-17.7917 40.7592-14.5568 14.3017-14.5568C14.5789-11.9052 15.5321-9.91814 17.1669-8.59533 18.8133-7.26671 21.1182-6.6081 24.0758-6.6081 26.4442-6.6081 28.8819-6.9547 31.3775-7.64789 33.8729-8.35263 36.4378-9.42706 39.0718-10.8597L39.0718-2.14861C36.403-1.13192 33.7343-0.369438 31.0538 0.138979 28.3736 0.658872 25.6989 0.924602 23.0359 0.924602 16.6238 0.924602 11.6444-0.698698 8.08647-3.95092 4.53967-7.21466 2.7719-11.7841 2.7719-17.653 2.7719-23.4297 4.51069-27.9644 7.9939-31.2628 11.4888-34.5728 16.2892-36.2307 22.3894-36.2307 27.9464-36.2307 32.4002-34.5498 35.7449-31.1935 39.0837-27.8489 40.7589-23.3837 40.7589-17.7918ZM29.1366-21.5349C29.1366-23.6894 28.5011-25.4224 27.2419-26.7337 25.9942-28.0567 24.3594-28.7211 22.3433-28.7211 20.1367-28.7211 18.3517-28.1029 16.9826-26.8725 15.6252-25.6363 14.776-23.857 14.4409-21.5349Z" fill="#0D856E" transform="matrix(1 0 0 1.00031 1978.18 2098.7)"/><path d="M21.2817-15.921C18.9248-15.921 17.1513-15.5166 15.967-14.7195 14.7771-13.9165 14.1879-12.7381 14.1879-11.1842 14.1879-9.75155 14.6616-8.62506 15.6206-7.81068 16.5737-7.00772 17.9082-6.60913 19.6179-6.60913 21.7437-6.60913 23.5286-7.37164 24.9786-8.89671 26.4402-10.4217 27.1739-12.328 27.1739-14.6271L27.1739-15.9212ZM38.5661-20.1957 38.5661-0.000887291 27.1746-0.000887291 27.1746-5.24611C25.6497-3.10301 23.9397-1.53753 22.0449-0.555444 20.1501 0.42664 17.8453 0.923374 15.136 0.923374 11.4678 0.923374 8.48708-0.145309 6.19374-2.28847 3.91191-4.4258 2.77397-7.19859 2.77397-10.6068 2.77397-14.7661 4.19503-17.8045 7.04864-19.734 9.91385-21.6749 14.3966-22.6454 20.4967-22.6454L27.1744-22.6454 27.1744-23.5466C27.1744-25.3315 26.4639-26.643 25.0486-27.4746 23.645-28.3065 21.4441-28.7223 18.4401-28.7223 16.0197-28.7223 13.7727-28.474 11.693-27.9829 9.61351-27.5035 7.6724-26.7815 5.87016-25.8109L5.87016-34.4295C8.30209-35.0303 10.7341-35.4752 13.1718-35.7697 15.621-36.076 18.0589-36.2319 20.4965-36.2319 26.8855-36.2319 31.4953-34.9669 34.3143-32.4424 37.1449-29.9297 38.566-25.8456 38.566-20.1961Z" fill="#0D856E" transform="matrix(1 0 0 1.00031 2022.06 2098.7)"/><path d="M17.7917-45.4278 17.7917-35.3764 29.4373-35.3764 29.4373-27.2891 17.7917-27.2891 17.7917-12.2924C17.7917-10.6402 18.1151-9.52537 18.7621-8.94198 19.4092-8.37008 20.7031-8.08703 22.6441-8.08703L28.4669-8.08703 28.4669 0.00032534 18.7621 0.00032534C14.2911 0.00032534 11.1254-0.929718 9.26531-2.79553 7.3995-4.65559 6.46946-7.82115 6.46946-12.2923L6.46946-27.2891 0.854535-27.2891 0.854535-35.3764 6.46946-35.3764 6.46946-45.4278Z" fill="#0D856E" transform="matrix(1 0 0 1.00031 2065.72 2098.7)"/><path d="M40.7592-17.7917 40.7592-14.5568 14.3017-14.5568C14.5789-11.9052 15.5321-9.91814 17.1669-8.59533 18.8133-7.26671 21.1182-6.6081 24.0758-6.6081 26.4442-6.6081 28.8819-6.9547 31.3775-7.64789 33.8729-8.35263 36.4378-9.42706 39.0718-10.8597L39.0718-2.14861C36.403-1.13192 33.7343-0.369438 31.0538 0.138979 28.3736 0.658872 25.6989 0.924602 23.0359 0.924602 16.6238 0.924602 11.6444-0.698698 8.08647-3.95092 4.53967-7.21466 2.7719-11.7841 2.7719-17.653 2.7719-23.4297 4.51069-27.9644 7.9939-31.2628 11.4888-34.5728 16.2892-36.2307 22.3894-36.2307 27.9464-36.2307 32.4002-34.5498 35.7449-31.1935 39.0837-27.8489 40.7589-23.3837 40.7589-17.7918ZM29.1366-21.5349C29.1366-23.6894 28.5011-25.4224 27.2419-26.7337 25.9942-28.0567 24.3594-28.7211 22.3433-28.7211 20.1367-28.7211 18.3517-28.1029 16.9826-26.8725 15.6252-25.6363 14.776-23.857 14.4409-21.5349Z" fill="#0D856E" transform="matrix(1 0 0 1.00031 2096.64 2098.7)"/><path d="M29.5068-30.2005 29.5068-49.1471 40.8753-49.1471 40.8753 0 29.5068 0 29.5068-5.10651C27.9471-3.027 26.2316-1.50189 24.3541-0.53134 22.4709 0.439136 20.2989 0.924379 17.8381 0.924379 13.4768 0.924379 9.89521-0.808647 7.0936-4.27455 4.3035-7.7406 2.91136-12.2001 2.91136-17.6533 2.91136-23.1065 4.30352-27.566 7.0936-31.032 9.89521-34.498 13.4768-36.2309 17.8381-36.2309 20.2873-36.2309 22.4479-35.7341 24.3311-34.7521 26.2256-33.7816 27.9471-32.2624 29.5068-30.2002ZM22.0434-7.30241C24.4753-7.30241 26.3238-8.18623 27.589-9.95969 28.8656-11.7273 29.5068-14.2922 29.5068-17.6542 29.5068-21.0276 28.8656-23.5982 27.589-25.3718 26.3238-27.1395 24.4753-28.0291 22.0434-28.0291 19.6403-28.0291 17.7976-27.1395 16.5209-25.3718 15.2558-23.5984 14.6263-21.0277 14.6263-17.6542 14.6263-14.2922 15.2559-11.7273 16.5209-9.95969 17.7976-8.18629 19.6403-7.30241 22.0434-7.30241Z" fill="#0D856E" transform="matrix(1 0 0 1.00031 2140.52 2098.7)"/><path d="M24.2614-7.30166C26.6761-7.30166 28.5246-8.1855 29.8071-9.95896 31.0838-11.7266 31.7249-14.2914 31.7249-17.6535 31.7249-21.0268 31.0838-23.5975 29.8071-25.3711 28.5246-27.1386 26.6761-28.0284 24.2614-28.0284 21.8411-28.0284 19.9868-27.133 18.6929-25.3479 17.3989-23.5745 16.7519-21.0097 16.7519-17.6536 16.7519-14.3089 17.3989-11.744 18.6929-9.9591 19.9868-8.1857 21.8411-7.30181 24.2614-7.30181ZM16.7519-30.1996C18.3059-32.2619 20.0331-33.7813 21.9278-34.7516 23.8225-35.7336 26.0004-36.2304 28.4669-36.2304 32.8225-36.2304 36.404-34.4974 39.2115-31.0315 42.0131-27.5655 43.4169-23.1059 43.4169-17.6527 43.4169-12.1997 42.0131-7.74013 39.2115-4.27408 36.404-0.808026 32.8225 0.924854 28.4669 0.924854 26.0004 0.924854 23.8226 0.428059 21.9278-0.553966 20.033-1.53599 18.3059-3.05524 16.7519-5.10592L16.7519 0.000591527 5.42978 0.000591527 5.42978-49.1464 16.7519-49.1464Z" fill="#0D856E" transform="matrix(1 0 0 1.00031 2209.36 2098.7)"/><path d="M0.785622-35.3762 12.1078-35.3762 21.6046-11.3692 29.6919-35.3762 41.0141-35.3762 26.1343 3.351C24.6381 7.29072 22.8877 10.0403 20.8889 11.6 18.9018 13.1713 16.2734 13.9569 13.0097 13.9569L6.4705 13.9569 6.4705 6.53978 10.0058 6.53978C11.9294 6.53978 13.3216 6.22784 14.188 5.61551 15.0661 5.01475 15.7477 3.91725 16.2445 2.33431L16.5448 1.36384Z" fill="#0D856E" transform="matrix(1 0 0 1.00031 2255.67 2098.7)"/><path d="M0.323492-47.161 43.7874-47.161 43.7874-37.9645 28.1444-37.9645 28.1444-0.000295764 15.9903-0.000295764 15.9903-37.9645 0.323787-37.9645Z" fill="#0D856E" transform="matrix(1 0 0 1.00031 2320.37 2098.7)"/><path d="M5.43007-35.3762 16.7522-35.3762 16.7522 0 5.43007 0ZM5.43007-49.1478 16.7522-49.1478 16.7522-39.9283 5.43007-39.9283Z" fill="#0D856E" transform="matrix(1 0 0 1.00031 2364.5 2098.7)"/><path d="M16.7521-5.10651 16.7521 13.4482 5.42993 13.4482 5.42993-35.3764 16.7521-35.3764 16.7521-30.2006C18.306-32.2627 20.0333-33.7822 21.9279-34.7526 23.8226-35.7345 26.0005-36.2313 28.4671-36.2313 32.8227-36.2313 36.4042-34.4983 39.2116-31.0324 42.0133-27.5664 43.4171-23.1068 43.4171-17.6537 43.4171-12.2006 42.0133-7.74102 39.2116-4.27497 36.4042-0.808913 32.8227 0.923966 28.4671 0.923966 26.0005 0.923966 23.8228 0.427172 21.9279-0.554853 20.0331-1.53687 18.306-3.05612 16.7521-5.1068ZM24.2616-28.0282C21.8412-28.0282 19.987-27.1329 18.6931-25.3478 17.399-23.5744 16.7521-21.0096 16.7521-17.6535 16.7521-14.3087 17.399-11.7439 18.6931-9.95896 19.987-8.18556 21.8412-7.30166 24.2616-7.30166 26.6762-7.30166 28.5247-8.1855 29.8073-9.95896 31.0839-11.7266 31.7251-14.2914 31.7251-17.6535 31.7251-21.0268 31.0839-23.5975 29.8073-25.3711 28.5247-27.1386 26.6762-28.0284 24.2616-28.0284Z" fill="#0D856E" transform="matrix(1 0 0 1.00031 2386.68 2098.7)"/><path d="M16.7521-5.10651 16.7521 13.4482 5.42993 13.4482 5.42993-35.3764 16.7521-35.3764 16.7521-30.2006C18.306-32.2627 20.0333-33.7822 21.9279-34.7526 23.8226-35.7345 26.0005-36.2313 28.4671-36.2313 32.8227-36.2313 36.4042-34.4983 39.2116-31.0324 42.0133-27.5664 43.4171-23.1068 43.4171-17.6537 43.4171-12.2006 42.0133-7.74102 39.2116-4.27497 36.4042-0.808913 32.8227 0.923966 28.4671 0.923966 26.0005 0.923966 23.8228 0.427172 21.9279-0.554853 20.0331-1.53687 18.306-3.05612 16.7521-5.1068ZM24.2616-28.0282C21.8412-28.0282 19.987-27.1329 18.6931-25.3478 17.399-23.5744 16.7521-21.0096 16.7521-17.6535 16.7521-14.3087 17.399-11.7439 18.6931-9.95896 19.987-8.18556 21.8412-7.30166 24.2616-7.30166 26.6762-7.30166 28.5247-8.1855 29.8073-9.95896 31.0839-11.7266 31.7251-14.2914 31.7251-17.6535 31.7251-21.0268 31.0839-23.5975 29.8073-25.3711 28.5247-27.1386 26.6762-28.0284 24.2616-28.0284Z" fill="#0D856E" transform="matrix(1 0 0 1.00031 2432.99 2098.7)"/><path d="M21.2817-15.921C18.9248-15.921 17.1513-15.5166 15.967-14.7195 14.7771-13.9165 14.1879-12.7381 14.1879-11.1842 14.1879-9.75155 14.6616-8.62506 15.6206-7.81068 16.5737-7.00772 17.9082-6.60913 19.6179-6.60913 21.7437-6.60913 23.5286-7.37164 24.9786-8.89671 26.4402-10.4217 27.1739-12.328 27.1739-14.6271L27.1739-15.9212ZM38.5661-20.1957 38.5661-0.000887291 27.1746-0.000887291 27.1746-5.24611C25.6497-3.10301 23.9397-1.53753 22.0449-0.555444 20.1501 0.42664 17.8453 0.923374 15.136 0.923374 11.4678 0.923374 8.48708-0.145309 6.19374-2.28847 3.91191-4.4258 2.77397-7.19859 2.77397-10.6068 2.77397-14.7661 4.19503-17.8045 7.04864-19.734 9.91385-21.6749 14.3966-22.6454 20.4967-22.6454L27.1744-22.6454 27.1744-23.5466C27.1744-25.3315 26.4639-26.643 25.0486-27.4746 23.645-28.3065 21.4441-28.7223 18.4401-28.7223 16.0197-28.7223 13.7727-28.474 11.693-27.9829 9.61351-27.5035 7.6724-26.7815 5.87016-25.8109L5.87016-34.4295C8.30209-35.0303 10.7341-35.4752 13.1718-35.7697 15.621-36.076 18.0589-36.2319 20.4965-36.2319 26.8855-36.2319 31.4953-34.9669 34.3143-32.4424 37.1449-29.9297 38.566-25.8456 38.566-20.1961Z" fill="#0D856E" transform="matrix(1 0 0 1.00031 2479.3 2098.7)"/><path d="M2.26436-35.3762 13.2631-35.3762 19.2014-10.9995 25.186-35.3762 34.6135-35.3762 40.5518-11.2538 46.5365-35.3762 57.5352-35.3762 48.2001 0 35.8612 0 29.8766-24.3311 23.9383 0 11.5993 0Z" fill="#0D856E" transform="matrix(1 0 0 1.00031 2522.96 2098.7)"/><path d="M21.2817-15.921C18.9248-15.921 17.1513-15.5166 15.967-14.7195 14.7771-13.9165 14.1879-12.7381 14.1879-11.1842 14.1879-9.75155 14.6616-8.62506 15.6206-7.81068 16.5737-7.00772 17.9082-6.60913 19.6179-6.60913 21.7437-6.60913 23.5286-7.37164 24.9786-8.89671 26.4402-10.4217 27.1739-12.328 27.1739-14.6271L27.1739-15.9212ZM38.5661-20.1957 38.5661-0.000887291 27.1746-0.000887291 27.1746-5.24611C25.6497-3.10301 23.9397-1.53753 22.0449-0.555444 20.1501 0.42664 17.8453 0.923374 15.136 0.923374 11.4678 0.923374 8.48708-0.145309 6.19374-2.28847 3.91191-4.4258 2.77397-7.19859 2.77397-10.6068 2.77397-14.7661 4.19503-17.8045 7.04864-19.734 9.91385-21.6749 14.3966-22.6454 20.4967-22.6454L27.1744-22.6454 27.1744-23.5466C27.1744-25.3315 26.4639-26.643 25.0486-27.4746 23.645-28.3065 21.4441-28.7223 18.4401-28.7223 16.0197-28.7223 13.7727-28.474 11.693-27.9829 9.61351-27.5035 7.6724-26.7815 5.87016-25.8109L5.87016-34.4295C8.30209-35.0303 10.7341-35.4752 13.1718-35.7697 15.621-36.076 18.0589-36.2319 20.4965-36.2319 26.8855-36.2319 31.4953-34.9669 34.3143-32.4424 37.1449-29.9297 38.566-25.8456 38.566-20.1961Z" fill="#0D856E" transform="matrix(1 0 0 1.00031 2582.73 2098.7)"/><path d="M41.0135-21.5346 41.0135 0 29.622 0 29.622-16.4976C29.622-19.5477 29.5527-21.6505 29.4142-22.8057 29.287-23.9611 29.0559-24.8161 28.7209-25.3707 28.2703-26.11 27.6695-26.6761 26.9186-27.0804 26.1617-27.4963 25.3011-27.7043 24.3306-27.7043 21.9737-27.7043 20.1137-26.7916 18.762-24.9777 17.4217-23.158 16.7516-20.6336 16.7516-17.3987L16.7516 0.00106475 5.42952 0.00106475 5.42952-35.3752 16.7516-35.3752 16.7516-30.1993C18.4442-32.2616 20.2466-33.7809 22.1585-34.7513 24.0821-35.7334 26.2079-36.2301 28.5359-36.2301 32.6143-36.2301 35.7105-34.9708 37.8246-32.4637 39.9505-29.9682 41.0132-26.3233 41.0132-21.5344Z" fill="#0D856E" transform="matrix(1 0 0 1.00031 2626.39 2098.7)"/><path d="M38.7731-45.6822 38.7731-35.7001C36.1679-36.8555 33.6319-37.722 31.1711-38.3111 28.7045-38.9119 26.3765-39.2123 24.1928-39.2123 21.2931-39.2123 19.1441-38.808 17.7461-38.0108 16.3597-37.2078 15.6666-35.96 15.6666-34.2676 15.6666-33.0025 16.1345-32.0148 17.0761-31.31 18.0119-30.6167 19.7161-30.016 22.1827-29.5075L27.3584-28.4678C32.5921-27.4049 36.3238-25.799 38.5421-23.6617 40.7602-21.5185 41.8693-18.4684 41.8693-14.5115 41.8693-9.30096 40.3213-5.4306 37.225-2.88882 34.1403-0.34702 29.4265 0.923729 23.0838 0.923729 20.0915 0.923729 17.0876 0.634902 14.0722 0.0687946 11.0684-0.497312 8.06447-1.34648 5.06054-2.473L5.06054-12.7323C8.06432-11.1265 10.9643-9.91915 13.7717-9.10461 16.5905-8.30166 19.3058-7.90308 21.9282-7.90308 24.574-7.90308 26.6016-8.3421 28.0054-9.22013 29.4206-10.1097 30.1312-11.3748 30.1312-13.0096 30.1312-14.4885 29.6516-15.6264 28.6985-16.4293 27.7396-17.2266 25.8332-17.9428 22.9681-18.5783L18.2544-19.618C13.5406-20.6348 10.0862-22.2406 7.90262-24.4473 5.73052-26.6654 4.64463-29.6462 4.64463-33.3895 4.64463-38.086 6.15805-41.6964 9.19659-44.2264 12.2293-46.7508 16.5907-48.0159 22.275-48.0159 24.8629-48.0159 27.526-47.8196 30.2697-47.4383 33.0079-47.0512 35.8441-46.4678 38.7729-45.6822Z" fill="#0D856E" transform="matrix(1 0 0 1.00031 2694.97 2098.7)"/><path d="M22.274-28.1434C19.7611-28.1434 17.8433-27.2422 16.5205-25.44 15.2092-23.6375 14.5565-21.0381 14.5565-17.6532 14.5565-14.2622 15.2092-11.6685 16.5205-9.86623 17.8433-8.06385 19.7611-7.16281 22.274-7.16281 24.7348-7.16281 26.618-8.06396 27.912-9.86623 29.2174-11.6686 29.876-14.2623 29.876-17.6532 29.876-21.0382 29.2174-23.6378 27.912-25.44 26.618-27.2423 24.7348-28.1434 22.274-28.1434ZM22.274-36.2307C28.3567-36.2307 33.1109-34.5902 36.5306-31.3091 39.9505-28.0281 41.6603-23.476 41.6603-17.6532 41.6603-11.8418 39.9506-7.28984 36.5306-3.9971 33.1109-0.715895 28.3567 0.924557 22.274 0.924557 16.1565 0.924557 11.3734-0.716044 7.92484-3.9971 4.48777-7.28984 2.77204-11.8418 2.77204-17.6532 2.77204-23.476 4.48777-28.0279 7.92484-31.3091 11.3734-34.5903 16.1565-36.2307 22.274-36.2307Z" fill="#0D856E" transform="matrix(1 0 0 1.00031 2741.57 2098.7)"/><path d="M22.274-28.1434C19.7611-28.1434 17.8433-27.2422 16.5205-25.44 15.2092-23.6375 14.5565-21.0381 14.5565-17.6532 14.5565-14.2622 15.2092-11.6685 16.5205-9.86623 17.8433-8.06385 19.7611-7.16281 22.274-7.16281 24.7348-7.16281 26.618-8.06396 27.912-9.86623 29.2174-11.6686 29.876-14.2623 29.876-17.6532 29.876-21.0382 29.2174-23.6378 27.912-25.44 26.618-27.2423 24.7348-28.1434 22.274-28.1434ZM22.274-36.2307C28.3567-36.2307 33.1109-34.5902 36.5306-31.3091 39.9505-28.0281 41.6603-23.476 41.6603-17.6532 41.6603-11.8418 39.9506-7.28984 36.5306-3.9971 33.1109-0.715895 28.3567 0.924557 22.274 0.924557 16.1565 0.924557 11.3734-0.716044 7.92484-3.9971 4.48777-7.28984 2.77204-11.8418 2.77204-17.6532 2.77204-23.476 4.48777-28.0279 7.92484-31.3091 11.3734-34.5903 16.1565-36.2307 22.274-36.2307Z" fill="#0D856E" transform="matrix(1 0 0 1.00031 2786.02 2098.7)"/></g></g></g></g><text fill="#0D856E" font-family="Montserrat Alternates,Montserrat Alternates_MSFontService,sans-serif" font-weight="700" font-size="92" transform="matrix(1 0 0 1 1887.3 2161)">Generating Ideas</text></g></svg>