<svg width="4967" height="1401" xmlns="http://www.w3.org/2000/svg" xmlns:xlink="http://www.w3.org/1999/xlink" xml:space="preserve" overflow="hidden"><defs><clipPath id="clip0"><rect x="1986" y="1002" width="4967" height="1401"/></clipPath><clipPath id="clip1"><rect x="2449" y="1233" width="738" height="741"/></clipPath><clipPath id="clip2"><rect x="2449" y="1233" width="738" height="741"/></clipPath><clipPath id="clip3"><rect x="2449" y="1233" width="738" height="741"/></clipPath><clipPath id="clip4"><rect x="2449" y="1233" width="738" height="741"/></clipPath><clipPath id="clip5"><rect x="5913" y="1272" width="661" height="662"/></clipPath><clipPath id="clip6"><rect x="5913" y="1272" width="661" height="662"/></clipPath><clipPath id="clip7"><rect x="5913" y="1272" width="661" height="662"/></clipPath><clipPath id="clip8"><rect x="5913" y="1272" width="661" height="662"/></clipPath><clipPath id="clip9"><rect x="4207" y="1215" width="775" height="776"/></clipPath><clipPath id="clip10"><rect x="4207" y="1216" width="761" height="774"/></clipPath><clipPath id="clip11"><rect x="4189" y="1216" width="779" height="774"/></clipPath><clipPath id="clip12"><rect x="4189" y="1216" width="779" height="774"/></clipPath></defs><g clip-path="url(#clip0)" transform="translate(-1986 -1002)"><g clip-path="url(#clip1)"><g clip-path="url(#clip2)"><g clip-path="url(#clip3)"><g clip-path="url(#clip4)"><path d="M744.651 628.869 695.073 612.342 701.352 588.895C707.595 565.653 695.583 540.984 673.451 531.531L658.614 525.191C632.694 514.119 602.852 522.148 585.989 544.699 579.893 552.853 578.247 563.464 581.582 573.08 584.907 582.696 592.78 590.008 602.614 592.636L620.682 597.483C613.381 602.231 607.66 609.484 605.227 618.534L598.925 642.048C596.393 651.468 597.686 661.312 602.565 669.743 604.802 673.628 607.736 676.926 611.104 679.674L606.432 708.294C605.432 714.465 609.258 720.392 615.304 722.006L650.557 731.46C651.589 731.741 652.648 731.872 653.709 731.872 655.827 731.872 657.929 731.323 659.793 730.242 662.58 728.623 664.623 725.972 665.465 722.854L672.788 695.532 729.559 721.745C737.556 725.434 745.998 727.526 754.508 728.194L754.508 742.324C754.508 749.039 759.945 754.493 766.676 754.493 773.408 754.493 778.846 749.039 778.846 742.324L778.846 725.954C783.518 724.715 788.131 723.081 792.558 720.88 812.453 711.025 826.622 692.951 831.44 671.28L842.637 622.483C848.749 598.047 851.852 572.844 851.852 547.614 851.852 487.229 802.723 438.091 742.327 438.091 735.596 438.091 730.158 443.545 730.158 450.26 730.158 456.974 735.596 462.429 742.327 462.429 789.289 462.429 827.512 500.643 827.512 547.614 827.512 570.117 824.785 592.57 819.504 614.409L775.109 589.679 776.559 578.401C778.396 564.005 773.369 549.266 763.113 539.009 758.353 534.25 750.661 534.25 745.907 539.009 741.149 543.769 741.149 551.461 745.907 556.215 750.873 561.191 753.307 568.324 752.416 575.294ZM631.037 663.248C627.897 662.405 625.268 660.39 623.649 657.576 622.019 654.767 621.59 651.49 622.431 648.34L628.733 624.843C630.488 618.356 637.154 614.51 643.641 616.227L667.153 622.529C673.64 624.267 677.509 630.949 675.769 637.426L669.451 660.948C668.61 664.089 666.605 666.708 663.779 668.32 660.982 669.939 657.674 670.364 654.545 669.538ZM604.595 565.106C604.193 563.926 603.77 561.601 605.497 559.276 615.634 545.755 633.546 540.951 649.073 547.568L663.911 553.908C674.971 558.64 680.969 570.968 677.855 582.594L673.45 599.033 650.012 592.742 650.207 591.535C651.206 585.364 647.383 579.437 641.336 577.823L608.918 569.137C606.116 568.375 604.996 566.284 604.594 565.106ZM632.231 701.364 634.203 689.293 648.248 693.052 645.096 704.808ZM807.664 666.014C804.453 680.471 795.006 692.521 781.745 699.077 768.494 705.662 753.185 705.857 739.75 699.663L689.04 676.248C690.681 673.44 692.104 670.479 692.974 667.257L699.292 643.733C699.656 642.359 699.755 640.995 699.96 639.621L750.67 656.521C754.076 657.641 757.786 657.228 760.867 655.365 763.919 653.49 766.001 650.377 766.549 646.824L771.369 615.45 813.695 639.022Z" fill="#0D856E" transform="matrix(1 0 0 1.00013 2330.39 1195.94)"/><path d="M470.751 628.118C472.028 628.541 473.332 628.748 474.598 628.748 479.699 628.748 484.441 625.521 486.136 620.414 488.267 614.035 484.821 607.148 478.444 605.019L463.84 600.15 468.991 566.686 511.105 580.729 511.105 594.941 503.428 629.506C500.217 643.963 490.77 656.012 477.509 662.569 464.258 669.154 448.949 669.348 435.514 663.156L398.566 646.107C392.444 643.283 385.24 645.961 382.421 652.056 379.613 658.151 382.264 665.382 388.37 668.201L425.318 685.261C445.467 694.556 468.449 694.23 488.315 684.397 497.149 680.029 504.842 674.031 511.112 666.811L511.106 742.326C511.106 749.04 516.544 754.495 523.276 754.495 530.007 754.495 535.445 749.04 535.445 742.326L535.445 547.617C535.445 540.901 530.007 535.447 523.276 535.447 516.544 535.447 511.106 540.901 511.106 547.617L511.106 555.076 472.751 542.298 475.511 524.349C481.037 488.476 511.389 462.431 547.686 462.431L584.123 462.431C584.123 466.267 585.926 469.869 588.991 472.167L637.668 508.674C639.836 510.293 642.399 511.109 644.969 511.109 647.539 511.109 650.103 510.293 652.271 508.674L700.948 472.167C704.012 469.88 705.816 466.267 705.816 462.431L705.816 419.573C734.413 400.395 753.423 368.087 754.347 331.355 755.33 330.465 756.27 329.552 757.156 328.569L778.833 328.569C798.961 328.569 815.341 312.19 815.341 292.061L815.341 267.722C815.341 266.831 815.145 266.006 815.074 265.131 823.055 256.199 827.509 244.856 827.509 232.991 827.509 211.462 813.565 192.794 792.827 186.542 786.302 184.581 779.587 188.259 777.664 194.685 775.719 201.123 779.37 207.904 785.792 209.847 796.195 212.983 803.171 222.284 803.171 232.991 803.171 235.317 802.721 237.593 802.063 239.783 795.723 234.513 787.705 231.215 778.833 231.215L757.172 231.215C756.319 230.281 755.445 229.389 754.494 228.537L754.494 206.268C754.494 202.617 752.853 199.161 750.04 196.847 747.214 194.549 743.531 193.599 739.912 194.327 738.724 194.57 737.506 194.707 736.24 194.707 726.179 194.707 717.986 186.514 717.986 176.453 717.986 175.236 718.106 174.009 718.35 172.813 719.095 169.232 718.166 165.511 715.868 162.676 713.559 159.84 710.099 158.199 706.437 158.199L705.198 158.199C699.406 158.199 694.413 162.273 693.273 167.945 691.556 176.404 684.031 182.537 675.395 182.537 669.651 182.537 664.344 179.821 660.813 175.1 656.228 168.928 645.885 168.928 641.294 175.1 637.768 179.821 632.46 182.537 626.718 182.537 618.08 182.537 610.556 176.403 608.84 167.945 607.7 162.273 602.696 158.199 596.915 158.199L595.677 158.199C592.015 158.199 588.559 159.84 586.245 162.676 583.947 165.511 583.019 169.232 583.763 172.813 584.006 174.009 584.127 175.236 584.127 176.453 584.127 186.514 575.934 194.707 565.873 194.707 560.966 194.707 557.218 192.665 554.958 190.948 551.269 188.16 546.32 187.699 542.202 189.769 538.067 191.822 535.449 196.033 535.449 200.656L535.449 228.548C534.515 229.401 533.624 230.275 532.77 231.226L511.11 231.226C506.987 231.226 503.092 232.069 499.392 233.334 500.219 229.733 502.07 227.015 503.673 225.218 507.607 220.823 507.823 214.254 504.194 209.604 501.798 206.512 498.942 201.438 498.942 194.707 498.942 186.384 503.201 178.719 510.334 174.204 515.82 170.722 517.614 163.555 514.397 157.911 512.219 154.076 511.11 150.083 511.11 146.029 511.11 132.605 522.025 121.691 535.45 121.691 537.156 121.691 538.98 121.946 541.192 122.468 544.843 123.342 548.76 122.479 551.72 120.094 554.834 117.562 560.005 114.547 566.921 114.547 571.143 114.547 575.272 115.715 579.161 118.013 582.421 119.925 586.376 120.24 589.908 118.817 593.411 117.394 596.063 114.422 597.073 110.771 599.252 102.877 606.444 97.3522 614.549 97.3522 619.466 97.3522 624.079 99.2971 627.534 102.817 630.343 105.664 634.396 106.979 638.302 106.284 642.245 105.588 645.604 103.024 647.272 99.3842 651.265 90.757 659.903 85.1829 669.312 85.1829 677.635 85.1829 685.289 89.4421 689.815 96.559 693.27 102.024 700.426 103.823 706.085 100.634 709.943 98.4606 713.947 97.3522 717.989 97.3522 731.414 97.3522 742.327 108.267 742.327 121.229 742.278 121.582 742.143 122.908 742.121 123.261 741.866 128.65 745.174 133.567 750.275 135.343 760.082 138.765 766.665 147.952 766.665 158.199 766.665 164.915 772.104 170.369 778.835 170.369 785.566 170.369 791.005 164.915 791.005 158.199 791.005 140.575 781.378 124.538 766.341 116.02 763.515 91.8384 742.914 73.0141 717.989 73.0141 713.142 73.0141 708.389 73.7585 703.761 75.2143 694.732 66.0764 682.443 60.8448 669.312 60.8448 655.296 60.8448 642.126 66.9892 633.02 77.2142 627.337 74.4652 621.057 73.0148 614.549 73.0148 600.18 73.0148 587.059 80.3654 579.307 91.8877 566.323 88.3455 552.497 90.5621 541.18 97.7278 539.235 97.4888 537.323 97.353 535.449 97.353 508.605 97.353 486.772 119.187 486.772 146.03 486.772 150.888 487.516 155.646 488.987 160.258 479.845 169.287 474.602 181.575 474.602 194.707 474.602 202.434 476.438 209.92 479.98 216.732 476.477 223.012 474.602 230.086 474.602 237.3 474.602 242.739 475.661 248.057 477.704 253.109 475.731 257.585 474.602 262.513 474.602 267.724L474.602 292.062C474.602 312.191 490.981 328.57 511.11 328.57L523.279 328.57 523.279 406.16C404.444 463.1 268.474 463.65 148.951 407.415L146.028 406.03 146.028 352.909C146.028 346.194 140.59 340.74 133.859 340.74 127.128 340.74 121.689 346.194 121.689 352.909L121.689 413.755C121.689 418.465 124.417 422.763 128.676 424.767L138.58 429.429C192.674 454.887 249.951 469.263 307.628 472.718 292.841 475.357 279.118 483.267 269.578 496.024 263.483 504.178 261.837 514.788 265.173 524.404 268.497 534.02 276.37 541.333 286.202 543.961L304.289 548.807C296.976 553.555 291.254 560.792 288.821 569.859L282.519 593.372C279.988 602.792 281.281 612.637 286.159 621.068 288.398 624.953 291.332 628.25 294.7 630.999L290.028 659.619C289.028 665.789 292.852 671.717 298.9 673.331L334.153 682.784C335.185 683.066 336.244 683.197 337.303 683.197 339.423 683.197 341.525 682.648 343.389 681.567 346.175 679.948 348.218 677.297 349.06 674.179L357.834 641.429C358.394 641.147 359.002 641.028 359.55 640.713 367.999 635.844 374.034 627.973 376.55 618.552L381.929 598.493ZM681.482 456.342 644.973 483.724 608.466 456.342 608.466 431.7C619.907 435.763 632.158 438.088 644.973 438.088 657.79 438.088 670.039 435.763 681.482 431.7ZM644.973 413.75C602.148 413.75 566.699 381.953 560.761 340.733L594.857 340.733C607.879 340.733 619.597 333.493 625.437 321.833 627.11 318.475 630.49 316.395 634.239 316.395L655.704 316.395C659.463 316.395 662.837 318.475 664.515 321.833 670.345 333.491 682.069 340.733 695.085 340.733L729.182 340.733C723.249 381.953 687.8 413.75 644.973 413.75ZM661.136 243.38 700.404 282.637C702.778 285.011 705.89 286.201 709.008 286.201 712.122 286.201 715.24 285.005 717.614 282.637 722.374 277.878 722.374 270.175 717.614 265.432L695.547 243.381 730.16 243.381C736.874 243.381 742.328 248.846 742.328 255.55L742.328 304.228C742.328 310.932 736.874 316.396 730.16 316.396L695.085 316.396C691.326 316.396 687.951 314.316 686.273 310.959 680.45 299.3 668.726 292.058 655.708 292.058L640.986 292.058 592.308 243.381ZM547.62 304.226 547.62 255.548C547.62 249.405 552.27 244.509 558.207 243.695L613.736 299.223C609.661 302.325 606.071 306.15 603.674 310.952 601.99 314.315 598.611 316.396 594.863 316.396L559.788 316.396C553.074 316.396 547.62 310.93 547.62 304.226ZM778.837 255.548C785.551 255.548 791.005 261.014 791.005 267.718L791.005 292.057C791.005 298.76 785.551 304.226 778.837 304.226L766.667 304.226 766.667 255.548ZM559.788 218.602C576.679 221.073 593.498 212.626 602.028 198.945 615.925 208.828 636.78 209.251 651.059 199.19 665.336 209.251 686.204 208.838 700.089 198.945 706.587 209.36 717.491 216.787 730.16 218.613L730.16 219.041 559.788 219.041ZM511.112 304.226C504.397 304.226 498.942 298.76 498.942 292.057L498.942 267.718C498.942 261.014 504.397 255.548 511.112 255.548L523.28 255.548 523.28 304.226ZM334.872 473.581C405.297 473.581 475.675 457.239 540.903 424.639 545.02 422.568 547.623 418.358 547.623 413.746L547.623 378.504C556.162 395.079 568.733 409.231 584.129 419.564L584.129 438.083 547.693 438.083C499.297 438.083 458.819 472.804 451.467 520.638L440.428 592.35 381.673 572.759C380.75 570.304 379.522 568 378.094 565.8L384.954 540.195C391.197 516.954 379.185 492.284 357.053 482.832L342.216 476.492C339.271 475.226 336.268 474.291 333.246 473.52 333.796 473.531 334.334 473.579 334.876 473.579ZM288.195 516.418C287.793 515.24 287.368 512.915 289.097 510.589 299.234 497.067 317.146 492.265 332.673 498.882L347.509 505.222C358.57 509.954 364.569 522.281 361.455 533.907L357.048 550.345 333.612 544.054 333.806 542.849C334.806 536.677 330.982 530.749 324.934 529.136L292.518 520.449C289.714 519.689 288.595 517.598 288.193 516.418ZM315.831 652.677 317.803 640.606 331.846 644.365 328.696 656.122ZM359.358 588.739 353.04 612.263C352.197 615.403 350.193 618.022 347.368 619.635 344.57 621.265 341.245 621.678 338.132 620.851L314.62 614.549C311.479 613.708 308.85 611.693 307.231 608.878 305.601 606.07 305.172 602.793 306.015 599.643L312.317 576.146C314.071 569.67 320.726 565.824 327.224 567.53L350.736 573.832C357.229 575.586 361.102 582.279 359.358 588.739Z" fill="#0D856E" transform="matrix(1 0 0 1.00013 2330.39 1195.94)"/><path d="M663.874 354.19C652.032 360.106 637.917 360.106 626.09 354.19 620.093 351.185 612.775 353.619 609.76 359.627 606.755 365.643 609.189 372.955 615.197 375.958 624.531 380.619 634.739 382.955 644.975 382.955 655.209 382.955 665.428 380.619 674.751 375.958 680.765 372.954 683.198 365.636 680.188 359.627 677.173 353.63 669.899 351.196 663.875 354.19Z" fill="#0D856E" transform="matrix(1 0 0 1.00013 2330.39 1195.94)"/><path d="M133.862 316.402C140.594 316.402 146.032 310.948 146.032 304.233L146.032 165.127C239.991 207.296 346.277 216.808 446.287 191.877 452.796 190.258 456.767 183.652 455.159 177.128 453.518 170.604 446.906 166.6 440.399 168.257 343.18 192.498 239.682 182.36 148.96 139.669L139.057 135.008C135.286 133.242 130.881 133.498 127.349 135.751 123.818 137.985 121.688 141.87 121.688 146.03L121.688 304.232C121.688 310.947 127.127 316.402 133.858 316.402Z" fill="#0D856E" transform="matrix(1 0 0 1.00013 2330.39 1195.94)"/><path d="M279.895 243.387C246.342 243.387 219.048 270.681 219.048 304.233L219.048 389.418C219.048 396.133 224.486 401.588 231.217 401.588L267.725 401.588C272.968 401.588 277.608 398.242 279.264 393.264L288.891 364.383C304.478 361.999 318.707 353.481 328.323 340.74L328.822 340.74C338.438 353.481 352.661 361.999 368.253 364.383L377.88 393.264C379.526 398.24 384.177 401.588 389.42 401.588L425.928 401.588C432.659 401.588 438.096 396.133 438.096 389.418L438.096 304.233C438.096 270.681 410.802 243.387 377.25 243.387ZM413.757 304.233 413.757 377.248 398.193 377.248 388.8 349.063C387.132 344.087 382.491 340.74 377.25 340.74 364.255 340.74 352.508 333.901 345.842 322.449 343.648 318.7 339.645 316.402 335.325 316.402L321.83 316.402C317.511 316.402 313.496 318.7 311.318 322.449 304.635 333.901 292.89 340.74 279.895 340.74 274.652 340.74 270.001 344.087 268.355 349.063L258.952 377.248 243.387 377.248 243.387 304.233C243.387 284.104 259.766 267.725 279.895 267.725L377.25 267.725C397.379 267.725 413.758 284.104 413.758 304.233Z" fill="#0D856E" transform="matrix(1 0 0 1.00013 2330.39 1195.94)"/><path d="M292.063 292.063C292.063 285.349 286.626 279.895 279.895 279.895 273.163 279.895 267.725 285.349 267.725 292.063 260.994 292.063 255.555 297.519 255.555 304.233 255.555 310.948 260.994 316.402 267.725 316.402 267.725 323.118 273.163 328.572 279.895 328.572 286.626 328.572 292.063 323.118 292.063 316.402 298.794 316.402 304.233 310.948 304.233 304.233 304.233 297.519 298.794 292.063 292.063 292.063Z" fill="#0D856E" transform="matrix(1 0 0 1.00013 2330.39 1195.94)"/><path d="M377.248 292.063C377.248 298.783 371.8 304.233 365.08 304.233 358.36 304.233 352.91 298.783 352.91 292.063 352.91 285.343 358.36 279.895 365.08 279.895 371.8 279.895 377.248 285.343 377.248 292.063" fill="#0D856E" transform="matrix(1 0 0 1.00013 2330.39 1195.94)"/><path d="M401.588 316.402C401.588 323.123 396.138 328.572 389.418 328.572 382.698 328.572 377.248 323.123 377.248 316.402 377.248 309.682 382.698 304.233 389.418 304.233 396.138 304.233 401.588 309.682 401.588 316.402" fill="#0D856E" transform="matrix(1 0 0 1.00013 2330.39 1195.94)"/><path d="M40.7666-2.43387C38.6641-1.34732 36.4693-0.526966 34.182 0.0216961 31.9057 0.586701 29.5371 0.869209 27.076 0.869209 19.6874 0.869209 13.8257-1.19526 9.49512-5.32407 5.17606-9.45302 3.01938-15.0596 3.01938-22.1441 3.01938-29.2288 5.17621-34.835 9.49512-38.9643 13.825-43.0931 19.6869-45.1576 27.076-45.1576 29.5369-45.1576 31.9057-44.8804 34.182-44.3318 36.4692-43.7776 38.6641-42.9518 40.7666-41.8545L40.7666-32.684C38.6369-34.1291 36.5398-35.1885 34.4863-35.8565 32.4273-36.5357 30.2597-36.8779 27.9887-36.8779 23.9034-36.8779 20.6926-35.5633 18.3619-32.9447 16.0258-30.337 14.8633-26.7352 14.8633-22.1445 14.8633-17.5647 16.0259-13.9628 18.3619-11.3442 20.6926-8.73652 23.9034-7.43267 27.9887-7.43267 30.2597-7.43267 32.4273-7.76407 34.4863-8.4323 36.5399-9.11139 38.6369-10.1762 40.7666-11.6268Z" fill="#0D856E" transform="matrix(1 0 0 1.00013 2427.74 2157.44)"/><path d="M29.8364-24.2079C28.891-24.6425 27.9566-24.9576 27.0332-25.1641 26.1204-25.3814 25.1969-25.49 24.2733-25.49 21.5351-25.49 19.4273-24.61 17.9495-22.8606 16.4827-21.1059 15.7547-18.5905 15.7547-15.3199L15.7547 0.000862283 5.10667 0.000862283 5.10667-33.2693 15.7547-33.2693 15.7547-27.8149C17.1129-29.9879 18.6776-31.5743 20.4487-32.5739 22.2305-33.5735 24.3602-34.0733 26.8376-34.0733 27.1853-34.0733 27.5656-34.0571 27.9894-34.0299 28.4076-33.9973 29.0107-33.9321 29.793-33.8343Z" fill="#0D856E" transform="matrix(1 0 0 1.00013 2472.4 2157.44)"/><path d="M38.3327-16.7325 38.3327-13.6901 13.4502-13.6901C13.711-11.1965 14.6074-9.32768 16.1448-8.08362 17.6932-6.83409 19.8608-6.2147 22.6424-6.2147 24.8698-6.2147 27.1625-6.54067 29.5095-7.19259 31.8563-7.85538 34.2685-8.86583 36.7458-10.2132L36.7458-2.0207C34.2358-1.06453 31.7259-0.347444 29.2051 0.130705 26.6843 0.619648 24.1689 0.869557 21.6645 0.869557 15.6342 0.869557 10.9511-0.657101 7.60505-3.7157 4.26941-6.78515 2.60687-11.0825 2.60687-16.6021 2.60687-22.0348 4.24215-26.2996 7.518-29.4015 10.8048-32.5145 15.3194-34.0737 21.0564-34.0737 26.2827-34.0737 30.4713-32.4929 33.6168-29.3365 36.7569-26.191 38.3323-21.9915 38.3323-16.7325ZM27.402-20.2528C27.402-22.2792 26.8044-23.9091 25.62-25.1423 24.4466-26.3863 22.9092-27.0111 21.0131-27.0111 18.9378-27.0111 17.2591-26.4299 15.9715-25.2727 14.6949-24.1101 13.8963-22.4367 13.5811-20.2528Z" fill="#0D856E" transform="matrix(1 0 0 1.00013 2502.41 2157.44)"/><path d="M20.0148-14.9731C17.798-14.9731 16.1303-14.5929 15.0165-13.8431 13.8974-13.088 13.3433-11.9798 13.3433-10.5183 13.3433-9.17101 13.7887-8.11158 14.6906-7.34568 15.587-6.59053 16.842-6.21567 18.45-6.21567 20.4492-6.21567 22.1279-6.93278 23.4916-8.36707 24.8661-9.80124 25.5561-11.5941 25.5561-13.7564L25.5561-14.9733ZM36.2702-18.9934 36.2702-0.000834467 25.5569-0.000834467 25.5569-4.9338C24.1226-2.91827 22.5145-1.44599 20.7325-0.522376 18.9505 0.401241 16.783 0.868403 14.2348 0.868403 10.7851 0.868403 7.98182-0.136658 5.825-2.15223 3.67903-4.16232 2.60882-6.77003 2.60882-9.97536 2.60882-13.8869 3.94527-16.7446 6.62902-18.5592 9.32365-20.3846 13.5396-21.2973 19.2765-21.2973L25.5567-21.2973 25.5567-22.1448C25.5567-23.8234 24.8885-25.0568 23.5575-25.839 22.2373-26.6213 20.1675-27.0125 17.3423-27.0125 15.066-27.0125 12.9527-26.7789 10.9969-26.3171 9.04118-25.8661 7.21564-25.187 5.5207-24.2743L5.5207-32.3799C7.80783-32.945 10.0951-33.3632 12.3877-33.6402 14.6911-33.9282 16.9837-34.075 19.2763-34.075 25.285-34.075 29.6203-32.8852 32.2715-30.511 34.9336-28.1477 36.2701-24.3069 36.2701-18.9938Z" fill="#0D856E" transform="matrix(1 0 0 1.00013 2543.67 2157.44)"/><path d="M16.7325-42.7233 16.7325-33.2704 27.6849-33.2704 27.6849-25.6645 16.7325-25.6645 16.7325-11.5606C16.7325-10.0068 17.0367-8.95829 17.6452-8.40963 18.2536-7.87178 19.4706-7.60558 21.296-7.60558L26.7721-7.60558 26.7721 0.000305971 17.6452 0.000305971C13.4403 0.000305971 10.463-0.874369 8.71372-2.6291 6.95897-4.37842 6.08431-7.35553 6.08431-11.5606L6.08431-25.6644 0.803662-25.6644 0.803662-33.2703 6.08431-33.2703 6.08431-42.7233Z" fill="#0D856E" transform="matrix(1 0 0 1.00013 2584.73 2157.44)"/><path d="M38.3327-16.7325 38.3327-13.6901 13.4502-13.6901C13.711-11.1965 14.6074-9.32768 16.1448-8.08362 17.6932-6.83409 19.8608-6.2147 22.6424-6.2147 24.8698-6.2147 27.1625-6.54067 29.5095-7.19259 31.8563-7.85538 34.2685-8.86583 36.7458-10.2132L36.7458-2.0207C34.2358-1.06453 31.7259-0.347444 29.2051 0.130705 26.6843 0.619648 24.1689 0.869557 21.6645 0.869557 15.6342 0.869557 10.9511-0.657101 7.60505-3.7157 4.26941-6.78515 2.60687-11.0825 2.60687-16.6021 2.60687-22.0348 4.24215-26.2996 7.518-29.4015 10.8048-32.5145 15.3194-34.0737 21.0564-34.0737 26.2827-34.0737 30.4713-32.4929 33.6168-29.3365 36.7569-26.191 38.3323-21.9915 38.3323-16.7325ZM27.402-20.2528C27.402-22.2792 26.8044-23.9091 25.62-25.1423 24.4466-26.3863 22.9092-27.0111 21.0131-27.0111 18.9378-27.0111 17.2591-26.4299 15.9715-25.2727 14.6949-24.1101 13.8963-22.4367 13.5811-20.2528Z" fill="#0D856E" transform="matrix(1 0 0 1.00013 2613.82 2157.44)"/><path d="M27.7502-28.4025 27.7502-46.2212 38.4419-46.2212 38.4419 0 27.7502 0 27.7502-4.80251C26.2834-2.84679 24.6699-1.41247 22.9042-0.499707 21.1331 0.412992 19.0903 0.869348 16.7761 0.869348 12.6745 0.869348 9.30612-0.760505 6.67129-4.02007 4.0473-7.27978 2.73802-11.4738 2.73802-16.6023 2.73802-21.7309 4.04732-25.9248 6.67129-29.1846 9.30612-32.4442 12.6745-34.074 16.7761-34.074 19.0795-34.074 21.1115-33.6068 22.8825-32.6832 24.6644-31.7704 26.2834-30.3416 27.7502-28.4022ZM20.7311-6.86766C23.0182-6.86766 24.7568-7.69889 25.9466-9.36676 27.1472-11.0292 27.7502-13.4413 27.7502-16.6031 27.7502-19.7757 27.1472-22.1933 25.9466-23.8613 24.7568-25.5237 23.0182-26.3605 20.7311-26.3605 18.4711-26.3605 16.7381-25.5237 15.5373-23.8613 14.3477-22.1935 13.7555-19.7759 13.7555-16.6031 13.7555-13.4413 14.3477-11.0292 15.5373-9.36676 16.7379-7.69894 18.4711-6.86766 20.7311-6.86766Z" fill="#0D856E" transform="matrix(1 0 0 1.00013 2655.09 2157.44)"/><path d="M22.8172-6.86698C25.088-6.86698 26.8265-7.69818 28.0325-9.36607 29.2331-11.0285 29.8363-13.4406 29.8363-16.6024 29.8363-19.7751 29.2333-22.1927 28.0325-23.8606 26.8265-25.523 25.088-26.3597 22.8172-26.3597 20.5408-26.3597 18.797-25.5176 17.58-23.839 16.3631-22.1712 15.7546-19.759 15.7546-16.6025 15.7546-13.457 16.3631-11.0449 17.58-9.3662 18.797-7.69839 20.5408-6.86711 22.8172-6.86711ZM15.7546-28.4018C17.2161-30.3412 18.8405-31.7702 20.6224-32.6828 22.4042-33.6063 24.4524-34.0735 26.7722-34.0735 30.8685-34.0735 34.2369-32.4437 36.8771-29.1842 39.5118-25.9244 40.8322-21.7303 40.8322-16.6019 40.8322-11.4734 39.512-7.27933 36.8771-4.01963 34.2369-0.759922 30.8685 0.869793 26.7722 0.869793 24.4524 0.869793 22.4044 0.402576 20.6224-0.520986 18.8404-1.44454 17.2161-2.87334 15.7546-4.80194L15.7546 0.000556312 5.10653 0.000556312 5.10653-46.2206 15.7546-46.2206Z" fill="#0D856E" transform="matrix(1 0 0 1.00013 2719.82 2157.44)"/><path d="M0.738852-33.2703 11.3869-33.2703 20.3184-10.6923 27.9243-33.2703 38.5724-33.2703 24.5784 3.15151C23.1713 6.85668 21.5251 9.44256 19.6453 10.9094 17.7765 12.3871 15.3047 13.126 12.2352 13.126L6.08529 13.126 6.08529 6.15044 9.41008 6.15044C11.2192 6.15044 12.5285 5.85707 13.3433 5.28121 14.1691 4.71621 14.8103 3.68403 15.2773 2.19535L15.5599 1.28265Z" fill="#0D856E" transform="matrix(1 0 0 1.00013 2763.38 2157.44)"/><path d="M0.304233-44.3533 41.1806-44.3533 41.1806-35.7044 26.469-35.7044 26.469-0.000278155 15.0385-0.000278155 15.0385-35.7044 0.304511-35.7044Z" fill="#0D856E" transform="matrix(1 0 0 1.00013 2824.22 2157.44)"/><path d="M5.1068-33.2703 15.7548-33.2703 15.7548 0 5.1068 0ZM5.1068-46.2218 15.7548-46.2218 15.7548-37.5512 5.1068-37.5512Z" fill="#0D856E" transform="matrix(1 0 0 1.00013 2865.73 2157.44)"/><path d="M15.7547-4.80251 15.7547 12.6476 5.10667 12.6476 5.10667-33.2704 15.7547-33.2704 15.7547-28.4026C17.2162-30.342 18.8406-31.771 20.6225-32.6836 22.4044-33.6072 24.4526-34.0744 26.7724-34.0744 30.8686-34.0744 34.237-32.4445 36.8773-29.185 39.512-25.9252 40.8323-21.7311 40.8323-16.6027 40.8323-11.4742 39.5121-7.28017 36.8773-4.02047 34.237-0.760756 30.8686 0.868959 26.7724 0.868959 24.4526 0.868959 22.4045 0.401741 20.6225-0.521821 18.8405-1.44538 17.2162-2.87418 15.7547-4.80278ZM22.8173-26.3595C20.5409-26.3595 18.7971-25.5175 17.5801-23.8389 16.3632-22.171 15.7547-19.7588 15.7547-16.6024 15.7547-13.4569 16.3632-11.0447 17.5801-9.36607 18.7971-7.69824 20.5409-6.86698 22.8173-6.86698 25.0882-6.86698 26.8266-7.69818 28.0326-9.36607 29.2333-11.0285 29.8364-13.4406 29.8364-16.6024 29.8364-19.7751 29.2334-22.1927 28.0326-23.8606 26.8266-25.523 25.0882-26.3597 22.8173-26.3597Z" fill="#0D856E" transform="matrix(1 0 0 1.00013 2886.59 2157.44)"/><path d="M15.7547-4.80251 15.7547 12.6476 5.10667 12.6476 5.10667-33.2704 15.7547-33.2704 15.7547-28.4026C17.2162-30.342 18.8406-31.771 20.6225-32.6836 22.4044-33.6072 24.4526-34.0744 26.7724-34.0744 30.8686-34.0744 34.237-32.4445 36.8773-29.185 39.512-25.9252 40.8323-21.7311 40.8323-16.6027 40.8323-11.4742 39.5121-7.28017 36.8773-4.02047 34.237-0.760756 30.8686 0.868959 26.7724 0.868959 24.4526 0.868959 22.4045 0.401741 20.6225-0.521821 18.8405-1.44538 17.2162-2.87418 15.7547-4.80278ZM22.8173-26.3595C20.5409-26.3595 18.7971-25.5175 17.5801-23.8389 16.3632-22.171 15.7547-19.7588 15.7547-16.6024 15.7547-13.4569 16.3632-11.0447 17.5801-9.36607 18.7971-7.69824 20.5409-6.86698 22.8173-6.86698 25.0882-6.86698 26.8266-7.69818 28.0326-9.36607 29.2333-11.0285 29.8364-13.4406 29.8364-16.6024 29.8364-19.7751 29.2334-22.1927 28.0326-23.8606 26.8266-25.523 25.0882-26.3597 22.8173-26.3597Z" fill="#0D856E" transform="matrix(1 0 0 1.00013 2930.15 2157.44)"/><path d="M20.0148-14.9731C17.798-14.9731 16.1303-14.5929 15.0165-13.8431 13.8974-13.088 13.3433-11.9798 13.3433-10.5183 13.3433-9.17101 13.7887-8.11158 14.6906-7.34568 15.587-6.59053 16.842-6.21567 18.45-6.21567 20.4492-6.21567 22.1279-6.93278 23.4916-8.36707 24.8661-9.80124 25.5561-11.5941 25.5561-13.7564L25.5561-14.9733ZM36.2702-18.9934 36.2702-0.000834467 25.5569-0.000834467 25.5569-4.9338C24.1226-2.91827 22.5145-1.44599 20.7325-0.522376 18.9505 0.401241 16.783 0.868403 14.2348 0.868403 10.7851 0.868403 7.98182-0.136658 5.825-2.15223 3.67903-4.16232 2.60882-6.77003 2.60882-9.97536 2.60882-13.8869 3.94527-16.7446 6.62902-18.5592 9.32365-20.3846 13.5396-21.2973 19.2765-21.2973L25.5567-21.2973 25.5567-22.1448C25.5567-23.8234 24.8885-25.0568 23.5575-25.839 22.2373-26.6213 20.1675-27.0125 17.3423-27.0125 15.066-27.0125 12.9527-26.7789 10.9969-26.3171 9.04118-25.8661 7.21564-25.187 5.5207-24.2743L5.5207-32.3799C7.80783-32.945 10.0951-33.3632 12.3877-33.6402 14.6911-33.9282 16.9837-34.075 19.2763-34.075 25.285-34.075 29.6203-32.8852 32.2715-30.511 34.9336-28.1477 36.2701-24.3069 36.2701-18.9938Z" fill="#0D856E" transform="matrix(1 0 0 1.00013 2973.7 2157.44)"/><path d="M2.12956-33.2703 12.4735-33.2703 18.0583-10.3446 23.6867-33.2703 32.5528-33.2703 38.1377-10.5838 43.7659-33.2703 54.11-33.2703 45.3307 0 33.7262 0 28.098-22.8825 22.5131 0 10.9087 0Z" fill="#0D856E" transform="matrix(1 0 0 1.00013 3014.76 2157.44)"/><path d="M20.0148-14.9731C17.798-14.9731 16.1303-14.5929 15.0165-13.8431 13.8974-13.088 13.3433-11.9798 13.3433-10.5183 13.3433-9.17101 13.7887-8.11158 14.6906-7.34568 15.587-6.59053 16.842-6.21567 18.45-6.21567 20.4492-6.21567 22.1279-6.93278 23.4916-8.36707 24.8661-9.80124 25.5561-11.5941 25.5561-13.7564L25.5561-14.9733ZM36.2702-18.9934 36.2702-0.000834467 25.5569-0.000834467 25.5569-4.9338C24.1226-2.91827 22.5145-1.44599 20.7325-0.522376 18.9505 0.401241 16.783 0.868403 14.2348 0.868403 10.7851 0.868403 7.98182-0.136658 5.825-2.15223 3.67903-4.16232 2.60882-6.77003 2.60882-9.97536 2.60882-13.8869 3.94527-16.7446 6.62902-18.5592 9.32365-20.3846 13.5396-21.2973 19.2765-21.2973L25.5567-21.2973 25.5567-22.1448C25.5567-23.8234 24.8885-25.0568 23.5575-25.839 22.2373-26.6213 20.1675-27.0125 17.3423-27.0125 15.066-27.0125 12.9527-26.7789 10.9969-26.3171 9.04118-25.8661 7.21564-25.187 5.5207-24.2743L5.5207-32.3799C7.80783-32.945 10.0951-33.3632 12.3877-33.6402 14.6911-33.9282 16.9837-34.075 19.2763-34.075 25.285-34.075 29.6203-32.8852 32.2715-30.511 34.9336-28.1477 36.2701-24.3069 36.2701-18.9938Z" fill="#0D856E" transform="matrix(1 0 0 1.00013 3070.97 2157.44)"/><path d="M38.5719-20.2525 38.5719 0 27.8585 0 27.8585-15.5155C27.8585-18.384 27.7933-20.3616 27.663-21.448 27.5435-22.5346 27.3261-23.3386 27.0111-23.8602 26.5873-24.5556 26.0223-25.088 25.316-25.4683 24.6043-25.8593 23.7948-26.0549 22.8821-26.0549 20.6655-26.0549 18.9161-25.1967 17.645-23.4907 16.3846-21.7793 15.7544-19.4052 15.7544-16.3628L15.7544 0.00100136 5.10629 0.00100136 5.10629-33.2692 15.7544-33.2692 15.7544-28.4015C17.3461-30.3409 19.0412-31.7698 20.8393-32.6824 22.6485-33.606 24.6477-34.0732 26.837-34.0732 30.6726-34.0732 33.5846-32.889 35.5729-30.531 37.5721-28.1841 38.5716-24.7561 38.5716-20.2524Z" fill="#0D856E" transform="matrix(1 0 0 1.00013 3112.03 2157.44)"/><path d="M36.4648-42.9626 36.4648-33.5747C34.0148-34.6613 31.6296-35.4763 29.3154-36.0304 26.9956-36.5954 24.8063-36.8779 22.7525-36.8779 20.0254-36.8779 18.0043-36.4976 16.6896-35.7479 15.3858-34.9927 14.734-33.8193 14.734-32.2275 14.734-31.0377 15.174-30.1088 16.0594-29.446 16.9396-28.794 18.5424-28.229 20.8621-27.7509L25.7297-26.773C30.6518-25.7734 34.1613-24.263 36.2475-22.253 38.3337-20.2374 39.3767-17.3689 39.3767-13.6475 39.3767-8.74725 37.9207-5.1073 35.0088-2.71683 32.1078-0.32636 27.6747 0.868737 21.7095 0.868737 18.8954 0.868737 16.0704 0.597103 13.2344 0.064699 10.4095-0.467705 7.58437-1.26632 4.75928-2.32577L4.75928-11.9743C7.58422-10.4641 10.3115-9.32862 12.9518-8.56259 15.6029-7.80743 18.1563-7.43258 20.6228-7.43258 23.111-7.43258 25.018-7.84547 26.338-8.67123 27.669-9.50786 28.3373-10.6976 28.3373-12.2351 28.3373-13.6259 27.8864-14.6961 26.99-15.4513 26.0882-16.2009 24.2954-16.8746 21.6007-17.4722L17.1675-18.4501C12.7345-19.4063 9.48576-20.9166 7.43214-22.9918 5.38937-25.078 4.36811-27.8813 4.36811-31.4017 4.36811-35.8185 5.79144-39.214 8.64908-41.5934 11.5013-43.9676 15.6029-45.1574 20.9489-45.1574 23.3827-45.1574 25.8872-44.9727 28.4676-44.6141 31.0428-44.2501 33.7103-43.7014 36.4647-42.9626Z" fill="#0D856E" transform="matrix(1 0 0 1.00013 3176.53 2157.44)"/><path d="M20.948-26.4679C18.5847-26.4679 16.7809-25.6204 15.5369-23.9254 14.3037-22.2304 13.6899-19.7856 13.6899-16.6021 13.6899-13.4131 14.3038-10.9738 15.5369-9.27886 16.7811-7.58378 18.5847-6.73638 20.948-6.73638 23.2624-6.73638 25.0334-7.5839 26.2502-9.27886 27.478-10.9739 28.0973-13.4132 28.0973-16.6021 28.0973-19.7857 27.478-22.2305 26.2502-23.9254 25.0334-25.6206 23.2624-26.4679 20.948-26.4679ZM20.948-34.0739C26.6686-34.0739 31.1397-32.5309 34.3559-29.4452 37.572-26.3594 39.1802-22.0784 39.1802-16.6021 39.1802-11.1368 37.5721-6.85584 34.3559-3.75913 31.1397-0.673276 26.6686 0.869515 20.948 0.869515 15.1947 0.869515 10.6963-0.673416 7.45304-3.75913 4.22059-6.85584 2.60702-11.1368 2.60702-16.6021 2.60702-22.0784 4.22059-26.3593 7.45304-29.4452 10.6963-32.531 15.1947-34.0739 20.948-34.0739Z" fill="#0D856E" transform="matrix(1 0 0 1.00013 3220.35 2157.44)"/><path d="M20.948-26.4679C18.5847-26.4679 16.7809-25.6204 15.5369-23.9254 14.3037-22.2304 13.6899-19.7856 13.6899-16.6021 13.6899-13.4131 14.3038-10.9738 15.5369-9.27886 16.7811-7.58378 18.5847-6.73638 20.948-6.73638 23.2624-6.73638 25.0334-7.5839 26.2502-9.27886 27.478-10.9739 28.0973-13.4132 28.0973-16.6021 28.0973-19.7857 27.478-22.2305 26.2502-23.9254 25.0334-25.6206 23.2624-26.4679 20.948-26.4679ZM20.948-34.0739C26.6686-34.0739 31.1397-32.5309 34.3559-29.4452 37.572-26.3594 39.1802-22.0784 39.1802-16.6021 39.1802-11.1368 37.5721-6.85584 34.3559-3.75913 31.1397-0.673276 26.6686 0.869515 20.948 0.869515 15.1947 0.869515 10.6963-0.673416 7.45304-3.75913 4.22059-6.85584 2.60702-11.1368 2.60702-16.6021 2.60702-22.0784 4.22059-26.3593 7.45304-29.4452 10.6963-32.531 15.1947-34.0739 20.948-34.0739Z" fill="#0D856E" transform="matrix(1 0 0 1.00013 3262.16 2157.44)"/></g></g></g></g><text fill="#0D856E" font-family="Montserrat Alternates,Montserrat Alternates_MSFontService,sans-serif" font-weight="700" font-size="92" transform="matrix(1 0 0 1 2564.43 2214)">Immersive<tspan font-size="92" x="-30.3647" y="110">Technology</tspan></text><g clip-path="url(#clip5)"><g clip-path="url(#clip6)"><g clip-path="url(#clip7)"><g clip-path="url(#clip8)"><path d="M413.13 565.336C404.481 565.336 396.182 568.773 390.067 574.888 383.953 581.003 380.515 589.304 380.515 597.951 380.515 606.599 383.952 614.9 390.067 621.015 396.183 627.13 404.482 630.566 413.13 630.566 421.778 630.566 430.079 627.13 436.194 621.015 442.308 614.899 445.745 606.599 445.745 597.951 445.745 589.304 442.309 581.002 436.194 574.888 430.078 568.774 421.778 565.336 413.13 565.336ZM413.13 608.823C408.734 608.823 404.768 606.173 403.088 602.112 401.405 598.049 402.331 593.375 405.442 590.265 408.554 587.153 413.228 586.226 417.29 587.911 421.352 589.589 424.002 593.555 424.002 597.952 424.002 600.835 422.856 603.602 420.819 605.64 418.78 607.678 416.013 608.823 413.13 608.823Z" fill="#0D856E" transform="matrix(1.00066 0 0 1 5808.84 1254.26)"/><path d="M246.698 540.772C257.337 540.757 267.306 535.555 273.397 526.833 279.493 518.11 280.949 506.963 277.294 496.964 273.644 486.971 265.345 479.386 255.065 476.643 244.78 473.901 233.807 476.347 225.667 483.196 217.523 490.049 213.232 500.44 214.174 511.04 215.115 521.64 221.168 531.113 230.389 536.424 235.35 539.278 240.975 540.778 246.698 540.773ZM237.335 502.72C239.282 499.347 242.883 497.275 246.775 497.285 248.683 497.28 250.556 497.78 252.212 498.741 256.016 500.939 258.128 505.215 257.551 509.574 256.978 513.938 253.832 517.52 249.586 518.66 245.339 519.795 240.825 518.261 238.146 514.772 235.472 511.288 235.161 506.525 237.359 502.721Z" fill="#0D856E" transform="matrix(1.00066 0 0 1 5808.84 1254.26)"/><path d="M744.392 26.1993C736.904 21.8361 728.006 20.579 719.607 22.7 711.205 24.8209 703.967 30.1501 699.449 37.5415L673.76 79.1702C670.867 84.2518 672.516 90.7119 677.491 93.7894 682.466 96.8666 688.984 95.4541 692.241 90.5958L717.96 48.9237C721.269 43.6966 728.114 42.0123 733.466 45.1088 738.819 48.2054 740.776 54.9712 737.902 60.4462L634.91 251.704 603.906 233.799 669.453 127.614 669.448 127.614C672.293 122.533 670.627 116.116 665.677 113.059 660.721 110.001 654.238 111.384 650.965 116.199L639.375 134.962 218.07 22.1144C215.283 21.3669 212.318 21.7601 209.819 23.2016 207.32 24.643 205.499 27.0164 204.752 29.8023L109.079 386.834 109.079 386.829C108.332 389.615 108.725 392.586 110.166 395.08 111.608 397.58 113.981 399.405 116.767 400.147L187.997 419.225 187.997 419.23C188.919 419.478 189.87 419.604 190.827 419.609 196.296 419.629 200.927 415.576 201.64 410.15 202.354 404.728 198.922 399.617 193.632 398.224L132.9 381.917 159.341 283.22C165.476 287.53 172.319 290.734 179.561 292.679L166.893 340.034C164.268 349.81 165.646 360.23 170.718 368.987 175.79 377.746 184.148 384.12 193.933 386.702 203.717 389.289 214.128 387.867 222.865 382.752 231.581 377.752 237.93 369.458 240.488 359.736L253.175 312.41 253.175 312.415C261.265 314.574 269.706 315.108 278.005 313.977 285.8 324.14 296.041 332.169 307.771 337.308L290.978 366.38 244.326 386.308C242.162 387.23 240.351 388.826 239.172 390.86L215.385 432.067C213.919 434.566 213.51 437.547 214.253 440.342 214.991 443.143 216.82 445.531 219.325 446.982 221.834 448.429 224.815 448.817 227.61 448.059 230.405 447.298 232.784 445.457 234.215 442.939L252.567 411.148 327.889 454.636 279.636 538.156C266.686 560.729 256.12 584.594 248.107 609.356L158.438 557.618C175.877 538.286 191.253 517.193 204.319 494.678L212.472 480.545C215.423 475.351 213.632 468.746 208.454 465.756 203.28 462.771 196.665 464.519 193.64 469.673L185.487 483.806C171.038 508.817 153.579 531.967 133.505 552.736 132.889 553.391 132.351 554.12 131.909 554.91L110.165 592.569C107.2 597.758 108.976 604.368 114.145 607.367L227.135 672.598C232.339 675.598 238.987 673.816 241.986 668.619L260.915 635.828 260.915 663.182C260.915 666.066 262.061 668.833 264.099 670.87 266.138 672.909 268.904 674.054 271.787 674.054L315.274 674.054C316.167 674.054 317.05 673.943 317.914 673.729 345.934 666.725 374.705 663.182 403.588 663.182L510.967 663.182C513.321 663.182 515.608 662.421 517.491 661.008L558.076 630.567 565.327 630.567C565.327 633.451 566.472 636.217 568.511 638.255 570.549 640.294 573.315 641.439 576.199 641.439L630.558 641.439C633.441 641.439 636.207 640.294 638.246 638.255 640.284 636.217 641.43 633.451 641.43 630.567L641.43 565.336C641.43 562.453 640.284 559.687 638.246 557.648 636.207 555.61 633.441 554.464 630.558 554.464L576.199 554.464C570.195 554.464 565.327 559.333 565.327 565.336L558.076 565.336 517.491 534.895C515.608 533.483 513.321 532.72 510.967 532.72L478.353 532.72C472.348 532.72 467.48 537.589 467.48 543.592 467.48 549.597 472.348 554.464 478.353 554.464L500.095 554.464 500.095 641.439 403.588 641.439C377.554 641.498 351.602 644.264 326.146 649.7L326.146 546.204C351.602 551.639 377.554 554.406 403.588 554.464L434.864 554.464C440.869 554.464 445.736 549.596 445.736 543.592 445.736 537.589 440.869 532.72 434.864 532.72L403.588 532.72C374.705 532.72 345.934 529.177 317.914 522.173 317.05 521.96 316.167 521.848 315.274 521.848L314.186 521.848 348.598 462.247 620.767 535.176C621.684 535.423 622.631 535.544 623.582 535.544 628.503 535.549 632.809 532.244 634.085 527.493L686.367 332.383C687.925 326.579 684.484 320.618 678.679 319.065 672.879 317.507 666.919 320.948 665.361 326.748L650.883 380.835C649.543 380.729 648.219 380.51 646.859 380.51 636.526 380.491 626.455 383.762 618.098 389.838 609.745 395.92 603.538 404.496 600.373 414.335 594.835 413.392 589.205 413.082 583.594 413.407L589.39 403.36C595.388 392.848 597.892 380.7 596.534 368.672L701.36 174.073 705.96 175.3 676.607 284.727 676.607 284.722C675.859 287.508 676.248 290.479 677.688 292.973 679.13 295.473 681.503 297.298 684.29 298.04 685.212 298.287 686.163 298.409 687.119 298.414 692.036 298.405 696.341 295.098 697.608 290.342L729.742 170.427 729.746 170.427C730.494 167.64 730.102 164.675 728.66 162.176 727.218 159.68 724.845 157.856 722.059 157.109L711.939 154.4 757.013 70.7503 757.013 70.7553C761.148 63.1498 762.144 54.2288 759.78 45.9003 757.421 37.5717 751.893 30.4995 744.379 26.2005ZM619.695 576.203 619.695 619.691 587.08 619.691 587.08 576.203ZM554.464 587.076 565.336 587.076 565.336 608.818 554.464 608.818C552.11 608.818 549.825 609.581 547.941 610.994L521.849 630.563 521.849 565.331 547.941 584.9C549.825 586.313 552.11 587.076 554.464 587.076ZM624.554 270.859 614.26 290.006 581.037 270.83 592.463 252.347ZM522.282 324.569C520.845 325.176 519.51 325.927 518.126 326.646 517.976 325.811 517.942 324.972 517.714 324.137L517.719 324.132C515.495 315.765 510.012 308.635 502.499 304.334L493.073 298.899C486.317 295.015 478.911 292.38 471.217 291.128 472.358 276.111 468.285 261.168 459.7 248.801 451.109 236.434 438.525 227.406 424.055 223.233L440.213 162.972C446.304 167.16 453.07 170.276 460.214 172.179L451.701 203.708 451.706 203.708C448.794 214.86 450.401 226.708 456.176 236.682 461.952 246.656 471.426 253.95 482.546 256.979 493.69 259.969 505.561 258.406 515.555 252.64 525.542 246.874 532.833 237.376 535.818 226.232L548.301 179.605C552.437 178.945 556.49 177.828 560.382 176.276 563.605 180.464 567.42 184.163 571.709 187.259 574.049 188.987 576.981 189.705 579.854 189.259 582.728 188.807 585.304 187.22 586.998 184.861 588.697 182.498 589.376 179.552 588.887 176.688 588.401 173.82 586.779 171.267 584.397 169.601 579.97 166.388 576.403 162.137 574.015 157.22 572.627 154.391 570.084 152.309 567.04 151.498 563.997 150.692 560.755 151.246 558.149 153.012 552.708 156.623 546.321 158.546 539.789 158.536 534.867 158.536 530.557 161.846 529.286 166.602L514.827 220.627 514.827 220.622C513.318 226.17 509.672 230.892 504.692 233.755 499.714 236.624 493.797 237.399 488.245 235.919 482.677 234.405 477.926 230.755 475.028 225.766 472.13 220.772 471.315 214.841 472.761 209.249L484.396 166.199C485.25 163.045 484.639 159.671 482.731 157.016 480.824 154.361 477.82 152.707 474.557 152.512 471.622 152.338 468.705 151.872 465.86 151.119 456.779 148.731 448.751 143.397 443.03 135.952 440.505 132.676 436.341 131.118 432.283 131.928 428.231 132.744 424.984 135.788 423.916 139.782L392.965 255.359C391.436 261.183 385.477 264.663 379.657 263.134 373.837 261.605 370.358 255.645 371.882 249.825L402.867 134.258C403.615 131.473 403.226 128.502 401.78 126.002 400.339 123.503 397.961 121.683 395.174 120.94 389.53 119.387 384.41 116.349 380.341 112.141 376.275 107.933 373.411 102.711 372.046 97.0224 371.11 93.1396 368.125 90.0868 364.267 89.0627 360.408 88.0386 356.302 89.2131 353.565 92.1203 351.958 93.7949 350.167 95.2801 348.226 96.5516 346.032 98.0174 344.44 100.235 343.76 102.783L311.741 222.437C310.246 227.999 306.606 232.741 301.621 235.624 296.637 238.507 290.711 239.293 285.148 237.813 279.576 236.298 274.825 232.644 271.927 227.65 269.034 222.656 268.223 216.72 269.675 211.133L273.102 198.456 275.33 190.195C276.897 184.414 273.495 178.454 267.72 176.863 262.162 175.368 257.42 171.728 254.543 166.744 251.66 161.759 250.878 155.838 252.358 150.271L266.385 97.7602 266.381 97.7602C267.929 91.9602 264.487 86.005 258.688 84.4518 251.097 82.4667 244.49 77.783 240.099 71.2838 235.711 64.7801 233.837 56.9032 234.833 49.1176L627.312 154.284ZM512.866 386.408 512.871 386.408C509.439 377.609 509.992 367.755 514.385 359.393 518.773 351.036 526.572 344.988 535.764 342.819 544.956 340.649 554.636 342.571 562.303 348.085 568.899 353.176 573.388 360.519 574.917 368.712 576.44 376.905 574.897 385.369 570.577 392.495L549.771 428.538 549.766 428.538C546.3 434.551 541.005 439.303 534.652 442.098 528.299 444.894 521.222 445.588 514.447 444.083 520.95 425.311 520.392 404.804 512.87 386.409ZM416.032 457.813 352.52 440.798 347.477 398.939 361.969 373.828 371.385 379.264 371.38 379.264C386.373 387.927 404.195 390.272 420.916 385.787 437.635 381.297 451.891 370.347 460.53 355.346L469.955 360.782C475.964 364.242 482.924 365.674 489.811 364.859 488.029 374.721 489.014 384.878 492.659 394.212 493.703 396.964 494.572 399.775 495.265 402.629 493.222 402.55 491.214 402.259 489.233 402.259 472.634 402.225 456.477 407.642 443.255 417.678 430.029 427.715 420.469 441.815 416.032 457.813ZM363.426 349.56 335.158 333.253 335.158 333.258C338.042 328.263 342.788 324.619 348.36 323.124 353.932 321.634 359.863 322.415 364.856 325.298L393.123 341.605C398.118 344.489 404.053 345.27 409.625 343.78 415.193 342.286 419.944 338.64 422.827 333.646 428.593 323.663 438.091 316.377 449.23 313.393 460.364 310.408 472.231 311.97 482.219 317.731L491.645 323.167C496.804 326.191 498.551 332.806 495.561 337.98 492.577 343.159 485.972 344.95 480.773 341.999L471.347 336.563C466.359 333.675 460.422 332.894 454.851 334.384 449.284 335.874 444.533 339.518 441.65 344.508 435.879 354.497 426.381 361.786 415.242 364.772 404.103 367.756 392.23 366.194 382.242 360.423L363.424 349.552ZM363.741 196.261C361.828 195.552 359.926 194.771 358 194.261L358 194.266C352.922 192.883 347.715 192.048 342.463 191.777L360.945 122.847C365.871 129.229 372.166 134.432 379.364 138.067ZM216.107 71.4398C217.156 74.4054 218.451 77.2738 219.985 80.0159 225.29 89.3056 233.24 96.8046 242.817 101.556L231.285 144.597C228.265 155.731 229.829 167.612 235.633 177.582L235.784 177.81C223.068 167.992 207.114 163.332 191.112 164.764ZM292.114 296.257C289.628 292.288 284.886 290.351 280.339 291.453 273.267 293.277 265.851 293.277 258.778 291.453 255.861 290.647 253.028 289.588 250.3 288.288 247.383 286.928 244.019 286.928 241.108 288.283 238.196 289.642 236.03 292.219 235.196 295.321L219.422 354.195C218.34 358.33 215.642 361.858 211.933 363.979 206.221 367.337 199.042 366.906 193.777 362.882 188.506 358.863 186.195 352.053 187.928 345.662L203.693 286.847 203.693 286.843C204.538 283.692 203.922 280.324 202.013 277.679 200.107 275.029 197.112 273.374 193.851 273.174 190.914 273.01 187.997 272.543 185.153 271.777 177.659 269.797 170.855 265.778 165.51 260.162L184.827 188.073C192.292 185.826 200.237 185.724 207.755 187.777 218.744 190.688 228.13 197.843 233.848 207.662 235.803 210.991 239.37 213.034 243.235 213.034 244.734 213.01 246.219 212.666 247.583 212.035 246.442 222.358 249.029 232.745 254.868 241.33 260.712 249.916 269.429 256.138 279.446 258.87 290.585 261.855 302.456 260.297 312.449 254.536 322.438 248.77 329.728 239.272 332.716 228.133L336.555 213.816C341.865 213.496 347.194 213.991 352.364 215.272 354.315 215.816 356.222 216.49 358.082 217.296L350.84 244.301C348.681 252.668 349.903 261.549 354.248 269.02 358.591 276.489 365.702 281.95 374.04 284.212 376.729 284.93 379.501 285.295 382.282 285.299 389.479 285.285 396.473 282.912 402.19 278.538 407.907 274.165 412.028 268.04 413.931 261.1L418.42 244.355C428.277 247.267 436.791 253.567 442.456 262.148 448.115 270.724 450.565 281.027 449.371 291.234 430.293 294.5 413.654 306.085 403.971 322.85L375.705 306.542C366.483 301.168 355.596 299.411 345.152 301.606 334.713 303.794 325.452 309.788 319.171 318.412 307.955 314.214 298.441 306.425 292.114 296.256ZM302.844 384.898 302.84 384.898C305.009 383.975 306.82 382.373 307.995 380.33L324.302 352.063 343.133 362.935 326.825 391.202C325.651 393.241 325.17 395.604 325.456 397.944L329.35 430.322 272.815 397.706ZM228.59 648.331 134.443 593.972 145.315 575.141 239.462 629.5ZM282.44 580.689C287.298 569.904 292.56 559.294 298.476 549.038L301.617 543.603 304.407 543.603 304.407 652.312 282.663 652.312 282.663 582.081C282.619 581.611 282.547 581.145 282.436 580.689ZM605.341 438.075 605.336 438.075C608.583 439.206 612.174 438.74 615.019 436.813 617.867 434.886 619.634 431.721 619.785 428.291 620.062 421.612 622.799 415.272 627.477 410.503 632.156 405.727 638.437 402.858 645.106 402.446L615.928 511.358 437.058 463.448C440.546 450.8 448.541 439.874 459.539 432.725 470.537 425.576 483.772 422.703 496.746 424.645 496.003 431.59 493.848 438.312 490.406 444.389 488.936 446.888 488.524 449.868 489.266 452.674 490.004 455.474 491.829 457.868 494.343 459.319 506.826 466.521 521.663 468.477 535.592 464.74 549.517 461.007 561.39 451.897 568.595 439.409L569.348 438.127 569.343 438.127C580.982 433.968 593.702 433.948 605.35 438.074ZM574.9 330.365 574.895 330.365C567.532 325.216 559.009 321.973 550.083 320.929L569.575 289.402 603.909 309.224 586.277 341.946 586.277 341.941C583.133 337.505 579.292 333.597 574.915 330.365Z" fill="#0D856E" transform="matrix(1.00066 0 0 1 5808.84 1254.26)"/><path d="M36.4201-2.17438C34.5418-1.20367 32.581-0.470782 30.5376 0.019383 28.504 0.524148 26.3879 0.776536 24.1892 0.776536 17.5884 0.776536 12.3515-1.06783 8.48278-4.75643 4.62421-8.44515 2.69746-13.4539 2.69746-19.7832 2.69746-26.1125 4.62433-31.121 8.48278-34.8099 12.351-38.4987 17.5879-40.3429 24.1892-40.3429 26.3878-40.3429 28.504-40.0954 30.5376-39.6051 32.5809-39.1102 34.5418-38.3724 36.4201-37.3921L36.4201-29.1993C34.5176-30.4903 32.644-31.4368 30.8095-32.0336 28.9699-32.6404 27.0333-32.9461 25.0047-32.9461 21.3548-32.9461 18.4864-31.7716 16.4042-29.4323 14.3171-27.1026 13.2786-23.8847 13.2786-19.7835 13.2786-15.6919 14.3172-12.4742 16.4042-10.1347 18.4864-7.80506 21.3548-6.64022 25.0047-6.64022 27.0333-6.64022 28.9699-6.93628 30.8095-7.53326 32.6441-8.13994 34.5176-9.09123 36.4201-10.3872Z" fill="#0D856E" transform="matrix(1.00066 0 0 1 5895.87 2113.13)"/><path d="M26.6553-21.6269C25.8108-22.0152 24.9759-22.2967 24.1509-22.4811 23.3355-22.6753 22.5105-22.7724 21.6853-22.7724 19.2391-22.7724 17.3559-21.986 16.0358-20.4233 14.7253-18.8557 14.0751-16.6084 14.0751-13.6866L14.0751 0.000770349 4.56221 0.000770349 4.56221-29.7223 14.0751-29.7223 14.0751-24.8493C15.2884-26.7907 16.6862-28.2079 18.2685-29.101 19.8603-29.9941 21.763-30.4406 23.9762-30.4406 24.2869-30.4406 24.6265-30.4259 25.0051-30.4018 25.3789-30.3726 25.9176-30.3144 26.6166-30.227Z" fill="#0D856E" transform="matrix(1.00066 0 0 1 5935.79 2113.13)"/><path d="M34.2457-14.9485 34.2457-12.2306 12.0162-12.2306C12.2492-10.0027 13.05-8.33318 14.4236-7.22177 15.8068-6.10545 17.7433-5.5521 20.2284-5.5521 22.2183-5.5521 24.2664-5.84331 26.3631-6.42573 28.4599-7.01785 30.6149-7.92057 32.828-9.1243L32.828-1.80526C30.5857-0.951033 28.3434-0.310401 26.0914 0.11677 23.8393 0.553582 21.5921 0.776847 19.3546 0.776847 13.9673 0.776847 9.78355-0.587043 6.79422-3.31955 3.81422-6.06173 2.32893-9.90094 2.32893-14.832 2.32893-19.6855 3.78986-23.4956 6.71645-26.2668 9.65284-29.048 13.6861-30.4409 18.8114-30.4409 23.4805-30.4409 27.2224-29.0285 30.0326-26.2087 32.8379-23.3986 34.2455-19.6468 34.2455-14.9486ZM24.4804-18.0935C24.4804-19.9038 23.9466-21.3598 22.8885-22.4617 21.8402-23.573 20.4667-24.1313 18.7728-24.1313 16.9187-24.1313 15.4191-23.612 14.2687-22.5782 13.1282-21.5395 12.4147-20.0446 12.1332-18.0935Z" fill="#0D856E" transform="matrix(1.00066 0 0 1 5962.62 2113.13)"/><path d="M17.8808-13.3767C15.9005-13.3767 14.4105-13.0369 13.4155-12.3672 12.4157-11.6926 11.9206-10.7025 11.9206-9.39688 11.9206-8.19321 12.3186-7.24675 13.1243-6.5625 13.9251-5.88785 15.0464-5.55297 16.4829-5.55297 18.269-5.55297 19.7687-6.19363 20.9869-7.47499 22.2149-8.75626 22.8313-10.358 22.8313-12.2896L22.8313-13.3769ZM32.4031-16.9682 32.4031-0.000745498 22.8321-0.000745498 22.8321-4.40776C21.5508-2.60713 20.1141-1.29183 18.522-0.466682 16.9301 0.35846 14.9936 0.775816 12.7172 0.775816 9.63519 0.775816 7.13081-0.122088 5.20396-1.92276 3.28678-3.71854 2.33067-6.04823 2.33067-8.91181 2.33067-12.4064 3.52464-14.9593 5.92225-16.5803 8.32958-18.2112 12.0959-19.0266 17.2213-19.0266L22.8319-19.0266 22.8319-19.7837C22.8319-21.2835 22.2349-22.3853 21.0458-23.0841 19.8664-23.7829 18.0173-24.1324 15.4934-24.1324 13.4597-24.1324 11.5718-23.9237 9.82443-23.5112 8.07723-23.1083 6.44632-22.5017 4.9321-21.6862L4.9321-28.9276C6.97539-29.4324 9.0188-29.8061 11.0669-30.0536 13.1248-30.3109 15.173-30.4419 17.2212-30.4419 22.5892-30.4419 26.4622-29.379 28.8308-27.258 31.2091-25.1468 32.403-21.7154 32.403-16.9686Z" fill="#0D856E" transform="matrix(1.00066 0 0 1 5999.51 2113.13)"/><path d="M14.9485-38.1683 14.9485-29.7231 24.7331-29.7231 24.7331-22.9281 14.9485-22.9281 14.9485-10.328C14.9485-8.9399 15.2203-8.00318 15.7638-7.51301 16.3075-7.03251 17.3947-6.79469 19.0254-6.79469L23.9178-6.79469 23.9178 0.000273349 15.7638 0.000273349C12.0073 0.000273349 9.3475-0.781146 7.78468-2.3488 6.21703-3.91161 5.43562-6.5713 5.43562-10.328L5.43562-22.9281 0.717978-22.9281 0.717978-29.7231 5.43562-29.7231 5.43562-38.1682Z" fill="#0D856E" transform="matrix(1.00066 0 0 1 6036.22 2113.13)"/><path d="M34.2457-14.9485 34.2457-12.2306 12.0162-12.2306C12.2492-10.0027 13.05-8.33318 14.4236-7.22177 15.8068-6.10545 17.7433-5.5521 20.2284-5.5521 22.2183-5.5521 24.2664-5.84331 26.3631-6.42573 28.4599-7.01785 30.6149-7.92057 32.828-9.1243L32.828-1.80526C30.5857-0.951033 28.3434-0.310401 26.0914 0.11677 23.8393 0.553582 21.5921 0.776847 19.3546 0.776847 13.9673 0.776847 9.78355-0.587043 6.79422-3.31955 3.81422-6.06173 2.32893-9.90094 2.32893-14.832 2.32893-19.6855 3.78986-23.4956 6.71645-26.2668 9.65284-29.048 13.6861-30.4409 18.8114-30.4409 23.4805-30.4409 27.2224-29.0285 30.0326-26.2087 32.8379-23.3986 34.2455-19.6468 34.2455-14.9486ZM24.4804-18.0935C24.4804-19.9038 23.9466-21.3598 22.8885-22.4617 21.8402-23.573 20.4667-24.1313 18.7728-24.1313 16.9187-24.1313 15.4191-23.612 14.2687-22.5782 13.1282-21.5395 12.4147-20.0446 12.1332-18.0935Z" fill="#0D856E" transform="matrix(1.00066 0 0 1 6062.22 2113.13)"/><path d="M24.7916-25.3743 24.7916-41.2932 34.3432-41.2932 34.3432 0 24.7916 0 24.7916-4.29047C23.4811-2.54327 22.0397-1.26188 20.4622-0.446429 18.8799 0.36896 17.055 0.776661 14.9875 0.776661 11.3231 0.776661 8.31392-0.679422 5.96001-3.59147 3.61579-6.50364 2.44611-10.2505 2.44611-14.8323 2.44611-19.4139 3.6158-23.1607 5.96001-26.073 8.31392-28.9852 11.3231-30.441 14.9875-30.441 17.0453-30.441 18.8606-30.0237 20.4428-29.1986 22.0347-28.3832 23.4811-27.1067 24.7916-25.3741ZM18.5208-6.13546C20.5641-6.13546 22.1172-6.87804 23.1802-8.36809 24.2528-9.85325 24.7916-12.0082 24.7916-14.833 24.7916-17.6673 24.2528-19.8271 23.1802-21.3173 22.1173-22.8024 20.5641-23.55 18.5208-23.55 16.5017-23.55 14.9535-22.8024 13.8808-21.3173 12.8178-19.8272 12.2889-17.6674 12.2889-14.833 12.2889-12.0082 12.818-9.85325 13.8808-8.36809 14.9535-6.8781 16.5017-6.13546 18.5208-6.13546Z" fill="#0D856E" transform="matrix(1.00066 0 0 1 6099.11 2113.13)"/><path d="M20.3844-6.13483C22.4132-6.13483 23.9663-6.87742 25.0438-8.36747 26.1164-9.85263 26.6552-12.0076 26.6552-14.8323 26.6552-17.6667 26.1164-19.8265 25.0438-21.3167 23.9663-22.8018 22.4132-23.5494 20.3844-23.5494 18.3508-23.5494 16.7929-22.797 15.7057-21.2973 14.6185-19.8073 14.0748-17.6523 14.0748-14.8324 14.0748-12.0223 14.6185-9.86729 15.7057-8.3676 16.7929-6.87759 18.3508-6.13495 20.3844-6.13495ZM14.0748-25.3737C15.3805-27.1063 16.8317-28.3829 18.4237-29.1982 20.0155-30.0233 21.8454-30.4407 23.9178-30.4407 27.5774-30.4407 30.5865-28.9847 32.9454-26.0725 35.2992-23.1604 36.4787-19.4136 36.4787-14.8318 36.4787-10.2501 35.2993-6.50324 32.9454-3.59107 30.5865-0.6789 27.5774 0.777058 23.9178 0.777058 21.8454 0.777058 20.0156 0.359653 18.4237-0.465439 16.8316-1.29053 15.3805-2.567 14.0748-4.28997L14.0748 0.000497 4.56207 0.000497 4.56207-41.2927 14.0748-41.2927Z" fill="#0D856E" transform="matrix(1.00066 0 0 1 6156.98 2113.13)"/><path d="M0.660077-29.723 10.1729-29.723 18.1521-9.55232 24.947-29.723 34.4599-29.723 21.9579 2.8155C20.7008 6.12563 19.2301 8.43581 17.5508 9.74627 15.8812 11.0664 13.6729 11.7266 10.9307 11.7266L5.43649 11.7266 5.43649 5.4947 8.4068 5.4947C10.023 5.4947 11.1927 5.23261 11.9207 4.71814 12.6585 4.21337 13.2311 3.29125 13.6485 1.96128L13.9009 1.14589Z" fill="#0D856E" transform="matrix(1.00066 0 0 1 6195.92 2113.13)"/><path d="M0.271797-39.6245 36.79-39.6245 36.79-31.8977 23.6469-31.8977 23.6469-0.0002485 13.4351-0.0002485 13.4351-31.8977 0.272044-31.8977Z" fill="#0D856E" transform="matrix(1.00066 0 0 1 6250.31 2113.13)"/><path d="M4.56233-29.723 14.0752-29.723 14.0752 0 4.56233 0ZM4.56233-41.2938 14.0752-41.2938 14.0752-33.5475 4.56233-33.5475Z" fill="#0D856E" transform="matrix(1.00066 0 0 1 6287.42 2113.13)"/><path d="M14.0751-4.29047 14.0751 11.2991 4.56221 11.2991 4.56221-29.7231 14.0751-29.7231 14.0751-25.3744C15.3806-27.107 16.8318-28.3836 18.4238-29.1989 20.0156-30.024 21.8455-30.4414 23.9179-30.4414 27.5775-30.4414 30.5867-28.9854 32.9455-26.0734 35.2993-23.1611 36.4789-19.4143 36.4789-14.8326 36.4789-10.2509 35.2995-6.50397 32.9455-3.59182 30.5867-0.679646 27.5775 0.776313 23.9179 0.776313 21.8455 0.776313 20.0157 0.358907 18.4238-0.466185 16.8317-1.29128 15.3806-2.56775 14.0751-4.29071ZM20.3845-23.5491C18.3509-23.5491 16.793-22.7969 15.7058-21.2971 14.6186-19.8072 14.0751-17.6522 14.0751-14.8323 14.0751-12.0222 14.6186-9.86717 15.7058-8.36747 16.793-6.87747 18.3509-6.13483 20.3845-6.13483 22.4133-6.13483 23.9664-6.87742 25.0439-8.36747 26.1165-9.85263 26.6553-12.0076 26.6553-14.8323 26.6553-17.6667 26.1165-19.8265 25.0439-21.3167 23.9664-22.8018 22.4133-23.5494 20.3845-23.5494Z" fill="#0D856E" transform="matrix(1.00066 0 0 1 6306.06 2113.13)"/><path d="M14.0751-4.29047 14.0751 11.2991 4.56221 11.2991 4.56221-29.7231 14.0751-29.7231 14.0751-25.3744C15.3806-27.107 16.8318-28.3836 18.4238-29.1989 20.0156-30.024 21.8455-30.4414 23.9179-30.4414 27.5775-30.4414 30.5867-28.9854 32.9455-26.0734 35.2993-23.1611 36.4789-19.4143 36.4789-14.8326 36.4789-10.2509 35.2995-6.50397 32.9455-3.59182 30.5867-0.679646 27.5775 0.776313 23.9179 0.776313 21.8455 0.776313 20.0157 0.358907 18.4238-0.466185 16.8317-1.29128 15.3806-2.56775 14.0751-4.29071ZM20.3845-23.5491C18.3509-23.5491 16.793-22.7969 15.7058-21.2971 14.6186-19.8072 14.0751-17.6522 14.0751-14.8323 14.0751-12.0222 14.6186-9.86717 15.7058-8.36747 16.793-6.87747 18.3509-6.13483 20.3845-6.13483 22.4133-6.13483 23.9664-6.87742 25.0439-8.36747 26.1165-9.85263 26.6553-12.0076 26.6553-14.8323 26.6553-17.6667 26.1165-19.8265 25.0439-21.3167 23.9664-22.8018 22.4133-23.5494 20.3845-23.5494Z" fill="#0D856E" transform="matrix(1.00066 0 0 1 6345.01 2113.13)"/><path d="M17.8808-13.3767C15.9005-13.3767 14.4105-13.0369 13.4155-12.3672 12.4157-11.6926 11.9206-10.7025 11.9206-9.39688 11.9206-8.19321 12.3186-7.24675 13.1243-6.5625 13.9251-5.88785 15.0464-5.55297 16.4829-5.55297 18.269-5.55297 19.7687-6.19363 20.9869-7.47499 22.2149-8.75626 22.8313-10.358 22.8313-12.2896L22.8313-13.3769ZM32.4031-16.9682 32.4031-0.000745498 22.8321-0.000745498 22.8321-4.40776C21.5508-2.60713 20.1141-1.29183 18.522-0.466682 16.9301 0.35846 14.9936 0.775816 12.7172 0.775816 9.63519 0.775816 7.13081-0.122088 5.20396-1.92276 3.28678-3.71854 2.33067-6.04823 2.33067-8.91181 2.33067-12.4064 3.52464-14.9593 5.92225-16.5803 8.32958-18.2112 12.0959-19.0266 17.2213-19.0266L22.8319-19.0266 22.8319-19.7837C22.8319-21.2835 22.2349-22.3853 21.0458-23.0841 19.8664-23.7829 18.0173-24.1324 15.4934-24.1324 13.4597-24.1324 11.5718-23.9237 9.82443-23.5112 8.07723-23.1083 6.44632-22.5017 4.9321-21.6862L4.9321-28.9276C6.97539-29.4324 9.0188-29.8061 11.0669-30.0536 13.1248-30.3109 15.173-30.4419 17.2212-30.4419 22.5892-30.4419 26.4622-29.379 28.8308-27.258 31.2091-25.1468 32.403-21.7154 32.403-16.9686Z" fill="#0D856E" transform="matrix(1.00066 0 0 1 6383.94 2113.13)"/><path d="M1.90251-29.723 11.1436-29.723 16.133-9.2417 21.1612-29.723 29.0822-29.723 34.0715-9.45541 39.0998-29.723 48.3409-29.723 40.4976 0 30.1305 0 25.1022-20.4428 20.1128 0 9.74565 0Z" fill="#0D856E" transform="matrix(1.00066 0 0 1 6420.65 2113.13)"/><path d="M17.8808-13.3767C15.9005-13.3767 14.4105-13.0369 13.4155-12.3672 12.4157-11.6926 11.9206-10.7025 11.9206-9.39688 11.9206-8.19321 12.3186-7.24675 13.1243-6.5625 13.9251-5.88785 15.0464-5.55297 16.4829-5.55297 18.269-5.55297 19.7687-6.19363 20.9869-7.47499 22.2149-8.75626 22.8313-10.358 22.8313-12.2896L22.8313-13.3769ZM32.4031-16.9682 32.4031-0.000745498 22.8321-0.000745498 22.8321-4.40776C21.5508-2.60713 20.1141-1.29183 18.522-0.466682 16.9301 0.35846 14.9936 0.775816 12.7172 0.775816 9.63519 0.775816 7.13081-0.122088 5.20396-1.92276 3.28678-3.71854 2.33067-6.04823 2.33067-8.91181 2.33067-12.4064 3.52464-14.9593 5.92225-16.5803 8.32958-18.2112 12.0959-19.0266 17.2213-19.0266L22.8319-19.0266 22.8319-19.7837C22.8319-21.2835 22.2349-22.3853 21.0458-23.0841 19.8664-23.7829 18.0173-24.1324 15.4934-24.1324 13.4597-24.1324 11.5718-23.9237 9.82443-23.5112 8.07723-23.1083 6.44632-22.5017 4.9321-21.6862L4.9321-28.9276C6.97539-29.4324 9.0188-29.8061 11.0669-30.0536 13.1248-30.3109 15.173-30.4419 17.2212-30.4419 22.5892-30.4419 26.4622-29.379 28.8308-27.258 31.2091-25.1468 32.403-21.7154 32.403-16.9686Z" fill="#0D856E" transform="matrix(1.00066 0 0 1 6470.89 2113.13)"/><path d="M34.4594-18.0933 34.4594 0 24.8883 0 24.8883-13.8613C24.8883-16.424 24.8302-18.1907 24.7137-19.1613 24.6068-20.132 24.4127-20.8504 24.1312-21.3163 23.7526-21.9376 23.2479-22.4132 22.6168-22.7529 21.9811-23.1024 21.2579-23.277 20.4424-23.277 18.4622-23.277 16.8994-22.5101 15.7637-20.9861 14.6377-19.4572 14.0747-17.3363 14.0747-14.6184L14.0747 0.000894598 4.56187 0.000894598 4.56187-29.7222 14.0747-29.7222 14.0747-25.3733C15.4968-27.1061 17.011-28.3826 18.6175-29.198 20.2337-30.0231 22.0199-30.4404 23.9758-30.4404 27.4024-30.4404 30.0038-29.3824 31.7801-27.2759 33.5662-25.1791 34.4592-22.1167 34.4592-18.0932Z" fill="#0D856E" transform="matrix(1.00066 0 0 1 6507.6 2113.13)"/><path d="M32.577-38.382 32.577-29.9951C30.3881-30.9659 28.2573-31.6939 26.1899-32.1889 24.1173-32.6936 22.1614-32.9461 20.3268-32.9461 17.8904-32.9461 16.0848-32.6063 14.9102-31.9365 13.7454-31.2619 13.163-30.2135 13.163-28.7914 13.163-27.7285 13.5562-26.8987 14.3473-26.3065 15.1335-25.7241 16.5654-25.2193 18.6378-24.7921L22.9865-23.9185C27.3838-23.0255 30.5191-21.6762 32.3828-19.8804 34.2466-18.0797 35.1785-15.5172 35.1785-12.1925 35.1785-7.81464 33.8778-4.56277 31.2763-2.42718 28.6846-0.291565 24.7241 0.776113 19.395 0.776113 16.8809 0.776113 14.357 0.533442 11.8234 0.057801 9.29962-0.417839 6.77573-1.13131 4.25185-2.0778L4.25185-10.6976C6.77561-9.3484 9.21215-8.33403 11.5709-7.64966 13.9394-6.97502 16.2206-6.64013 18.424-6.64013 20.647-6.64013 22.3506-7.00901 23.5299-7.74673 24.7191-8.49416 25.3161-9.55704 25.3161-10.9306 25.3161-12.1732 24.9132-13.1292 24.1124-13.8039 23.3067-14.4737 21.705-15.0755 19.2977-15.6094L15.3373-16.4829C11.3768-17.3372 8.47442-18.6865 6.63975-20.5405 4.81476-22.4043 3.9024-24.9086 3.9024-28.0537 3.9024-31.9997 5.17397-35.0331 7.72693-37.159 10.275-39.2798 13.9394-40.3428 18.7154-40.3428 20.8897-40.3428 23.1271-40.1778 25.4326-39.8575 27.7331-39.5323 30.1161-39.042 32.5769-38.382Z" fill="#0D856E" transform="matrix(1.00066 0 0 1 6565.26 2113.13)"/><path d="M18.7145-23.6459C16.6033-23.6459 14.9919-22.8888 13.8804-21.3746 12.7787-19.8602 12.2303-17.6761 12.2303-14.832 12.2303-11.983 12.7787-9.8038 13.8804-8.28957 14.9919-6.77521 16.6033-6.01816 18.7145-6.01816 20.7821-6.01816 22.3643-6.77531 23.4515-8.28957 24.5484-9.80392 25.1017-11.9831 25.1017-14.832 25.1017-17.6763 24.5484-19.8603 23.4515-21.3746 22.3643-22.889 20.7821-23.6459 18.7145-23.6459ZM18.7145-30.4409C23.8252-30.4409 27.8196-29.0625 30.6929-26.3057 33.5662-23.549 35.0029-19.7244 35.0029-14.832 35.0029-9.94943 33.5664-6.1249 30.6929-3.35835 27.8196-0.601493 23.8252 0.776809 18.7145 0.776809 13.5747 0.776809 9.55592-0.601618 6.65842-3.35835 3.77061-6.1249 2.32906-9.94943 2.32906-14.832 2.32906-19.7244 3.77061-23.5489 6.65842-26.3057 9.55592-29.0626 13.5747-30.4409 18.7145-30.4409Z" fill="#0D856E" transform="matrix(1.00066 0 0 1 6604.44 2113.13)"/><path d="M18.7145-23.6459C16.6033-23.6459 14.9919-22.8888 13.8804-21.3746 12.7787-19.8602 12.2303-17.6761 12.2303-14.832 12.2303-11.983 12.7787-9.8038 13.8804-8.28957 14.9919-6.77521 16.6033-6.01816 18.7145-6.01816 20.7821-6.01816 22.3643-6.77531 23.4515-8.28957 24.5484-9.80392 25.1017-11.9831 25.1017-14.832 25.1017-17.6763 24.5484-19.8603 23.4515-21.3746 22.3643-22.889 20.7821-23.6459 18.7145-23.6459ZM18.7145-30.4409C23.8252-30.4409 27.8196-29.0625 30.6929-26.3057 33.5662-23.549 35.0029-19.7244 35.0029-14.832 35.0029-9.94943 33.5664-6.1249 30.6929-3.35835 27.8196-0.601493 23.8252 0.776809 18.7145 0.776809 13.5747 0.776809 9.55592-0.601618 6.65842-3.35835 3.77061-6.1249 2.32906-9.94943 2.32906-14.832 2.32906-19.7244 3.77061-23.5489 6.65842-26.3057 9.55592-29.0626 13.5747-30.4409 18.7145-30.4409Z" fill="#0D856E" transform="matrix(1.00066 0 0 1 6641.81 2113.13)"/></g></g></g></g><text fill="#0D856E" font-family="Montserrat Alternates,Montserrat Alternates_MSFontService,sans-serif" font-weight="700" font-size="92" transform="matrix(1 0 0 1 6171.07 2270)">Art</text><g clip-path="url(#clip9)"><g clip-path="url(#clip10)"><g clip-path="url(#clip11)"><g clip-path="url(#clip12)"><path d="M178.033 165.316C181.405 165.316 184.641 163.976 187.025 161.591 189.41 159.208 190.75 155.971 190.75 152.6L190.75 89.0163C190.75 78.8998 194.768 69.1915 201.922 62.0396 209.075 54.8879 218.783 50.8672 228.898 50.8672L788.43 50.8672C798.546 50.8672 808.254 54.8865 815.406 62.0396 822.558 69.1928 826.578 78.9011 826.578 89.0163L826.578 228.899C826.578 235.921 832.273 241.616 839.295 241.616 846.317 241.616 852.012 235.921 852.012 228.899L852.012 89.0163C851.99 72.1607 845.284 55.9981 833.368 44.0765 821.446 32.1603 805.284 25.4565 788.428 25.4332L228.898 25.4332C212.042 25.456 195.879 32.1605 183.958 44.0765 172.042 55.9983 165.338 72.1607 165.314 89.0163L165.314 152.6C165.314 155.971 166.654 159.208 169.039 161.591 171.423 163.976 174.659 165.316 178.031 165.316Z" fill="#0D856E" transform="matrix(1.01031 0 0 1 4046.38 1195.36)"/><path d="M241.616 508.664 386.359 508.664 360.925 559.531 317.916 559.531C307.799 559.531 298.09 563.551 290.938 570.704 283.787 577.856 279.766 587.565 279.766 597.68L279.766 623.113C279.766 626.485 281.106 629.721 283.491 632.105 285.875 634.49 289.11 635.83 292.483 635.83L394.216 635.83C401.239 635.83 406.932 630.136 406.932 623.113 406.932 616.091 401.239 610.397 394.216 610.397L305.2 610.397 305.2 597.68C305.2 590.658 310.894 584.963 317.916 584.963L699.415 584.963C702.786 584.963 706.023 586.303 708.408 588.688 710.791 591.072 712.131 594.308 712.131 597.68L712.131 610.397 445.082 610.397C438.059 610.397 432.366 616.091 432.366 623.113 432.366 630.136 438.059 635.83 445.082 635.83L724.848 635.83C728.22 635.83 731.456 634.49 733.84 632.105 736.225 629.721 737.565 626.485 737.565 623.113L737.565 597.68C737.565 587.564 733.545 577.855 726.391 570.704 719.239 563.552 709.53 559.531 699.415 559.531L656.406 559.531 630.972 508.664 788.426 508.664C805.281 508.641 821.444 501.937 833.366 490.022 845.281 478.099 851.985 461.937 852.009 445.082L852.009 279.766C852.009 272.742 846.314 267.049 839.292 267.049 832.27 267.049 826.575 272.742 826.575 279.766L826.575 445.082C826.575 455.198 822.557 464.906 815.403 472.058 808.25 479.21 798.542 483.231 788.426 483.231L241.612 483.231C228.123 483.231 215.184 477.871 205.642 468.335 196.105 458.791 190.745 445.852 190.745 432.365L190.745 203.465C190.745 196.443 185.052 190.748 178.028 190.748 171.006 190.748 165.313 196.443 165.313 203.465L165.313 432.365C165.335 452.591 173.38 471.99 187.681 486.296 201.987 500.596 221.385 508.64 241.612 508.664ZM602.536 508.664 627.968 559.531 389.347 559.531 414.78 508.664Z" fill="#0D856E" transform="matrix(1.01031 0 0 1 4046.38 1195.36)"/><path d="M458.452 360.091C459.519 363.292 461.813 365.938 464.828 367.448 467.847 368.959 471.338 369.208 474.541 368.141L512.691 355.425C515.892 354.356 518.538 352.064 520.048 349.049 521.558 346.028 521.808 342.537 520.741 339.335L508.024 301.186C505.804 294.516 498.594 290.904 491.924 293.125 485.254 295.344 481.643 302.554 483.863 309.224L486.673 317.665 457.806 298.404 457.806 203.472C457.806 198.652 455.086 194.247 450.772 192.09L381.506 157.465 381.506 119.719 385.229 123.443 385.229 123.448C390.22 128.268 398.152 128.194 403.056 123.289 407.962 118.384 408.036 110.454 403.216 105.463L377.782 80.0296C372.815 75.0677 364.765 75.0677 359.797 80.0296L334.364 105.463C329.544 110.453 329.618 118.384 334.523 123.289 339.429 128.195 347.36 128.268 352.349 123.448L356.074 119.719 356.074 157.46 286.808 192.09C282.494 194.247 279.775 198.652 279.775 203.472L279.775 298.404 250.884 317.665 253.694 309.224C255.914 302.554 252.304 295.344 245.632 293.125 238.956 290.904 231.752 294.516 229.533 301.186L216.816 339.335C215.748 342.537 215.999 346.028 217.508 349.049 219.019 352.064 221.664 354.356 224.867 355.425L263.016 368.141C269.687 370.361 276.897 366.75 279.116 360.08 281.329 353.404 277.725 346.199 271.049 343.98L261.806 340.903 293.383 319.858 363.109 354.8C366.686 356.59 370.898 356.59 374.474 354.8L444.171 319.944 475.748 340.988 466.506 344.065C459.875 346.285 456.276 353.443 458.456 360.091ZM368.789 227.407 320.925 203.471 368.789 179.537 416.652 203.471ZM305.206 224.051 356.072 249.485 356.072 322.782 305.206 297.348ZM381.505 322.782 381.505 249.478 432.372 224.045 432.372 297.343Z" fill="#0D856E" transform="matrix(1.01031 0 0 1 4046.38 1195.36)"/><path d="M635.991 399.36C629.042 399.223 623.201 404.56 622.717 411.492 622.564 414.864 623.756 418.151 626.033 420.643 628.303 423.136 631.478 424.617 634.849 424.77 639.641 424.986 644.438 425.099 649.207 425.099L649.201 425.099C685.239 425.173 720.999 418.747 754.748 406.126 759.717 404.259 762.997 399.513 762.992 394.211L762.992 356.061C762.969 339.205 756.265 323.042 744.349 311.121 732.427 299.204 716.265 292.5 699.409 292.477L699.409 285.472C715.606 271.131 724.872 250.53 724.842 228.894L724.842 206.198C725.058 186.908 718.155 168.217 705.455 153.701 692.749 139.18 675.14 129.858 655.996 127.519 634.566 125.412 613.243 132.463 597.289 146.928 581.336 161.393 572.243 181.927 572.243 203.46L572.243 228.892C572.215 250.528 581.479 271.13 597.676 285.471L597.676 292.476C580.82 292.499 564.657 299.203 552.736 311.12 540.82 323.041 534.116 339.204 534.092 356.06L534.092 394.209C534.092 399.506 537.374 404.246 542.336 406.114 555.337 410.883 568.655 414.76 582.189 417.713 589.041 419.256 595.854 414.953 597.399 408.095 598.943 401.243 594.64 394.43 587.782 392.886 577.342 390.547 568.031 388.015 559.528 385.256L559.528 356.058C559.528 345.942 563.546 336.234 570.7 329.082 577.853 321.93 587.561 317.91 597.676 317.91L610.393 317.91C613.766 317.91 617.001 316.57 619.386 314.186 621.77 311.801 623.11 308.566 623.11 305.193L623.11 279.482C623.11 275.48 621.224 271.711 618.023 269.309 605.238 259.805 597.694 244.824 597.676 228.894L597.676 203.46C597.687 189.126 603.74 175.46 614.351 165.822 624.977 156.063 639.277 151.334 653.63 152.839 666.494 154.552 678.274 160.945 686.722 170.8 695.163 180.649 699.682 193.27 699.409 206.248L699.409 228.894C699.404 244.829 691.86 259.828 679.064 269.332 675.861 271.732 673.977 275.502 673.977 279.505L673.977 305.193C673.977 308.566 675.317 311.801 677.701 314.186 680.086 316.57 683.321 317.91 686.694 317.91L699.409 317.91C709.527 317.91 719.235 321.93 726.387 329.082 733.539 336.236 737.559 345.943 737.559 356.06L737.559 385.307C704.877 396.293 670.429 401.062 635.991 399.359Z" fill="#0D856E" transform="matrix(1.01031 0 0 1 4046.38 1195.36)"/><path d="M538.864 276.976C544.349 281.369 552.353 280.478 556.742 274.994 561.136 269.51 560.244 261.505 554.76 257.117 543.202 247.988 534.936 235.346 531.206 221.096 527.477 206.852 528.494 191.773 534.097 178.154 534.13 185.182 539.852 190.843 546.876 190.809 553.898 190.774 559.563 185.052 559.529 178.03L559.529 139.879C559.529 135.792 557.566 131.954 554.25 129.564 550.934 127.169 546.671 126.521 542.794 127.81L504.644 140.527C498.774 143.127 495.765 149.69 497.622 155.831 499.472 161.98 505.621 165.778 511.945 164.688 503.304 183.723 501.26 205.098 506.137 225.421 511.013 245.751 522.531 263.871 538.866 276.912Z" fill="#0D856E" transform="matrix(1.01031 0 0 1 4046.38 1195.36)"/><path d="M800.493 250.306C798.352 243.949 791.613 240.371 785.152 242.172 793.781 223.13 795.82 201.762 790.943 181.438 786.072 161.115 774.559 142.993 758.232 129.947 752.748 125.553 744.744 126.444 740.355 131.928 735.96 137.412 736.852 145.417 742.335 149.806 753.894 158.934 762.161 171.576 765.889 185.827 769.619 200.07 768.603 215.149 763 228.768 762.966 221.74 757.244 216.079 750.221 216.113 743.199 216.147 737.534 221.87 737.568 228.892L737.568 267.042C737.568 270.414 738.907 273.651 741.291 276.034 743.675 278.419 746.912 279.759 750.283 279.759 751.651 279.759 753.003 279.537 754.303 279.112L792.453 266.396C799.112 264.17 802.712 256.971 800.491 250.306Z" fill="#0D856E" transform="matrix(1.01031 0 0 1 4046.38 1195.36)"/><path d="M457.799 394.215C457.799 390.842 456.459 387.607 454.074 385.222 451.69 382.838 448.454 381.498 445.082 381.498L305.199 381.498C298.177 381.498 292.482 387.193 292.482 394.215 292.482 401.237 298.177 406.932 305.199 406.932L445.082 406.932C448.454 406.932 451.69 405.592 454.074 403.207 456.459 400.823 457.799 397.587 457.799 394.215Z" fill="#0D856E" transform="matrix(1.01031 0 0 1 4046.38 1195.36)"/><path d="M305.199 432.365C298.177 432.365 292.482 438.059 292.482 445.082 292.482 452.104 298.177 457.799 305.199 457.799L394.215 457.799C401.237 457.799 406.932 452.104 406.932 445.082 406.932 438.059 401.237 432.365 394.215 432.365Z" fill="#0D856E" transform="matrix(1.01031 0 0 1 4046.38 1195.36)"/><path d="M888.884 538.762C886.278 528.97 879.88 520.619 871.11 515.549 862.333 510.479 851.905 509.105 842.118 511.74 832.33 514.369 823.99 520.783 818.944 529.572L742.922 661.263 623.109 661.263C616.085 661.263 610.392 666.956 610.392 673.98L610.392 775.711C610.392 779.084 611.732 782.32 614.116 784.704 616.501 787.089 619.736 788.428 623.109 788.428L864.724 788.428C868.096 788.428 871.332 787.089 873.716 784.704 876.101 782.32 877.441 779.084 877.441 775.711L877.441 673.98C877.441 670.607 876.101 667.37 873.716 664.987 871.332 662.602 868.096 661.263 864.724 661.263L831.036 661.263 885.07 567.722C890.152 558.962 891.526 548.539 888.886 538.762ZM635.831 762.997 635.831 686.697 673.981 686.697 673.981 762.997ZM852.014 686.697 852.014 762.997 699.414 762.997 699.414 686.697 735.02 686.697 737.563 725.659C737.994 732.364 743.565 737.576 750.28 737.565 752.234 737.582 754.157 737.149 755.911 736.292L797.014 715.946C799.273 714.822 801.147 713.051 802.395 710.86L816.407 686.698ZM863.015 555.006 782.287 694.889 761.737 705.063 760.259 682.173 841 542.29C842.628 539.259 845.416 537.022 848.726 536.08 852.035 535.143 855.584 535.579 858.558 537.299 861.539 539.02 863.69 541.876 864.531 545.214 865.371 548.547 864.82 552.077 863.015 555.008Z" fill="#0D856E" transform="matrix(1.01031 0 0 1 4046.38 1195.36)"/><path d="M534.098 661.264 178.033 661.264C171.011 661.264 165.316 666.957 165.316 673.981L165.316 775.713C165.316 779.085 166.656 782.321 169.04 784.705 171.425 787.09 174.66 788.43 178.033 788.43L534.098 788.43C537.471 788.43 540.706 787.09 543.09 784.705 545.475 782.321 546.815 779.085 546.815 775.713L546.815 673.981C546.815 670.608 545.475 667.373 543.09 664.988 540.706 662.604 537.471 661.264 534.098 661.264ZM521.381 712.131 495.948 712.131 495.948 686.697 521.381 686.697ZM470.514 712.131 445.082 712.131 445.082 686.697 470.514 686.697ZM419.648 712.131 394.215 712.131 394.215 686.697 419.648 686.697ZM368.782 712.131 343.348 712.131 343.348 686.697 368.782 686.697ZM317.916 712.131 292.482 712.131 292.482 686.697 317.916 686.697ZM267.049 712.131 241.616 712.131 241.616 686.697 267.049 686.697ZM190.75 686.697 216.182 686.697 216.182 712.131 190.75 712.131ZM190.75 737.563 216.182 737.563 216.182 762.997 190.75 762.997ZM241.616 737.563 267.049 737.563 267.049 762.997 241.616 762.997ZM292.482 737.563 419.648 737.563 419.648 762.997 292.482 762.997ZM445.082 737.563 470.514 737.563 470.514 762.997 445.082 762.997ZM521.381 762.997 495.948 762.997 495.948 737.563 521.381 737.563Z" fill="#0D856E" transform="matrix(1.01031 0 0 1 4046.38 1195.36)"/><path d="M42.6-2.54332C40.4029-1.40791 38.1094-0.550665 35.7193 0.022672 33.3406 0.613086 30.8655 0.908301 28.2936 0.908301 20.5728 0.908301 14.4474-1.24902 9.92216-5.56352 5.40885-9.87815 3.15517-15.7368 3.15517-23.1401 3.15517-30.5433 5.409-36.4016 9.92216-40.7165 14.4468-45.0313 20.5723-47.1884 28.2936-47.1884 30.8653-47.1884 33.3406-46.8989 35.7193-46.3255 38.1092-45.7464 40.4029-44.8834 42.6-43.7368L42.6-34.1539C40.3746-35.6641 38.1832-36.7711 36.0372-37.4692 33.8856-38.1788 31.6205-38.5365 29.2475-38.5365 24.9783-38.5365 21.6232-37.1626 19.1878-34.4263 16.7466-31.7014 15.5317-27.9376 15.5317-23.1404 15.5317-18.3545 16.7466-14.5907 19.1878-11.8544 21.6232-9.12944 24.9783-7.76694 29.2475-7.76694 31.6205-7.76694 33.8856-8.11324 36.0372-8.81152 38.1833-9.52116 40.3746-10.6338 42.6-12.1497Z" fill="#0D856E" transform="matrix(1.01031 0 0 1 4149.16 2199.97)"/><path d="M31.1783-25.2967C30.1904-25.7508 29.214-26.08 28.2488-26.2958 27.2952-26.5228 26.33-26.6363 25.3649-26.6363 22.5036-26.6363 20.301-25.7167 18.7568-23.8887 17.224-22.0551 16.4633-19.4266 16.4633-16.009L16.4633 0.000901063 5.33633 0.000901063 5.33633-34.7657 16.4633-34.7657 16.4633-29.0658C17.8826-31.3366 19.5177-32.9943 21.3683-34.039 23.2303-35.0835 25.4558-35.6058 28.0446-35.6058 28.4079-35.6058 28.8053-35.5887 29.2482-35.5603 29.6852-35.5262 30.3153-35.4581 31.1329-35.3559Z" fill="#0D856E" transform="matrix(1.01031 0 0 1 4196.31 2199.97)"/><path d="M40.0566-17.485 40.0566-14.3058 14.0551-14.3058C14.3277-11.7 15.2644-9.74717 16.8709-8.44717 18.4889-7.14145 20.754-6.49419 23.6607-6.49419 25.9884-6.49419 28.3841-6.83482 30.8365-7.51606 33.289-8.20865 35.8096-9.26456 38.3984-10.6725L38.3984-2.11157C35.7756-1.11241 33.1527-0.36307 30.5186 0.136584 27.8844 0.647515 25.2559 0.908664 22.6388 0.908664 16.3374 0.908664 11.4436-0.686654 7.94709-3.88281 4.46142-7.09031 2.72412-11.5809 2.72412-17.3487 2.72412-23.0258 4.43294-27.4823 7.8561-30.7238 11.2908-33.9768 16.0084-35.6062 22.0034-35.6062 27.4646-35.6062 31.8417-33.9542 35.1286-30.6558 38.41-27.3688 40.0563-22.9805 40.0563-17.4851ZM28.6343-21.1637C28.6343-23.2812 28.0098-24.9843 26.7723-26.2729 25.5461-27.5731 23.9394-28.2259 21.9582-28.2259 19.7895-28.2259 18.0354-27.6184 16.6899-26.4093 15.3557-25.1943 14.5212-23.4459 14.1918-21.1637Z" fill="#0D856E" transform="matrix(1.01031 0 0 1 4227.99 2199.97)"/><path d="M20.9149-15.6466C18.5985-15.6466 16.8557-15.2491 15.6918-14.4656 14.5225-13.6766 13.9434-12.5185 13.9434-10.9914 13.9434-9.58346 14.4089-8.47639 15.3513-7.67604 16.288-6.88692 17.5994-6.49521 19.2798-6.49521 21.3689-6.49521 23.1232-7.24458 24.5481-8.74337 25.9843-10.242 26.7055-12.1155 26.7055-14.375L26.7055-15.6467ZM37.9013-19.8476 37.9013-0.000871996 26.7062-0.000871996 26.7062-5.15567C25.2075-3.04951 23.527-1.51102 21.6649-0.545869 19.8028 0.419284 17.5377 0.907457 14.8751 0.907457 11.2701 0.907457 8.34079-0.142803 6.08697-2.24902 3.84449-4.34951 2.72615-7.07451 2.72615-10.424 2.72615-14.5114 4.12271-17.4977 6.92714-19.3938 9.74296-21.3013 14.1484-22.2551 20.1434-22.2551L26.706-22.2551 26.706-23.1407C26.706-24.8949 26.0078-26.1838 24.6169-27.001 23.2374-27.8186 21.0745-28.2274 18.1223-28.2274 15.7436-28.2274 13.5353-27.9832 11.4915-27.5007 9.44779-27.0294 7.54015-26.3199 5.76898-25.3659L5.76898-33.8362C8.15898-34.4266 10.5491-34.8636 12.9448-35.1532 15.3517-35.454 17.7476-35.6074 20.1433-35.6074 26.4221-35.6074 30.9524-34.3641 33.7228-31.8832 36.5047-29.4137 37.9012-25.4001 37.9012-19.8479Z" fill="#0D856E" transform="matrix(1.01031 0 0 1 4271.56 2199.97)"/><path d="M17.485-44.6447 17.485-34.7666 28.93-34.7666 28.93-26.8187 17.485-26.8187 17.485-12.0805C17.485-10.4568 17.8028-9.36117 18.4388-8.78783 19.0745-8.22581 20.3462-7.94764 22.2537-7.94764L27.9762-7.94764 27.9762 0.000319732 18.4388 0.000319732C14.0447 0.000319732 10.9336-0.913692 9.1056-2.74734 7.27194-4.57533 6.35795-7.68633 6.35795-12.0805L6.35795-26.8187 0.839805-26.8187 0.839805-34.7666 6.35795-34.7666 6.35795-44.6447Z" fill="#0D856E" transform="matrix(1.01031 0 0 1 4314.91 2199.97)"/><path d="M40.0566-17.485 40.0566-14.3058 14.0551-14.3058C14.3277-11.7 15.2644-9.74717 16.8709-8.44717 18.4889-7.14145 20.754-6.49419 23.6607-6.49419 25.9884-6.49419 28.3841-6.83482 30.8365-7.51606 33.289-8.20865 35.8096-9.26456 38.3984-10.6725L38.3984-2.11157C35.7756-1.11241 33.1527-0.36307 30.5186 0.136584 27.8844 0.647515 25.2559 0.908664 22.6388 0.908664 16.3374 0.908664 11.4436-0.686654 7.94709-3.88281 4.46142-7.09031 2.72412-11.5809 2.72412-17.3487 2.72412-23.0258 4.43294-27.4823 7.8561-30.7238 11.2908-33.9768 16.0084-35.6062 22.0034-35.6062 27.4646-35.6062 31.8417-33.9542 35.1286-30.6558 38.41-27.3688 40.0563-22.9805 40.0563-17.4851ZM28.6343-21.1637C28.6343-23.2812 28.0098-24.9843 26.7723-26.2729 25.5461-27.5731 23.9394-28.2259 21.9582-28.2259 19.7895-28.2259 18.0354-27.6184 16.6899-26.4093 15.3557-25.1943 14.5212-23.4459 14.1918-21.1637Z" fill="#0D856E" transform="matrix(1.01031 0 0 1 4345.62 2199.97)"/><path d="M28.9983-29.6798 28.9983-48.2999 40.1706-48.2999 40.1706 0 28.9983 0 28.9983-5.01848C27.4653-2.97481 25.7794-1.47601 23.9342-0.522181 22.0835 0.431566 19.9489 0.908445 17.5306 0.908445 13.2445 0.908445 9.72464-0.794709 6.97132-4.20087 4.22933-7.60717 2.86117-11.9898 2.86117-17.349 2.86117-22.7082 4.22934-27.0908 6.97132-30.4971 9.72464-33.9034 13.2445-35.6064 17.5306-35.6064 19.9376-35.6064 22.0609-35.1182 23.9116-34.1531 25.7736-33.1994 27.4653-31.7062 28.9983-29.6796ZM21.6635-7.17653C24.0535-7.17653 25.8701-8.04512 27.1134-9.78801 28.368-11.5252 28.9983-14.0458 28.9983-17.3498 28.9983-20.6651 28.3681-23.1914 27.1134-24.9344 25.8701-26.6715 24.0535-27.5459 21.6635-27.5459 19.3018-27.5459 17.4907-26.6717 16.2361-24.9344 14.9929-23.1916 14.3742-20.6653 14.3742-17.3498 14.3742-14.0458 14.993-11.5252 16.2361-9.78801 17.4907-8.04518 19.3018-7.17653 21.6635-7.17653Z" fill="#0D856E" transform="matrix(1.01031 0 0 1 4389.18 2199.97)"/><path d="M23.8433-7.17581C26.2163-7.17581 28.033-8.0444 29.2933-9.78729 30.5479-11.5244 31.1781-14.0451 31.1781-17.3491 31.1781-20.6644 30.548-23.1907 29.2933-24.9337 28.033-26.6708 26.2163-27.5452 23.8433-27.5452 21.4646-27.5452 19.6423-26.6653 18.3706-24.9111 17.0989-23.1682 16.4632-20.6476 16.4632-17.3493 16.4632-14.0623 17.0989-11.5416 18.3706-9.78743 19.6423-8.0446 21.4646-7.17595 23.8433-7.17595ZM16.4632-29.6791C17.9903-31.7058 19.6879-33.199 21.5498-34.1526 23.4118-35.1178 25.5521-35.606 27.9763-35.606 32.2567-35.606 35.7766-33.9027 38.5355-30.4967 41.2888-27.0904 42.6685-22.7076 42.6685-17.3486 42.6685-11.9894 41.289-7.60672 38.5355-4.20041 35.7766-0.794098 32.2567 0.90891 27.9763 0.90891 25.5521 0.90891 23.4119 0.420679 21.5498-0.544416 19.6877-1.50952 17.9903-3.00257 16.4632-5.0179L16.4632 0.000581331 5.33619 0.000581331 5.33619-48.2992 16.4632-48.2992Z" fill="#0D856E" transform="matrix(1.01031 0 0 1 4457.53 2199.97)"/><path d="M0.77208-34.7665 11.899-34.7665 21.2322-11.1732 29.1802-34.7665 40.307-34.7665 25.6837 3.29324C24.2134 7.16505 22.4932 9.86722 20.5289 11.4 18.5759 12.9442 15.9929 13.7164 12.7854 13.7164L6.35896 13.7164 6.35896 6.42705 9.83328 6.42705C11.7238 6.42705 13.0919 6.12048 13.9434 5.51872 14.8064 4.9283 15.4763 3.84972 15.9645 2.29408L16.2596 1.34033Z" fill="#0D856E" transform="matrix(1.01031 0 0 1 4503.51 2199.97)"/><path d="M0.317916-46.3481 43.0326-46.3481 43.0326-37.3101 27.6594-37.3101 27.6594-0.000290665 15.7147-0.000290665 15.7147-37.3101 0.318205-37.3101Z" fill="#0D856E" transform="matrix(1.01031 0 0 1 4567.75 2199.97)"/><path d="M5.33647-34.7665 16.4634-34.7665 16.4634 0 5.33647 0ZM5.33647-48.3007 16.4634-48.3007 16.4634-39.24 5.33647-39.24Z" fill="#0D856E" transform="matrix(1.01031 0 0 1 4611.57 2199.97)"/><path d="M16.4633-5.01848 16.4633 13.2164 5.33633 13.2164 5.33633-34.7666 16.4633-34.7666 16.4633-29.68C17.9904-31.7066 19.688-33.1998 21.55-34.1535 23.4119-35.1186 25.5522-35.6068 27.9765-35.6068 32.2569-35.6068 35.7767-33.9037 38.5357-30.4975 41.289-27.0912 42.6687-22.7086 42.6687-17.3494 42.6687-11.9902 41.2891-7.60758 38.5357-4.20128 35.7767-0.79497 32.2569 0.90804 27.9765 0.90804 25.5522 0.90804 23.4121 0.419809 21.55-0.545288 19.6879-1.51038 17.9904-3.00345 16.4633-5.01878ZM23.8435-27.5451C21.4647-27.5451 19.6425-26.6652 18.3708-24.9109 17.0991-23.1681 16.4633-20.6475 16.4633-17.3491 16.4633-14.0621 17.0991-11.5415 18.3708-9.78729 19.6425-8.04446 21.4647-7.17581 23.8435-7.17581 26.2164-7.17581 28.0331-8.0444 29.2934-9.78729 30.548-11.5244 31.1783-14.0451 31.1783-17.3491 31.1783-20.6644 30.5481-23.1907 29.2934-24.9337 28.0331-26.6708 26.2164-27.5452 23.8435-27.5452Z" fill="#0D856E" transform="matrix(1.01031 0 0 1 4633.59 2199.97)"/><path d="M16.4633-5.01848 16.4633 13.2164 5.33633 13.2164 5.33633-34.7666 16.4633-34.7666 16.4633-29.68C17.9904-31.7066 19.688-33.1998 21.55-34.1535 23.4119-35.1186 25.5522-35.6068 27.9765-35.6068 32.2569-35.6068 35.7767-33.9037 38.5357-30.4975 41.289-27.0912 42.6687-22.7086 42.6687-17.3494 42.6687-11.9902 41.2891-7.60758 38.5357-4.20128 35.7767-0.79497 32.2569 0.90804 27.9765 0.90804 25.5522 0.90804 23.4121 0.419809 21.55-0.545288 19.6879-1.51038 17.9904-3.00345 16.4633-5.01878ZM23.8435-27.5451C21.4647-27.5451 19.6425-26.6652 18.3708-24.9109 17.0991-23.1681 16.4633-20.6475 16.4633-17.3491 16.4633-14.0621 17.0991-11.5415 18.3708-9.78729 19.6425-8.04446 21.4647-7.17581 23.8435-7.17581 26.2164-7.17581 28.0331-8.0444 29.2934-9.78729 30.548-11.5244 31.1783-14.0451 31.1783-17.3491 31.1783-20.6644 30.5481-23.1907 29.2934-24.9337 28.0331-26.6708 26.2164-27.5452 23.8435-27.5452Z" fill="#0D856E" transform="matrix(1.01031 0 0 1 4679.58 2199.97)"/><path d="M20.9149-15.6466C18.5985-15.6466 16.8557-15.2491 15.6918-14.4656 14.5225-13.6766 13.9434-12.5185 13.9434-10.9914 13.9434-9.58346 14.4089-8.47639 15.3513-7.67604 16.288-6.88692 17.5994-6.49521 19.2798-6.49521 21.3689-6.49521 23.1232-7.24458 24.5481-8.74337 25.9843-10.242 26.7055-12.1155 26.7055-14.375L26.7055-15.6467ZM37.9013-19.8476 37.9013-0.000871996 26.7062-0.000871996 26.7062-5.15567C25.2075-3.04951 23.527-1.51102 21.6649-0.545869 19.8028 0.419284 17.5377 0.907457 14.8751 0.907457 11.2701 0.907457 8.34079-0.142803 6.08697-2.24902 3.84449-4.34951 2.72615-7.07451 2.72615-10.424 2.72615-14.5114 4.12271-17.4977 6.92714-19.3938 9.74296-21.3013 14.1484-22.2551 20.1434-22.2551L26.706-22.2551 26.706-23.1407C26.706-24.8949 26.0078-26.1838 24.6169-27.001 23.2374-27.8186 21.0745-28.2274 18.1223-28.2274 15.7436-28.2274 13.5353-27.9832 11.4915-27.5007 9.44779-27.0294 7.54015-26.3199 5.76898-25.3659L5.76898-33.8362C8.15898-34.4266 10.5491-34.8636 12.9448-35.1532 15.3517-35.454 17.7476-35.6074 20.1433-35.6074 26.4221-35.6074 30.9524-34.3641 33.7228-31.8832 36.5047-29.4137 37.9012-25.4001 37.9012-19.8479Z" fill="#0D856E" transform="matrix(1.01031 0 0 1 4725.56 2199.97)"/><path d="M2.22533-34.7665 13.0345-34.7665 18.8704-10.8098 24.7519-34.7665 34.0169-34.7665 39.8529-11.0598 45.7344-34.7665 56.5435-34.7665 47.3693 0 35.243 0 29.3615-23.9116 23.5256 0 11.3993 0Z" fill="#0D856E" transform="matrix(1.01031 0 0 1 4768.91 2199.97)"/><path d="M20.9149-15.6466C18.5985-15.6466 16.8557-15.2491 15.6918-14.4656 14.5225-13.6766 13.9434-12.5185 13.9434-10.9914 13.9434-9.58346 14.4089-8.47639 15.3513-7.67604 16.288-6.88692 17.5994-6.49521 19.2798-6.49521 21.3689-6.49521 23.1232-7.24458 24.5481-8.74337 25.9843-10.242 26.7055-12.1155 26.7055-14.375L26.7055-15.6467ZM37.9013-19.8476 37.9013-0.000871996 26.7062-0.000871996 26.7062-5.15567C25.2075-3.04951 23.527-1.51102 21.6649-0.545869 19.8028 0.419284 17.5377 0.907457 14.8751 0.907457 11.2701 0.907457 8.34079-0.142803 6.08697-2.24902 3.84449-4.34951 2.72615-7.07451 2.72615-10.424 2.72615-14.5114 4.12271-17.4977 6.92714-19.3938 9.74296-21.3013 14.1484-22.2551 20.1434-22.2551L26.706-22.2551 26.706-23.1407C26.706-24.8949 26.0078-26.1838 24.6169-27.001 23.2374-27.8186 21.0745-28.2274 18.1223-28.2274 15.7436-28.2274 13.5353-27.9832 11.4915-27.5007 9.44779-27.0294 7.54015-26.3199 5.76898-25.3659L5.76898-33.8362C8.15898-34.4266 10.5491-34.8636 12.9448-35.1532 15.3517-35.454 17.7476-35.6074 20.1433-35.6074 26.4221-35.6074 30.9524-34.3641 33.7228-31.8832 36.5047-29.4137 37.9012-25.4001 37.9012-19.8479Z" fill="#0D856E" transform="matrix(1.01031 0 0 1 4828.24 2199.97)"/><path d="M40.3066-21.1634 40.3066 0 29.1115 0 29.1115-16.2132C29.1115-19.2108 29.0434-21.2773 28.9071-22.4126 28.7821-23.548 28.5551-24.3882 28.2258-24.9333 27.783-25.6599 27.1925-26.2163 26.4546-26.6136 25.7108-27.0224 24.8648-27.2268 23.9112-27.2268 21.5949-27.2268 19.7669-26.3298 18.4386-24.5471 17.1214-22.7588 16.4629-20.278 16.4629-17.0988L16.4629 0.0010464 5.33593 0.0010464 5.33593-34.7655 16.4629-34.7655 16.4629-29.6788C18.1262-31.7055 19.8976-33.1987 21.7765-34.1524 23.6671-35.1173 25.7562-35.6057 28.044-35.6057 32.0521-35.6057 35.095-34.368 37.1727-31.9041 39.2618-29.4517 40.3063-25.8695 40.3063-21.1632Z" fill="#0D856E" transform="matrix(1.01031 0 0 1 4871.6 2199.97)"/><path d="M38.1048-44.8947 38.1048-35.0848C35.5445-36.2201 33.0521-37.0717 30.6338-37.6508 28.2097-38.2412 25.9218-38.5364 23.7759-38.5364 20.9261-38.5364 18.814-38.1391 17.4403-37.3556 16.0777-36.5664 15.3965-35.3402 15.3965-33.6769 15.3965-32.4336 15.8563-31.4629 16.7817-30.7702 17.7014-30.089 19.3762-29.4986 21.8003-28.999L26.8868-27.977C32.0303-26.9325 35.6977-25.3542 37.8777-23.2538 40.0577-21.1475 41.1476-18.1501 41.1476-14.2612 41.1476-9.14064 39.6262-5.33699 36.5834-2.83902 33.5518-0.341037 28.9194 0.907806 22.6858 0.907806 19.7452 0.907806 16.7931 0.623957 13.8296 0.0676088 10.8776-0.48874 7.92546-1.32327 4.97332-2.43037L4.97332-12.5128C7.92532-10.9347 10.7753-9.74816 13.5343-8.94767 16.3046-8.15856 18.9729-7.76684 21.5502-7.76684 24.1505-7.76684 26.143-8.1983 27.5226-9.0612 28.9135-9.93546 29.6117-11.1787 29.6117-12.7853 29.6117-14.2386 29.1405-15.357 28.2037-16.1461 27.2614-16.9296 25.388-17.6335 22.5722-18.258L17.9397-19.2799C13.3072-20.279 9.91238-21.8572 7.76639-24.0258 5.63175-26.2058 4.56457-29.1352 4.56457-32.8139 4.56457-37.4295 6.0519-40.9776 9.03805-43.4642 12.0185-45.945 16.3047-47.1883 21.891-47.1883 24.4343-47.1883 27.0515-46.9953 29.748-46.6206 32.4389-46.2402 35.2263-45.6668 38.1046-44.8947Z" fill="#0D856E" transform="matrix(1.01031 0 0 1 4939.7 2199.97)"/><path d="M21.89-27.6583C19.4206-27.6583 17.5357-26.7726 16.2357-25.0014 14.9471-23.2302 14.3055-20.6754 14.3055-17.3488 14.3055-14.0163 14.9471-11.4673 16.2357-9.69616 17.5357-7.92485 19.4206-7.03934 21.89-7.03934 24.3085-7.03934 26.1592-7.92496 27.4309-9.69616 28.7139-11.4675 29.361-14.0165 29.361-17.3488 29.361-20.6756 28.7139-23.2303 27.4309-25.0014 26.1592-26.7727 24.3085-27.6583 21.89-27.6583ZM21.89-35.6062C27.868-35.6062 32.5401-33.9939 35.901-30.7693 39.2618-27.5449 40.9423-23.0713 40.9423-17.3488 40.9423-11.6377 39.2619-7.16418 35.901-3.9282 32.5401-0.703555 27.868 0.90862 21.89 0.90862 15.878 0.90862 11.1774-0.703701 7.78824-3.9282 4.41041-7.16418 2.72426-11.6377 2.72426-17.3488 2.72426-23.0713 4.41041-27.5448 7.78824-30.7693 11.1774-33.994 15.878-35.6062 21.89-35.6062Z" fill="#0D856E" transform="matrix(1.01031 0 0 1 4985.96 2199.97)"/><path d="M21.89-27.6583C19.4206-27.6583 17.5357-26.7726 16.2357-25.0014 14.9471-23.2302 14.3055-20.6754 14.3055-17.3488 14.3055-14.0163 14.9471-11.4673 16.2357-9.69616 17.5357-7.92485 19.4206-7.03934 21.89-7.03934 24.3085-7.03934 26.1592-7.92496 27.4309-9.69616 28.7139-11.4675 29.361-14.0165 29.361-17.3488 29.361-20.6756 28.7139-23.2303 27.4309-25.0014 26.1592-26.7727 24.3085-27.6583 21.89-27.6583ZM21.89-35.6062C27.868-35.6062 32.5401-33.9939 35.901-30.7693 39.2618-27.5449 40.9423-23.0713 40.9423-17.3488 40.9423-11.6377 39.2619-7.16418 35.901-3.9282 32.5401-0.703555 27.868 0.90862 21.89 0.90862 15.878 0.90862 11.1774-0.703701 7.78824-3.9282 4.41041-7.16418 2.72426-11.6377 2.72426-17.3488 2.72426-23.0713 4.41041-27.5448 7.78824-30.7693 11.1774-33.994 15.878-35.6062 21.89-35.6062Z" fill="#0D856E" transform="matrix(1.01031 0 0 1 5030.09 2199.97)"/></g></g></g></g><text fill="#0D856E" font-family="Montserrat Alternates,Montserrat Alternates_MSFontService,sans-serif" font-weight="700" font-size="92" transform="matrix(1 0 0 1 4260.84 2214)">3D Modeling<tspan font-size="92" x="14.3232" y="110">&amp; Animation</tspan><tspan font-weight="400" font-size="37" x="2141.66" y="136">Icons by </tspan><tspan font-weight="400" font-size="37" x="2315.26" y="136">Tippawan</tspan><tspan font-weight="400" font-size="37" x="2515.78" y="136">Soo</tspan></text></g></svg>