<svg width="5142" height="1479" xmlns="http://www.w3.org/2000/svg" xmlns:xlink="http://www.w3.org/1999/xlink" xml:space="preserve" overflow="hidden"><defs><clipPath id="clip0"><rect x="-4073" y="304" width="5142" height="1479"/></clipPath><clipPath id="clip1"><rect x="-3592" y="624" width="739" height="742"/></clipPath><clipPath id="clip2"><rect x="-3592" y="624" width="739" height="742"/></clipPath><clipPath id="clip3"><rect x="-3592" y="624" width="739" height="742"/></clipPath><clipPath id="clip4"><rect x="-3592" y="624" width="739" height="742"/></clipPath><clipPath id="clip5"><rect x="-48" y="665" width="661" height="662"/></clipPath><clipPath id="clip6"><rect x="-48" y="665" width="661" height="662"/></clipPath><clipPath id="clip7"><rect x="-48" y="665" width="661" height="662"/></clipPath><clipPath id="clip8"><rect x="-48" y="665" width="661" height="662"/></clipPath><clipPath id="clip9"><rect x="-1812" y="607" width="775" height="776"/></clipPath><clipPath id="clip10"><rect x="-1812" y="608" width="761" height="774"/></clipPath><clipPath id="clip11"><rect x="-1831" y="608" width="780" height="774"/></clipPath><clipPath id="clip12"><rect x="-1831" y="608" width="780" height="774"/></clipPath></defs><g clip-path="url(#clip0)" transform="translate(4073 -304)"><g clip-path="url(#clip1)"><g clip-path="url(#clip2)"><g clip-path="url(#clip3)"><g clip-path="url(#clip4)"><path d="M744.747 628.95 695.163 612.421 701.443 588.971C707.686 565.727 695.673 541.054 673.538 531.6L658.699 525.259C632.776 514.185 602.93 522.216 586.065 544.77 579.968 552.925 578.322 563.536 581.658 573.154 584.983 582.771 592.856 590.084 602.692 592.713L620.763 597.56C613.46 602.309 607.739 609.563 605.305 618.614L599.002 642.131C596.47 651.552 597.763 661.398 602.643 669.83 604.88 673.715 607.815 677.014 611.183 679.762L606.511 708.386C605.511 714.557 609.337 720.486 615.384 722.099L650.641 731.554C651.674 731.836 652.733 731.967 653.794 731.967 655.912 731.967 658.014 731.418 659.879 730.337 662.665 728.717 664.71 726.066 665.551 722.948L672.875 695.622 729.654 721.838C737.652 725.528 746.095 727.62 754.605 728.289L754.605 742.42C754.605 749.136 760.044 754.59 766.775 754.59 773.508 754.59 778.947 749.136 778.947 742.42L778.947 726.048C783.62 724.809 788.233 723.175 792.661 720.974 812.558 711.117 826.729 693.041 831.548 671.367L842.746 622.563C848.859 598.124 851.962 572.918 851.962 547.685 851.962 487.292 802.827 438.148 742.423 438.148 735.691 438.148 730.253 443.602 730.253 450.318 730.253 457.033 735.691 462.489 742.423 462.489 789.391 462.489 827.619 500.708 827.619 547.685 827.619 570.191 824.892 592.647 819.61 614.488L775.209 589.756 776.659 578.476C778.496 564.078 773.469 549.337 763.212 539.079 758.451 534.319 750.758 534.319 746.004 539.079 741.245 543.839 741.245 551.533 746.004 556.287 750.97 561.264 753.404 568.397 752.514 575.368ZM631.119 663.334C627.979 662.491 625.349 660.475 623.729 657.661 622.099 654.851 621.67 651.575 622.512 648.424L628.815 624.924C630.569 618.436 637.236 614.59 643.724 616.306L667.239 622.609C673.727 624.348 677.597 631.031 675.857 637.508L669.538 661.034C668.696 664.175 666.691 666.794 663.865 668.407 661.068 670.026 657.759 670.451 654.63 669.624ZM604.673 565.179C604.272 563.999 603.848 561.674 605.576 559.348 615.714 545.825 633.628 541.021 649.157 547.639L663.997 553.98C675.059 558.712 681.057 571.042 677.943 582.67L673.537 599.111 650.096 592.819 650.291 591.612C651.291 585.44 647.466 579.512 641.419 577.898L608.997 569.21C606.194 568.449 605.074 566.357 604.672 565.179ZM632.313 701.455 634.286 689.383 648.332 693.142 645.18 704.9ZM807.769 666.1C804.557 680.559 795.109 692.61 781.846 699.168 768.594 705.753 753.282 705.948 739.846 699.753L689.13 676.336C690.771 673.527 692.194 670.566 693.064 667.344L699.383 643.816C699.747 642.442 699.845 641.078 700.051 639.704L750.767 656.606C754.174 657.726 757.885 657.314 760.965 655.449 764.018 653.574 766.1 650.461 766.648 646.908L771.468 615.53 813.8 639.104Z" fill="#0D856E" transform="matrix(1.00123 0 0 1 -3710.77 587.942)"/><path d="M470.812 628.199C472.089 628.623 473.393 628.83 474.659 628.83 479.761 628.83 484.504 625.602 486.199 620.495 488.33 614.115 484.884 607.226 478.505 605.097L463.9 600.228 469.052 566.759 511.171 580.804 511.171 595.018 503.494 629.587C500.282 644.046 490.834 656.097 477.571 662.655 464.318 669.24 449.007 669.435 435.571 663.242L398.618 646.191C392.495 643.366 385.29 646.044 382.47 652.14 379.662 658.236 382.314 665.468 388.42 668.288L425.373 685.35C445.525 694.646 468.509 694.32 488.378 684.485 497.214 680.117 504.907 674.118 511.178 666.897L511.172 742.422C511.172 749.137 516.611 754.593 523.344 754.593 530.075 754.593 535.514 749.137 535.514 742.422L535.514 547.688C535.514 540.971 530.075 535.517 523.344 535.517 516.611 535.517 511.172 540.971 511.172 547.688L511.172 555.148 472.813 542.369 475.573 524.417C481.099 488.539 511.455 462.491 547.757 462.491L584.198 462.491C584.198 466.327 586.002 469.93 589.067 472.228L637.75 508.74C639.919 510.359 642.482 511.175 645.053 511.175 647.623 511.175 650.187 510.359 652.355 508.74L701.039 472.228C704.103 469.941 705.907 466.327 705.907 462.491L705.907 419.627C734.508 400.447 753.52 368.135 754.444 331.398 755.428 330.508 756.368 329.595 757.254 328.611L778.933 328.611C799.065 328.611 815.446 312.23 815.446 292.098L815.446 267.757C815.446 266.865 815.25 266.04 815.18 265.165 823.161 256.232 827.616 244.887 827.616 233.022 827.616 211.49 813.67 192.819 792.93 186.567 786.404 184.605 779.688 188.283 777.764 194.711 775.819 201.149 779.47 207.931 785.894 209.875 796.298 213.01 803.275 222.313 803.275 233.022 803.275 235.347 802.824 237.624 802.167 239.814 795.826 234.544 787.807 231.245 778.933 231.245L757.27 231.245C756.417 230.31 755.543 229.419 754.592 228.567L754.592 206.295C754.592 202.644 752.951 199.187 750.137 196.872 747.311 194.574 743.627 193.624 740.008 194.352 738.819 194.596 737.602 194.732 736.335 194.732 726.273 194.732 718.079 186.538 718.079 176.476 718.079 175.258 718.199 174.031 718.443 172.835 719.188 169.254 718.259 165.533 715.96 162.697 713.651 159.86 710.19 158.219 706.528 158.219L705.289 158.219C699.496 158.219 694.503 162.294 693.363 167.966 691.646 176.427 684.12 182.561 675.482 182.561 669.738 182.561 664.43 179.844 660.899 175.123 656.312 168.95 645.969 168.95 641.377 175.123 637.85 179.844 632.542 182.561 626.799 182.561 618.16 182.561 610.635 176.426 608.919 167.966 607.778 162.294 602.774 158.219 596.992 158.219L595.754 158.219C592.092 158.219 588.636 159.86 586.321 162.697 584.022 165.533 583.094 169.254 583.838 172.835 584.082 174.031 584.202 175.258 584.202 176.476 584.202 186.538 576.008 194.732 565.946 194.732 561.039 194.732 557.29 192.69 555.03 190.973 551.341 188.185 546.391 187.723 542.273 189.793 538.137 191.847 535.518 196.058 535.518 200.682L535.518 228.578C534.584 229.431 533.693 230.305 532.839 231.256L511.176 231.256C507.053 231.256 503.157 232.099 499.457 233.364 500.283 229.763 502.135 227.045 503.739 225.247 507.673 220.851 507.889 214.282 504.259 209.631 501.863 206.539 499.006 201.464 499.006 194.732 499.006 186.408 503.266 178.742 510.4 174.226 515.887 170.744 517.681 163.577 514.464 157.931 512.286 154.096 511.176 150.102 511.176 146.048 511.176 132.622 522.092 121.707 535.519 121.707 537.225 121.707 539.05 121.962 541.262 122.484 544.913 123.358 548.831 122.494 551.791 120.109 554.905 117.577 560.077 114.562 566.994 114.562 571.216 114.562 575.347 115.73 579.236 118.028 582.496 119.941 586.452 120.256 589.984 118.832 593.488 117.409 596.14 114.437 597.15 110.785 599.33 102.89 606.523 97.3648 614.629 97.3648 619.547 97.3648 624.16 99.3099 627.615 102.831 630.425 105.678 634.478 106.993 638.385 106.297 642.328 105.602 645.687 103.037 647.355 99.397 651.349 90.7688 659.988 85.1939 669.398 85.1939 677.722 85.1939 685.378 89.4537 689.905 96.5715 693.36 102.038 700.516 103.836 706.177 100.647 710.035 98.4733 714.039 97.3648 718.081 97.3648 731.508 97.3648 742.423 108.281 742.423 121.245 742.374 121.598 742.239 122.924 742.217 123.277 741.962 128.667 745.271 133.584 750.372 135.361 760.18 138.783 766.765 147.972 766.765 158.219 766.765 164.936 772.204 170.391 778.936 170.391 785.668 170.391 791.107 164.936 791.107 158.219 791.107 140.593 781.479 124.554 766.44 116.035 763.614 91.8503 743.01 73.0235 718.081 73.0235 713.234 73.0235 708.48 73.768 703.852 75.2241 694.822 66.085 682.532 60.8526 669.398 60.8526 655.38 60.8526 642.209 66.9979 633.102 77.2242 627.419 74.4749 621.137 73.0242 614.629 73.0242 600.258 73.0242 587.135 80.3758 579.382 91.8996 566.396 88.357 552.569 90.5739 541.25 97.7405 539.305 97.5014 537.393 97.3656 535.518 97.3656 508.671 97.3656 486.835 119.202 486.835 146.049 486.835 150.907 487.579 155.667 489.051 160.278 479.907 169.309 474.663 181.599 474.663 194.732 474.663 202.46 476.499 209.948 480.042 216.761 476.538 223.04 474.663 230.116 474.663 237.33 474.663 242.77 475.723 248.089 477.765 253.142 475.793 257.619 474.663 262.547 474.663 267.758L474.663 292.1C474.663 312.231 491.045 328.613 511.176 328.613L523.346 328.613 523.346 406.213C404.496 463.16 268.509 463.71 148.97 407.468L146.047 406.083 146.047 352.954C146.047 346.239 140.608 340.784 133.876 340.784 127.144 340.784 121.705 346.239 121.705 352.954L121.705 413.809C121.705 418.519 124.433 422.817 128.693 424.822L138.598 429.484C192.699 454.946 249.983 469.324 307.668 472.779 292.879 475.418 279.155 483.33 269.613 496.088 263.517 504.243 261.871 514.855 265.207 524.472 268.532 534.089 276.406 541.403 286.239 544.031L304.328 548.879C297.015 553.627 291.292 560.865 288.858 569.933L282.556 593.449C280.024 602.87 281.318 612.716 286.196 621.148 288.435 625.034 291.369 628.332 294.738 631.081L290.065 659.704C289.065 665.876 292.89 671.804 298.938 673.418L334.196 682.873C335.228 683.154 336.287 683.285 337.347 683.285 339.467 683.285 341.569 682.736 343.433 681.655 346.22 680.036 348.263 677.384 349.106 674.266L357.88 641.512C358.44 641.23 359.049 641.111 359.597 640.795 368.047 635.927 374.083 628.055 376.599 618.632L381.978 598.571ZM681.57 456.402 645.057 483.787 608.545 456.402 608.545 431.756C619.988 435.82 632.24 438.145 645.057 438.145 657.875 438.145 670.126 435.82 681.57 431.756ZM645.057 413.803C602.226 413.803 566.772 382.002 560.834 340.777L594.934 340.777C607.958 340.777 619.678 333.536 625.518 321.874 627.191 318.517 630.572 316.436 634.321 316.436L655.789 316.436C659.548 316.436 662.922 318.517 664.601 321.874 670.432 333.534 682.157 340.777 695.175 340.777L729.276 340.777C723.343 382.002 687.889 413.803 645.057 413.803ZM661.222 243.411 700.495 282.673C702.869 285.047 705.982 286.238 709.1 286.238 712.214 286.238 715.333 285.042 717.707 282.673 722.467 277.914 722.467 270.21 717.707 265.467L695.637 243.413 730.254 243.413C736.97 243.413 742.424 248.878 742.424 255.583L742.424 304.267C742.424 310.972 736.97 316.437 730.254 316.437L695.175 316.437C691.416 316.437 688.04 314.357 686.362 310.999 680.538 299.339 668.813 292.096 655.793 292.096L641.069 292.096 592.384 243.413ZM547.691 304.266 547.691 255.581C547.691 249.437 552.342 244.541 558.279 243.727L613.816 299.262C609.74 302.364 606.149 306.19 603.752 310.992 602.068 314.355 598.689 316.437 594.94 316.437L559.861 316.437C553.145 316.437 547.691 310.971 547.691 304.266ZM778.937 255.581C785.653 255.581 791.107 261.048 791.107 267.753L791.107 292.094C791.107 298.799 785.653 304.266 778.937 304.266L766.766 304.266 766.766 255.581ZM559.861 218.63C576.754 221.102 593.575 212.653 602.106 198.971 616.005 208.855 636.863 209.278 651.143 199.216 665.422 209.278 686.293 208.865 700.179 198.971 706.679 209.388 717.584 216.815 730.254 218.641L730.254 219.07 559.861 219.07ZM511.178 304.266C504.462 304.266 499.006 298.799 499.006 292.094L499.006 267.753C499.006 261.048 504.462 255.581 511.178 255.581L523.348 255.581 523.348 304.266ZM334.916 473.642C405.35 473.642 475.736 457.298 540.973 424.694 545.091 422.623 547.693 418.413 547.693 413.799L547.693 378.553C556.234 395.13 568.807 409.284 584.205 419.618L584.205 438.14 547.764 438.14C499.362 438.14 458.879 472.865 451.526 520.706L440.485 592.426 381.722 572.833C380.8 570.378 379.571 568.074 378.143 565.873L385.004 540.265C391.248 517.021 379.234 492.348 357.099 482.894L342.26 476.553C339.315 475.287 336.312 474.352 333.29 473.581 333.839 473.592 334.377 473.641 334.92 473.641ZM288.232 516.485C287.83 515.307 287.406 512.981 289.134 510.656 299.273 497.131 317.187 492.329 332.716 498.947L347.554 505.288C358.616 510.02 364.616 522.348 361.502 533.976L357.094 550.417 333.655 544.125 333.85 542.919C334.849 536.746 331.025 530.818 324.976 529.204L292.556 520.516C289.751 519.756 288.633 517.665 288.231 516.485ZM315.872 652.761 317.844 640.689 331.889 644.448 328.739 656.207ZM359.405 588.816 353.086 612.343C352.243 615.483 350.238 618.102 347.413 619.716 344.614 621.346 341.289 621.758 338.176 620.932L314.661 614.629C311.52 613.787 308.89 611.772 307.271 608.957 305.64 606.148 305.211 602.871 306.054 599.721L312.357 576.221C314.112 569.743 320.768 565.897 327.267 567.603L350.782 573.906C357.275 575.661 361.148 582.354 359.405 588.816Z" fill="#0D856E" transform="matrix(1.00123 0 0 1 -3710.77 587.942)"/><path d="M663.96 354.235C652.116 360.153 637.999 360.153 626.171 354.235 620.173 351.231 612.854 353.665 609.839 359.674 606.834 365.69 609.268 373.003 615.277 376.007 624.612 380.668 634.821 383.005 645.058 383.005 655.294 383.005 665.514 380.668 674.838 376.007 680.853 373.002 683.287 365.683 680.277 359.674 677.261 353.675 669.986 351.242 663.961 354.235Z" fill="#0D856E" transform="matrix(1.00123 0 0 1 -3710.77 587.942)"/><path d="M133.88 316.443C140.612 316.443 146.051 310.988 146.051 304.273L146.051 165.149C240.022 207.323 346.321 216.836 446.345 191.902 452.854 190.283 456.826 183.676 455.218 177.151 453.577 170.626 446.964 166.622 440.456 168.279 343.225 192.523 239.713 182.384 148.979 139.687L139.075 135.025C135.304 133.259 130.898 133.515 127.366 135.769 123.834 138.003 121.704 141.888 121.704 146.049L121.704 304.271C121.704 310.987 127.143 316.443 133.875 316.443Z" fill="#0D856E" transform="matrix(1.00123 0 0 1 -3710.77 587.942)"/><path d="M279.931 243.418C246.374 243.418 219.077 270.716 219.077 304.273L219.077 389.469C219.077 396.184 224.515 401.64 231.247 401.64L267.76 401.64C273.003 401.64 277.643 398.293 279.301 393.315L288.929 364.43C304.517 362.045 318.748 353.527 328.365 340.784L328.864 340.784C338.482 353.527 352.707 362.045 368.301 364.43L377.929 393.315C379.575 398.292 384.226 401.64 389.47 401.64L425.983 401.64C432.715 401.64 438.153 396.184 438.153 389.469L438.153 304.273C438.153 270.716 410.856 243.418 377.299 243.418ZM413.81 304.273 413.81 377.297 398.245 377.297 388.85 349.108C387.182 344.131 382.541 340.784 377.299 340.784 364.302 340.784 352.554 333.944 345.887 322.491 343.693 318.741 339.688 316.443 335.369 316.443L321.872 316.443C317.552 316.443 313.537 318.741 311.359 322.491 304.674 333.944 292.928 340.784 279.931 340.784 274.688 340.784 270.036 344.131 268.39 349.108L258.985 377.297 243.418 377.297 243.418 304.273C243.418 284.141 259.8 267.76 279.931 267.76L377.299 267.76C397.43 267.76 413.812 284.141 413.812 304.273Z" fill="#0D856E" transform="matrix(1.00123 0 0 1 -3710.77 587.942)"/><path d="M292.101 292.101C292.101 285.386 286.663 279.931 279.931 279.931 273.198 279.931 267.76 285.386 267.76 292.101 261.028 292.101 255.588 297.557 255.588 304.273 255.588 310.988 261.028 316.443 267.76 316.443 267.76 323.16 273.198 328.614 279.931 328.614 286.663 328.614 292.101 323.16 292.101 316.443 298.833 316.443 304.273 310.988 304.273 304.273 304.273 297.557 298.833 292.101 292.101 292.101Z" fill="#0D856E" transform="matrix(1.00123 0 0 1 -3710.77 587.942)"/><path d="M377.297 292.101C377.297 298.822 371.848 304.273 365.127 304.273 358.406 304.273 352.956 298.822 352.956 292.101 352.956 285.38 358.406 279.931 365.127 279.931 371.848 279.931 377.297 285.38 377.297 292.101" fill="#0D856E" transform="matrix(1.00123 0 0 1 -3710.77 587.942)"/><path d="M401.64 316.443C401.64 323.165 396.19 328.614 389.469 328.614 382.748 328.614 377.297 323.165 377.297 316.443 377.297 309.722 382.748 304.273 389.469 304.273 396.19 304.273 401.64 309.722 401.64 316.443" fill="#0D856E" transform="matrix(1.00123 0 0 1 -3710.77 587.942)"/><path d="M40.7718-2.43418C38.6691-1.34749 36.474-0.527034 34.1864 0.0216989 31.9098 0.586777 29.5409 0.869322 27.0795 0.869322 19.69 0.869322 13.8274-1.19542 9.49635-5.32475 5.17673-9.45424 3.01977-15.0615 3.01977-22.147 3.01977-29.2326 5.17688-34.8395 9.49635-38.9693 13.8268-43.0987 19.6894-45.1634 27.0795-45.1634 29.5408-45.1634 31.9098-44.8862 34.1864-44.3375 36.4739-43.7833 38.6691-42.9573 40.7718-41.8599L40.7718-32.6883C38.6419-34.1335 36.5445-35.193 34.4908-35.8612 32.4315-36.5404 30.2636-36.8827 27.9923-36.8827 23.9065-36.8827 20.6952-35.5679 18.3643-32.9489 16.0278-30.341 14.8652-26.7386 14.8652-22.1474 14.8652-17.567 16.028-13.9646 18.3643-11.3457 20.6952-8.73766 23.9065-7.43363 27.9923-7.43363 30.2636-7.43363 32.4315-7.76508 34.4908-8.43339 36.5446-9.11257 38.6419-10.1775 40.7718-11.6283Z" fill="#0D856E" transform="matrix(1.00123 0 0 1 -3613.29 1549.44)"/><path d="M29.8403-24.211C28.8948-24.6457 27.9602-24.9609 27.0367-25.1673 26.1238-25.3847 25.2002-25.4933 24.2765-25.4933 21.5379-25.4933 19.4298-24.6132 17.9518-22.8636 16.4848-21.1087 15.7567-18.5929 15.7567-15.3219L15.7567 0.000862395 5.10733 0.000862395 5.10733-33.2736 15.7567-33.2736 15.7567-27.8185C17.1151-29.9918 18.6801-31.5784 20.4513-32.5781 22.2334-33.5779 24.3633-34.0777 26.841-34.0777 27.1888-34.0777 27.5691-34.0615 27.993-34.0343 28.4113-34.0017 29.0145-33.9365 29.7968-33.8387Z" fill="#0D856E" transform="matrix(1.00123 0 0 1 -3568.57 1549.44)"/><path d="M38.3377-16.7347 38.3377-13.6919 13.452-13.6919C13.7127-11.1979 14.6093-9.32889 16.1469-8.08467 17.6955-6.83498 19.8634-6.2155 22.6454-6.2155 24.8731-6.2155 27.166-6.54152 29.5133-7.19352 31.8605-7.85639 34.273-8.86697 36.7505-10.2145L36.7505-2.02096C34.2402-1.06467 31.73-0.347489 29.2089 0.130722 26.6878 0.619728 24.172 0.869669 21.6673 0.869669 15.6362 0.869669 10.9526-0.657186 7.60604-3.71618 4.26996-6.78603 2.60721-11.084 2.60721-16.6043 2.60721-22.0377 4.2427-26.303 7.51897-29.4053 10.8062-32.5187 15.3214-34.0782 21.0592-34.0782 26.2861-34.0782 30.4753-32.4971 33.6212-29.3403 36.7616-26.1944 38.3373-21.9944 38.3373-16.7347ZM27.4056-20.2554C27.4056-22.2821 26.8079-23.9121 25.6234-25.1455 24.4498-26.3897 22.9121-27.0146 21.0159-27.0146 18.9402-27.0146 17.2613-26.4333 15.9736-25.2759 14.6968-24.1132 13.8981-22.4396 13.5829-20.2554Z" fill="#0D856E" transform="matrix(1.00123 0 0 1 -3538.52 1549.44)"/><path d="M20.0173-14.9751C17.8003-14.9751 16.1324-14.5948 15.0185-13.8449 13.8992-13.0897 13.345-11.9813 13.345-10.5197 13.345-9.1722 13.7905-8.11263 14.6925-7.34663 15.589-6.59139 16.8441-6.21647 18.4524-6.21647 20.4519-6.21647 22.1307-6.93368 23.4947-8.36816 24.8693-9.80251 25.5594-11.5956 25.5594-13.7582L25.5594-14.9752ZM36.2749-18.9958 36.2749-0.000834575 25.5602-0.000834575 25.5602-4.93443C24.1258-2.91864 22.5174-1.44618 20.7352-0.522444 18.9529 0.401292 16.7852 0.868515 14.2367 0.868515 10.7865 0.868515 7.98286-0.136675 5.82575-2.15251 3.67951-4.16286 2.60916-6.77091 2.60916-9.97665 2.60916-13.8887 3.94578-16.7467 6.62987-18.5616 9.32485-20.3872 13.5413-21.3001 19.279-21.3001L25.56-21.3001 25.56-22.1476C25.56-23.8265 24.8917-25.06 23.5606-25.8424 22.2402-26.6247 20.1701-27.016 17.3445-27.016 15.068-27.016 12.9544-26.7823 10.9983-26.3205 9.04236-25.8694 7.21657-25.1903 5.52142-24.2774L5.52142-32.3841C7.80884-32.9492 10.0964-33.3675 12.3893-33.6446 14.693-33.9326 16.9859-34.0794 19.2788-34.0794 25.2883-34.0794 29.6241-32.8894 32.2756-30.5149 34.9382-28.1514 36.2748-24.31 36.2748-18.9962Z" fill="#0D856E" transform="matrix(1.00123 0 0 1 -3497.2 1549.44)"/><path d="M16.7347-42.7289 16.7347-33.2747 27.6884-33.2747 27.6884-25.6679 16.7347-25.6679 16.7347-11.5621C16.7347-10.0081 17.0389-8.95945 17.6474-8.41072 18.256-7.8728 19.4731-7.60657 21.2987-7.60657L26.7756-7.60657 26.7756 0.000306011 17.6474 0.000306011C13.442 0.000306011 10.4644-0.874483 8.71485-2.62944 6.95987-4.37899 6.0851-7.35648 6.0851-11.562L6.0851-25.6677 0.803766-25.6677 0.803766-33.2746 6.0851-33.2746 6.0851-42.7289Z" fill="#0D856E" transform="matrix(1.00123 0 0 1 -3456.08 1549.44)"/><path d="M38.3377-16.7347 38.3377-13.6919 13.452-13.6919C13.7127-11.1979 14.6093-9.32889 16.1469-8.08467 17.6955-6.83498 19.8634-6.2155 22.6454-6.2155 24.8731-6.2155 27.166-6.54152 29.5133-7.19352 31.8605-7.85639 34.273-8.86697 36.7505-10.2145L36.7505-2.02096C34.2402-1.06467 31.73-0.347489 29.2089 0.130722 26.6878 0.619728 24.172 0.869669 21.6673 0.869669 15.6362 0.869669 10.9526-0.657186 7.60604-3.71618 4.26996-6.78603 2.60721-11.084 2.60721-16.6043 2.60721-22.0377 4.2427-26.303 7.51897-29.4053 10.8062-32.5187 15.3214-34.0782 21.0592-34.0782 26.2861-34.0782 30.4753-32.4971 33.6212-29.3403 36.7616-26.1944 38.3373-21.9944 38.3373-16.7347ZM27.4056-20.2554C27.4056-22.2821 26.8079-23.9121 25.6234-25.1455 24.4498-26.3897 22.9121-27.0146 21.0159-27.0146 18.9402-27.0146 17.2613-26.4333 15.9736-25.2759 14.6968-24.1132 13.8981-22.4396 13.5829-20.2554Z" fill="#0D856E" transform="matrix(1.00123 0 0 1 -3426.96 1549.44)"/><path d="M27.7538-28.4061 27.7538-46.2271 38.4469-46.2271 38.4469 0 27.7538 0 27.7538-4.80313C26.2868-2.84716 24.6731-1.41266 22.9071-0.499772 21.1359 0.413046 19.0928 0.869461 16.7783 0.869461 12.6761 0.869461 9.30732-0.760604 6.67215-4.0206 4.04783-7.28072 2.73838-11.4753 2.73838-16.6044 2.73838-21.7337 4.04784-25.9281 6.67215-29.1883 9.30732-32.4484 12.6761-34.0784 16.7783-34.0784 19.082-34.0784 21.1142-33.6112 22.8855-32.6874 24.6676-31.7745 26.2868-30.3456 27.7538-28.4059ZM20.7338-6.86855C23.0212-6.86855 24.76-7.69988 25.9499-9.36797 27.1507-11.0306 27.7538-13.4431 27.7538-16.6052 27.7538-19.7783 27.1507-22.1962 25.9499-23.8644 24.76-25.527 23.0212-26.3639 20.7338-26.3639 18.4735-26.3639 16.7402-25.527 15.5393-23.8644 14.3495-22.1964 13.7572-19.7784 13.7572-16.6052 13.7572-13.4431 14.3495-11.0306 15.5393-9.36797 16.7401-7.69994 18.4735-6.86855 20.7338-6.86855Z" fill="#0D856E" transform="matrix(1.00123 0 0 1 -3385.63 1549.44)"/><path d="M22.8201-6.86786C25.0913-6.86786 26.8299-7.69918 28.0361-9.36728 29.2369-11.0299 29.8401-13.4424 29.8401-16.6045 29.8401-19.7776 29.237-22.1955 28.0361-23.8637 26.8299-25.5264 25.0913-26.3631 22.8201-26.3631 20.5435-26.3631 18.7994-25.5209 17.5822-23.8421 16.3652-22.174 15.7566-19.7615 15.7566-16.6047 15.7566-13.4588 16.3652-11.0463 17.5822-9.36741 18.7994-7.69938 20.5435-6.868 22.8201-6.868ZM15.7566-28.4055C17.2183-30.3451 18.8429-31.7743 20.625-32.687 22.4071-33.6106 24.4556-34.0779 26.7757-34.0779 30.8725-34.0779 34.2413-32.4479 36.8819-29.1879 39.517-25.9277 40.8375-21.7331 40.8375-16.604 40.8375-11.4749 39.5171-7.28028 36.8819-4.02015 34.2413-0.760021 30.8725 0.869906 26.7757 0.869906 24.4556 0.869906 22.4073 0.402628 20.625-0.521053 18.8428-1.44473 17.2183-2.87372 15.7566-4.80256L15.7566 0.000556384 5.10719 0.000556384 5.10719-46.2266 15.7566-46.2266Z" fill="#0D856E" transform="matrix(1.00123 0 0 1 -3320.81 1549.44)"/><path d="M0.738948-33.2746 11.3884-33.2746 20.3211-10.6937 27.9279-33.2746 38.5774-33.2746 24.5815 3.15191C23.1743 6.85757 21.5279 9.44378 19.6479 10.9108 17.7788 12.3887 15.3066 13.1277 12.2368 13.1277L6.08608 13.1277 6.08608 6.15124 9.4113 6.15124C11.2207 6.15124 12.5301 5.85782 13.3451 5.2819 14.1709 4.71682 14.8122 3.68451 15.2793 2.19564L15.5619 1.28281Z" fill="#0D856E" transform="matrix(1.00123 0 0 1 -3277.2 1549.44)"/><path d="M0.304273-44.359 41.1859-44.359 41.1859-35.709 26.4724-35.709 26.4724-0.000278191 15.0404-0.000278191 15.0404-35.709 0.30455-35.709Z" fill="#0D856E" transform="matrix(1.00123 0 0 1 -3216.27 1549.44)"/><path d="M5.10746-33.2746 15.7569-33.2746 15.7569 0 5.10746 0ZM5.10746-46.2278 15.7569-46.2278 15.7569-37.556 5.10746-37.556Z" fill="#0D856E" transform="matrix(1.00123 0 0 1 -3174.71 1549.44)"/><path d="M15.7567-4.80313 15.7567 12.6492 5.10733 12.6492 5.10733-33.2747 15.7567-33.2747 15.7567-28.4063C17.2185-30.346 18.8431-31.7751 20.6252-32.6878 22.4073-33.6116 24.4557-34.0788 26.7758-34.0788 30.8726-34.0788 34.2414-32.4487 36.882-29.1887 39.5171-25.9285 40.8376-21.734 40.8376-16.6048 40.8376-11.4757 39.5172-7.28111 36.882-4.02099 34.2414-0.760854 30.8726 0.869071 26.7758 0.869071 24.4557 0.869071 22.4074 0.401793 20.6252-0.521888 18.8429-1.44557 17.2185-2.87456 15.7567-4.8034ZM22.8203-26.3629C20.5436-26.3629 18.7995-25.5208 17.5824-23.8419 16.3654-22.1739 15.7567-19.7614 15.7567-16.6045 15.7567-13.4586 16.3654-11.0462 17.5824-9.36728 18.7995-7.69923 20.5436-6.86786 22.8203-6.86786 25.0914-6.86786 26.8301-7.69918 28.0363-9.36728 29.237-11.0299 29.8403-13.4424 29.8403-16.6045 29.8403-19.7776 29.2372-22.1955 28.0363-23.8637 26.8301-25.5264 25.0914-26.3631 22.8203-26.3631Z" fill="#0D856E" transform="matrix(1.00123 0 0 1 -3153.82 1549.44)"/><path d="M15.7567-4.80313 15.7567 12.6492 5.10733 12.6492 5.10733-33.2747 15.7567-33.2747 15.7567-28.4063C17.2185-30.346 18.8431-31.7751 20.6252-32.6878 22.4073-33.6116 24.4557-34.0788 26.7758-34.0788 30.8726-34.0788 34.2414-32.4487 36.882-29.1887 39.5171-25.9285 40.8376-21.734 40.8376-16.6048 40.8376-11.4757 39.5172-7.28111 36.882-4.02099 34.2414-0.760854 30.8726 0.869071 26.7758 0.869071 24.4557 0.869071 22.4074 0.401793 20.6252-0.521888 18.8429-1.44557 17.2185-2.87456 15.7567-4.8034ZM22.8203-26.3629C20.5436-26.3629 18.7995-25.5208 17.5824-23.8419 16.3654-22.1739 15.7567-19.7614 15.7567-16.6045 15.7567-13.4586 16.3654-11.0462 17.5824-9.36728 18.7995-7.69923 20.5436-6.86786 22.8203-6.86786 25.0914-6.86786 26.8301-7.69918 28.0363-9.36728 29.237-11.0299 29.8403-13.4424 29.8403-16.6045 29.8403-19.7776 29.2372-22.1955 28.0363-23.8637 26.8301-25.5264 25.0914-26.3631 22.8203-26.3631Z" fill="#0D856E" transform="matrix(1.00123 0 0 1 -3110.2 1549.44)"/><path d="M20.0173-14.9751C17.8003-14.9751 16.1324-14.5948 15.0185-13.8449 13.8992-13.0897 13.345-11.9813 13.345-10.5197 13.345-9.1722 13.7905-8.11263 14.6925-7.34663 15.589-6.59139 16.8441-6.21647 18.4524-6.21647 20.4519-6.21647 22.1307-6.93368 23.4947-8.36816 24.8693-9.80251 25.5594-11.5956 25.5594-13.7582L25.5594-14.9752ZM36.2749-18.9958 36.2749-0.000834575 25.5602-0.000834575 25.5602-4.93443C24.1258-2.91864 22.5174-1.44618 20.7352-0.522444 18.9529 0.401292 16.7852 0.868515 14.2367 0.868515 10.7865 0.868515 7.98286-0.136675 5.82575-2.15251 3.67951-4.16286 2.60916-6.77091 2.60916-9.97665 2.60916-13.8887 3.94578-16.7467 6.62987-18.5616 9.32485-20.3872 13.5413-21.3001 19.279-21.3001L25.56-21.3001 25.56-22.1476C25.56-23.8265 24.8917-25.06 23.5606-25.8424 22.2402-26.6247 20.1701-27.016 17.3445-27.016 15.068-27.016 12.9544-26.7823 10.9983-26.3205 9.04236-25.8694 7.21657-25.1903 5.52142-24.2774L5.52142-32.3841C7.80884-32.9492 10.0964-33.3675 12.3893-33.6446 14.693-33.9326 16.9859-34.0794 19.2788-34.0794 25.2883-34.0794 29.6241-32.8894 32.2756-30.5149 34.9382-28.1514 36.2748-24.31 36.2748-18.9962Z" fill="#0D856E" transform="matrix(1.00123 0 0 1 -3066.59 1549.44)"/><path d="M2.12983-33.2746 12.4751-33.2746 18.0606-10.346 23.6897-33.2746 32.557-33.2746 38.1426-10.5852 43.7716-33.2746 54.117-33.2746 45.3366 0 33.7306 0 28.1016-22.8855 22.516 0 10.9101 0Z" fill="#0D856E" transform="matrix(1.00123 0 0 1 -3025.47 1549.44)"/><path d="M20.0173-14.9751C17.8003-14.9751 16.1324-14.5948 15.0185-13.8449 13.8992-13.0897 13.345-11.9813 13.345-10.5197 13.345-9.1722 13.7905-8.11263 14.6925-7.34663 15.589-6.59139 16.8441-6.21647 18.4524-6.21647 20.4519-6.21647 22.1307-6.93368 23.4947-8.36816 24.8693-9.80251 25.5594-11.5956 25.5594-13.7582L25.5594-14.9752ZM36.2749-18.9958 36.2749-0.000834575 25.5602-0.000834575 25.5602-4.93443C24.1258-2.91864 22.5174-1.44618 20.7352-0.522444 18.9529 0.401292 16.7852 0.868515 14.2367 0.868515 10.7865 0.868515 7.98286-0.136675 5.82575-2.15251 3.67951-4.16286 2.60916-6.77091 2.60916-9.97665 2.60916-13.8887 3.94578-16.7467 6.62987-18.5616 9.32485-20.3872 13.5413-21.3001 19.279-21.3001L25.56-21.3001 25.56-22.1476C25.56-23.8265 24.8917-25.06 23.5606-25.8424 22.2402-26.6247 20.1701-27.016 17.3445-27.016 15.068-27.016 12.9544-26.7823 10.9983-26.3205 9.04236-25.8694 7.21657-25.1903 5.52142-24.2774L5.52142-32.3841C7.80884-32.9492 10.0964-33.3675 12.3893-33.6446 14.693-33.9326 16.9859-34.0794 19.2788-34.0794 25.2883-34.0794 29.6241-32.8894 32.2756-30.5149 34.9382-28.1514 36.2748-24.31 36.2748-18.9962Z" fill="#0D856E" transform="matrix(1.00123 0 0 1 -2969.19 1549.44)"/><path d="M38.5769-20.2552 38.5769 0 27.8622 0 27.8622-15.5175C27.8622-18.3864 27.7969-20.3642 27.6665-21.4508 27.5471-22.5375 27.3297-23.3417 27.0146-23.8633 26.5908-24.5588 26.0257-25.0913 25.3192-25.4716 24.6075-25.8627 23.7978-26.0583 22.8851-26.0583 20.6682-26.0583 18.9186-25.1999 17.6473-23.4937 16.3867-21.7821 15.7565-19.4078 15.7565-16.365L15.7565 0.00100149 5.10695 0.00100149 5.10695-33.2735 15.7565-33.2735 15.7565-28.4052C17.3483-30.3449 19.0437-31.7739 20.842-32.6866 22.6514-33.6103 24.6509-34.0776 26.8405-34.0776 30.6766-34.0776 33.589-32.8932 35.5775-30.5349 37.577-28.1878 38.5766-24.7593 38.5766-20.255Z" fill="#0D856E" transform="matrix(1.00123 0 0 1 -2928.07 1549.44)"/><path d="M36.4696-42.9682 36.4696-33.5791C34.0192-34.6658 31.6337-35.4809 29.3192-36.035 26.999-36.6001 24.8095-36.8827 22.7555-36.8827 20.028-36.8827 18.0066-36.5023 16.6918-35.7526 15.3878-34.9973 14.7359-33.8237 14.7359-32.2317 14.7359-31.0417 15.176-30.1127 16.0615-29.4498 16.9418-28.7978 18.5448-28.2327 20.8648-27.7545L25.7331-26.7765C30.6558-25.7768 34.1657-24.2662 36.2522-22.2559 38.3386-20.24 39.3818-17.3712 39.3818-13.6493 39.3818-8.74838 37.9256-5.10796 35.0134-2.71718 32.1119-0.326402 27.6783 0.868849 21.7123 0.868849 18.8979 0.868849 16.0725 0.59718 13.2361 0.0647074 10.4108-0.467765 7.58535-1.26648 4.75989-2.32608L4.75989-11.9759C7.5852-10.4654 10.3129-9.32983 12.9535-8.5637 15.6049-7.80844 18.1587-7.43354 20.6254-7.43354 23.114-7.43354 25.0212-7.84649 26.3414-8.67235 27.6726-9.5091 28.3409-10.699 28.3409-12.2367 28.3409-13.6276 27.89-14.698 26.9935-15.4533 26.0916-16.203 24.2985-16.8767 21.6035-17.4744L17.1698-18.4525C12.7361-19.4088 9.48699-20.9193 7.43311-22.9948 5.39007-25.0813 4.36868-27.8849 4.36868-31.4058 4.36868-35.8232 5.79219-39.2191 8.6502-41.5988 11.5028-43.9733 15.6049-45.1633 20.9516-45.1633 23.3858-45.1633 25.8905-44.9785 28.4713-44.6198 31.0469-44.2558 33.7146-43.7071 36.4694-42.9682Z" fill="#0D856E" transform="matrix(1.00123 0 0 1 -2863.49 1549.44)"/><path d="M20.9507-26.4713C18.5871-26.4713 16.7831-25.6238 15.5389-23.9285 14.3055-22.2333 13.6916-19.7882 13.6916-16.6043 13.6916-13.4148 14.3057-10.9752 15.5389-9.28006 16.7833-7.58476 18.5871-6.73725 20.9507-6.73725 23.2654-6.73725 25.0366-7.58488 26.2536-9.28006 27.4816-10.9754 28.1009-13.415 28.1009-16.6043 28.1009-19.7883 27.4816-22.2334 26.2536-23.9285 25.0366-25.6239 23.2654-26.4713 20.9507-26.4713ZM20.9507-34.0783C26.6721-34.0783 31.1437-32.5351 34.3604-29.449 37.5769-26.3628 39.1852-22.0812 39.1852-16.6043 39.1852-11.1382 37.577-6.85673 34.3604-3.75962 31.1437-0.673364 26.6721 0.869627 20.9507 0.869627 15.1967 0.869627 10.6977-0.673503 7.45401-3.75962 4.22114-6.85673 2.60736-11.1382 2.60736-16.6043 2.60736-22.0812 4.22114-26.3627 7.45401-29.449 10.6977-32.5352 15.1967-34.0783 20.9507-34.0783Z" fill="#0D856E" transform="matrix(1.00123 0 0 1 -2819.6 1549.44)"/><path d="M20.9507-26.4713C18.5871-26.4713 16.7831-25.6238 15.5389-23.9285 14.3055-22.2333 13.6916-19.7882 13.6916-16.6043 13.6916-13.4148 14.3057-10.9752 15.5389-9.28006 16.7833-7.58476 18.5871-6.73725 20.9507-6.73725 23.2654-6.73725 25.0366-7.58488 26.2536-9.28006 27.4816-10.9754 28.1009-13.415 28.1009-16.6043 28.1009-19.7883 27.4816-22.2334 26.2536-23.9285 25.0366-25.6239 23.2654-26.4713 20.9507-26.4713ZM20.9507-34.0783C26.6721-34.0783 31.1437-32.5351 34.3604-29.449 37.5769-26.3628 39.1852-22.0812 39.1852-16.6043 39.1852-11.1382 37.577-6.85673 34.3604-3.75962 31.1437-0.673364 26.6721 0.869627 20.9507 0.869627 15.1967 0.869627 10.6977-0.673503 7.45401-3.75962 4.22114-6.85673 2.60736-11.1382 2.60736-16.6043 2.60736-22.0812 4.22114-26.3627 7.45401-29.449 10.6977-32.5352 15.1967-34.0783 20.9507-34.0783Z" fill="#0D856E" transform="matrix(1.00123 0 0 1 -2777.74 1549.44)"/></g></g></g></g><text fill="#0D856E" font-family="Montserrat Alternates,Montserrat Alternates_MSFontService,sans-serif" font-weight="700" font-size="92" transform="matrix(1 0 0 1 -3475.45 1594)">Immersiv<tspan font-size="92" x="449.167" y="0">e</tspan><tspan font-size="92" x="-30.3645" y="110">Technolog</tspan><tspan font-size="92" x="477.24" y="110">y</tspan></text><g clip-path="url(#clip5)"><g clip-path="url(#clip6)"><g clip-path="url(#clip7)"><g clip-path="url(#clip8)"><path d="M413.401 565.707C404.747 565.707 396.442 569.146 390.323 575.265 384.205 581.384 380.764 589.69 380.764 598.344 380.764 606.997 384.203 615.304 390.323 621.422 396.443 627.541 404.748 630.98 413.401 630.98 422.055 630.98 430.361 627.541 436.48 621.422 442.598 615.303 446.037 606.997 446.037 598.344 446.037 589.69 442.599 581.383 436.48 575.265 430.36 569.147 422.055 565.707 413.401 565.707ZM413.401 609.223C409.002 609.223 405.033 606.571 403.352 602.507 401.668 598.441 402.595 593.764 405.708 590.652 408.822 587.538 413.499 586.611 417.564 588.296 421.628 589.976 424.28 593.944 424.28 598.345 424.28 601.229 423.134 603.998 421.095 606.038 419.055 608.076 416.286 609.223 413.401 609.223Z" fill="#0D856E" transform="matrix(1 0 0 1.00086 -152.161 646.229)"/><path d="M246.86 541.126C257.506 541.112 267.482 535.906 273.576 527.178 279.676 518.45 281.133 507.295 277.476 497.29 273.824 487.29 265.519 479.7 255.232 476.955 244.941 474.212 233.96 476.659 225.815 483.513 217.666 490.37 213.372 500.768 214.314 511.375 215.256 521.982 221.313 531.461 230.54 536.776 235.504 539.632 241.133 541.132 246.86 541.128ZM237.491 503.05C239.439 499.675 243.042 497.601 246.937 497.611 248.847 497.606 250.721 498.107 252.377 499.068 256.184 501.268 258.298 505.547 257.72 509.908 257.147 514.275 253.999 517.859 249.75 519 245.499 520.136 240.983 518.601 238.302 515.109 235.626 511.623 235.316 506.858 237.515 503.051Z" fill="#0D856E" transform="matrix(1 0 0 1.00086 -152.161 646.229)"/><path d="M744.881 26.2165C737.387 21.8504 728.484 20.5925 720.079 22.7149 711.671 24.8371 704.429 30.1698 699.908 37.5662L674.202 79.2221C671.307 84.307 672.957 90.7714 677.936 93.8509 682.914 96.9301 689.436 95.5167 692.695 90.6552L718.431 48.9558C721.743 43.7252 728.591 42.0398 733.947 45.1384 739.304 48.237 741.262 55.0072 738.386 60.4859L635.327 251.87 604.302 233.953 669.892 127.698 669.887 127.698C672.734 122.613 671.067 116.193 666.113 113.133 661.154 110.073 654.667 111.457 651.392 116.275L639.795 135.051 218.213 22.1289C215.424 21.3809 212.457 21.7743 209.956 23.2168 207.456 24.6591 205.633 27.0341 204.886 29.8218L109.151 387.087 109.151 387.083C108.403 389.871 108.796 392.843 110.239 395.339 111.681 397.841 114.056 399.667 116.844 400.409L188.12 419.5 188.12 419.505C189.043 419.753 189.995 419.88 190.952 419.885 196.425 419.904 201.059 415.848 201.772 410.419 202.487 404.993 199.053 399.88 193.759 398.485L132.987 382.167 159.445 283.406C165.585 287.719 172.432 290.924 179.679 292.871L167.003 340.257C164.375 350.04 165.755 360.467 170.83 369.229 175.905 377.994 184.269 384.372 194.06 386.956 203.851 389.544 214.268 388.121 223.011 383.003 231.733 378 238.086 369.7 240.646 359.972L253.341 312.615 253.341 312.62C261.437 314.781 269.883 315.315 278.188 314.183 285.987 324.353 296.235 332.387 307.973 337.529L291.169 366.62 244.486 386.561C242.32 387.484 240.509 389.081 239.329 391.116L215.526 432.35C214.059 434.851 213.65 437.834 214.394 440.631 215.132 443.434 216.962 445.823 219.469 447.275 221.979 448.723 224.962 449.111 227.759 448.353 230.556 447.591 232.937 445.749 234.369 443.229L252.733 411.418 328.104 454.934 279.819 538.509C266.861 561.096 256.288 584.977 248.27 609.756L158.542 557.984C175.992 538.639 191.378 517.532 204.453 495.003L212.612 480.86C215.564 475.663 213.772 469.053 208.591 466.062 203.413 463.075 196.794 464.823 193.767 469.981L185.609 484.123C171.15 509.15 153.68 532.316 133.593 553.099 132.976 553.754 132.438 554.483 131.995 555.274L110.237 592.958C107.27 598.15 109.047 604.764 114.22 607.766L227.284 673.04C232.491 676.041 239.144 674.258 242.145 669.058L261.086 636.245 261.086 663.617C261.086 666.503 262.232 669.272 264.272 671.31 266.312 673.35 269.08 674.497 271.965 674.497L315.481 674.497C316.374 674.497 317.258 674.385 318.123 674.171 346.161 667.163 374.951 663.617 403.853 663.617L511.303 663.617C513.658 663.617 515.946 662.856 517.83 661.442L558.442 630.981 565.697 630.981C565.697 633.866 566.844 636.634 568.884 638.674 570.924 640.714 573.691 641.86 576.577 641.86L630.971 641.86C633.857 641.86 636.624 640.714 638.664 638.674 640.704 636.634 641.851 633.866 641.851 630.981L641.851 565.707C641.851 562.822 640.704 560.054 638.664 558.014 636.624 555.974 633.857 554.828 630.971 554.828L576.577 554.828C570.569 554.828 565.697 559.7 565.697 565.707L558.442 565.707 517.83 535.246C515.946 533.833 513.658 533.07 511.303 533.07L478.666 533.07C472.658 533.07 467.787 537.941 467.787 543.949 467.787 549.957 472.658 554.828 478.666 554.828L500.423 554.828 500.423 641.86 403.853 641.86C377.802 641.918 351.833 644.686 326.36 650.126L326.36 546.562C351.833 552.001 377.802 554.77 403.853 554.828L435.15 554.828C441.158 554.828 446.029 549.956 446.029 543.949 446.029 537.941 441.158 533.07 435.15 533.07L403.853 533.07C374.951 533.07 346.161 529.524 318.123 522.516 317.258 522.303 316.374 522.19 315.481 522.19L314.393 522.19 348.827 462.55 621.174 535.527C622.092 535.774 623.039 535.895 623.991 535.895 628.916 535.9 633.224 532.593 634.501 527.839L686.817 332.601C688.376 326.793 684.933 320.828 679.124 319.274 673.32 317.715 667.356 321.158 665.798 326.962L651.31 381.085C649.969 380.979 648.644 380.76 647.283 380.76 636.944 380.74 626.866 384.014 618.503 390.093 610.145 396.179 603.934 404.761 600.767 414.606 595.225 413.663 589.591 413.352 583.977 413.678L589.776 403.624C595.779 393.106 598.284 380.949 596.925 368.914L701.82 174.187 706.423 175.415 677.05 284.913 677.05 284.909C676.302 287.697 676.691 290.669 678.133 293.165 679.575 295.667 681.95 297.493 684.739 298.235 685.661 298.483 686.613 298.605 687.569 298.61 692.49 298.6 696.798 295.292 698.065 290.533L730.22 170.539 730.225 170.539C730.974 167.75 730.581 164.783 729.138 162.282 727.695 159.785 725.321 157.959 722.532 157.212L712.406 154.501 757.51 70.7967 757.51 70.8017C761.647 63.1912 762.644 54.2644 760.279 45.9305 757.918 37.5964 752.386 30.5195 744.867 26.2177ZM620.102 576.581 620.102 620.097 587.466 620.097 587.466 576.581ZM554.828 587.461 565.707 587.461 565.707 609.218 554.828 609.218C552.472 609.218 550.186 609.981 548.301 611.394L522.192 630.976 522.192 565.702 548.301 585.284C550.186 586.698 552.472 587.461 554.828 587.461ZM624.964 271.037 614.663 290.196 581.418 271.008 592.851 252.513ZM522.624 324.782C521.187 325.389 519.851 326.141 518.466 326.861 518.316 326.025 518.282 325.185 518.054 324.349L518.058 324.344C515.834 315.972 510.346 308.837 502.829 304.534L493.397 299.095C486.636 295.209 479.225 292.571 471.526 291.319 472.667 276.292 468.592 261.339 460.001 248.964 451.405 236.589 438.812 227.555 424.333 223.38L440.501 163.079C446.597 167.27 453.367 170.387 460.516 172.292L451.997 203.841 452.002 203.841C449.088 215.001 450.696 226.857 456.475 236.837 462.255 246.818 471.735 254.116 482.862 257.148 494.014 260.139 505.893 258.576 515.893 252.805 525.887 247.036 533.182 237.532 536.17 226.381L548.661 179.723C552.799 179.062 556.855 177.945 560.749 176.391 563.974 180.582 567.792 184.284 572.084 187.382 574.425 189.111 577.359 189.829 580.234 189.383 583.11 188.931 585.688 187.343 587.383 184.983 589.083 182.617 589.763 179.669 589.273 176.803 588.787 173.934 587.164 171.379 584.78 169.713 580.351 166.497 576.781 162.243 574.392 157.323 573.002 154.493 570.458 152.409 567.412 151.598 564.367 150.791 561.123 151.345 558.515 153.113 553.071 156.726 546.679 158.65 540.143 158.64 535.218 158.64 530.905 161.952 529.633 166.712L515.165 220.771 515.165 220.766C513.655 226.318 510.006 231.043 505.023 233.908 500.041 236.779 494.121 237.555 488.565 236.074 482.994 234.559 478.239 230.907 475.34 225.914 472.44 220.916 471.624 214.982 473.071 209.387L484.714 166.308C485.568 163.152 484.957 159.775 483.047 157.119 481.139 154.462 478.133 152.807 474.868 152.612 471.931 152.438 469.012 151.971 466.166 151.218 457.078 148.829 449.046 143.491 443.32 136.041 440.794 132.763 436.627 131.204 432.567 132.015 428.512 132.831 425.263 135.877 424.194 139.873L393.223 255.526C391.693 261.355 385.729 264.837 379.906 263.306 374.082 261.777 370.601 255.813 372.126 249.989L403.131 134.346C403.88 131.559 403.49 128.587 402.044 126.085 400.601 123.584 398.222 121.763 395.433 121.019 389.785 119.466 384.662 116.425 380.59 112.215 376.521 108.004 373.656 102.778 372.29 97.086 371.353 93.2007 368.366 90.1459 364.506 89.1211 360.645 88.0963 356.536 89.2716 353.797 92.1807 352.189 93.8565 350.397 95.3426 348.455 96.6149 346.259 98.0817 344.666 100.301 343.985 102.851L311.945 222.583C310.449 228.149 306.807 232.894 301.819 235.779 296.831 238.664 290.901 239.45 285.335 237.969 279.76 236.453 275.005 232.797 272.106 227.799 269.211 222.802 268.399 216.862 269.852 211.272L273.281 198.586 275.511 190.32C277.079 184.535 273.674 178.571 267.895 176.979 262.334 175.483 257.589 171.841 254.71 166.853 251.825 161.865 251.042 155.94 252.524 150.369L266.56 97.8243 266.555 97.8243C268.104 92.0205 264.66 86.0615 258.858 84.5072 251.261 82.5208 244.651 77.8341 240.256 71.3306 235.866 64.8225 233.99 56.9405 234.987 49.1498L627.723 154.385ZM513.202 386.662 513.207 386.662C509.773 377.856 510.327 367.996 514.722 359.629 519.113 351.266 526.917 345.214 536.116 343.043 545.314 340.873 555 342.796 562.672 348.313 569.272 353.408 573.764 360.756 575.294 368.954 576.818 377.153 575.274 385.622 570.951 392.753L550.131 428.819 550.127 428.819C546.659 434.836 541.36 439.591 535.003 442.388 528.645 445.186 521.564 445.88 514.784 444.375 521.292 425.59 520.733 405.069 513.206 386.663ZM416.305 458.113 352.751 441.087 347.705 399.201 362.207 374.073 371.629 379.513 371.624 379.513C386.627 388.182 404.46 390.528 421.192 386.04 437.922 381.547 452.187 370.59 460.832 355.579L470.264 361.018C476.276 364.481 483.241 365.914 490.132 365.098 488.35 374.966 489.335 385.131 492.982 394.471 494.027 397.224 494.896 400.037 495.59 402.893 493.546 402.814 491.536 402.523 489.554 402.523 472.944 402.489 456.776 407.91 443.546 417.952 430.312 427.996 420.744 442.105 416.305 458.113ZM363.664 349.79 335.378 333.471 335.378 333.476C338.263 328.479 343.013 324.832 348.589 323.336 354.164 321.845 360.099 322.626 365.096 325.511L393.381 341.829C398.379 344.715 404.319 345.497 409.894 344.006 415.465 342.51 420.22 338.862 423.105 333.864 428.874 323.875 438.378 316.585 449.525 313.598 460.666 310.611 472.54 312.175 482.536 317.939L491.968 323.379C497.13 326.405 498.878 333.024 495.887 338.202 492.9 343.384 486.29 345.176 481.088 342.224L471.657 336.783C466.665 333.893 460.724 333.112 455.15 334.603 449.579 336.094 444.824 339.741 441.939 344.734 436.165 354.729 426.661 362.023 415.515 365.011 404.368 367.998 392.488 366.434 382.492 360.659L363.663 349.781ZM363.98 196.39C362.065 195.68 360.162 194.899 358.235 194.389L358.235 194.394C353.154 193.009 347.943 192.174 342.688 191.903L361.181 122.927C366.111 129.313 372.41 134.52 379.613 138.157ZM216.249 71.4867C217.298 74.4542 218.595 77.3245 220.129 80.0684 225.438 89.3642 233.393 96.8681 242.976 101.623L231.436 144.692C228.415 155.834 229.979 167.722 235.787 177.698L235.938 177.927C223.214 168.102 207.25 163.439 191.238 164.872ZM292.305 296.452C289.818 292.479 285.073 290.541 280.523 291.644 273.447 293.47 266.026 293.47 258.948 291.644 256.029 290.837 253.194 289.778 250.464 288.477 247.545 287.117 244.179 287.117 241.266 288.472 238.352 289.832 236.185 292.41 235.351 295.514L219.566 354.427C218.483 358.565 215.783 362.096 212.072 364.218 206.356 367.578 199.173 367.146 193.904 363.12 188.629 359.098 186.317 352.284 188.051 345.889L203.827 287.036 203.827 287.031C204.672 283.878 204.055 280.508 202.146 277.861 200.238 275.21 197.241 273.553 193.978 273.353 191.039 273.189 188.12 272.722 185.274 271.956 177.776 269.974 170.967 265.952 165.618 260.333L184.949 188.197C192.418 185.947 200.368 185.846 207.891 187.9 218.887 190.813 228.279 197.973 234.001 207.798 235.958 211.129 239.527 213.174 243.394 213.174 244.895 213.15 246.381 212.805 247.745 212.174 246.603 222.504 249.192 232.897 255.035 241.489 260.883 250.08 269.606 256.306 279.629 259.04 290.776 262.027 302.655 260.468 312.654 254.703 322.649 248.934 329.944 239.429 332.934 228.283L336.776 213.956C342.089 213.636 347.422 214.132 352.595 215.413 354.548 215.957 356.456 216.632 358.317 217.439L351.07 244.461C348.909 252.833 350.133 261.721 354.48 269.196 358.826 276.67 365.942 282.135 374.286 284.398 376.976 285.117 379.75 285.482 382.532 285.487 389.734 285.472 396.733 283.097 402.454 278.721 408.175 274.345 412.298 268.216 414.203 261.271L418.695 244.515C428.558 247.429 437.077 253.733 442.746 262.319 448.408 270.901 450.861 281.211 449.666 291.425 430.575 294.693 413.926 306.286 404.236 323.061L375.952 306.743C366.723 301.366 355.829 299.608 345.378 301.804 334.932 303.993 325.666 309.991 319.381 318.621 308.157 314.42 298.637 306.626 292.305 296.45ZM303.043 385.15 303.038 385.15C305.209 384.226 307.021 382.624 308.197 380.579L324.515 352.294 343.358 363.173 327.04 391.459C325.864 393.499 325.383 395.864 325.67 398.205L329.566 430.604 272.994 397.967ZM228.74 648.756 134.531 594.362 145.41 575.519 239.619 629.913ZM282.626 581.07C287.487 570.278 292.751 559.661 298.672 549.399L301.814 543.96 304.606 543.96 304.606 652.739 282.848 652.739 282.848 582.463C282.805 581.993 282.732 581.526 282.621 581.07ZM605.738 438.362 605.733 438.362C608.982 439.494 612.576 439.027 615.422 437.1 618.272 435.171 620.04 432.004 620.191 428.571 620.468 421.888 623.207 415.545 627.889 410.772 632.571 405.993 638.855 403.123 645.529 402.71L616.332 511.693 437.344 463.752C440.835 451.095 448.835 440.163 459.84 433.009 470.845 425.856 484.09 422.98 497.072 424.923 496.328 431.873 494.172 438.599 490.728 444.68 489.257 447.181 488.844 450.163 489.587 452.971 490.325 455.772 492.151 458.168 494.668 459.62 507.159 466.827 522.005 468.785 535.944 465.045 549.877 461.309 561.758 452.193 568.968 439.697L569.722 438.414 569.717 438.414C581.363 434.252 594.092 434.233 605.747 438.361ZM575.277 330.581 575.272 330.581C567.904 325.429 559.376 322.185 550.443 321.14L569.949 289.592 604.305 309.426 586.661 342.17 586.661 342.165C583.515 337.727 579.672 333.816 575.292 330.581Z" fill="#0D856E" transform="matrix(1 0 0 1.00086 -152.161 646.229)"/><path d="M36.444-2.1758C34.5644-1.20446 32.6024-0.471091 30.5576 0.0193957 28.5227 0.524491 26.4052 0.777045 24.2051 0.777045 17.5999 0.777045 12.3596-1.06853 8.48835-4.75955 4.62724-8.45069 2.69923-13.4628 2.69923-19.7962 2.69923-26.1296 4.62736-31.1414 8.48835-34.8328 12.3591-38.524 17.5995-40.3693 24.2051-40.3693 26.4051-40.3693 28.5227-40.1217 30.5576-39.6311 32.6023-39.1358 34.5644-38.3976 36.444-37.4166L36.444-29.2184C34.5403-30.5103 32.6654-31.4574 30.8297-32.0546 28.9889-32.6618 27.0511-32.9677 25.0211-32.9677 21.3688-32.9677 18.4985-31.7925 16.4149-29.4516 14.3265-27.1203 13.2873-23.9004 13.2873-19.7965 13.2873-15.7022 14.3266-12.4824 16.4149-10.1414 18.4985-7.81018 21.3688-6.64458 25.0211-6.64458 27.0511-6.64458 28.9889-6.94083 30.8297-7.5382 32.6655-8.14528 34.5403-9.09719 36.444-10.394Z" fill="#0D856E" transform="matrix(1 0 0 1.00086 -65.1283 1506.4)"/><path d="M26.6728-21.6411C25.8277-22.0296 24.9923-22.3114 24.1668-22.4959 23.3508-22.6902 22.5253-22.7873 21.6995-22.7873 19.2517-22.7873 17.3673-22.0005 16.0464-20.4367 14.735-18.868 14.0843-16.6193 14.0843-13.6955L14.0843 0.000770854 4.5652 0.000770854 4.5652-29.7418 14.0843-29.7418 14.0843-24.8656C15.2985-26.8083 16.6971-28.2264 18.2805-29.1201 19.8734-30.0137 21.7772-30.4605 23.9919-30.4605 24.3028-30.4605 24.6427-30.4459 25.0215-30.4217 25.3955-30.3926 25.9346-30.3343 26.634-30.2469Z" fill="#0D856E" transform="matrix(1 0 0 1.00086 -25.2068 1506.4)"/><path d="M34.2682-14.9583 34.2682-12.2386 12.0241-12.2386C12.2572-10.0093 13.0585-8.33865 14.433-7.22651 15.8172-6.10946 17.755-5.55574 20.2417-5.55574 22.2329-5.55574 24.2824-5.84715 26.3804-6.42994 28.4785-7.02245 30.635-7.92576 32.8495-9.13029L32.8495-1.80644C30.6058-0.951657 28.362-0.310604 26.1085 0.116847 23.8549 0.553945 21.6063 0.777356 19.3673 0.777356 13.9764 0.777356 9.78997-0.587428 6.79868-3.32173 3.81673-6.06571 2.33046-9.90743 2.33046-14.8417 2.33046-19.6984 3.79235-23.511 6.72085-26.2841 9.65917-29.067 13.6951-30.4609 18.8238-30.4609 23.4959-30.4609 27.2403-29.0476 30.0523-26.2259 32.8595-23.4139 34.2679-19.6597 34.2679-14.9584ZM24.4965-18.1054C24.4965-19.9169 23.9623-21.3739 22.9035-22.4764 21.8545-23.5885 20.4801-24.1472 18.7851-24.1472 16.9298-24.1472 15.4292-23.6274 14.278-22.593 13.1368-21.5537 12.4229-20.0578 12.1411-18.1054Z" fill="#0D856E" transform="matrix(1 0 0 1.00086 1.61628 1506.4)"/><path d="M17.8926-13.3855C15.9109-13.3855 14.42-13.0455 13.4243-12.3753 12.4238-11.7002 11.9285-10.7095 11.9285-9.40305 11.9285-8.19858 12.3267-7.2515 13.1329-6.5668 13.9342-5.89172 15.0563-5.55661 16.4938-5.55661 18.281-5.55661 19.7817-6.19769 21.0007-7.4799 22.2295-8.762 22.8463-10.3647 22.8463-12.2977L22.8463-13.3856ZM32.4244-16.9794 32.4244-0.000745987 22.847-0.000745987 22.847-4.41065C21.5649-2.60884 20.1273-1.29267 18.5342-0.466988 16.9412 0.358695 15.0034 0.776325 12.7255 0.776325 9.64151 0.776325 7.13549-0.122168 5.20737-1.92402 3.28893-3.72098 2.3322-6.0522 2.3322-8.91766 2.3322-12.4145 3.52695-14.9691 5.92613-16.5912 8.33504-18.2232 12.1039-19.0391 17.2326-19.0391L22.8469-19.0391 22.8469-19.7967C22.8469-21.2974 22.2494-22.4 21.0596-23.0993 19.8794-23.7985 18.0291-24.1483 15.5035-24.1483 13.4686-24.1483 11.5793-23.9394 9.83087-23.5266 8.08252-23.1235 6.45055-22.5164 4.93533-21.7005L4.93533-28.9466C6.97996-29.4517 9.02471-29.8257 11.0742-30.0733 13.1334-30.3308 15.183-30.4619 17.2325-30.4619 22.604-30.4619 26.4796-29.3982 28.8497-27.2759 31.2296-25.1633 32.4243-21.7296 32.4243-16.9797Z" fill="#0D856E" transform="matrix(1 0 0 1.00086 38.5086 1506.4)"/><path d="M14.9583-38.1934 14.9583-29.7426 24.7493-29.7426 24.7493-22.9432 14.9583-22.9432 14.9583-10.3348C14.9583-8.94576 15.2303-8.00842 15.7742-7.51794 16.3182-7.03712 17.4061-6.79915 19.0379-6.79915L23.9335-6.79915 23.9335 0.000273529 15.7742 0.000273529C12.0152 0.000273529 9.35363-0.781659 7.78979-2.35034 6.2211-3.91418 5.43918-6.57561 5.43918-10.3348L5.43918-22.9432 0.718449-22.9432 0.718449-29.7426 5.43918-29.7426 5.43918-38.1933Z" fill="#0D856E" transform="matrix(1 0 0 1.00086 75.2159 1506.4)"/><path d="M34.2682-14.9583 34.2682-12.2386 12.0241-12.2386C12.2572-10.0093 13.0585-8.33865 14.433-7.22651 15.8172-6.10946 17.755-5.55574 20.2417-5.55574 22.2329-5.55574 24.2824-5.84715 26.3804-6.42994 28.4785-7.02245 30.635-7.92576 32.8495-9.13029L32.8495-1.80644C30.6058-0.951657 28.362-0.310604 26.1085 0.116847 23.8549 0.553945 21.6063 0.777356 19.3673 0.777356 13.9764 0.777356 9.78997-0.587428 6.79868-3.32173 3.81673-6.06571 2.33046-9.90743 2.33046-14.8417 2.33046-19.6984 3.79235-23.511 6.72085-26.2841 9.65917-29.067 13.6951-30.4609 18.8238-30.4609 23.4959-30.4609 27.2403-29.0476 30.0523-26.2259 32.8595-23.4139 34.2679-19.6597 34.2679-14.9584ZM24.4965-18.1054C24.4965-19.9169 23.9623-21.3739 22.9035-22.4764 21.8545-23.5885 20.4801-24.1472 18.7851-24.1472 16.9298-24.1472 15.4292-23.6274 14.278-22.593 13.1368-21.5537 12.4229-20.0578 12.1411-18.1054Z" fill="#0D856E" transform="matrix(1 0 0 1.00086 101.218 1506.4)"/><path d="M24.8079-25.3909 24.8079-41.3203 34.3658-41.3203 34.3658 0 24.8079 0 24.8079-4.29328C23.4965-2.54494 22.0542-1.26271 20.4757-0.446722 18.8923 0.369202 17.0662 0.77717 14.9974 0.77717 11.3306 0.77717 8.31937-0.679868 5.96392-3.59382 3.61816-6.5079 2.44772-10.2572 2.44772-14.842 2.44772-19.4267 3.61817-23.1759 5.96392-26.0901 8.31937-29.0042 11.3306-30.461 14.9974-30.461 17.0565-30.461 18.873-30.0434 20.4562-29.2177 22.0492-28.4019 23.4965-27.1245 24.8079-25.3907ZM18.533-6.13948C20.5776-6.13948 22.1317-6.88255 23.1954-8.37358 24.2687-9.85971 24.8079-12.0161 24.8079-14.8427 24.8079-17.6789 24.2687-19.8401 23.1954-21.3313 22.1318-22.8174 20.5776-23.5654 18.533-23.5654 16.5125-23.5654 14.9633-22.8174 13.8899-21.3313 12.8262-19.8402 12.297-17.679 12.297-14.8427 12.297-12.0161 12.8264-9.85971 13.8899-8.37358 14.9633-6.88261 16.5125-6.13948 18.533-6.13948Z" fill="#0D856E" transform="matrix(1 0 0 1.00086 138.109 1506.4)"/><path d="M20.3978-6.13885C22.4279-6.13885 23.982-6.88193 25.0602-8.37296 26.1335-9.8591 26.6727-12.0155 26.6727-14.842 26.6727-17.6783 26.1335-19.8395 25.0602-21.3307 23.982-22.8168 22.4279-23.5648 20.3978-23.5648 18.3628-23.5648 16.8039-22.812 15.716-21.3112 14.6281-19.8203 14.0841-17.6639 14.0841-14.8421 14.0841-12.0302 14.6281-9.87376 15.716-8.37308 16.8039-6.8821 18.3628-6.13897 20.3978-6.13897ZM14.0841-25.3903C15.3906-27.1241 16.8427-28.4015 18.4357-29.2173 20.0286-30.043 21.8597-30.4606 23.9335-30.4606 27.5954-30.4606 30.6066-29.0037 32.967-26.0896 35.3224-23.1756 36.5027-19.4263 36.5027-14.8415 36.5027-10.2568 35.3225-6.5075 32.967-3.59342 30.6066-0.679345 27.5954 0.777568 23.9335 0.777568 21.8597 0.777568 20.0287 0.359889 18.4357-0.465745 16.8426-1.29138 15.3906-2.56868 14.0841-4.29279L14.0841 0.000497325 4.56506 0.000497325 4.56506-41.3198 14.0841-41.3198Z" fill="#0D856E" transform="matrix(1 0 0 1.00086 195.983 1506.4)"/><path d="M0.66051-29.7425 10.1796-29.7425 18.164-9.55859 24.9634-29.7425 34.4825-29.7425 21.9723 2.81734C20.7144 6.12965 19.2428 8.44134 17.5623 9.75266 15.8916 11.0737 13.6819 11.7343 10.9379 11.7343L5.44006 11.7343 5.44006 5.4983 8.41231 5.4983C10.0296 5.4983 11.2001 5.23604 11.9285 4.72123 12.6668 4.21614 13.2398 3.29341 13.6575 1.96257L13.9101 1.14665Z" fill="#0D856E" transform="matrix(1 0 0 1.00086 234.919 1506.4)"/><path d="M0.271975-39.6505 36.8142-39.6505 36.8142-31.9186 23.6624-31.9186 23.6624-0.000248663 13.4439-0.000248663 13.4439-31.9186 0.272223-31.9186Z" fill="#0D856E" transform="matrix(1 0 0 1.00086 289.313 1506.4)"/><path d="M4.56532-29.7425 14.0844-29.7425 14.0844 0 4.56532 0ZM4.56532-41.3209 14.0844-41.3209 14.0844-33.5695 4.56532-33.5695Z" fill="#0D856E" transform="matrix(1 0 0 1.00086 326.418 1506.4)"/><path d="M14.0843-4.29328 14.0843 11.3066 4.5652 11.3066 4.5652-29.7426 14.0843-29.7426 14.0843-25.3911C15.3907-27.1248 16.8429-28.4022 18.4359-29.2181 20.0287-30.0437 21.8598-30.4614 23.9336-30.4614 27.5956-30.4614 30.6067-29.0044 32.9671-26.0905 35.3225-23.1763 36.5028-19.427 36.5028-14.8424 36.5028-10.2576 35.3226-6.50824 32.9671-3.59417 30.6067-0.680092 27.5956 0.776822 23.9336 0.776822 21.8598 0.776822 20.0289 0.359143 18.4359-0.466491 16.8427-1.29213 15.3907-2.56943 14.0843-4.29353ZM20.3979-23.5646C18.3629-23.5646 16.804-22.8118 15.7161-21.3111 14.6282-19.8202 14.0843-17.6638 14.0843-14.842 14.0843-12.03 14.6282-9.87364 15.7161-8.37296 16.804-6.88198 18.3629-6.13885 20.3979-6.13885 22.428-6.13885 23.9821-6.88193 25.0604-8.37296 26.1336-9.8591 26.6728-12.0155 26.6728-14.842 26.6728-17.6783 26.1336-19.8395 25.0604-21.3307 23.9821-22.8168 22.428-23.5648 20.3979-23.5648Z" fill="#0D856E" transform="matrix(1 0 0 1.00086 345.064 1506.4)"/><path d="M14.0843-4.29328 14.0843 11.3066 4.5652 11.3066 4.5652-29.7426 14.0843-29.7426 14.0843-25.3911C15.3907-27.1248 16.8429-28.4022 18.4359-29.2181 20.0287-30.0437 21.8598-30.4614 23.9336-30.4614 27.5956-30.4614 30.6067-29.0044 32.9671-26.0905 35.3225-23.1763 36.5028-19.427 36.5028-14.8424 36.5028-10.2576 35.3226-6.50824 32.9671-3.59417 30.6067-0.680092 27.5956 0.776822 23.9336 0.776822 21.8598 0.776822 20.0289 0.359143 18.4359-0.466491 16.8427-1.29213 15.3907-2.56943 14.0843-4.29353ZM20.3979-23.5646C18.3629-23.5646 16.804-22.8118 15.7161-21.3111 14.6282-19.8202 14.0843-17.6638 14.0843-14.842 14.0843-12.03 14.6282-9.87364 15.7161-8.37296 16.804-6.88198 18.3629-6.13885 20.3979-6.13885 22.428-6.13885 23.9821-6.88193 25.0604-8.37296 26.1336-9.8591 26.6728-12.0155 26.6728-14.842 26.6728-17.6783 26.1336-19.8395 25.0604-21.3307 23.9821-22.8168 22.428-23.5648 20.3979-23.5648Z" fill="#0D856E" transform="matrix(1 0 0 1.00086 384.005 1506.4)"/><path d="M17.8926-13.3855C15.9109-13.3855 14.42-13.0455 13.4243-12.3753 12.4238-11.7002 11.9285-10.7095 11.9285-9.40305 11.9285-8.19858 12.3267-7.2515 13.1329-6.5668 13.9342-5.89172 15.0563-5.55661 16.4938-5.55661 18.281-5.55661 19.7817-6.19769 21.0007-7.4799 22.2295-8.762 22.8463-10.3647 22.8463-12.2977L22.8463-13.3856ZM32.4244-16.9794 32.4244-0.000745987 22.847-0.000745987 22.847-4.41065C21.5649-2.60884 20.1273-1.29267 18.5342-0.466988 16.9412 0.358695 15.0034 0.776325 12.7255 0.776325 9.64151 0.776325 7.13549-0.122168 5.20737-1.92402 3.28893-3.72098 2.3322-6.0522 2.3322-8.91766 2.3322-12.4145 3.52695-14.9691 5.92613-16.5912 8.33504-18.2232 12.1039-19.0391 17.2326-19.0391L22.8469-19.0391 22.8469-19.7967C22.8469-21.2974 22.2494-22.4 21.0596-23.0993 19.8794-23.7985 18.0291-24.1483 15.5035-24.1483 13.4686-24.1483 11.5793-23.9394 9.83087-23.5266 8.08252-23.1235 6.45055-22.5164 4.93533-21.7005L4.93533-28.9466C6.97996-29.4517 9.02471-29.8257 11.0742-30.0733 13.1334-30.3308 15.183-30.4619 17.2325-30.4619 22.604-30.4619 26.4796-29.3982 28.8497-27.2759 31.2296-25.1633 32.4243-21.7296 32.4243-16.9797Z" fill="#0D856E" transform="matrix(1 0 0 1.00086 422.942 1506.4)"/><path d="M1.90376-29.7425 11.1509-29.7425 16.1436-9.24776 21.1751-29.7425 29.1013-29.7425 34.0938-9.46161 39.1254-29.7425 48.3726-29.7425 40.5241 0 30.1502 0 25.1186-20.4562 20.126 0 9.75205 0Z" fill="#0D856E" transform="matrix(1 0 0 1.00086 459.653 1506.4)"/><path d="M17.8926-13.3855C15.9109-13.3855 14.42-13.0455 13.4243-12.3753 12.4238-11.7002 11.9285-10.7095 11.9285-9.40305 11.9285-8.19858 12.3267-7.2515 13.1329-6.5668 13.9342-5.89172 15.0563-5.55661 16.4938-5.55661 18.281-5.55661 19.7817-6.19769 21.0007-7.4799 22.2295-8.762 22.8463-10.3647 22.8463-12.2977L22.8463-13.3856ZM32.4244-16.9794 32.4244-0.000745987 22.847-0.000745987 22.847-4.41065C21.5649-2.60884 20.1273-1.29267 18.5342-0.466988 16.9412 0.358695 15.0034 0.776325 12.7255 0.776325 9.64151 0.776325 7.13549-0.122168 5.20737-1.92402 3.28893-3.72098 2.3322-6.0522 2.3322-8.91766 2.3322-12.4145 3.52695-14.9691 5.92613-16.5912 8.33504-18.2232 12.1039-19.0391 17.2326-19.0391L22.8469-19.0391 22.8469-19.7967C22.8469-21.2974 22.2494-22.4 21.0596-23.0993 19.8794-23.7985 18.0291-24.1483 15.5035-24.1483 13.4686-24.1483 11.5793-23.9394 9.83087-23.5266 8.08252-23.1235 6.45055-22.5164 4.93533-21.7005L4.93533-28.9466C6.97996-29.4517 9.02471-29.8257 11.0742-30.0733 13.1334-30.3308 15.183-30.4619 17.2325-30.4619 22.604-30.4619 26.4796-29.3982 28.8497-27.2759 31.2296-25.1633 32.4243-21.7296 32.4243-16.9797Z" fill="#0D856E" transform="matrix(1 0 0 1.00086 509.89 1506.4)"/><path d="M34.482-18.1051 34.482 0 24.9046 0 24.9046-13.8704C24.9046-16.4347 24.8464-18.2026 24.7299-19.1738 24.623-20.1452 24.4287-20.8641 24.147-21.3303 23.7682-21.952 23.2631-22.4279 22.6317-22.7678 21.9955-23.1175 21.2718-23.2923 20.4558-23.2923 18.4743-23.2923 16.9104-22.5249 15.774-20.9999 14.6473-19.47 14.0839-17.3477 14.0839-14.628L14.0839 0.000895184 4.56486 0.000895184 4.56486-29.7417 14.0839-29.7417 14.0839-25.39C15.5069-27.1239 17.0222-28.4013 18.6297-29.2171 20.247-30.0427 22.0343-30.4604 23.9915-30.4604 27.4204-30.4604 30.0235-29.4016 31.8009-27.2937 33.5883-25.1957 34.4818-22.1312 34.4818-18.105Z" fill="#0D856E" transform="matrix(1 0 0 1.00086 546.601 1506.4)"/><path d="M32.5984-38.4072 32.5984-30.0148C30.408-30.9862 28.2759-31.7147 26.207-32.21 24.1331-32.7151 22.1759-32.9677 20.3401-32.9677 17.9021-32.9677 16.0953-32.6277 14.92-31.9574 13.7544-31.2824 13.1716-30.2333 13.1716-28.8103 13.1716-27.7467 13.5651-26.9164 14.3567-26.3237 15.1434-25.741 16.5762-25.2358 18.65-24.8084L23.0016-23.9342C27.4017-23.0406 30.5391-21.6904 32.4041-19.8934 34.269-18.0916 35.2016-15.5274 35.2016-12.2005 35.2016-7.81977 33.9-4.56577 31.2968-2.42877 28.7034-0.291756 24.7403 0.776622 19.4077 0.776622 16.8919 0.776622 14.3664 0.533791 11.8311 0.0578389 9.30572-0.418113 6.78018-1.13205 4.25464-2.07916L4.25464-10.7046C6.78006-9.35453 9.2182-8.33949 11.5785-7.65467 13.9485-6.9796 16.2312-6.64448 18.4361-6.64448 20.6605-6.64448 22.3653-7.0136 23.5453-7.75181 24.7353-8.49974 25.3327-9.56331 25.3327-10.9378 25.3327-12.1811 24.9295-13.1379 24.1282-13.813 23.322-14.4832 21.7192-15.0854 19.3104-15.6196L15.3473-16.4938C11.3842-17.3485 8.47998-18.6987 6.64411-20.554 4.81792-22.419 3.90496-24.9249 3.90496-28.0721 3.90496-32.0206 5.17737-35.0561 7.732-37.1833 10.2818-39.3056 13.9485-40.3692 18.7276-40.3692 20.9034-40.3692 23.1423-40.2042 25.4492-39.8836 27.7513-39.5582 30.1359-39.0676 32.5983-38.4072Z" fill="#0D856E" transform="matrix(1 0 0 1.00086 604.26 1506.4)"/><path d="M18.7268-23.6614C16.6142-23.6614 15.0017-22.9039 13.8895-21.3886 12.7871-19.8732 12.2383-17.6877 12.2383-14.8417 12.2383-11.9909 12.7871-9.81023 13.8895-8.29501 15.0017-6.77966 16.6142-6.0221 18.7268-6.0221 20.7957-6.0221 22.3789-6.77975 23.4669-8.29501 24.5645-9.81035 25.1182-11.991 25.1182-14.8417 25.1182-17.6878 24.5645-19.8734 23.4669-21.3886 22.3789-22.904 20.7957-23.6614 18.7268-23.6614ZM18.7268-30.4609C23.8409-30.4609 27.8379-29.0816 30.713-26.323 33.5883-23.5644 35.0259-19.7373 35.0259-14.8417 35.0259-9.95595 33.5884-6.12891 30.713-3.36055 27.8379-0.601888 23.8409 0.777319 18.7268 0.777319 13.5836 0.777319 9.56219-0.602012 6.66279-3.36055 3.77309-6.12891 2.33059-9.95595 2.33059-14.8417 2.33059-19.7373 3.77309-23.5643 6.66279-26.323 9.56219-29.0817 13.5836-30.4609 18.7268-30.4609Z" fill="#0D856E" transform="matrix(1 0 0 1.00086 643.437 1506.4)"/><path d="M18.7268-23.6614C16.6142-23.6614 15.0017-22.9039 13.8895-21.3886 12.7871-19.8732 12.2383-17.6877 12.2383-14.8417 12.2383-11.9909 12.7871-9.81023 13.8895-8.29501 15.0017-6.77966 16.6142-6.0221 18.7268-6.0221 20.7957-6.0221 22.3789-6.77975 23.4669-8.29501 24.5645-9.81035 25.1182-11.991 25.1182-14.8417 25.1182-17.6878 24.5645-19.8734 23.4669-21.3886 22.3789-22.904 20.7957-23.6614 18.7268-23.6614ZM18.7268-30.4609C23.8409-30.4609 27.8379-29.0816 30.713-26.323 33.5883-23.5644 35.0259-19.7373 35.0259-14.8417 35.0259-9.95595 33.5884-6.12891 30.713-3.36055 27.8379-0.601888 23.8409 0.777319 18.7268 0.777319 13.5836 0.777319 9.56219-0.602012 6.66279-3.36055 3.77309-6.12891 2.33059-9.95595 2.33059-14.8417 2.33059-19.7373 3.77309-23.5643 6.66279-26.323 9.56219-29.0817 13.5836-30.4609 18.7268-30.4609Z" fill="#0D856E" transform="matrix(1 0 0 1.00086 680.813 1506.4)"/></g></g></g></g><text fill="#0D856E" font-family="Montserrat Alternates,Montserrat Alternates_MSFontService,sans-serif" font-weight="700" font-size="92" transform="matrix(1 0 0 1 210.951 1651)">Art</text><g clip-path="url(#clip9)"><g clip-path="url(#clip10)"><g clip-path="url(#clip11)"><g clip-path="url(#clip12)"><path d="M178.033 165.316C181.405 165.316 184.641 163.976 187.025 161.591 189.41 159.208 190.75 155.971 190.75 152.6L190.75 89.0163C190.75 78.8998 194.768 69.1915 201.922 62.0396 209.075 54.8879 218.783 50.8672 228.898 50.8672L788.43 50.8672C798.546 50.8672 808.254 54.8865 815.406 62.0396 822.558 69.1928 826.578 78.9011 826.578 89.0163L826.578 228.899C826.578 235.921 832.273 241.616 839.295 241.616 846.317 241.616 852.012 235.921 852.012 228.899L852.012 89.0163C851.99 72.1607 845.284 55.9981 833.368 44.0765 821.446 32.1603 805.284 25.4565 788.428 25.4332L228.898 25.4332C212.042 25.456 195.879 32.1605 183.958 44.0765 172.042 55.9983 165.338 72.1607 165.314 89.0163L165.314 152.6C165.314 155.971 166.654 159.208 169.039 161.591 171.423 163.976 174.659 165.316 178.031 165.316Z" fill="#0D856E" transform="matrix(1.01162 0 0 1 -1973.83 587.356)"/><path d="M241.616 508.664 386.359 508.664 360.925 559.531 317.916 559.531C307.799 559.531 298.09 563.551 290.938 570.704 283.787 577.856 279.766 587.565 279.766 597.68L279.766 623.113C279.766 626.485 281.106 629.721 283.491 632.105 285.875 634.49 289.11 635.83 292.483 635.83L394.216 635.83C401.239 635.83 406.932 630.136 406.932 623.113 406.932 616.091 401.239 610.397 394.216 610.397L305.2 610.397 305.2 597.68C305.2 590.658 310.894 584.963 317.916 584.963L699.415 584.963C702.786 584.963 706.023 586.303 708.408 588.688 710.791 591.072 712.131 594.308 712.131 597.68L712.131 610.397 445.082 610.397C438.059 610.397 432.366 616.091 432.366 623.113 432.366 630.136 438.059 635.83 445.082 635.83L724.848 635.83C728.22 635.83 731.456 634.49 733.84 632.105 736.225 629.721 737.565 626.485 737.565 623.113L737.565 597.68C737.565 587.564 733.545 577.855 726.391 570.704 719.239 563.552 709.53 559.531 699.415 559.531L656.406 559.531 630.972 508.664 788.426 508.664C805.281 508.641 821.444 501.937 833.366 490.022 845.281 478.099 851.985 461.937 852.009 445.082L852.009 279.766C852.009 272.742 846.314 267.049 839.292 267.049 832.27 267.049 826.575 272.742 826.575 279.766L826.575 445.082C826.575 455.198 822.557 464.906 815.403 472.058 808.25 479.21 798.542 483.231 788.426 483.231L241.612 483.231C228.123 483.231 215.184 477.871 205.642 468.335 196.105 458.791 190.745 445.852 190.745 432.365L190.745 203.465C190.745 196.443 185.052 190.748 178.028 190.748 171.006 190.748 165.313 196.443 165.313 203.465L165.313 432.365C165.335 452.591 173.38 471.99 187.681 486.296 201.987 500.596 221.385 508.64 241.612 508.664ZM602.536 508.664 627.968 559.531 389.347 559.531 414.78 508.664Z" fill="#0D856E" transform="matrix(1.01162 0 0 1 -1973.83 587.356)"/><path d="M458.452 360.091C459.519 363.292 461.813 365.938 464.828 367.448 467.847 368.959 471.338 369.208 474.541 368.141L512.691 355.425C515.892 354.356 518.538 352.064 520.048 349.049 521.558 346.028 521.808 342.537 520.741 339.335L508.024 301.186C505.804 294.516 498.594 290.904 491.924 293.125 485.254 295.344 481.643 302.554 483.863 309.224L486.673 317.665 457.806 298.404 457.806 203.472C457.806 198.652 455.086 194.247 450.772 192.09L381.506 157.465 381.506 119.719 385.229 123.443 385.229 123.448C390.22 128.268 398.152 128.194 403.056 123.289 407.962 118.384 408.036 110.454 403.216 105.463L377.782 80.0296C372.815 75.0677 364.765 75.0677 359.797 80.0296L334.364 105.463C329.544 110.453 329.618 118.384 334.523 123.289 339.429 128.195 347.36 128.268 352.349 123.448L356.074 119.719 356.074 157.46 286.808 192.09C282.494 194.247 279.775 198.652 279.775 203.472L279.775 298.404 250.884 317.665 253.694 309.224C255.914 302.554 252.304 295.344 245.632 293.125 238.956 290.904 231.752 294.516 229.533 301.186L216.816 339.335C215.748 342.537 215.999 346.028 217.508 349.049 219.019 352.064 221.664 354.356 224.867 355.425L263.016 368.141C269.687 370.361 276.897 366.75 279.116 360.08 281.329 353.404 277.725 346.199 271.049 343.98L261.806 340.903 293.383 319.858 363.109 354.8C366.686 356.59 370.898 356.59 374.474 354.8L444.171 319.944 475.748 340.988 466.506 344.065C459.875 346.285 456.276 353.443 458.456 360.091ZM368.789 227.407 320.925 203.471 368.789 179.537 416.652 203.471ZM305.206 224.051 356.072 249.485 356.072 322.782 305.206 297.348ZM381.505 322.782 381.505 249.478 432.372 224.045 432.372 297.343Z" fill="#0D856E" transform="matrix(1.01162 0 0 1 -1973.83 587.356)"/><path d="M635.991 399.36C629.042 399.223 623.201 404.56 622.717 411.492 622.564 414.864 623.756 418.151 626.033 420.643 628.303 423.136 631.478 424.617 634.849 424.77 639.641 424.986 644.438 425.099 649.207 425.099L649.201 425.099C685.239 425.173 720.999 418.747 754.748 406.126 759.717 404.259 762.997 399.513 762.992 394.211L762.992 356.061C762.969 339.205 756.265 323.042 744.349 311.121 732.427 299.204 716.265 292.5 699.409 292.477L699.409 285.472C715.606 271.131 724.872 250.53 724.842 228.894L724.842 206.198C725.058 186.908 718.155 168.217 705.455 153.701 692.749 139.18 675.14 129.858 655.996 127.519 634.566 125.412 613.243 132.463 597.289 146.928 581.336 161.393 572.243 181.927 572.243 203.46L572.243 228.892C572.215 250.528 581.479 271.13 597.676 285.471L597.676 292.476C580.82 292.499 564.657 299.203 552.736 311.12 540.82 323.041 534.116 339.204 534.092 356.06L534.092 394.209C534.092 399.506 537.374 404.246 542.336 406.114 555.337 410.883 568.655 414.76 582.189 417.713 589.041 419.256 595.854 414.953 597.399 408.095 598.943 401.243 594.64 394.43 587.782 392.886 577.342 390.547 568.031 388.015 559.528 385.256L559.528 356.058C559.528 345.942 563.546 336.234 570.7 329.082 577.853 321.93 587.561 317.91 597.676 317.91L610.393 317.91C613.766 317.91 617.001 316.57 619.386 314.186 621.77 311.801 623.11 308.566 623.11 305.193L623.11 279.482C623.11 275.48 621.224 271.711 618.023 269.309 605.238 259.805 597.694 244.824 597.676 228.894L597.676 203.46C597.687 189.126 603.74 175.46 614.351 165.822 624.977 156.063 639.277 151.334 653.63 152.839 666.494 154.552 678.274 160.945 686.722 170.8 695.163 180.649 699.682 193.27 699.409 206.248L699.409 228.894C699.404 244.829 691.86 259.828 679.064 269.332 675.861 271.732 673.977 275.502 673.977 279.505L673.977 305.193C673.977 308.566 675.317 311.801 677.701 314.186 680.086 316.57 683.321 317.91 686.694 317.91L699.409 317.91C709.527 317.91 719.235 321.93 726.387 329.082 733.539 336.236 737.559 345.943 737.559 356.06L737.559 385.307C704.877 396.293 670.429 401.062 635.991 399.359Z" fill="#0D856E" transform="matrix(1.01162 0 0 1 -1973.83 587.356)"/><path d="M538.864 276.976C544.349 281.369 552.353 280.478 556.742 274.994 561.136 269.51 560.244 261.505 554.76 257.117 543.202 247.988 534.936 235.346 531.206 221.096 527.477 206.852 528.494 191.773 534.097 178.154 534.13 185.182 539.852 190.843 546.876 190.809 553.898 190.774 559.563 185.052 559.529 178.03L559.529 139.879C559.529 135.792 557.566 131.954 554.25 129.564 550.934 127.169 546.671 126.521 542.794 127.81L504.644 140.527C498.774 143.127 495.765 149.69 497.622 155.831 499.472 161.98 505.621 165.778 511.945 164.688 503.304 183.723 501.26 205.098 506.137 225.421 511.013 245.751 522.531 263.871 538.866 276.912Z" fill="#0D856E" transform="matrix(1.01162 0 0 1 -1973.83 587.356)"/><path d="M800.493 250.306C798.352 243.949 791.613 240.371 785.152 242.172 793.781 223.13 795.82 201.762 790.943 181.438 786.072 161.115 774.559 142.993 758.232 129.947 752.748 125.553 744.744 126.444 740.355 131.928 735.96 137.412 736.852 145.417 742.335 149.806 753.894 158.934 762.161 171.576 765.889 185.827 769.619 200.07 768.603 215.149 763 228.768 762.966 221.74 757.244 216.079 750.221 216.113 743.199 216.147 737.534 221.87 737.568 228.892L737.568 267.042C737.568 270.414 738.907 273.651 741.291 276.034 743.675 278.419 746.912 279.759 750.283 279.759 751.651 279.759 753.003 279.537 754.303 279.112L792.453 266.396C799.112 264.17 802.712 256.971 800.491 250.306Z" fill="#0D856E" transform="matrix(1.01162 0 0 1 -1973.83 587.356)"/><path d="M457.799 394.215C457.799 390.842 456.459 387.607 454.074 385.222 451.69 382.838 448.454 381.498 445.082 381.498L305.199 381.498C298.177 381.498 292.482 387.193 292.482 394.215 292.482 401.237 298.177 406.932 305.199 406.932L445.082 406.932C448.454 406.932 451.69 405.592 454.074 403.207 456.459 400.823 457.799 397.587 457.799 394.215Z" fill="#0D856E" transform="matrix(1.01162 0 0 1 -1973.83 587.356)"/><path d="M305.199 432.365C298.177 432.365 292.482 438.059 292.482 445.082 292.482 452.104 298.177 457.799 305.199 457.799L394.215 457.799C401.237 457.799 406.932 452.104 406.932 445.082 406.932 438.059 401.237 432.365 394.215 432.365Z" fill="#0D856E" transform="matrix(1.01162 0 0 1 -1973.83 587.356)"/><path d="M888.884 538.762C886.278 528.97 879.88 520.619 871.11 515.549 862.333 510.479 851.905 509.105 842.118 511.74 832.33 514.369 823.99 520.783 818.944 529.572L742.922 661.263 623.109 661.263C616.085 661.263 610.392 666.956 610.392 673.98L610.392 775.711C610.392 779.084 611.732 782.32 614.116 784.704 616.501 787.089 619.736 788.428 623.109 788.428L864.724 788.428C868.096 788.428 871.332 787.089 873.716 784.704 876.101 782.32 877.441 779.084 877.441 775.711L877.441 673.98C877.441 670.607 876.101 667.37 873.716 664.987 871.332 662.602 868.096 661.263 864.724 661.263L831.036 661.263 885.07 567.722C890.152 558.962 891.526 548.539 888.886 538.762ZM635.831 762.997 635.831 686.697 673.981 686.697 673.981 762.997ZM852.014 686.697 852.014 762.997 699.414 762.997 699.414 686.697 735.02 686.697 737.563 725.659C737.994 732.364 743.565 737.576 750.28 737.565 752.234 737.582 754.157 737.149 755.911 736.292L797.014 715.946C799.273 714.822 801.147 713.051 802.395 710.86L816.407 686.698ZM863.015 555.006 782.287 694.889 761.737 705.063 760.259 682.173 841 542.29C842.628 539.259 845.416 537.022 848.726 536.08 852.035 535.143 855.584 535.579 858.558 537.299 861.539 539.02 863.69 541.876 864.531 545.214 865.371 548.547 864.82 552.077 863.015 555.008Z" fill="#0D856E" transform="matrix(1.01162 0 0 1 -1973.83 587.356)"/><path d="M534.098 661.264 178.033 661.264C171.011 661.264 165.316 666.957 165.316 673.981L165.316 775.713C165.316 779.085 166.656 782.321 169.04 784.705 171.425 787.09 174.66 788.43 178.033 788.43L534.098 788.43C537.471 788.43 540.706 787.09 543.09 784.705 545.475 782.321 546.815 779.085 546.815 775.713L546.815 673.981C546.815 670.608 545.475 667.373 543.09 664.988 540.706 662.604 537.471 661.264 534.098 661.264ZM521.381 712.131 495.948 712.131 495.948 686.697 521.381 686.697ZM470.514 712.131 445.082 712.131 445.082 686.697 470.514 686.697ZM419.648 712.131 394.215 712.131 394.215 686.697 419.648 686.697ZM368.782 712.131 343.348 712.131 343.348 686.697 368.782 686.697ZM317.916 712.131 292.482 712.131 292.482 686.697 317.916 686.697ZM267.049 712.131 241.616 712.131 241.616 686.697 267.049 686.697ZM190.75 686.697 216.182 686.697 216.182 712.131 190.75 712.131ZM190.75 737.563 216.182 737.563 216.182 762.997 190.75 762.997ZM241.616 737.563 267.049 737.563 267.049 762.997 241.616 762.997ZM292.482 737.563 419.648 737.563 419.648 762.997 292.482 762.997ZM445.082 737.563 470.514 737.563 470.514 762.997 445.082 762.997ZM521.381 762.997 495.948 762.997 495.948 737.563 521.381 737.563Z" fill="#0D856E" transform="matrix(1.01162 0 0 1 -1973.83 587.356)"/><path d="M42.6-2.54332C40.4029-1.40791 38.1094-0.550665 35.7193 0.022672 33.3406 0.613086 30.8655 0.908301 28.2936 0.908301 20.5728 0.908301 14.4474-1.24902 9.92216-5.56352 5.40885-9.87815 3.15517-15.7368 3.15517-23.1401 3.15517-30.5433 5.409-36.4016 9.92216-40.7165 14.4468-45.0313 20.5723-47.1884 28.2936-47.1884 30.8653-47.1884 33.3406-46.8989 35.7193-46.3255 38.1092-45.7464 40.4029-44.8834 42.6-43.7368L42.6-34.1539C40.3746-35.6641 38.1832-36.7711 36.0372-37.4692 33.8856-38.1788 31.6205-38.5365 29.2475-38.5365 24.9783-38.5365 21.6232-37.1626 19.1878-34.4263 16.7466-31.7014 15.5317-27.9376 15.5317-23.1404 15.5317-18.3545 16.7466-14.5907 19.1878-11.8544 21.6232-9.12944 24.9783-7.76694 29.2475-7.76694 31.6205-7.76694 33.8856-8.11324 36.0372-8.81152 38.1833-9.52116 40.3746-10.6338 42.6-12.1497Z" fill="#0D856E" transform="matrix(1.01162 0 0 1 -1870.91 1591.97)"/><path d="M31.1783-25.2967C30.1904-25.7508 29.214-26.08 28.2488-26.2958 27.2952-26.5228 26.33-26.6363 25.3649-26.6363 22.5036-26.6363 20.301-25.7167 18.7568-23.8887 17.224-22.0551 16.4633-19.4266 16.4633-16.009L16.4633 0.000901063 5.33633 0.000901063 5.33633-34.7657 16.4633-34.7657 16.4633-29.0658C17.8826-31.3366 19.5177-32.9943 21.3683-34.039 23.2303-35.0835 25.4558-35.6058 28.0446-35.6058 28.4079-35.6058 28.8053-35.5887 29.2482-35.5603 29.6852-35.5262 30.3153-35.4581 31.1329-35.3559Z" fill="#0D856E" transform="matrix(1.01162 0 0 1 -1823.7 1591.97)"/><path d="M40.0566-17.485 40.0566-14.3058 14.0551-14.3058C14.3277-11.7 15.2644-9.74717 16.8709-8.44717 18.4889-7.14145 20.754-6.49419 23.6607-6.49419 25.9884-6.49419 28.3841-6.83482 30.8365-7.51606 33.289-8.20865 35.8096-9.26456 38.3984-10.6725L38.3984-2.11157C35.7756-1.11241 33.1527-0.36307 30.5186 0.136584 27.8844 0.647515 25.2559 0.908664 22.6388 0.908664 16.3374 0.908664 11.4436-0.686654 7.94709-3.88281 4.46142-7.09031 2.72412-11.5809 2.72412-17.3487 2.72412-23.0258 4.43294-27.4823 7.8561-30.7238 11.2908-33.9768 16.0084-35.6062 22.0034-35.6062 27.4646-35.6062 31.8417-33.9542 35.1286-30.6558 38.41-27.3688 40.0563-22.9805 40.0563-17.4851ZM28.6343-21.1637C28.6343-23.2812 28.0098-24.9843 26.7723-26.2729 25.5461-27.5731 23.9394-28.2259 21.9582-28.2259 19.7895-28.2259 18.0354-27.6184 16.6899-26.4093 15.3557-25.1943 14.5212-23.4459 14.1918-21.1637Z" fill="#0D856E" transform="matrix(1.01162 0 0 1 -1791.98 1591.97)"/><path d="M20.9149-15.6466C18.5985-15.6466 16.8557-15.2491 15.6918-14.4656 14.5225-13.6766 13.9434-12.5185 13.9434-10.9914 13.9434-9.58346 14.4089-8.47639 15.3513-7.67604 16.288-6.88692 17.5994-6.49521 19.2798-6.49521 21.3689-6.49521 23.1232-7.24458 24.5481-8.74337 25.9843-10.242 26.7055-12.1155 26.7055-14.375L26.7055-15.6467ZM37.9013-19.8476 37.9013-0.000871996 26.7062-0.000871996 26.7062-5.15567C25.2075-3.04951 23.527-1.51102 21.6649-0.545869 19.8028 0.419284 17.5377 0.907457 14.8751 0.907457 11.2701 0.907457 8.34079-0.142803 6.08697-2.24902 3.84449-4.34951 2.72615-7.07451 2.72615-10.424 2.72615-14.5114 4.12271-17.4977 6.92714-19.3938 9.74296-21.3013 14.1484-22.2551 20.1434-22.2551L26.706-22.2551 26.706-23.1407C26.706-24.8949 26.0078-26.1838 24.6169-27.001 23.2374-27.8186 21.0745-28.2274 18.1223-28.2274 15.7436-28.2274 13.5353-27.9832 11.4915-27.5007 9.44779-27.0294 7.54015-26.3199 5.76898-25.3659L5.76898-33.8362C8.15898-34.4266 10.5491-34.8636 12.9448-35.1532 15.3517-35.454 17.7476-35.6074 20.1433-35.6074 26.4221-35.6074 30.9524-34.3641 33.7228-31.8832 36.5047-29.4137 37.9012-25.4001 37.9012-19.8479Z" fill="#0D856E" transform="matrix(1.01162 0 0 1 -1748.36 1591.97)"/><path d="M17.485-44.6447 17.485-34.7666 28.93-34.7666 28.93-26.8187 17.485-26.8187 17.485-12.0805C17.485-10.4568 17.8028-9.36117 18.4388-8.78783 19.0745-8.22581 20.3462-7.94764 22.2537-7.94764L27.9762-7.94764 27.9762 0.000319732 18.4388 0.000319732C14.0447 0.000319732 10.9336-0.913692 9.1056-2.74734 7.27194-4.57533 6.35795-7.68633 6.35795-12.0805L6.35795-26.8187 0.839805-26.8187 0.839805-34.7666 6.35795-34.7666 6.35795-44.6447Z" fill="#0D856E" transform="matrix(1.01162 0 0 1 -1704.95 1591.97)"/><path d="M40.0566-17.485 40.0566-14.3058 14.0551-14.3058C14.3277-11.7 15.2644-9.74717 16.8709-8.44717 18.4889-7.14145 20.754-6.49419 23.6607-6.49419 25.9884-6.49419 28.3841-6.83482 30.8365-7.51606 33.289-8.20865 35.8096-9.26456 38.3984-10.6725L38.3984-2.11157C35.7756-1.11241 33.1527-0.36307 30.5186 0.136584 27.8844 0.647515 25.2559 0.908664 22.6388 0.908664 16.3374 0.908664 11.4436-0.686654 7.94709-3.88281 4.46142-7.09031 2.72412-11.5809 2.72412-17.3487 2.72412-23.0258 4.43294-27.4823 7.8561-30.7238 11.2908-33.9768 16.0084-35.6062 22.0034-35.6062 27.4646-35.6062 31.8417-33.9542 35.1286-30.6558 38.41-27.3688 40.0563-22.9805 40.0563-17.4851ZM28.6343-21.1637C28.6343-23.2812 28.0098-24.9843 26.7723-26.2729 25.5461-27.5731 23.9394-28.2259 21.9582-28.2259 19.7895-28.2259 18.0354-27.6184 16.6899-26.4093 15.3557-25.1943 14.5212-23.4459 14.1918-21.1637Z" fill="#0D856E" transform="matrix(1.01162 0 0 1 -1674.21 1591.97)"/><path d="M28.9983-29.6798 28.9983-48.2999 40.1706-48.2999 40.1706 0 28.9983 0 28.9983-5.01848C27.4653-2.97481 25.7794-1.47601 23.9342-0.522181 22.0835 0.431566 19.9489 0.908445 17.5306 0.908445 13.2445 0.908445 9.72464-0.794709 6.97132-4.20087 4.22933-7.60717 2.86117-11.9898 2.86117-17.349 2.86117-22.7082 4.22934-27.0908 6.97132-30.4971 9.72464-33.9034 13.2445-35.6064 17.5306-35.6064 19.9376-35.6064 22.0609-35.1182 23.9116-34.1531 25.7736-33.1994 27.4653-31.7062 28.9983-29.6796ZM21.6635-7.17653C24.0535-7.17653 25.8701-8.04512 27.1134-9.78801 28.368-11.5252 28.9983-14.0458 28.9983-17.3498 28.9983-20.6651 28.3681-23.1914 27.1134-24.9344 25.8701-26.6715 24.0535-27.5459 21.6635-27.5459 19.3018-27.5459 17.4907-26.6717 16.2361-24.9344 14.9929-23.1916 14.3742-20.6653 14.3742-17.3498 14.3742-14.0458 14.993-11.5252 16.2361-9.78801 17.4907-8.04518 19.3018-7.17653 21.6635-7.17653Z" fill="#0D856E" transform="matrix(1.01162 0 0 1 -1630.58 1591.97)"/><path d="M23.8433-7.17581C26.2163-7.17581 28.033-8.0444 29.2933-9.78729 30.5479-11.5244 31.1781-14.0451 31.1781-17.3491 31.1781-20.6644 30.548-23.1907 29.2933-24.9337 28.033-26.6708 26.2163-27.5452 23.8433-27.5452 21.4646-27.5452 19.6423-26.6653 18.3706-24.9111 17.0989-23.1682 16.4632-20.6476 16.4632-17.3493 16.4632-14.0623 17.0989-11.5416 18.3706-9.78743 19.6423-8.0446 21.4646-7.17595 23.8433-7.17595ZM16.4632-29.6791C17.9903-31.7058 19.6879-33.199 21.5498-34.1526 23.4118-35.1178 25.5521-35.606 27.9763-35.606 32.2567-35.606 35.7766-33.9027 38.5355-30.4967 41.2888-27.0904 42.6685-22.7076 42.6685-17.3486 42.6685-11.9894 41.289-7.60672 38.5355-4.20041 35.7766-0.794098 32.2567 0.90891 27.9763 0.90891 25.5521 0.90891 23.4119 0.420679 21.5498-0.544416 19.6877-1.50952 17.9903-3.00257 16.4632-5.0179L16.4632 0.000581331 5.33619 0.000581331 5.33619-48.2992 16.4632-48.2992Z" fill="#0D856E" transform="matrix(1.01162 0 0 1 -1562.15 1591.97)"/><path d="M0.77208-34.7665 11.899-34.7665 21.2322-11.1732 29.1802-34.7665 40.307-34.7665 25.6837 3.29324C24.2134 7.16505 22.4932 9.86722 20.5289 11.4 18.5759 12.9442 15.9929 13.7164 12.7854 13.7164L6.35896 13.7164 6.35896 6.42705 9.83328 6.42705C11.7238 6.42705 13.0919 6.12048 13.9434 5.51872 14.8064 4.9283 15.4763 3.84972 15.9645 2.29408L16.2596 1.34033Z" fill="#0D856E" transform="matrix(1.01162 0 0 1 -1516.11 1591.97)"/><path d="M0.317916-46.3481 43.0326-46.3481 43.0326-37.3101 27.6594-37.3101 27.6594-0.000290665 15.7147-0.000290665 15.7147-37.3101 0.318205-37.3101Z" fill="#0D856E" transform="matrix(1.01162 0 0 1 -1451.79 1591.97)"/><path d="M5.33647-34.7665 16.4634-34.7665 16.4634 0 5.33647 0ZM5.33647-48.3007 16.4634-48.3007 16.4634-39.24 5.33647-39.24Z" fill="#0D856E" transform="matrix(1.01162 0 0 1 -1407.91 1591.97)"/><path d="M16.4633-5.01848 16.4633 13.2164 5.33633 13.2164 5.33633-34.7666 16.4633-34.7666 16.4633-29.68C17.9904-31.7066 19.688-33.1998 21.55-34.1535 23.4119-35.1186 25.5522-35.6068 27.9765-35.6068 32.2569-35.6068 35.7767-33.9037 38.5357-30.4975 41.289-27.0912 42.6687-22.7086 42.6687-17.3494 42.6687-11.9902 41.2891-7.60758 38.5357-4.20128 35.7767-0.79497 32.2569 0.90804 27.9765 0.90804 25.5522 0.90804 23.4121 0.419809 21.55-0.545288 19.6879-1.51038 17.9904-3.00345 16.4633-5.01878ZM23.8435-27.5451C21.4647-27.5451 19.6425-26.6652 18.3708-24.9109 17.0991-23.1681 16.4633-20.6475 16.4633-17.3491 16.4633-14.0621 17.0991-11.5415 18.3708-9.78729 19.6425-8.04446 21.4647-7.17581 23.8435-7.17581 26.2164-7.17581 28.0331-8.0444 29.2934-9.78729 30.548-11.5244 31.1783-14.0451 31.1783-17.3491 31.1783-20.6644 30.5481-23.1907 29.2934-24.9337 28.0331-26.6708 26.2164-27.5452 23.8435-27.5452Z" fill="#0D856E" transform="matrix(1.01162 0 0 1 -1385.86 1591.97)"/><path d="M16.4633-5.01848 16.4633 13.2164 5.33633 13.2164 5.33633-34.7666 16.4633-34.7666 16.4633-29.68C17.9904-31.7066 19.688-33.1998 21.55-34.1535 23.4119-35.1186 25.5522-35.6068 27.9765-35.6068 32.2569-35.6068 35.7767-33.9037 38.5357-30.4975 41.289-27.0912 42.6687-22.7086 42.6687-17.3494 42.6687-11.9902 41.2891-7.60758 38.5357-4.20128 35.7767-0.79497 32.2569 0.90804 27.9765 0.90804 25.5522 0.90804 23.4121 0.419809 21.55-0.545288 19.6879-1.51038 17.9904-3.00345 16.4633-5.01878ZM23.8435-27.5451C21.4647-27.5451 19.6425-26.6652 18.3708-24.9109 17.0991-23.1681 16.4633-20.6475 16.4633-17.3491 16.4633-14.0621 17.0991-11.5415 18.3708-9.78729 19.6425-8.04446 21.4647-7.17581 23.8435-7.17581 26.2164-7.17581 28.0331-8.0444 29.2934-9.78729 30.548-11.5244 31.1783-14.0451 31.1783-17.3491 31.1783-20.6644 30.5481-23.1907 29.2934-24.9337 28.0331-26.6708 26.2164-27.5452 23.8435-27.5452Z" fill="#0D856E" transform="matrix(1.01162 0 0 1 -1339.81 1591.97)"/><path d="M20.9149-15.6466C18.5985-15.6466 16.8557-15.2491 15.6918-14.4656 14.5225-13.6766 13.9434-12.5185 13.9434-10.9914 13.9434-9.58346 14.4089-8.47639 15.3513-7.67604 16.288-6.88692 17.5994-6.49521 19.2798-6.49521 21.3689-6.49521 23.1232-7.24458 24.5481-8.74337 25.9843-10.242 26.7055-12.1155 26.7055-14.375L26.7055-15.6467ZM37.9013-19.8476 37.9013-0.000871996 26.7062-0.000871996 26.7062-5.15567C25.2075-3.04951 23.527-1.51102 21.6649-0.545869 19.8028 0.419284 17.5377 0.907457 14.8751 0.907457 11.2701 0.907457 8.34079-0.142803 6.08697-2.24902 3.84449-4.34951 2.72615-7.07451 2.72615-10.424 2.72615-14.5114 4.12271-17.4977 6.92714-19.3938 9.74296-21.3013 14.1484-22.2551 20.1434-22.2551L26.706-22.2551 26.706-23.1407C26.706-24.8949 26.0078-26.1838 24.6169-27.001 23.2374-27.8186 21.0745-28.2274 18.1223-28.2274 15.7436-28.2274 13.5353-27.9832 11.4915-27.5007 9.44779-27.0294 7.54015-26.3199 5.76898-25.3659L5.76898-33.8362C8.15898-34.4266 10.5491-34.8636 12.9448-35.1532 15.3517-35.454 17.7476-35.6074 20.1433-35.6074 26.4221-35.6074 30.9524-34.3641 33.7228-31.8832 36.5047-29.4137 37.9012-25.4001 37.9012-19.8479Z" fill="#0D856E" transform="matrix(1.01162 0 0 1 -1293.77 1591.97)"/><path d="M2.22533-34.7665 13.0345-34.7665 18.8704-10.8098 24.7519-34.7665 34.0169-34.7665 39.8529-11.0598 45.7344-34.7665 56.5435-34.7665 47.3693 0 35.243 0 29.3615-23.9116 23.5256 0 11.3993 0Z" fill="#0D856E" transform="matrix(1.01162 0 0 1 -1250.37 1591.97)"/><path d="M20.9149-15.6466C18.5985-15.6466 16.8557-15.2491 15.6918-14.4656 14.5225-13.6766 13.9434-12.5185 13.9434-10.9914 13.9434-9.58346 14.4089-8.47639 15.3513-7.67604 16.288-6.88692 17.5994-6.49521 19.2798-6.49521 21.3689-6.49521 23.1232-7.24458 24.5481-8.74337 25.9843-10.242 26.7055-12.1155 26.7055-14.375L26.7055-15.6467ZM37.9013-19.8476 37.9013-0.000871996 26.7062-0.000871996 26.7062-5.15567C25.2075-3.04951 23.527-1.51102 21.6649-0.545869 19.8028 0.419284 17.5377 0.907457 14.8751 0.907457 11.2701 0.907457 8.34079-0.142803 6.08697-2.24902 3.84449-4.34951 2.72615-7.07451 2.72615-10.424 2.72615-14.5114 4.12271-17.4977 6.92714-19.3938 9.74296-21.3013 14.1484-22.2551 20.1434-22.2551L26.706-22.2551 26.706-23.1407C26.706-24.8949 26.0078-26.1838 24.6169-27.001 23.2374-27.8186 21.0745-28.2274 18.1223-28.2274 15.7436-28.2274 13.5353-27.9832 11.4915-27.5007 9.44779-27.0294 7.54015-26.3199 5.76898-25.3659L5.76898-33.8362C8.15898-34.4266 10.5491-34.8636 12.9448-35.1532 15.3517-35.454 17.7476-35.6074 20.1433-35.6074 26.4221-35.6074 30.9524-34.3641 33.7228-31.8832 36.5047-29.4137 37.9012-25.4001 37.9012-19.8479Z" fill="#0D856E" transform="matrix(1.01162 0 0 1 -1190.95 1591.97)"/><path d="M40.3066-21.1634 40.3066 0 29.1115 0 29.1115-16.2132C29.1115-19.2108 29.0434-21.2773 28.9071-22.4126 28.7821-23.548 28.5551-24.3882 28.2258-24.9333 27.783-25.6599 27.1925-26.2163 26.4546-26.6136 25.7108-27.0224 24.8648-27.2268 23.9112-27.2268 21.5949-27.2268 19.7669-26.3298 18.4386-24.5471 17.1214-22.7588 16.4629-20.278 16.4629-17.0988L16.4629 0.0010464 5.33593 0.0010464 5.33593-34.7655 16.4629-34.7655 16.4629-29.6788C18.1262-31.7055 19.8976-33.1987 21.7765-34.1524 23.6671-35.1173 25.7562-35.6057 28.044-35.6057 32.0521-35.6057 35.095-34.368 37.1727-31.9041 39.2618-29.4517 40.3063-25.8695 40.3063-21.1632Z" fill="#0D856E" transform="matrix(1.01162 0 0 1 -1147.54 1591.97)"/><path d="M38.1048-44.8947 38.1048-35.0848C35.5445-36.2201 33.0521-37.0717 30.6338-37.6508 28.2097-38.2412 25.9218-38.5364 23.7759-38.5364 20.9261-38.5364 18.814-38.1391 17.4403-37.3556 16.0777-36.5664 15.3965-35.3402 15.3965-33.6769 15.3965-32.4336 15.8563-31.4629 16.7817-30.7702 17.7014-30.089 19.3762-29.4986 21.8003-28.999L26.8868-27.977C32.0303-26.9325 35.6977-25.3542 37.8777-23.2538 40.0577-21.1475 41.1476-18.1501 41.1476-14.2612 41.1476-9.14064 39.6262-5.33699 36.5834-2.83902 33.5518-0.341037 28.9194 0.907806 22.6858 0.907806 19.7452 0.907806 16.7931 0.623957 13.8296 0.0676088 10.8776-0.48874 7.92546-1.32327 4.97332-2.43037L4.97332-12.5128C7.92532-10.9347 10.7753-9.74816 13.5343-8.94767 16.3046-8.15856 18.9729-7.76684 21.5502-7.76684 24.1505-7.76684 26.143-8.1983 27.5226-9.0612 28.9135-9.93546 29.6117-11.1787 29.6117-12.7853 29.6117-14.2386 29.1405-15.357 28.2037-16.1461 27.2614-16.9296 25.388-17.6335 22.5722-18.258L17.9397-19.2799C13.3072-20.279 9.91238-21.8572 7.76639-24.0258 5.63175-26.2058 4.56457-29.1352 4.56457-32.8139 4.56457-37.4295 6.0519-40.9776 9.03805-43.4642 12.0185-45.945 16.3047-47.1883 21.891-47.1883 24.4343-47.1883 27.0515-46.9953 29.748-46.6206 32.4389-46.2402 35.2263-45.6668 38.1046-44.8947Z" fill="#0D856E" transform="matrix(1.01162 0 0 1 -1079.35 1591.97)"/><path d="M21.89-27.6583C19.4206-27.6583 17.5357-26.7726 16.2357-25.0014 14.9471-23.2302 14.3055-20.6754 14.3055-17.3488 14.3055-14.0163 14.9471-11.4673 16.2357-9.69616 17.5357-7.92485 19.4206-7.03934 21.89-7.03934 24.3085-7.03934 26.1592-7.92496 27.4309-9.69616 28.7139-11.4675 29.361-14.0165 29.361-17.3488 29.361-20.6756 28.7139-23.2303 27.4309-25.0014 26.1592-26.7727 24.3085-27.6583 21.89-27.6583ZM21.89-35.6062C27.868-35.6062 32.5401-33.9939 35.901-30.7693 39.2618-27.5449 40.9423-23.0713 40.9423-17.3488 40.9423-11.6377 39.2619-7.16418 35.901-3.9282 32.5401-0.703555 27.868 0.90862 21.89 0.90862 15.878 0.90862 11.1774-0.703701 7.78824-3.9282 4.41041-7.16418 2.72426-11.6377 2.72426-17.3488 2.72426-23.0713 4.41041-27.5448 7.78824-30.7693 11.1774-33.994 15.878-35.6062 21.89-35.6062Z" fill="#0D856E" transform="matrix(1.01162 0 0 1 -1033.03 1591.97)"/><path d="M21.89-27.6583C19.4206-27.6583 17.5357-26.7726 16.2357-25.0014 14.9471-23.2302 14.3055-20.6754 14.3055-17.3488 14.3055-14.0163 14.9471-11.4673 16.2357-9.69616 17.5357-7.92485 19.4206-7.03934 21.89-7.03934 24.3085-7.03934 26.1592-7.92496 27.4309-9.69616 28.7139-11.4675 29.361-14.0165 29.361-17.3488 29.361-20.6756 28.7139-23.2303 27.4309-25.0014 26.1592-26.7727 24.3085-27.6583 21.89-27.6583ZM21.89-35.6062C27.868-35.6062 32.5401-33.9939 35.901-30.7693 39.2618-27.5449 40.9423-23.0713 40.9423-17.3488 40.9423-11.6377 39.2619-7.16418 35.901-3.9282 32.5401-0.703555 27.868 0.90862 21.89 0.90862 15.878 0.90862 11.1774-0.703701 7.78824-3.9282 4.41041-7.16418 2.72426-11.6377 2.72426-17.3488 2.72426-23.0713 4.41041-27.5448 7.78824-30.7693 11.1774-33.994 15.878-35.6062 21.89-35.6062Z" fill="#0D856E" transform="matrix(1.01162 0 0 1 -988.847 1591.97)"/></g></g></g></g><text fill="#0D856E" font-family="Montserrat Alternates,Montserrat Alternates_MSFontService,sans-serif" font-weight="700" font-size="92" transform="matrix(1 0 0 1 -1762.65 1594)">3D <tspan font-size="92" x="148.958" y="0">Modeling</tspan><tspan font-size="92" x="14.3229" y="110">&amp; Animation</tspan></text></g></svg>